/* XPM */
static char *da3ff1d9987142de9254964197801a31ap3sEuOMv7pBwLv5[] = {
/* columns rows colors chars-per-pixel */
"50 50 35 1 ",
"  c #FDBADD",
". c #FFBADF",
"X c #FDBEDE",
"o c #FFBBE1",
"O c #FFBEE2",
"+ c #FDC3E1",
"@ c #FFC1E3",
"# c #FEC3E3",
"$ c #FEC6E3",
"% c #FFC6E4",
"& c #FFC7E7",
"* c #FCC8E3",
"= c #FEC9E4",
"- c #FDCBE4",
"; c #FECAE5",
": c #F9CDE4",
"> c #FDCDE6",
", c #FFCCE7",
"< c #FDCEE7",
"1 c #FFCBE8",
"2 c #FFCBEA",
"3 c #FFCFE8",
"4 c #FFCEEB",
"5 c #FED0E7",
"6 c #FFD0E9",
"7 c #FFD5EA",
"8 c #FFD3EC",
"9 c #FFD2EE",
"0 c #FFD7EE",
"q c #FFD6EF",
"w c #FFD8EC",
"e c #FFD9EF",
"r c #FFDBEF",
"t c #FFDAF0",
"y c #FFDCF0",
/* pixels */
"313386,76676;66;,e6,333;;8008003301166481%%##;1%13",
",%33300700e76,66,6ee3%44300q08q3%&1q8333461131%%33",
"638830816366,,77,776q;881%181#;0&1488333;634q843;3",
"3,3613631;3366$,e7e6363%%1;38338838318416%%3%131%%",
"06;,16ett6,;03;0ee7e6,31335,731;133#%11%3411113%#3",
"7606%303%700004575556733%33,33%;8333131%%83%61338%",
"e7600376,73;10,666e6666063e60q3;3&1333%333%3666331",
"30088760e763667ee0wete33t8660qt63;3331383111;;6118",
"1q66e0,,07:3e0766607033%#38083888063333333%3;,5,;;",
"3606;%6e000ee6306177733;%%&3;%306;%;34%184333,,;OX",
"3333;;606,6,;7e677730308113434836;3638&1883&66683;",
"t0635,0675,5,eee78tt6348q038q336661333863343331;30",
"37667630ee6e666ee6663863801;63;3113311;3461683;111",
"0e66063377;e0%36766603363633;3;33386333%13333qqq1o",
"3037706,ee7,37168800684483;3,,31383868863666;%4833",
"300800060rye3t,3803;686%;100666,1386116q31361;3331",
",07e,e0688q380t630368630%188388366338634814333%%1;",
";5,ee7ee,*70330006ye30163%;141486633331%341qq31331",
"e,,66e0et03300q038te83880036300006331%;;3;&&988888",
"650eee86000;31;6356603431736333130333;333%oo;83#11",
"383808330076307634%1;31%%338338;7703&3363;%%+;# %3",
"883;38006e0000061333311%#3831366t6;4406;103313333;",
"308333<388038t0888%#388%&3633666388338613434838313",
"130q8888136%180338q334341118831313q836003133180831",
";13666073333333;6364631;1%1831331;%8313841;8063601",
"1;336666003388tq08333488883%;33q03;603;3683;%;;;;1",
";13760t334083688;%68q0631338048q0833366803%;;%;1;;",
"33680060083083%38666488831338883q883;;366631486880",
";33%103330463;%%384333;14881384;4881833;308041080q",
"883136888888366%%431483&18033343118q8883;%36718613",
"888330q031188388848488881#;3338631383311;3%860661;",
"108388886;608838;%1431333%1343;33%;041301131633683",
"&%00;8883%3q;03313%#311%88338443333183444383;33831",
"1%3683880q33;6388331;;3313;1%3qe8383133334&3383331",
"88668118833381%3831#;33433383;13414333118033888334",
"3806133883381;%1388413&#;83133113331484344q8804q88",
"%%33881;%13%%;433%3433;;O%413483113314633388331188",
"344388333331;1%%#%13181&#%33330q314831%31&48380033",
"1134348414313%1#%111114111;1881383113111#%13%%8383",
";333133&111311313131#%3331%#1;#14;3484%111%#181%18",
"8431%1833%134343311&11%;8383131131333314q88813%333",
"13384;1331%1831111;##%;1##831;;%111333880888813833",
"%31&11%1331#3311111%%%3&%111383&%13&%88;;88340833q",
"11;%31%3841#oO%%341118331143131;31431311%;13333118",
"%13;1841144411;1;1111;11%11;%#13;38443433838q88083",
"&%13%1313333313%%o;11111%11311113311388q03338qq883",
"4#oo##%1O%;1&#%;;1%1141113133144433418818;;3638888",
"134%o%11111148131%314311%#%13%#3488313;34880601143",
"#1%111%3131;#%%%&%#&#1%%%;1181#%313343138248888836",
"1&11%#&&1;3%%##1111%&3111311%88%184313883#23488836"
};
