/* XPM */
static char *_627124512943[] = {
/* columns rows colors chars-per-pixel */
"50 50 103 2 ",
"   c #F5AF00",
".  c #F6B400",
"X  c #F9B600",
"o  c #F7BC02",
"O  c #FDBC01",
"+  c #F8BE0A",
"@  c #F6C401",
"#  c #FEC401",
"$  c #F7CF00",
"%  c #FECB02",
"&  c #FAC40C",
"*  c #FECC0B",
"=  c #FED402",
"-  c #FFDA03",
";  c #FED20D",
":  c #FFDA0A",
">  c #FBC314",
",  c #FCCD13",
"<  c #FCCD1C",
"1  c #FED313",
"2  c #FFDC14",
"3  c #FFD31B",
"4  c #FFDC1B",
"5  c #FFE204",
"6  c #FFE309",
"7  c #FFE908",
"8  c #FFED13",
"9  c #FFE419",
"0  c #FACD24",
"q  c #FCCD2B",
"w  c #F7D726",
"e  c #FFD423",
"r  c #FED924",
"t  c #FCD32D",
"y  c #FDDA2D",
"u  c #FED434",
"i  c #FFD934",
"p  c #FCD53C",
"a  c #FEDB3C",
"s  c #FFE22D",
"d  c #FFEE29",
"f  c #FFF62E",
"g  c #FFE232",
"h  c #FFE830",
"j  c #FFE03D",
"k  c #FFF239",
"l  c #FAD444",
"z  c #FDDC43",
"x  c #FEDD4C",
"c  c #FDDC52",
"v  c #FDDE5A",
"b  c #FEE243",
"n  c #FFE34B",
"m  c #FFE94C",
"M  c #FFF14D",
"N  c #FFE454",
"B  c #FFE955",
"V  c #FFE45A",
"C  c #FFEB5C",
"Z  c #FFF254",
"A  c #FFFC50",
"S  c #FFF55A",
"D  c #FFFB5C",
"F  c #FBDC65",
"G  c #FFE662",
"H  c #FFEB63",
"J  c #FEE56B",
"K  c #FFEB6B",
"L  c #FFF263",
"P  c #FFF66E",
"I  c #FFFB6B",
"U  c #FCE175",
"Y  c #FFED73",
"T  c #FFEC7B",
"R  c #FFF074",
"E  c #FFFB71",
"W  c #FFF07E",
"Q  c #FFFF78",
"!  c #FFED82",
"~  c #FFEE8B",
"^  c #FFF183",
"/  c #FFFF83",
"(  c #FFF28B",
")  c #FFFE88",
"_  c #FFEF94",
"`  c #FFF393",
"'  c #FFFF92",
"]  c #FFF39B",
"[  c #FFFF99",
"{  c #FFF4A2",
"}  c #FFFFA2",
"|  c #FFF5AB",
" . c #FFF6B3",
".. c #FFF7BC",
"X. c #FFF8BD",
"o. c #FFF6C1",
"O. c #FFF8C1",
"+. c #FFF7C8",
"@. c #FFF9CD",
"#. c #FFFAD3",
"$. c #FFFBDC",
"%. c #FFFCE8",
"&. c None",
/* pixels */
"&.&.&.&.&.&.&.&.&.&.&.&.&.&.&.&.&.&.&.&.&.&.&.&.&.&.&.&.&.&.&.&.&.&.&.&.&.&.&.&.&.&.&.&.&.&.&.&.&.&.",
"&.&.&.&.&.&.&.&.&.&.&.&.&.&.&.&.&.&.&.&.&.&.&.&.&.&.&.&.&.&.&.&.&.&.&.&.&.&.&.&.&.&.&.&.&.&.&.&.&.&.",
"&.&.&.&.&.&.&.&.&.&.&.&.&.&.&.&.&.&.&.&.&.&.&.&.&.&.&.&.&.&.&.&.&.&.&.&.&.&.&.&.&.&.&.&.&.&.&.&.&.&.",
"&.&.&.&.&.&.&.&.&.&.&.&.&.&.&.&.&.&.&.&.&.&.&.&.&.&.&.&.&.&.&.&.&.&.&.&.&.&.&.&.&.&.&.&.&.&.&.&.&.&.",
"&.&.&.&.&.&.&.&.&.&.&.&.&.&.&.&.&.&.&.&.&.&.&.&.&.&.&.&.&.&.&.&.&.&.&.&.&.&.&.&.&.&.&.&.&.&.&.&.&.&.",
"&.&.&.&.&.&.&.&.&.&.&.&.&.&.&.&.&.&.&.&.&.&.&.&.&.&.&.&.&.&.&.&.&.&.&.&.&.&.&.&.&.&.&.&.&.&.&.&.&.&.",
"&.&.&.&.&.&.&.&.&.&.&.&.&.&.&.&.&.&.&.&.&.&.&.&.&.&.&.&.&.&.&.&.&.&.&.&.&.&.&.&.&.&.&.&.&.&.&.&.&.&.",
"&.&.&.&.&.&.&.&.&.&.&.&.&.&.&.&.&.&.&.&.&.- = i v &.&.&.&.&.&.&.&.&.&.&.&.&.&.&.&.&.&.&.&.&.&.&.&.&.",
"&.&.&.&.&.&.&.&.&.&.&.&.&.&.&.&.&.&.&.- 8 S m B R S u &.&.&.&.&.&.&.&.&.&.&.&.&.&.&.&.&.&.&.&.&.&.&.",
"&.&.&.&.&.&.&.&.&.&.&.&.&.&.&.&.&.&.b / L ] { Y v x n H &.&.&.&.&.&.&.&.&.&.&.&.&.&.&.&.&.&.&.&.&.&.",
"&.&.&.&.&.&.&.&.&.&.&.&.&.&.&.&.&.B ) X.] ` W ` _ 4 % J P u &.&.&.&.&.&.&.&.&.&.&.&.&.&.&.&.&.&.&.&.",
"&.&.&.&.&.&.&.&.&.&.&.&.&.&.&.&.! } ` ] X.X.R B Y b y ! c g &.&.&.&.&.&.&.&.&.&.&.&.&.&.&.&.&.&.&.&.",
"&.&.&.&.&.&.&.&.&.&.&.&.&.&.&.G '  .{ (  .X.` R L ! ` Y # < x &.&.&.&.&.&.&.&.&.&.&.&.&.&.&.&.&.&.&.",
"&.&.&.&.&.&.&.&.&.&.&.&.&.&.&.Q Y  .|  .O... . .X...T % # z M 0 &.&.&.&.&.&.&.&.&.&.&.&.&.&.&.&.&.&.",
"&.&.&.&.&.&.&.&.&.&.&.&.&.&.J L L `  .+.#.#.@.O.{ H 4 = a C a : &.&.&.&.&.&.&.&.&.&.&.&.&.&.&.&.&.&.",
"&.&.&.&.&.&.&.&.&.&.&.&.&.t E ~ { X.#.#.$.$.O.] L C H V C m > # 3 &.&.&.&.&.&.&.&.&.&.&.&.&.&.&.&.&.",
"&.&.&.&.&.&.&.&.&.&.&.&.&.J { ......X.#.%.$.o.{ ] ] ` K z < # O 9 &.&.&.&.&.&.&.&.&.&.&.&.&.&.&.&.&.",
"&.&.&.&.&.&.&.&.&.&.&.&.n I T Y P (  .#.$.#.O... .{ ! z % # e 0 % @ &.&.&.&.&.&.&.&.&.&.&.&.&.&.&.&.",
"&.&.&.&.&.&.&.&.&.&.&.&.# - a C ! { X.@.@.+.X.| _ K n r % # # 3 , = &.&.&.&.&.&.&.&.&.&.&.&.&.&.&.&.",
"&.&.&.&.&.&.&.&.&.&.&.&.# a Y ~ {  .X.o.o. .{ ^ H m x g y * O * + 6 = &.&.&.&.&.&.&.&.&.&.&.&.&.&.&.",
"&.&.&.&.&.&.&.&.&.&.&.&.f N ! ` ] ] ] { ] ] ( ^ H N a 3 e 3 * * + % $ &.&.&.&.&.&.&.&.&.&.&.&.&.&.&.",
"&.&.&.&.&.&.&.&.&.&.&.s f a G G J Y W ^ ( W ~ ~ K m u 1 ; # * * % # @ &.&.&.&.&.&.&.&.&.&.&.&.&.&.&.",
"&.&.&.&.&.&.&.&.&.&.&.1 : # u c V T ~ T R K Y Y G V r % 3 # X # = @ = &.&.&.&.&.&.&.&.&.&.&.&.&.&.&.",
"&.&.&.&.&.&.&.&.&.&.&.O # % r c V J T T K H K G b i 3 = ; # o . @ @ - &.&.&.&.&.&.&.&.&.&.&.&.&.&.&.",
"&.&.&.&.&.&.&.&.&.&.&.# % , : q x G G G K C N V a % % * : # . . . @ 7 &.&.&.&.&.&.&.&.&.&.&.&.&.&.&.",
"&.&.&.&.&.&.&.&.&.&.&.% % * ; = t c V n V V n a * % # # % @ X @ = : 7 &.&.&.&.&.&.&.&.&.&.&.&.&.&.&.",
"&.&.&.&.&.&.&.&.&.&.&.% % # % % % 3 i u u u r = % # # O # @ % = : 2 7 &.&.&.&.&.&.&.&.&.&.&.&.&.&.&.",
"&.&.&.&.&.&.&.&.&.&.&.# - % # O = = % # % # # % # # % % = - : 2 1 * - &.&.&.&.&.&.&.&.&.&.&.&.&.&.&.",
"&.&.&.&.&.&.&.&.&.&.&.# = = # O # * * # # # * % $ = - - - ; 1 , @ = r &.&.&.&.&.&.&.&.&.&.&.&.&.&.&.",
"&.&.&.&.&.&.&.&.&.&.&.&.= % # O O O # % $ = = - - - : ; * & o o @ h n &.&.&.&.&.&.&.&.&.&.&.&.&.&.&.",
"&.&.&.&.&.&.&.&.&.&.&.&.# O # # % = = : - : : ; * * & o . . o , z D B &.&.&.&.&.&.&.&.&.&.&.&.&.&.&.",
"&.&.&.&.&.&.&.&.&.&.&.&., 9 3 9 4 2 2 1 ; , & & . .   . o 0 a N N m &.&.&.&.&.&.&.&.&.&.&.&.&.&.&.&.",
"&.&.&.&.&.&.&.&.&.&.&.&.&.k s y e < > + . .   . . & q p n N N b A C &.&.&.&.&.&.&.&.&.&.&.&.&.&.&.&.",
"&.&.&.&.&.&.&.&.&.&.&.&.&.u 3 o .       . + 0 p z n n N n z y 5 P &.&.&.&.&.&.&.&.&.&.&.&.&.&.&.&.&.",
"&.&.&.&.&.&.&.&.&.&.&.&.&.&.@ # @ q p x V N N N n l u 0 $ l H Q &.&.&.&.&.&.&.&.&.&.&.&.&.&.&.&.&.&.",
"&.&.&.&.&.&.&.&.&.&.&.&.&.&.&.K Y J J V x l l 0 @ @ F V - B } ] &.&.&.&.&.&.&.&.&.&.&.&.&.&.&.&.&.&.",
"&.&.&.&.&.&.&.&.&.&.&.&.&.&.&.&.H m < 0 l @ q U l w V Y ^ [ ] &.&.&.&.&.&.&.&.&.&.&.&.&.&.&.&.&.&.&.",
"&.&.&.&.&.&.&.&.&.&.&.&.&.&.&.&.&.t Z m J c v H H ! L [ | &.&.&.&.&.&.&.&.&.&.&.&.&.&.&.&.&.&.&.&.&.",
"&.&.&.&.&.&.&.&.&.&.&.&.&.&.&.&.&.&.&.Y ^ / ' ) / } ` ] &.&.&.&.&.&.&.&.&.&.&.&.&.&.&.&.&.&.&.&.&.&.",
"&.&.&.&.&.&.&.&.&.&.&.&.&.&.&.&.&.&.&.&.&.&.^ ` &.&.&.&.&.&.&.&.&.&.&.&.&.&.&.&.&.&.&.&.&.&.&.&.&.&.",
"&.&.&.&.&.&.&.&.&.&.&.&.&.&.&.&.&.&.&.&.&.&.&.&.&.&.&.&.&.&.&.&.&.&.&.&.&.&.&.&.&.&.&.&.&.&.&.&.&.&.",
"&.&.&.&.&.&.&.&.&.&.&.&.&.&.&.&.&.&.&.&.&.&.&.&.&.&.&.&.&.&.&.&.&.&.&.&.&.&.&.&.&.&.&.&.&.&.&.&.&.&.",
"&.&.&.&.&.&.&.&.&.&.&.&.&.&.&.&.&.&.&.&.&.&.&.&.&.&.&.&.&.&.&.&.&.&.&.&.&.&.&.&.&.&.&.&.&.&.&.&.&.&.",
"&.&.&.&.&.&.&.&.&.&.&.&.&.&.&.&.&.&.&.&.&.&.&.&.&.&.&.&.&.&.&.&.&.&.&.&.&.&.&.&.&.&.&.&.&.&.&.&.&.&.",
"&.&.&.&.&.&.&.&.&.&.&.&.&.&.&.&.&.&.&.&.&.&.&.&.&.&.&.&.&.&.&.&.&.&.&.&.&.&.&.&.&.&.&.&.&.&.&.&.&.&.",
"&.&.&.&.&.&.&.&.&.&.&.&.&.&.&.&.&.&.&.&.&.&.&.&.&.&.&.&.&.&.&.&.&.&.&.&.&.&.&.&.&.&.&.&.&.&.&.&.&.&.",
"&.&.&.&.&.&.&.&.&.&.&.&.&.&.&.&.&.&.&.&.&.&.&.&.&.&.&.&.&.&.&.&.&.&.&.&.&.&.&.&.&.&.&.&.&.&.&.&.&.&.",
"&.&.&.&.&.&.&.&.&.&.&.&.&.&.&.&.&.&.&.&.&.&.&.&.&.&.&.&.&.&.&.&.&.&.&.&.&.&.&.&.&.&.&.&.&.&.&.&.&.&.",
"&.&.&.&.&.&.&.&.&.&.&.&.&.&.&.&.&.&.&.&.&.&.&.&.&.&.&.&.&.&.&.&.&.&.&.&.&.&.&.&.&.&.&.&.&.&.&.&.&.&.",
"&.&.&.&.&.&.&.&.&.&.&.&.&.&.&.&.&.&.&.&.&.&.&.&.&.&.&.&.&.&.&.&.&.&.&.&.&.&.&.&.&.&.&.&.&.&.&.&.&.&."
};
