/* XPM */
static char *_627124546785[] = {
/* columns rows colors chars-per-pixel */
"50 50 243 2 ",
"   c #BD0000",
".  c #BE171B",
"X  c #BE211F",
"o  c #C80402",
"O  c #D60000",
"+  c #CB1300",
"@  c #CA1C00",
"#  c #DA1500",
"$  c #CB131B",
"%  c #CE0D18",
"&  c #E40000",
"*  c #E31800",
"=  c #F61B04",
"-  c #FC0000",
";  c #CC2400",
":  c #DB2300",
">  c #C9291E",
",  c #EE2F00",
"<  c #D30727",
"1  c #CE0E2D",
"2  c #F70933",
"3  c #D1252A",
"4  c #EB312E",
"5  c #FA6B00",
"6  c #FB7400",
"7  c #FC7D00",
"8  c #F66D18",
"9  c #FC7A1A",
"0  c #F87926",
"q  c #F66D28",
"w  c #E64E24",
"e  c #BD0047",
"r  c #C60957",
"t  c #FA0651",
"y  c #CB0666",
"u  c #F32D51",
"i  c #BD4158",
"p  c #EC564B",
"a  c #F6704C",
"s  c #C45E62",
"d  c #E65E73",
"f  c #CD6F6D",
"g  c #ED7675",
"h  c #F6726E",
"j  c #D86356",
"k  c #4CB700",
"l  c #61BC00",
"z  c #6FBD27",
"x  c #5DC200",
"c  c #6CC807",
"v  c #7CCA37",
"b  c #80BB1A",
"n  c #FE8300",
"m  c #FD8D00",
"M  c #FE9500",
"N  c #FE9E00",
"B  c #FD8718",
"V  c #FD9627",
"C  c #FBB837",
"Z  c #91D700",
"A  c #80CC00",
"S  c #A7DC00",
"D  c #97CC2A",
"F  c #BEEB0F",
"G  c #FACB00",
"H  c #F6C500",
"J  c #FFD900",
"K  c #FCD600",
"L  c #FFF300",
"P  c #FFE900",
"I  c #FACB2B",
"U  c #FFF83D",
"Y  c #C7E72B",
"T  c #859A43",
"R  c #91A865",
"E  c #91A86B",
"W  c #FEBA46",
"Q  c #F3B256",
"!  c #DD9E78",
"~  c #F1896E",
"^  c #EFAE6D",
"/  c #FA9A53",
"(  c #F9C947",
")  c #FCC859",
"_  c #FFD650",
"`  c #FFE449",
"'  c #FFE857",
"]  c #FFFC4A",
"[  c #FCCB64",
"{  c #FCD56A",
"}  c #FFDC7B",
"|  c #D9F467",
" . c #FFE969",
".. c #FFF967",
"X. c #FFE778",
"o. c #FFF979",
"O. c #E3FB73",
"+. c #DAE459",
"@. c #007DFC",
"#. c #006EFA",
"$. c #2872F6",
"%. c #7763E2",
"&. c #B50195",
"*. c #B90A92",
"=. c #B705AA",
"-. c #AD00BC",
";. c #B500B4",
":. c #B300BC",
">. c #BA00BB",
",. c #BB10A5",
"<. c #BE39B9",
"1. c #BA2992",
"2. c #C80898",
"3. c #CD0A8A",
"4. c #E00084",
"5. c #D0318A",
"6. c #FF339E",
"7. c #D101AC",
"8. c #EF0BB0",
"9. c #CA34B0",
"0. c #F935BB",
"q. c #B560A0",
"w. c #D64C93",
"e. c #CA7798",
"r. c #DF6093",
"t. c #EE728F",
"y. c #D145B5",
"u. c #F84CB6",
"i. c #CA6FAF",
"p. c #F275B5",
"a. c #AE00C3",
"s. c #AC04C8",
"d. c #B400CC",
"f. c #BB00CC",
"g. c #B801C2",
"h. c #BD03D5",
"j. c #B512C6",
"k. c #AA31D0",
"l. c #8A26DB",
"z. c #C200C5",
"x. c #C500CC",
"c. c #CB05CB",
"v. c #C200D2",
"b. c #CC01DA",
"n. c #C503D4",
"m. c #D400D6",
"M. c #D501DC",
"N. c #D900DC",
"B. c #CD15D7",
"V. c #C62AD9",
"C. c #D400E1",
"Z. c #DC02E4",
"A. c #D908E6",
"S. c #D817E6",
"D. c #C900E9",
"F. c #E501E9",
"G. c #EA00F7",
"H. c #F800FB",
"J. c #F017F4",
"K. c #DE2FEF",
"L. c #EC31F4",
"P. c #9754D3",
"I. c #B25BEB",
"U. c #9372F0",
"Y. c #B458D2",
"T. c #CC6CC3",
"R. c #EC6DD6",
"E. c #F649F7",
"W. c #D979F6",
"Q. c #F46FFB",
"!. c #DD4DD5",
"~. c #108CFF",
"^. c #00A8FF",
"/. c #00BCFF",
"(. c #2FA8FF",
"). c #7AA4FF",
"_. c #688FF3",
"`. c #00DCFD",
"'. c #2EEFFE",
"]. c #5BE6FD",
"[. c #6FEDFF",
"{. c #4FD2FD",
"}. c #8B8B81",
"|. c #A8938D",
" X c #ABA09F",
".X c #D99A92",
"XX c #EB8E8F",
"oX c #DAA099",
"OX c #FBB988",
"+X c #F1ACAF",
"@X c #E197B0",
"#X c #ACD890",
"$X c #A8C89E",
"%X c #FCDA86",
"&X c #FCD597",
"*X c #F5C48E",
"=X c #D9FC80",
"-X c #FFE888",
";X c #FBE697",
":X c #E9F997",
">X c #FAFA98",
",X c #ECEE8C",
"<X c #CECEAD",
"1X c #FCC8A8",
"2X c #F8D8A6",
"3X c #FCC9B5",
"4X c #F9DAB6",
"5X c #E5D7AC",
"6X c #FCE2AB",
"7X c #F1F7A9",
"8X c #FFFDB5",
"9X c #FAF9BA",
"0X c #F2F7AC",
"qX c #8DB0FB",
"wX c #AFADF8",
"eX c #CF8FCC",
"rX c #F292D3",
"tX c #D4A4CC",
"yX c #FBBBC5",
"uX c #F7B1D1",
"iX c #D2B3FA",
"pX c #FAB8E4",
"aX c #F4ADFA",
"sX c #EB98F2",
"dX c #81D5FF",
"fX c #A3DCFF",
"gX c #B8C9FF",
"hX c #BCE1FF",
"jX c #94E7FF",
"kX c #FFCEC9",
"lX c #F7D3D1",
"zX c #F9ECC8",
"xX c #FFFACC",
"cX c #FDE5D8",
"vX c #FEF9D6",
"bX c #C6C8FF",
"nX c #FDC7EF",
"mX c #FDC9FA",
"MX c #F9D7FB",
"NX c #FEFBE7",
"BX c #FFF9F6",
"VX c #FEE6EF",
"CX c None",
/* pixels */
"CXCXCXCXCXCXCXCXCXCXCXCXCXCXCXCXCXCXCXCXCXCXCXCXCXCXCXCXCXCXCXCXCXCXCXCXCXCXCXCXCXCXCXCXCXCXCXCXCXCX",
"CXCXCXCXCXCXCXCXCXCXCXCXCXCXCXCXCXCXCXCXCXCXCXCXCXCXCXCXCXCXCXCXCXCXCXCXCXCXCXCXCXCXCXCXCXCXCXCXCXCX",
"CXCXCXCXCXCXCXCXCXCXCXCXCXCXCXCXCXCXCXCXCXCXCXCXCXCXCXCXCXCXCXCXCXCXCXCXCXCXCXCXCXCXCXCXCXCXCXCXCXCX",
"CXCXCXCXCXCXCXCXCXCXCXCXCXCXCXCXCXCXCXCXCXCXCXCXCXCXCXCXCXCXCXCXCXCXCXCXCXCXCXCXCXCXCXCXCXCXCXCXCXCX",
"CXCXCXCXCXCXCXCXCXCXCXCXCXCXCXCXCXCXCXCXCXCXCXCXCXCXCXCXCXCXCXCXCXCXCXCXCXCXCXCXCXCXCXCXCXCXCXCXCXCX",
"CXCXCXCXCXCXCXCXCXCXCXCXCXCXCXCXCXCXCXCXCXCXCXCXCXCXCXCXCXCXCXCXCXCXCXCXCXCXCXCXCXCXCXCXCXCXCXCXCXCX",
"CXCXCXCXCXCXCXCXCXCXCXCXCXCXCXCXCXCXCXCXCXCXCXCXCXCXCXCXCXCXCXCXCXCXCXCXCXCXCXCXCXCXCXCXCXCXCXCXCXCX",
"CXCXCXCXCXCXCXCXCXCXCXCXCXCXCXCXCXCXCXCXCXCXCXCXCXCXCXCXCXCXCXCXCXCXCXCXCXCXCXCXCXCXCXCXCXCXCXCXCXCX",
"CXCXCXCXCXCXCXCXCXCXCXCXCXCXCXCXt.OX+.qXG.C.B.CXCXCXCXCXCXCXCXCXCXCXCXCXCXCXCXCXCXCXCXCXCXCXCXCXCXCX",
"CXCXCXCXCXCXCXCXCXCXCXCXCXCXp.+X3X&X<X).K.J.G.M.CXCXCXCXCXCXCXCXCXCXCXCXCXCXCXCXCXCXCXCXCXCXCXCXCXCX",
"CXCXCXCXCXCXCXCXCXCXCXCXCXp.&XkX-X5X5XqXW.L.A.A.Z.CXCXCXCXCXCXCXCXCXCXCXCXCXCXCXCXCXCXCXCXCXCXCXCXCX",
"CXCXCXCXCXCXCXCXCXCXCXCXu.&XyX6X;X,X5XdXW.G.S.A.m.C.CXCXCXCXCXCXCXCXCXCXCXCXCXCXCXCXCXCXCXCXCXCXCXCX",
"CXCXCXCXCXCXCXCXCXCXCX8.3X%XpXo.4X,X9XdXbXQ.F.S.b.n.b.CXCXCXCXCXCXCXCXCXCXCXCXCXCXCXCXCXCXCXCXCXCXCX",
"CXCXCXCXCXCXCXCXCXCXt rX' yXlX8XcX,X4XfXfXQ.J.F.C.n.v.a.CXCXCXCXCXCXCXCXCXCXCXCXCXCXCXCXCXCXCXCXCXCX",
"CXCXCXCXCXCXCXCXCXCXu.3X .pXzX8XcX:X6XgX[.Q.L.S.C.b.v.v.a.CXCXCXCXCXCXCXCXCXCXCXCXCXCXCXCXCXCXCXCXCX",
"CXCXCXCXCXCXCXCXCX2 sX9X%XnXxXxXVXzX:XMX[.gXE.K.C.b.v.f.f.CXCXCXCXCXCXCXCXCXCXCXCXCXCXCXCXCXCXCXCXCX",
"CXCXCXCXCXCXCXCX, 6.yX .6XmXvXvXBXzX7XvXhX'.sXF.S.n.v.f.d.:.CXCXCXCXCXCXCXCXCXCXCXCXCXCXCXCXCXCXCXCX",
"CXCXCXCXCXCXCXCX- u.3X .6XmXNXBXBXNX7X7XaX].].W.Z.V.n.f.a.x.CXCXCXCXCXCXCXCXCXCXCXCXCXCXCXCXCXCXCXCX",
"CXCXCXCXCXCXCXCXh R.&XX.vXMXNXBXBXBX9X:X4XiX'.{.I.m.c.j.j.c.k.CXCXCXCXCXCXCXCXCXCXCXCXCXCXCXCXCXCXCX",
"CXCXCXCXCXCXCXt.h R.%XX.zXmXBXBXBXBXzX:X=XyXwX`./.U.x.g.-.>.k.CXCXCXCXCXCXCXCXCXCXCXCXCXCXCXCXCXCXCX",
"CXCXCXCXCXCXCX2 t rX%XX.;XmXVXNXNXNXnX:XO.+.lXgX`./._.P.k.i.U.#.CXCXCXCXCXCXCXCXCXCXCXCXCXCXCXCXCXCX",
"CXCXCXCXCXCXCX= u R.%XX.;XlXmXvXvX9XcXlX:X+.O.lXI.(.^.^.~.qX_.$.CXCXCXCXCXCXCXCXCXCXCXCXCXCXCXCXCXCX",
"CXCXCXCXCXCX2.= 2 R.&X{ -X4XaXcX9X8X>XkXMX| Y S E Y.%.~.~.#.$.%.CXCXCXCXCXCXCXCXCXCXCXCXCXCXCXCXCXCX",
"CXCXCXCXCXCX2.* , !.1X' %X;XpXmX0X>X>X..yXtXF S S D |.P.P.%.l. XCXCXCXCXCXCXCXCXCXCXCXCXCXCXCXCXCXCX",
"CXCXCXCXCXCX2.= , 8.tX` %XX.2XmXcXo.,X..U +XeXD Z b c D z |.R v CXCXCXCXCXCXCXCXCXCXCXCXCXCXCXCXCXCX",
"CXCXCXCXCXCX*.* * 4.R.{ { }  .yXQ.2X]  .] L OXT.R #X#Xl k $X$Xl R CXCXCXCXCXCXCXCXCXCXCXCXCXCXCXCXCX",
"CXCXCXCXCXCX>.# * * m.+XI { { ) rXE.&XL X.zX` ( e.tX$Xk k z l T .XCXCXCXCXCXCXCXCXCXCXCXCXCXCXCXCXCX",
"CXCXCXCXCXCX>.1 3 # 3.!.) ( [ [ ) rXE.*XP zX{ J J ^ e.e.}.E }.oX( CXCXCXCXCXCXCXCXCXCXCXCXCXCXCXCXCX",
"CXCXCXCXCXCXs.y O O : z.rX[ W ) W C p.D.@XJ J I I G G C Q ! ^ -X{ CXCXCXCXCXCXCXCXCXCXCXCXCXCXCXCXCX",
"CXCXCXCXCXCXs.2.f 3 # y iX3Xm V V m N r.h.T.) K H I H ( *XG G ' { CXCXCXCXCXCXCXCXCXCXCXCXCXCXCXCXCX",
"CXCXCXCXCXCXs.-.+Xj o : i V.g M V B B M a 9.s.@X5XG H [ 5XH K I CXCXCXCXCXCXCXCXCXCXCXCXCXCXCXCXCXCX",
"CXCXCXCXCXCXj.s.1.; % 1 O 2.h.g n B B 9 n 7 d 9.T.e..XQ I ( ^ @XCXCXCXCXCXCXCXCXCXCXCXCXCXCXCXCXCXCX",
"CXCXCXCXCXCXf.h.-.r + $ $ @ 3.d.r.n 7 0 8 8 5 5 p 5.=.9.y.9.y.g CXCXCXCXCXCXCXCXCXCXCXCXCXCXCXCXCXCX",
"CXCXCXCXCXCXCXf.s.=.+ + $ $ o e -.y.a 5 5 8 q q 6 6 6 8 ~ +XN N CXCXCXCXCXCXCXCXCXCXCXCXCXCXCXCXCXCX",
"CXCXCXCXCXCXCXf.f.s.=.+ > o .XoX  &.<.+X0 6 6 5 q q 0 n / ^ N CXCXCXCXCXCXCXCXCXCXCXCXCXCXCXCXCXCXCX",
"CXCXCXCXCXCXCXCXx.:.a.*.    s e.    i tX<.w.a 6 n n m m N N ~ CXCXCXCXCXCXCXCXCXCXCXCXCXCXCXCXCXCXCX",
"CXCXCXCXCXCXCXCX;.>.;.-.*.X     X .     r *.,.y.i.d h t.XXp.CXCXCXCXCXCXCXCXCXCXCXCXCXCXCXCXCXCXCXCX",
"CXCXCXCXCXCXCXCXCXz.:.;.-.=.r ;   % 1 > + + % y 3.y.T.7.0.6.CXCXCXCXCXCXCXCXCXCXCXCXCXCXCXCXCXCXCXCX",
"CXCXCXCXCXCXCXCXCXz.m.>.>.>.-.1.f : O $ < < # : O ~ g q ~ CXCXCXCXCXCXCXCXCXCXCXCXCXCXCXCXCXCXCXCXCX",
"CXCXCXCXCXCXCXCXCXCXc.N.c.z.z.j.eXw.1 # O XXp & 4 , a XXCXCXCXCXCXCXCXCXCXCXCXCXCXCXCXCXCXCXCXCXCXCX",
"CXCXCXCXCXCXCXCXCXCXCXCXN.M.c.c.c.c.c.7.4.g p w h +Xt.CXCXCXCXCXCXCXCXCXCXCXCXCXCXCXCXCXCXCXCXCXCXCX",
"CXCXCXCXCXCXCXCXCXCXCXCXCXM.F.F.S.N.m.N.Z.F.H.L.E.CXCXCXCXCXCXCXCXCXCXCXCXCXCXCXCXCXCXCXCXCXCXCXCXCX",
"CXCXCXCXCXCXCXCXCXCXCXCXCXCXCXF.F.G.H.H.H.J.H.CXCXCXCXCXCXCXCXCXCXCXCXCXCXCXCXCXCXCXCXCXCXCXCXCXCXCX",
"CXCXCXCXCXCXCXCXCXCXCXCXCXCXCXCXCXCXCXCXCXCXCXCXCXCXCXCXCXCXCXCXCXCXCXCXCXCXCXCXCXCXCXCXCXCXCXCXCXCX",
"CXCXCXCXCXCXCXCXCXCXCXCXCXCXCXCXCXCXCXCXCXCXCXCXCXCXCXCXCXCXCXCXCXCXCXCXCXCXCXCXCXCXCXCXCXCXCXCXCXCX",
"CXCXCXCXCXCXCXCXCXCXCXCXCXCXCXCXCXCXCXCXCXCXCXCXCXCXCXCXCXCXCXCXCXCXCXCXCXCXCXCXCXCXCXCXCXCXCXCXCXCX",
"CXCXCXCXCXCXCXCXCXCXCXCXCXCXCXCXCXCXCXCXCXCXCXCXCXCXCXCXCXCXCXCXCXCXCXCXCXCXCXCXCXCXCXCXCXCXCXCXCXCX",
"CXCXCXCXCXCXCXCXCXCXCXCXCXCXCXCXCXCXCXCXCXCXCXCXCXCXCXCXCXCXCXCXCXCXCXCXCXCXCXCXCXCXCXCXCXCXCXCXCXCX",
"CXCXCXCXCXCXCXCXCXCXCXCXCXCXCXCXCXCXCXCXCXCXCXCXCXCXCXCXCXCXCXCXCXCXCXCXCXCXCXCXCXCXCXCXCXCXCXCXCXCX",
"CXCXCXCXCXCXCXCXCXCXCXCXCXCXCXCXCXCXCXCXCXCXCXCXCXCXCXCXCXCXCXCXCXCXCXCXCXCXCXCXCXCXCXCXCXCXCXCXCXCX"
};
