/* XPM */
static char *_627124528504[] = {
/* columns rows colors chars-per-pixel */
"50 50 64 1 ",
"  c #7F00FF",
". c #7F14FF",
"X c #8303FF",
"o c #840AFF",
"O c #8514FF",
"+ c #8A15FF",
"@ c #851DFF",
"# c #8B1DFF",
"$ c #921AFF",
"% c #8523FF",
"& c #8C25FF",
"* c #862DFF",
"= c #8B2BFF",
"- c #9224FF",
"; c #9A25FF",
": c #932BFF",
"> c #992AFF",
", c #8731FF",
"< c #8B33FF",
"1 c #8D3BFF",
"2 c #9433FF",
"3 c #9A34FF",
"4 c #933CFF",
"5 c #9C3CFF",
"6 c #8F42FF",
"7 c #9344FF",
"8 c #9D44FF",
"9 c #954AFF",
"0 c #9B4BFF",
"q c #9D54FF",
"w c #9F5AFF",
"e c #A244FF",
"r c #A54DFF",
"t c #A354FF",
"y c #A952FF",
"u c #A45BFF",
"i c #AB5BFF",
"p c #B25EFF",
"a c #A563FF",
"s c #AC64FF",
"d c #AC6BFF",
"f c #B265FF",
"g c #B46BFF",
"h c #B86CFF",
"j c #AF71FF",
"k c #B473FF",
"l c #BA74FF",
"z c #B579FF",
"x c #BC7BFF",
"c c #C477FF",
"v c #C17AFF",
"b c #BF81FF",
"n c #C284FF",
"m c #C58BFF",
"M c #C790FF",
"N c #CA93FF",
"B c #CD9AFF",
"V c #D2A4FF",
"C c #D5AAFF",
"Z c #D8B0FF",
"A c #E2C3FF",
"S c #E4C9FF",
"D c #EAD5FF",
"F c None",
/* pixels */
"FFFFFFFFFFFFFFFFFFFFFFFFFFFFFFFFFFFFFFFFFFFFFFFFFF",
"FFFFFFFFFFFFFFFFFFFFFFFFFFFFFFFFFFFFFFFFFFFFFFFFFF",
"FFFFFFFFFFFFFFFFFFFFFFFFFFFFFFFFFFFFFFFFFFFFFFFFFF",
"FFFFFFFFFFFFFFFFFFFFFFFFFFFFFFFFFFFFFFFFFFFFFFFFFF",
"FFFFFFFFFFFFFFFFFFFFFFFFFFFFFFFFFFFFFFFFFFFFFFFFFF",
"FFFFFFFFFFFFFFFFFFFFFFFFFFFFFFFFFFFFFFFFFFFFFFFFFF",
"FFFFFFFFFFFFFFFFFFFFFFFFFFFFFFFFFFFFFFFFFFFFFFFFFF",
"FFFFFFFFFFFFFFFFFFFFFFFFFFFFFFFFFFFFFFFFFFFFFFFFFF",
"FFFFFFFFFFFFFFFFFFFFFFFFFFFFFFFFFFFFFFFFFFFFFFFFFF",
"FFFFFFFFFFFFFFFFFFFFFFFFFFFFFFFFFFFFFFFFFFFFFFFFFF",
"FFFFFFFFFFFFFFFFF2t=-&FFFFFFFFFFFFFFFFFFFFFFFFFFFF",
"FFFFFFFFFFFFFFF3;33#->-&FFFFFFFFFFFFFFFFFFFFFFFFFF",
"FFFFFFFFFFFFFFpg>3>-&&->&FFFFFFFFFFFFFFFFFFFFFFFFF",
"FFFFFFFFFFFF5fnf>532-&&&:=FFFFFFFFFFFFFFFFFFFFFFFF",
"FFFFFFFFFFFicnxeeee3>:&-&&:FFFFFFFFFFFFFFFFFFFFFFF",
"FFFFFFFFFFFcxgyyyyre5:-&&===FFFFFFFFFFFFFFFFFFFFFF",
"FFFFFFFFFFhxzhyfffir53>&&&=:=FFFFFFFFFFFFFFFFFFFFF",
"FFFFFFFFFfhvMNxxvlfye3:&&=&=:FFFFFFFFFFFFFFFFFFFFF",
"FFFFFFFFFpsnMBbmNmlpy5:--=&&==FFFFFFFFFFFFFFFFFFFF",
"FFFFFFFF:5xmBMmVCBvfy52=&&===2=FFFFFFFFFFFFFFFFFFF",
"FFFFFFFF-tnmvnVAAVnhye3-&&&====FFFFFFFFFFFFFFFFFFF",
"FFFFFFF2-ymlimCDDCnhy52-&=&*=*2=FFFFFFFFFFFFFFFFFF",
"FFFFFFF4&8fixmCSAVnfy5>=&&=&====FFFFFFFFFFFFFFFFFF",
"FFFFFF03ir$kBnBZCBvfr5::&=====,=FFFFFFFFFFFFFFFFFF",
"FFFFFF75lt:xNxmNNnhye3:=&&&==,,:=FFFFFFFFFFFFFFFFF",
"FFFFFF48k8:nvfxbxlfye:--&=====*2=FFFFFFFFFFFFFFFFF",
"FFFFFF30l:exiyhhfiye33e=&=&%*,,==FFFFFFFFFFFFFFFFF",
"FFFFFF:ud=gi5tysnle5:axu%%4u<*,==FFFFFFFFFFFFFFFFF",
"FFFFF4:dt=5&8e8dmnt>3gkg4o0z9%,,:FFFFFFFFFFFFFFFFF",
"FFFFF<5s47q8233txns#4ggz0o0zq%**:FFFFFFFFFFFFFFFFF",
"FFFFF*rt4slzs2:3gxs&2jkk0o9z9@9q-FFFFFFFFFFFFFFFFF",
"FFFFF<r4OOqkls:&txs+2gkk7 aj,%aa$FFFFFFFFFFFFFFFFF",
"FFFFF4:<u4Xulk7+4luo4kks&9d9.*jw+FFFFFFFFFFFFFFFFF",
"FFFFFF2@qk4<kltX<k0Xqlz7%w6*1dj<-FFFFFFFFFFFFFFFFF",
"FFFFFF89XadOql0X0d@&dlq*96*,wa1#=FFFFFFFFFFFFFFFFF",
"FFFFFF7d=6z7@4=%q4=dzq6ajzj6%%&>-FFFFFFFFFFFFFFFFF",
"FFFFFF<g9@a7@==,,<au,.1,1dza===>:FFFFFFFFFFFFFFFFF",
"FFFFFFFfq%===&%@*619wq,*.6za===-FFFFFFFFFFFFFFFFFF",
"FFFFFFFqu@%*@0sq,.19azj6,*uq@=>:FFFFFFFFFFFFFFFFFF",
"FFFFFFFqt1979jzzwwdw.aza,*%O&&>FFFFFFFFFFFFFFFFFFF",
"FFFFFFFF091,9jzjkkzzw1zs%=204;2FFFFFFFFFFFFFFFFFFF",
"FFFFFFFFF8%=%azjjjjka%q7=dkl5>FFFFFFFFFFFFFFFFFFFF",
"FFFFFFFFF93=%6jkkkkzwO@Ouzkt>FFFFFFFFFFFFFFFFFFFFF",
"FFFFFFFFFF431=0kkgzf742OalhrFFFFFFFFFFFFFFFFFFFFFF",
"FFFFFFFFFFFF83=0gzs2o222ivsFFFFFFFFFFFFFFFFFFFFFFF",
"FFFFFFFFFFFFF#tgfsuai2yhhiFFFFFFFFFFFFFFFFFFFFFFFF",
"FFFFFFFFFFFFFFFsgflvfihiFFFFFFFFFFFFFFFFFFFFFFFFFF",
"FFFFFFFFFFFFFFFFFFFFFFFFFFFFFFFFFFFFFFFFFFFFFFFFFF",
"FFFFFFFFFFFFFFFFFFFFFFFFFFFFFFFFFFFFFFFFFFFFFFFFFF",
"FFFFFFFFFFFFFFFFFFFFFFFFFFFFFFFFFFFFFFFFFFFFFFFFFF"
};
