/* XPM */
static char *_627124521347[] = {
/* columns rows colors chars-per-pixel */
"50 50 134 2 ",
"   c #F30093",
".  c #F4009D",
"X  c #FE009D",
"o  c #F401A3",
"O  c #FE00A5",
"+  c #F40BA4",
"@  c #F500AA",
"#  c #FE01AA",
"$  c #FE0BAC",
"%  c #F414A6",
"&  c #F51CA7",
"*  c #F514AB",
"=  c #FE13AC",
"-  c #F41EA9",
";  c #FE1BAD",
":  c #F500B2",
">  c #FF02B3",
",  c #FF0DB4",
"<  c #FF00BB",
"1  c #FF12B6",
"2  c #FF1CB1",
"3  c #FF1ABA",
"4  c #F524AB",
"5  c #FF23AD",
"6  c #F428AC",
"7  c #FF29AF",
"8  c #F532AE",
"9  c #FF32AE",
"0  c #F521B0",
"q  c #FE26B1",
"w  c #FF2DB2",
"e  c #FF2ABC",
"r  c #F537B1",
"t  c #FF33B3",
"y  c #F63EB2",
"u  c #FF3CB5",
"i  c #FF32BF",
"p  c #FF3EBA",
"a  c #F741B6",
"s  c #FF4AB4",
"d  c #F644B8",
"f  c #FE43BB",
"g  c #F64BBB",
"h  c #FE4BBC",
"j  c #F750BE",
"k  c #FC54BF",
"l  c #F500C2",
"z  c #FF00C6",
"x  c #FF09CF",
"c  c #F817C1",
"v  c #F618CE",
"b  c #F401D2",
"n  c #FF03D4",
"m  c #F50DD5",
"M  c #FF00DC",
"N  c #FF11D8",
"B  c #FF36C1",
"V  c #FF3CC1",
"C  c #F734CE",
"Z  c #F62FD9",
"A  c #F423D9",
"S  c #FF30D4",
"D  c #FA39DE",
"F  c #F745C7",
"G  c #FF42C3",
"H  c #FF4CC2",
"J  c #FF4FCA",
"K  c #F756C7",
"L  c #FC53C2",
"P  c #F758C3",
"I  c #FC5BC4",
"U  c #FF50CC",
"Y  c #FE5CCB",
"T  c #FF4AD0",
"R  c #F84CD9",
"E  c #FF51D5",
"W  c #F854DE",
"Q  c #FF64C6",
"!  c #FB64CB",
"~  c #FE6CCD",
"^  c #FF73CD",
"/  c #FF79CD",
"(  c #FE63D2",
")  c #FD6AD2",
"_  c #FF6BDB",
"`  c #FB72D6",
"'  c #FF7BD3",
"]  c #FE75D9",
"[  c #FE7BDB",
"{  c #FF65E0",
"}  c #FF67EF",
"|  c #FA73E6",
" . c #FE7EE1",
".. c #FF7DE9",
"X. c #FF83D4",
"o. c #FF8BD6",
"O. c #FF85DA",
"+. c #FF8CDC",
"@. c #FF93DD",
"#. c #FF9ADD",
"$. c #FD82E4",
"%. c #FF8FE3",
"&. c #FE89EB",
"*. c #FF94E1",
"=. c #FF9CE2",
"-. c #FF9AEC",
";. c #FF8DF3",
":. c #FF95F5",
">. c #FF98F4",
",. c #FF96FC",
"<. c #FF9DFD",
"1. c #FFA2E5",
"2. c #FFAAE6",
"3. c #FFA3EA",
"4. c #FFACEA",
"5. c #FFB2E7",
"6. c #FFB3EC",
"7. c #FFBBED",
"8. c #FFA3FF",
"9. c #FFAAFF",
"0. c #FFB5F3",
"q. c #FFBDF1",
"w. c #FFC3EF",
"e. c #FFC4F2",
"r. c #FFCAF4",
"t. c #FFCDFD",
"y. c #FFD3F5",
"u. c #FFDCF7",
"i. c #FFD4FC",
"p. c #FFDBF9",
"a. c #FFE3FC",
"s. c #FFEBFC",
"d. c #FFF2FD",
"f. c None",
/* pixels */
"f.f.f.f.f.f.f.f.f.f.f.f.f.f.f.f.f.f.f.f.f.f.f.f.f.f.f.f.f.f.f.f.f.f.f.f.f.f.f.f.f.f.f.f.f.f.f.f.f.f.",
"f.f.f.f.f.f.f.f.f.f.f.f.f.f.f.f.f.f.f.f.f.f.f.f.f.f.f.f.f.f.f.f.f.f.f.f.f.f.f.f.f.f.f.f.f.f.f.f.f.f.",
"f.f.f.f.f.f.f.f.f.f.f.f.f.f.f.f.f.f.f.f.f.f.f.f.f.f.f.f.f.f.f.f.f.f.f.f.f.f.f.f.f.f.f.f.f.f.f.f.f.f.",
"f.f.f.f.f.f.f.f.f.f.f.f.f.f.f.f.f.f.f.f.f.O # s O ; f.f.f.f.f.f.f.f.f.f.f.f.f.f.f.f.f.f.f.f.f.f.f.f.",
"f.f.f.f.f.f.f.f.f.f.f.f.f.f.f.f.f.f.f.t G G k k O 1 1 L f.f.f.f.f.f.f.f.f.f.f.f.f.f.f.f.f.f.f.f.f.f.",
"f.f.f.f.f.f.f.f.f.f.f.f.f.f.f.f.f.# ] [ O.[ 3.@.O O # V t f.f.f.f.f.f.f.f.f.f.f.f.f.f.f.f.f.f.f.f.f.",
"f.f.f.f.f.f.f.f.f.f.f.f.f.f.f.f.s 3.O.+.+.O.O.O.Q = O O ] U f.f.f.f.f.f.f.f.f.f.f.f.f.f.f.f.f.f.f.f.",
"f.f.f.f.f.f.f.f.f.f.f.f.f.f.f.O -.6.O.*.*.*.r.6.' Q O O u p > f.f.f.f.f.f.f.f.f.f.f.f.f.f.f.f.f.f.f.",
"f.f.f.f.f.f.f.f.f.f.f.f.f.f.f.) *.*.*.1.-.3.e.3.O.[ u O ~ H O , f.f.f.f.f.f.f.f.f.f.f.f.f.f.f.f.f.f.",
"f.f.f.f.f.f.f.f.f.f.f.f.f.f.h =.i.4.3.6.6.4.1.*.+.O.~ X ] $.O # $ f.f.f.f.f.f.f.f.f.f.f.f.f.f.f.f.f.",
"f.f.f.f.f.f.f.f.f.f.f.f.f.t [ 1.6.2.0.q.q.e.a.e.*.+.' t X ; $ # > # f.f.f.f.f.f.f.f.f.f.f.f.f.f.f.f.",
"f.f.f.f.f.f.f.f.f.f.f.f.f.Y o.+.2.7.q.r.r.t.p.q.*.+.' %.&.w O $ # > f.f.f.f.f.f.f.f.f.f.f.f.f.f.f.f.",
"f.f.f.f.f.f.f.f.f.f.f.f.5 ' o.2.a.y.r.p.p.t.7.4.1.+.' +.>.H O = $ # g f.f.f.f.f.f.f.f.f.f.f.f.f.f.f.",
"f.f.f.f.f.f.f.f.f.f.f.f._ / o.2.r.e.y.a.s.a.p.7.=.@.X.~ 5 O O # 1 $ T f.f.f.f.f.f.f.f.f.f.f.f.f.f.f.",
"f.f.f.f.f.f.f.f.f.f.f.) ) X.+.=.5.e.p.d.d.s.d.r.=.*.X.~ 7 O $ = X w ;.g f.f.f.f.f.f.f.f.f.f.f.f.f.f.",
"f.f.f.f.f.f.f.f.f.f.f.> 3.2.X.1.6.r.u.d.s.a.p.q.1.+.X.~ t O = # H = ) L f.f.f.f.f.f.f.f.f.f.f.f.f.f.",
"f.f.f.f.f.f.f.f.f.f.O i 0.@.o.1.5.w.u.a.u.r.7.2.=.o.' ~ w X O = >. .. 1 f.f.f.f.f.f.f.f.f.f.f.f.f.f.",
"f.f.f.f.f.f.f.f.f.f.O 2 Q X.e.e.2.7.w.y.y.u.u.6.*.o./ ~ = h f O ] $.. # + f.f.f.f.f.f.f.f.f.f.f.f.f.",
"f.f.f.f.f.f.f.f.f.f.$ # h +.i.w.1.5.7.w.w.a.s.w.O.' ^ L u ,.>.q O O o o o f.f.f.f.f.f.f.f.f.f.f.f.f.",
"f.f.f.f.f.f.f.f.f.f.> O h ' @.@.#.7.w.7.2.e.e.=.O.=.@.h O $.&.q @ @ o o # f.f.f.f.f.f.f.f.f.f.f.f.f.",
"f.f.f.f.f.f.f.f.f.# > # 7 / ' X.#.u.s.7.1.#.+.X.=.t.t.Q X ; $ # @ o * + # f.f.f.f.f.f.f.f.f.f.f.f.f.",
"f.f.f.f.f.f.f.f.f.f ..w O I ' X.o.7.e.1.@.7.q.@.X.0.3.t O $ # # o o . o > o f.f.f.f.f.f.f.f.f.f.f.f.",
"f.f.f.f.f.f.f.f.f.Y ,.t O 7 ~ ' X.X.o.X.#.i.i.4.Q I O O $ $ $ o o % P 8 # + f.f.f.f.f.f.f.f.f.f.f.f.",
"f.f.f.f.f.f.f.f.f.w J # $ # u ~ X.5.7.o.X.2.6.O.! $. .t O $ # % . d 8.Y Y ] f.f.f.f.f.f.f.f.f.f.f.f.",
"f.f.f.f.f.f.f.f.f.# > # # O O ; / t.i.#.~ ~ ~ t Y <.8.I O ; o + o 8 &.a _ $.f.f.f.f.f.f.f.f.f.f.f.f.",
"f.f.f.f.f.f.f.f.f.# 1 = # Y Q O O ^ X.k I -.>.L O ) ) = O o o o o o o . t y f.f.f.f.f.f.f.f.f.f.f.f.",
"f.f.f.f.f.f.f.f.f.# < O # ;.<.w O O O O t :.<.] O O O O j $.j . * o o + @ f.f.f.f.f.f.f.f.f.f.f.f.f.",
"f.f.f.f.f.f.f.f.f.f.3 Y $ I _ $ # 5 5 $ O f L = O ; = o $.9.` . . . + o $ f.f.f.f.f.f.f.f.f.f.f.f.f.",
"f.f.f.f.f.f.f.f.f.f.> >.) X O # $ # # # $ O X O @ @ o o y ! 6 o g & o o o f.f.f.f.f.f.f.f.f.f.f.f.f.",
"f.f.f.f.f.f.f.f.f.f.f Y H @ = $ $ $ O $ O Y $.I @ + o o o . . ` 8.g   = @ f.f.f.f.f.f.f.f.f.f.f.f.f.",
"f.f.f.f.f.f.f.f.f.f.$.e O = # # O O # $ O  .9.$.o o + + % - . ! [ . % 1 : f.f.f.f.f.f.f.f.f.f.f.f.f.",
"f.f.f.f.f.f.f.f.f.f.f.B # = # L  .p # = O 4 g 6 o o o . . . + .   ~ $.> f.f.f.f.f.f.f.f.f.f.f.f.f.f.",
"f.f.f.f.f.f.f.f.f.f.f.o # * O L <.) . % o o 6 o o + o d $.P . % . ` { : f.f.f.f.f.f.f.f.f.f.f.f.f.f.",
"f.f.f.f.f.f.f.f.f.f.f.f.> o % o 4 6 o % . ! 9.[ o + . ! ,.P . % . O ( f.f.f.f.f.f.f.f.f.f.f.f.f.f.f.",
"f.f.f.f.f.f.f.f.f.f.f.f.% # r ;.g . % o o r ) g o + o + o o o + @ S | f.f.f.f.f.f.f.f.f.f.f.f.f.f.f.",
"f.f.f.f.f.f.f.f.f.f.f.f.f.o @ ! j o + o o o 8 - o + o . ` $.o @ x v f.f.f.f.f.f.f.f.f.f.f.f.f.f.f.f.",
"f.f.f.f.f.f.f.f.f.f.f.f.f.f.o ( r o o o o r >.` . + o . Y K @ n b f.f.f.f.f.f.f.f.f.f.f.f.f.f.f.f.f.",
"f.f.f.f.f.f.f.f.f.f.f.f.f.f.f.P Y . % o o o y 8 . . o @ P F M m f.f.f.f.f.f.f.f.f.f.f.f.f.f.f.f.f.f.",
"f.f.f.f.f.f.f.f.f.f.f.f.f.f.f.f.j f # o . . ~ ! . * : c } D b f.f.f.f.f.f.f.f.f.f.f.f.f.f.f.f.f.f.f.",
"f.f.f.f.f.f.f.f.f.f.f.f.f.f.f.f.f.f.4 * < < T E l m N W A f.f.f.f.f.f.f.f.f.f.f.f.f.f.f.f.f.f.f.f.f.",
"f.f.f.f.f.f.f.f.f.f.f.f.f.f.f.f.f.f.f.f.f.l C R b Z f.f.f.f.f.f.f.f.f.f.f.f.f.f.f.f.f.f.f.f.f.f.f.f.",
"f.f.f.f.f.f.f.f.f.f.f.f.f.f.f.f.f.f.f.f.f.f.f.f.f.f.f.f.f.f.f.f.f.f.f.f.f.f.f.f.f.f.f.f.f.f.f.f.f.f.",
"f.f.f.f.f.f.f.f.f.f.f.f.f.f.f.f.f.f.f.f.f.f.f.f.f.f.f.f.f.f.f.f.f.f.f.f.f.f.f.f.f.f.f.f.f.f.f.f.f.f.",
"f.f.f.f.f.f.f.f.f.f.f.f.f.f.f.f.f.f.f.f.f.f.f.f.f.f.f.f.f.f.f.f.f.f.f.f.f.f.f.f.f.f.f.f.f.f.f.f.f.f.",
"f.f.f.f.f.f.f.f.f.f.f.f.f.f.f.f.f.f.f.f.f.f.f.f.f.f.f.f.f.f.f.f.f.f.f.f.f.f.f.f.f.f.f.f.f.f.f.f.f.f.",
"f.f.f.f.f.f.f.f.f.f.f.f.f.f.f.f.f.f.f.f.f.f.f.f.f.f.f.f.f.f.f.f.f.f.f.f.f.f.f.f.f.f.f.f.f.f.f.f.f.f.",
"f.f.f.f.f.f.f.f.f.f.f.f.f.f.f.f.f.f.f.f.f.f.f.f.f.f.f.f.f.f.f.f.f.f.f.f.f.f.f.f.f.f.f.f.f.f.f.f.f.f.",
"f.f.f.f.f.f.f.f.f.f.f.f.f.f.f.f.f.f.f.f.f.f.f.f.f.f.f.f.f.f.f.f.f.f.f.f.f.f.f.f.f.f.f.f.f.f.f.f.f.f.",
"f.f.f.f.f.f.f.f.f.f.f.f.f.f.f.f.f.f.f.f.f.f.f.f.f.f.f.f.f.f.f.f.f.f.f.f.f.f.f.f.f.f.f.f.f.f.f.f.f.f.",
"f.f.f.f.f.f.f.f.f.f.f.f.f.f.f.f.f.f.f.f.f.f.f.f.f.f.f.f.f.f.f.f.f.f.f.f.f.f.f.f.f.f.f.f.f.f.f.f.f.f."
};
