/* XPM */
static char *_627124537255[] = {
/* columns rows colors chars-per-pixel */
"50 50 168 2 ",
"   c #0057FF",
".  c #005BFA",
"X  c #0064FB",
"o  c #006CFC",
"O  c #0C6EFB",
"+  c #0273FD",
"@  c #0B75FF",
"#  c #017CFE",
"$  c #0A7EFC",
"%  c #1473FC",
"&  c #1B76FB",
"*  c #137CFB",
"=  c #1D7BFE",
"-  c #237DFD",
";  c #0183FE",
":  c #0D84FF",
">  c #028AFF",
",  c #0A8AFE",
"<  c #1483FD",
"1  c #1B82FE",
"2  c #168BFF",
"3  c #1D8BFD",
"4  c #0193FE",
"5  c #0E94FE",
"6  c #0598FF",
"7  c #0E9DFB",
"8  c #1791FF",
"9  c #1B94FE",
"0  c #139AFD",
"q  c #1F98FF",
"w  c #2383FF",
"e  c #2C83FD",
"r  c #248BFE",
"t  c #2B8CFE",
"y  c #3187FD",
"u  c #338AFE",
"i  c #2494FD",
"p  c #2C94FD",
"a  c #239CFD",
"s  c #2B9AFE",
"d  c #3393FE",
"f  c #3B94FD",
"g  c #349BFD",
"h  c #3B9AFE",
"j  c #04A4FD",
"k  c #01ADFB",
"l  c #0EABFC",
"z  c #13A0FB",
"x  c #1EA6FB",
"c  c #1EAFFF",
"v  c #01B3FE",
"b  c #00B8FB",
"n  c #0DBAFA",
"m  c #13B3FF",
"M  c #1FB0FF",
"N  c #1CBBFB",
"B  c #25A3FF",
"V  c #2CA4FB",
"C  c #26ABFF",
"Z  c #2DADFD",
"A  c #33A3FE",
"S  c #3CA4FD",
"D  c #36ABFC",
"F  c #38ABFF",
"G  c #2CB2FC",
"H  c #2BBFFC",
"J  c #34B3FE",
"K  c #3BB4FE",
"L  c #36BDFC",
"P  c #3DBAFE",
"I  c #4197FE",
"U  c #449CFE",
"Y  c #4C9FFF",
"T  c #44A2FF",
"R  c #4BA3FE",
"E  c #43ABFF",
"W  c #4CAAFF",
"Q  c #53ADFF",
"!  c #58ACFF",
"~  c #43B3FF",
"^  c #4DB3FE",
"/  c #41BCFF",
"(  c #4DBBFF",
")  c #55B2FE",
"_  c #5BB5FF",
"`  c #55BBFF",
"'  c #5BBBFF",
"]  c #60B6FF",
"[  c #65BCFF",
"{  c #6BBCFF",
"}  c #00C4FD",
"|  c #18C6FF",
" . c #1BC8FF",
".. c #15C4FB",
"X. c #0FD5FF",
"o. c #1CD2FC",
"O. c #2CCBFF",
"+. c #35C6FC",
"@. c #3AC3FF",
"#. c #3AC9FC",
"$. c #2DD4FC",
"%. c #23D9FF",
"&. c #32D7FF",
"*. c #36D9FE",
"=. c #3EDAFF",
"-. c #43C1FC",
";. c #4AC3FE",
":. c #42C8FE",
">. c #54C2FF",
",. c #5DC5FF",
"<. c #51CAFE",
"1. c #59CBFF",
"2. c #59D5FD",
"3. c #53DBFF",
"4. c #5CDAFE",
"5. c #63C3FF",
"6. c #6DC5FF",
"7. c #64CAFF",
"8. c #6ACBFF",
"9. c #73C4FF",
"0. c #78C0FF",
"q. c #73CCFF",
"w. c #7BCAFF",
"e. c #64D2FF",
"r. c #6CD3FF",
"t. c #6CD9FF",
"y. c #75D4FF",
"u. c #7CD4FF",
"i. c #74DBFF",
"p. c #7CDDFF",
"a. c #42E0FF",
"s. c #7BE4FF",
"d. c #82D2FF",
"f. c #8AD3FF",
"g. c #83DDFF",
"h. c #8BDCFF",
"j. c #93D7FF",
"k. c #9CD6FF",
"l. c #94DAFF",
"z. c #9ADDFF",
"x. c #A3DDFF",
"c. c #84E1FF",
"v. c #8BE2FF",
"b. c #8AE8FF",
"n. c #94E3FF",
"m. c #9BE4FF",
"M. c #96E9FF",
"N. c #9CE9FF",
"B. c #A4E4FF",
"V. c #ACE5FF",
"C. c #A3EBFF",
"Z. c #ADEBFF",
"A. c #B1E7FF",
"S. c #B3ECFF",
"D. c #BBEEFF",
"F. c #B4F0FF",
"G. c #BDF2FF",
"H. c #C4EFFF",
"J. c #C3F3FF",
"K. c #CCF4FF",
"L. c #D3F6FF",
"P. c #D9F7FF",
"I. c #D7F9FF",
"U. c #DBFAFF",
"Y. c #E7FAFF",
"T. c #EAFBFF",
"R. c #F3FDFF",
"E. c None",
/* pixels */
"E.E.E.E.E.E.E.E.E.E.E.E.E.E.E.E.E.E.E.E.E.E.E.E.E.E.E.E.E.E.E.E.E.E.E.E.E.E.E.E.E.E.E.E.E.E.E.E.E.E.",
"E.E.E.E.E.E.E.E.E.E.E.E.E.E.E.E.E.E.E.E.E.E.E.E.E.E.E.E.E.E.E.E.E.E.E.E.E.E.E.E.E.E.E.E.E.E.E.E.E.E.",
"E.E.E.E.E.E.E.E.E.E.E.E.E.E.E.E.E.E.E.E.E.E.E.E.E.E.E.E.E.E.E.E.E.E.E.E.E.E.E.E.E.E.E.E.E.E.E.E.E.E.",
"E.E.E.E.E.E.E.E.E.E.E.E.E.E.E.E.E.E.E.E.E.E.E.E.E.E.E.E.E.E.E.E.E.E.E.E.E.E.E.E.E.E.E.E.E.E.E.E.E.E.",
"E.E.E.E.E.E.E.E.E.E.E.E.E.E.E.E.E.M / ( G J E s E.E.E.E.E.E.E.E.E.E.E.E.E.E.E.E.E.E.E.E.E.E.E.E.E.E.",
"E.E.E.E.E.E.E.E.E.E.E.E.E.E.E.v :.p.y.>.K C ^ ~ 5 E.E.E.E.E.E.E.E.E.E.E.E.E.E.E.E.E.E.E.E.E.E.E.E.E.",
"E.E.E.E.E.E.E.E.E.E.E.E.E.E.( 3.p.g.m.g.t.J ( ' 4 5 d E.E.E.E.E.E.E.E.E.E.E.E.E.E.E.E.E.E.E.E.E.E.E.",
"E.E.E.E.E.E.E.E.E.E.E.E.E.8.b.s.M.p.v.n.i.1.d.' ) 5 0 t E.E.E.E.E.E.E.E.E.E.E.E.E.E.E.E.E.E.E.E.E.E.",
"E.E.E.E.E.E.E.E.E.E.E.E.8.s.i.Z.C.M.c.n.i.t.7.( S s h A t E.E.E.E.E.E.E.E.E.E.E.E.E.E.E.E.E.E.E.E.E.",
"E.E.E.E.E.E.E.E.E.E.E.' s.p.n.K.M.Z.b.M.v.t.e.( B 4 W p W E.E.E.E.E.E.E.E.E.E.E.E.E.E.E.E.E.E.E.E.E.",
"E.E.E.E.E.E.E.E.E.E.E.p.t.v.Z.K.Z.G.C.N.n.i.n.,.j a 8 3 Q I E.E.E.E.E.E.E.E.E.E.E.E.E.E.E.E.E.E.E.E.",
"E.E.E.E.E.E.E.E.E.E.{ r.g.S.N.F.G.J.L.J.S.N.g.y.' E _ ; U T I E.E.E.E.E.E.E.E.E.E.E.E.E.E.E.E.E.E.E.",
"E.E.E.E.E.E.E.E.E.A.U.A.S.M.C.F.J.J.J.L.S.v.v.h.5.' [ ; # 1 t E.E.E.E.E.E.E.E.E.E.E.E.E.E.E.E.E.E.E.",
"E.E.E.E.E.E.E.E.E.] f.h.h.M.F.K.I.I.K.J.M.m.n.B.w.' W # $ = = < E.E.E.E.E.E.E.E.E.E.E.E.E.E.E.E.E.E.",
"E.E.E.E.E.E.E.E.> Z 7.z.v.Z.G.L.T.T.U.J.Z.Z.M.h.6.' g ; # + - 2 E.E.E.E.E.E.E.E.E.E.E.E.E.E.E.E.E.E.",
"E.E.E.E.E.E.E.E.p [ l.H.D.D.D.P.R.R.U.G.H.m.m.1.5.A i p d w + t r E.E.E.E.E.E.E.E.E.E.E.E.E.E.E.E.E.",
"E.E.E.E.E.E.E.E.w.k.l.u.H.S.P.T.T.Y.L.K.B.A.B.7.( 6 9 3 $ f - o 3 E.E.E.E.E.E.E.E.E.E.E.E.E.E.E.E.E.",
"E.E.E.E.E.E.E.; f.f.7.u.m.D.L.P.K.U.L.J.M.S.m.8.( 0 > ; + h w o 2 E.E.E.E.E.E.E.E.E.E.E.E.E.E.E.E.E.",
"E.E.E.E.E.E.E.+ d.q.9.q.z.D.K.G.K.K.K.m.H.V.e.7.~ 4 > r ) w o - ; p E.E.E.E.E.E.E.E.E.E.E.E.E.E.E.E.",
"E.E.E.E.E.E.E.; 9._ q.5.z.A.A.S.D.K.Z.C.H.m.1.` F > , r u U - % h s E.E.E.E.E.E.E.E.E.E.E.E.E.E.E.E.",
"E.E.E.E.E.E.E.# Y S w.z.j.u.B.Z.D.D.n.H.V.j.,.` a > ; r w & I R R > E.E.E.E.E.E.E.E.E.E.E.E.E.E.E.E.",
"E.E.E.E.E.E.@ # Y W { k.7.f.z.V.A.h.A.V.r.j.>.F 4 > # 1 u + . + 1 0 E.E.E.E.E.E.E.E.E.E.E.E.E.E.E.E.",
"E.E.E.E.E.E.+ : : w.{ [ w.j.V.x.u.u.y.8.,.f.9.4 > : + t e & % o < a E.E.E.E.E.E.E.E.E.E.E.E.E.E.E.E.",
"E.E.E.E.E.E.o o o T w.l.x.x.f.7.q.q.8.7.5.f.d.S ; # r U o O & + $ B E.E.E.E.E.E.E.E.E.E.E.E.E.E.E.E.",
"E.E.E.E.E.E.X R ] ] # U ] ' ` 5.5.5.,.` ' E 4 ^ _ Q R - X o - + + ~ K E.E.E.E.E.E.E.E.E.E.E.E.E.E.E.",
"E.E.E.E.E.E.y ! Y 6.R + ; h Q ` ` ` ^ S a > < R Q Q u . O X e r # P E.E.E.E.E.E.E.E.E.E.E.E.E.E.E.E.",
"E.E.E.E.E.E.u +   o ! _ # ; , q s p 9 > > ; ) f + o f y X X f ` # P E.E.E.E.E.E.E.E.E.E.E.E.E.E.E.E.",
"E.E.E.E.E.E.- - u + X U _ < # ; ; ; # ; g _ S o @ o o f X X h ^ ; P E.E.E.E.E.E.E.E.E.E.E.E.E.E.E.E.",
"E.E.E.E.E.E.E.d u e + + ] ] w # ; t ) W f ) < o o o O e o o p e.0 D E.E.E.E.E.E.E.E.E.E.E.E.E.E.E.E.",
"E.E.E.E.E.E.E.d X u & = t w ) t + h W _ ) ) - O X X % & o # i e.;.l E.E.E.E.E.E.E.E.E.E.E.E.E.E.E.E.",
"E.E.E.E.E.E.E.h @ y e @ @ o @ Q h o o o y ) R & o X & O o < i D @.v E.E.E.E.E.E.E.E.E.E.E.E.E.E.E.E.",
"E.E.E.E.E.E.E.w W U o - o + + Y ) U % o . y ^ . O e S o # p x 4 b E.E.E.E.E.E.E.E.E.E.E.E.E.E.E.E.E.",
"E.E.E.E.E.E.E.E.< t w - = o % e o & U e . . f ^ f & 7.p # V z m n E.E.E.E.E.E.E.E.E.E.E.E.E.E.E.E.E.",
"E.E.E.E.E.E.E.E.+ o & y f X o X y ) ' 5.` y & f ^ p ^ 1.D J J | E.E.E.E.E.E.E.E.E.E.E.E.E.E.E.E.E.E.",
"E.E.E.E.E.E.E.E.E.# o o f u X X U U f f R * p e p f V D Z Z O...E.E.E.E.E.E.E.E.E.E.E.E.E.E.E.E.E.E.",
"E.E.E.E.E.E.E.E.E.E.> + + W u + o X X o X * 3 3 ; z V D k b } E.E.E.E.E.E.E.E.E.E.E.E.E.E.E.E.E.E.E.",
"E.E.E.E.E.E.E.E.E.E.> 4 # ` T g < # $ + g g , > 7 D G k b X.E.E.E.E.E.E.E.E.E.E.E.E.E.E.E.E.E.E.E.E.",
"E.E.E.E.E.E.E.E.E.E.E.a 4 ( ,.s S 8 # ~ ;.> 4 z -.L k } %.E.E.E.E.E.E.E.E.E.E.E.E.E.E.E.E.E.E.E.E.E.",
"E.E.E.E.E.E.E.E.E.E.E.E.7 C J V 7 D D 2.V x <.:.N #.$.o.E.E.E.E.E.E.E.E.E.E.E.E.E.E.E.E.E.E.E.E.E.E.",
"E.E.E.E.E.E.E.E.E.E.E.E.E.E.l #.k C -.-.2.4.+.| a.$.o.E.E.E.E.E.E.E.E.E.E.E.E.E.E.E.E.E.E.E.E.E.E.E.",
"E.E.E.E.E.E.E.E.E.E.E.E.E.E.E.E.H H O.O.=.&.} $.*.E.E.E.E.E.E.E.E.E.E.E.E.E.E.E.E.E.E.E.E.E.E.E.E.E.",
"E.E.E.E.E.E.E.E.E.E.E.E.E.E.E.E.E.E.E.E.E.E.E.E.E.E.E.E.E.E.E.E.E.E.E.E.E.E.E.E.E.E.E.E.E.E.E.E.E.E.",
"E.E.E.E.E.E.E.E.E.E.E.E.E.E.E.E.E.E.E.E.E.E.E.E.E.E.E.E.E.E.E.E.E.E.E.E.E.E.E.E.E.E.E.E.E.E.E.E.E.E.",
"E.E.E.E.E.E.E.E.E.E.E.E.E.E.E.E.E.E.E.E.E.E.E.E.E.E.E.E.E.E.E.E.E.E.E.E.E.E.E.E.E.E.E.E.E.E.E.E.E.E.",
"E.E.E.E.E.E.E.E.E.E.E.E.E.E.E.E.E.E.E.E.E.E.E.E.E.E.E.E.E.E.E.E.E.E.E.E.E.E.E.E.E.E.E.E.E.E.E.E.E.E.",
"E.E.E.E.E.E.E.E.E.E.E.E.E.E.E.E.E.E.E.E.E.E.E.E.E.E.E.E.E.E.E.E.E.E.E.E.E.E.E.E.E.E.E.E.E.E.E.E.E.E.",
"E.E.E.E.E.E.E.E.E.E.E.E.E.E.E.E.E.E.E.E.E.E.E.E.E.E.E.E.E.E.E.E.E.E.E.E.E.E.E.E.E.E.E.E.E.E.E.E.E.E.",
"E.E.E.E.E.E.E.E.E.E.E.E.E.E.E.E.E.E.E.E.E.E.E.E.E.E.E.E.E.E.E.E.E.E.E.E.E.E.E.E.E.E.E.E.E.E.E.E.E.E.",
"E.E.E.E.E.E.E.E.E.E.E.E.E.E.E.E.E.E.E.E.E.E.E.E.E.E.E.E.E.E.E.E.E.E.E.E.E.E.E.E.E.E.E.E.E.E.E.E.E.E.",
"E.E.E.E.E.E.E.E.E.E.E.E.E.E.E.E.E.E.E.E.E.E.E.E.E.E.E.E.E.E.E.E.E.E.E.E.E.E.E.E.E.E.E.E.E.E.E.E.E.E."
};
