/* XPM */
static char *_23ee85ed66f4bfce1598e87c5b512devJD7z4wo3k2PrgaT[] = {
/* columns rows colors chars-per-pixel */
"50 50 252 2 ",
"   c None",
".  c #560100",
"X  c #590000",
"o  c #560D04",
"O  c #571800",
"+  c #560E16",
"@  c #720001",
"#  c #572609",
"$  c #552727",
"%  c #523032",
"&  c #55152A",
"*  c #1B7415",
"=  c #4C6F1C",
"-  c #4C6A1A",
";  c #186A75",
":  c #7A4851",
">  c #495177",
",  c #586070",
"<  c #830001",
"1  c #871400",
"2  c #B90000",
"3  c #AB0A0E",
"4  c #83300A",
"5  c #83392C",
"6  c #921528",
"7  c #C70102",
"8  c #DC0000",
"9  c #D50206",
"0  c #D21612",
"q  c #E80002",
"w  c #FE0000",
"e  c #FA080A",
"r  c #FD0318",
"t  c #F31419",
"y  c #CC210A",
"u  c #FD1824",
"i  c #FE0F35",
"p  c #FB2C34",
"a  c #D52121",
"s  c #84470A",
"d  c #834D2C",
"f  c #8B6B16",
"g  c #ED770F",
"h  c #CF5F14",
"j  c #FC0946",
"k  c #C73B50",
"l  c #FF2747",
"z  c #F52E51",
"x  c #F63568",
"c  c #864748",
"v  c #FE4D50",
"b  c #D76B71",
"n  c #F46969",
"m  c #E14F68",
"M  c #329710",
"N  c #2DA204",
"B  c #3B9B2B",
"V  c #328922",
"C  c #3EA22D",
"Z  c #059810",
"A  c #51A60A",
"S  c #73AE09",
"D  c #429C2C",
"F  c #498D2A",
"G  c #47A62D",
"H  c #57A933",
"J  c #66AC23",
"K  c #77981C",
"L  c #539F4D",
"P  c #8D8E11",
"I  c #94AD10",
"U  c #84B032",
"Y  c #A48B19",
"T  c #C88A12",
"R  c #F49906",
"E  c #F79618",
"W  c #FAA903",
"Q  c #FEBB00",
"!  c #FAAC17",
"~  c #FFB826",
"^  c #FBAB25",
"/  c #F49A22",
"(  c #96CE00",
")  c #99CD1B",
"_  c #97CB18",
"`  c #9AD21B",
"'  c #9AD418",
"]  c #92CE04",
"[  c #ABD616",
"{  c #B0E215",
"}  c #99CC26",
"|  c #96CC30",
" . c #A3D231",
".. c #A7E124",
"X. c #FFC718",
"o. c #FFD610",
"O. c #CAE306",
"+. c #C8E212",
"@. c #D2F00B",
"#. c #FFE803",
"$. c #FFF604",
"%. c #FEEC16",
"&. c #FFC526",
"*. c #FCD42D",
"=. c #FEF02D",
"-. c #AAAA61",
";. c #E9A75D",
":. c #A3CF51",
">. c #9CC76F",
",. c #D0E745",
"<. c #FEEC55",
"1. c #D9E873",
"2. c #FDEC6A",
"3. c #E1D069",
"4. c #4E108F",
"5. c #345B98",
"6. c #2F6F8B",
"7. c #1A6CB6",
"8. c #007CB5",
"9. c #007DBB",
"0. c #1D73BA",
"q. c #1F7ABF",
"w. c #036DB0",
"e. c #2275BA",
"r. c #386BA7",
"t. c #00759A",
"y. c #4F5585",
"u. c #5E7491",
"i. c #1A7DC3",
"p. c #0C7EC7",
"a. c #9434A6",
"s. c #AE37B1",
"d. c #A600AC",
"f. c #B346BA",
"g. c #A94BB4",
"h. c #B86CB9",
"j. c #8A46A6",
"k. c #FE4A87",
"l. c #FF5E95",
"z. c #FF659B",
"x. c #EA6F9B",
"c. c #BB3CC0",
"v. c #BE65D7",
"b. c #BF5DD6",
"n. c #C16ECE",
"m. c #CC7AF8",
"M. c #D47DFA",
"N. c #C44EC9",
"B. c #0084B9",
"V. c #008BBC",
"C. c #0084B6",
"Z. c #1193B8",
"A. c #318EB5",
"S. c #00839D",
"D. c #61A6B6",
"F. c #1787CC",
"G. c #0096C2",
"H. c #009BC4",
"J. c #009DCB",
"K. c #188DD1",
"L. c #0799DA",
"P. c #1493D7",
"I. c #1C98C9",
"U. c #2A88C7",
"Y. c #3394CB",
"T. c #369CD5",
"R. c #2C97C9",
"E. c #04A3C8",
"W. c #1BA4C8",
"Q. c #08B0D8",
"!. c #27A4C9",
"~. c #38A9C9",
"^. c #3CA7DB",
"/. c #2EB3D4",
"(. c #009CE1",
"). c #089EE5",
"_. c #139BE3",
"`. c #229AE2",
"'. c #05A6E9",
"]. c #02ADF2",
"[. c #03B3F9",
"{. c #0FA7E4",
"}. c #3CACE4",
"|. c #4AB2CC",
" X c #55B5CE",
".X c #57BAD5",
"XX c #48B2D0",
"oX c #69A4C9",
"OX c #66B7D4",
"+X c #79B8D4",
"@X c #72A8CA",
"#X c #44B7E7",
"$X c #56B7E5",
"%X c #44B9F2",
"&X c #40AFE1",
"*X c #5A9BCA",
"=X c #57C2DB",
"-X c #6BC5D2",
";X c #78CBD3",
":X c #79D1DC",
">X c #4DC7F3",
",X c #50CCF6",
"<X c #56D9FD",
"1X c #53C5EB",
"2X c #74D6E4",
"3X c #56E1FF",
"4X c #95AEA7",
"5X c #FF8A8C",
"6X c #DCB88B",
"7X c #F2A6A7",
"8X c #F6A2AC",
"9X c #AFD3AA",
"0X c #A9D19D",
"qX c #F0D29C",
"wX c #F2F48B",
"eX c #FEE5B9",
"rX c #EAF5B2",
"tX c #D8D989",
"yX c #84BAD7",
"uX c #86AFCE",
"iX c #A6BED7",
"pX c #FFB4CC",
"aX c #D385FC",
"sX c #E187FF",
"dX c #D9ACE4",
"fX c #98C5DA",
"gX c #89C5D8",
"hX c #A8C4DB",
"jX c #B9CCDF",
"kX c #94D4E9",
"lX c #B8D7E6",
"zX c #A9CFE2",
"xX c #8FE5F0",
"cX c #AFE6ED",
"vX c #FDC3C4",
"bX c #F1F1CD",
"nX c #C8D9E6",
"mX c #CED6EA",
"MX c #EAD1F6",
"NX c #CBE2EC",
"BX c #D9E3ED",
"VX c #D8E8F6",
"CX c #D1EBF6",
"ZX c #E6E5EC",
"AX c #E7EBFB",
"SX c #F4EAFE",
"DX c #EBF4FA",
"FX c #F4F9FD",
"GX c #FEFEFF",
"HX c #F2F7FD",
"JX c #F0F2EA",
"KX c #D5DADD",
/* pixels */
"                                                                                                    ",
"                                                          tX+.@.                                    ",
"                  kX-X;X        lXfXJ.J.A.              rXwX@.@.+.                                  ",
"              NXcX:X:XxX-X     XkX.XD.|.Q.A.          ,.1.O.O.@.@.[                                 ",
"              xXgX-X;X:X2X    D.'.E.1.*.D.t.        0X .O.@.+.@.@. .                                ",
"              .X2X;X;X2X~.      w.0X=.Q / -.      9X0XG ` { +.{  .      NXH.!.!.8.@XGX              ",
"                XX|.|.E.          ,.&./ ^       D >.L M G H S J     AXFXVXQ.=XH.*XGXGXGXGX          ",
"                        $.X./ R   %.! ! E       V N N G G B *     AXGXGXNXE.~.C.mXGXGXGXGXzX        ",
"                      #.$.$.*.! ! &.&.~ ^ ~       * V D M *     hXGXGXGXVXG.V.@XGXGXGXNX X=XW.      ",
"          <.2.wXwX  2.&.&.$.$.&.! R X.Q Q X.                    *XFXGXGXDXW.V.hXGXGXlXH.E..X=X~.    ",
"          *.=.=.<.2.2.o.~ &.$.*.R ;.                          !.8.jXGXGXGX+XV.nXGXnXH.G.B.8.C.9.    ",
"          R R W W W o.$.%.~ %.o.Q qXbXeXeXeXtXtXbX            XX~.8.BXGXGXnXB.BXHXG.8.oXiXnXmXlXuX  ",
"            &.! R ! *.$.%.&.%.%.^   6X;.;.:.:.U qXeXeXeXeXeX@XE. XV.A.nXGXGXOXlXhXR.ZXGXGXGXGXGXGX  ",
"              E ! &.    &.o.%.&.      j h S Z M U >.3.6XqXqXKXOXE.V.H.V.uXBXnXOX+XNXDXBXVXFXGXGXGX  ",
"              W *.                  i l T I J V M S S       DXDXNXfXOX~.V.~.fXA.yX+XC.V.E.~.gXVXGX  ",
"          aXaX7X                    l z z j T S U           DXFXGXGXFXHXGXHXfX+XfXDXBXoXV.E.V./.gX  ",
"      MXMXaXsXm.                  p l i p i g h Y I         AXGXFXGXGXGXBXoX!.DXoXfXGXGXiX8.|.=XJ.  ",
"    M.MXaXm.aXaXn.h.n.s.f.      l i l l q q t a 7 h           yXiXjXiXoXB.V.lXGX@XH.DXGXGXiX8.&XE.  ",
"    n.M.aXaXaXm.dXMXn.s.N.g.    j l i r t t t 2 7             B.G.9.B.H.G.gXGXGXuXV.zXGXGXFXoXB.    ",
"      n.M.M.M.b.h.g.d.g.f.f.4.  z w q 8 8 7 2 0 b               /.-X~.G.yXGXGXFXoXV.+XGXGXGXNXw.    ",
"          f.s.  a.s.f.f.s.g.    JX7Xk k k m x.dXMX              J./.XXzXGXGXGXAXC.G.XXDXGXGXDX      ",
"                  a.a.a.j.4.  GXFXFXSXMXMXBXSXAXSXMX              OXCXGXDXGXGXiXC.~.XXDXGXDX        ",
"                              GXGXFXFXDXAXAXMXSXSXmX                  AXDXGXBX9.XXXX.XCXGX          ",
"      8X5Xw u r             ( 0XbXJXJXDXZXZXZXKXiXL A                     VXU.G.W.H.!.              ",
"    v vXv w u r q       } ..' ] ] ( :.:.:.:.} A Z M H J                                             ",
"    p w w u r r 0       .._ }  .| ' ( ( ( ( ( H H F B G                                             ",
"    q r p r r r y     ` ' ) ) _ ` } |  .|  .| B B D D B D                                           ",
"        8 q 7 y     _ I P _ ) ) ` ` _ _ ' _ H B F B B D G C                                         ",
"                  f f < # _ ` ) ) ) ) ` I K C C B = = F C F               pXz.l.l.                  ",
"    b 7 0         1 < 4 s _ ` } ) ` } I @ . = C F . . - = # X           pX8Xk.l.z.k.                ",
"b vXb q t 9     5 5 d 4 1 P } ` ' ( P @ . O o - # o O + + X +           z.k.l.z.z.x                 ",
"m b 2 a 9 9 c   < 1 1 d 6 5 f I P : @ + $ $ . + & $ $ O O $ O o         k.z.l.z.k.z                 ",
"3 q a 9 0 2 u.=Xc c c < 4 < < 6 < @ % O X X O o X . . o . X X u.[.        z x x j                   ",
"  6 2 2 3 1   <X$XY.OX5 : u.d < , % X % > % X > > O . r.U.y.5.[.                                    ",
"                <XK.>X=Xr.}.+Xy.Y..Xu.5.'.Y.5.0.'.U.5.L.[.F.(.[.                                    ",
"                <X%XY.<XK.^.3XU.F.3X}.w.).[.p.0.].'.7._.'.e.[.                                      ",
"                  >XU.1X#XU.<X^.0.<X%X7.P.].e.q.].K.7.].P.F.].                                      ",
"            >     <X%X&X,Xq.,X#X7.,X>X7.'.'.0.F.].F.F.].i.{.                lX-X;X-X                ",
"      zXzX!.A.W.    %XT.,XY.&X>X7.>X>X7.(.'.7.P.'.0.L.{.F.].              CXcX:XxX2X X              ",
"      kX-XV.A.E.Z.  <X%X#X&XT.,Xe.#X,Xe.(.{.7.L.'.7.'.K.).              ;XxX-X;X;X;X X              ",
"      Q.E.Z.Z.E.A.    #X^.#XY.,XY.&X,Xe.)._.7.'.P.F.'.F._.              XX2X;X;X;X2X!.              ",
"      S./.!.A.!.;     1X%X#X^.#XT.T.,Xe.(._.0.'.F.P.L.`.    rXwXO.+.      ~. X=XXXW.                ",
"        6.6.;           #X}.^.&X&XY.,Xq.(.P.i.'.q.L.P.`.  1.rX,.@.@.@.                              ",
"                w u     $X%X^.&X&XT.,XU.L.P.F._.F.{.`.    ,.,.O.+.+.@.'                             ",
"            w w e w u     .X}.}.^.T.%XY.(.K.K.K.K._.K.    { @.+.O.+.+.`                             ",
"          v 5Xt w e u 7   $X}.#X#X}.,XT.).P.)._.).K.        { [ { [ `                               ",
"          n vXp w u q 3         &XT.#XT.L.K.P.K.                                                    ",
"            w w w q 2                                                                               ",
"              9 7                                                                                   ",
"                                                                                                    "
};
