/* XPM */
static char *b16c3ce676994fd0f168a6adfaf7337cWu0ZFcrUMoVYNJcu[] = {
/* columns rows colors chars-per-pixel */
"50 50 252 2 ",
"   c None",
".  c #560100",
"X  c #590000",
"o  c #560D04",
"O  c #571800",
"+  c #560E16",
"@  c #720001",
"#  c #572609",
"$  c #552727",
"%  c #523032",
"&  c #55152A",
"*  c #1B7414",
"=  c #4C6F1C",
"-  c #4C6A1A",
";  c #186A75",
":  c #7A4851",
">  c #495177",
",  c #586070",
"<  c #830001",
"1  c #871400",
"2  c #B90000",
"3  c #AB0A0E",
"4  c #83300A",
"5  c #83392C",
"6  c #921528",
"7  c #C70102",
"8  c #DC0000",
"9  c #D50206",
"0  c #D21612",
"q  c #E80002",
"w  c #FE0000",
"e  c #FA080A",
"r  c #FD0318",
"t  c #F31419",
"y  c #CC210A",
"u  c #FD1824",
"i  c #FE0F35",
"p  c #FB2C34",
"a  c #D52121",
"s  c #84470A",
"d  c #834D2C",
"f  c #8B6B16",
"g  c #ED770F",
"h  c #CF5F14",
"j  c #FC0946",
"k  c #C73B50",
"l  c #FF2747",
"z  c #F52E51",
"x  c #F63568",
"c  c #864748",
"v  c #FE4D50",
"b  c #D76B70",
"n  c #F46969",
"m  c #E14F68",
"M  c #329710",
"N  c #2DA204",
"B  c #3B9B2B",
"V  c #328922",
"C  c #3EA22D",
"Z  c #059810",
"A  c #51A60A",
"S  c #73AE09",
"D  c #429C2C",
"F  c #498D2A",
"G  c #47A62D",
"H  c #57A933",
"J  c #66AC23",
"K  c #77981C",
"L  c #539F4D",
"P  c #8D8E11",
"I  c #94AD10",
"U  c #84B032",
"Y  c #A48B19",
"T  c #C88A12",
"R  c #F49906",
"E  c #F79618",
"W  c #FAA903",
"Q  c #FEBB00",
"!  c #FAAC17",
"~  c #FFB826",
"^  c #FBAB25",
"/  c #F49A22",
"(  c #96CE00",
")  c #99CD1B",
"_  c #97CB18",
"`  c #9AD21B",
"'  c #9AD418",
"]  c #92CE04",
"[  c #ABD616",
"{  c #B0E215",
"}  c #99CC26",
"|  c #96CC30",
" . c #A3D231",
".. c #A7E124",
"X. c #FFC718",
"o. c #FFD610",
"O. c #CAE306",
"+. c #C8E212",
"@. c #D2F00B",
"#. c #FFE803",
"$. c #FFF604",
"%. c #FEEC15",
"&. c #FFC526",
"*. c #FCD42D",
"=. c #FEF02D",
"-. c #AAAA61",
";. c #E9A75D",
":. c #A3CF51",
">. c #9CC76F",
",. c #D0E745",
"<. c #FEEC55",
"1. c #D9E873",
"2. c #FDEC6A",
"3. c #E1D069",
"4. c #4E108F",
"5. c #345B98",
"6. c #2F6F8B",
"7. c #1A6CB6",
"8. c #007CB5",
"9. c #007DBB",
"0. c #1D73BA",
"q. c #1F7ABF",
"w. c #036DB0",
"e. c #2275BA",
"r. c #386BA7",
"t. c #00759A",
"y. c #4F5585",
"u. c #5E7491",
"i. c #1A7DC3",
"p. c #0C7EC7",
"a. c #9434A6",
"s. c #AE37B1",
"d. c #A600AC",
"f. c #B346BA",
"g. c #A94BB4",
"h. c #B86CB9",
"j. c #8A46A6",
"k. c #FE4A87",
"l. c #FF5E95",
"z. c #FF659B",
"x. c #EB6F9B",
"c. c #BB3CC0",
"v. c #BE65D7",
"b. c #BF5DD6",
"n. c #C16ECE",
"m. c #CC7AF8",
"M. c #D47DFA",
"N. c #C44EC9",
"B. c #0084B9",
"V. c #008BBC",
"C. c #0084B6",
"Z. c #1193B8",
"A. c #318EB5",
"S. c #00839D",
"D. c #61A6B6",
"F. c #1787CC",
"G. c #0096C2",
"H. c #009BC4",
"J. c #009DCB",
"K. c #188DD1",
"L. c #0799DA",
"P. c #1593D7",
"I. c #1C98C9",
"U. c #2A88C7",
"Y. c #3394CB",
"T. c #369CD5",
"R. c #2C97C9",
"E. c #04A4C8",
"W. c #1BA4C8",
"Q. c #08B0D8",
"!. c #27A4C9",
"~. c #38A9C9",
"^. c #3CA7DB",
"/. c #2EB3D4",
"(. c #009CE1",
"). c #089EE5",
"_. c #139BE3",
"`. c #229AE2",
"'. c #05A6E9",
"]. c #02ADF2",
"[. c #03B3F9",
"{. c #0FA7E4",
"}. c #3CACE4",
"|. c #4AB2CC",
" X c #55B5CE",
".X c #57BAD5",
"XX c #48B2D0",
"oX c #69A4C9",
"OX c #66B7D4",
"+X c #79B8D4",
"@X c #72A8CA",
"#X c #44B7E7",
"$X c #56B7E5",
"%X c #44B9F2",
"&X c #40AFE1",
"*X c #5A9BCA",
"=X c #57C2DB",
"-X c #6BC5D2",
";X c #78CBD3",
":X c #79D1DC",
">X c #4DC7F3",
",X c #50CCF6",
"<X c #56D9FD",
"1X c #53C5EB",
"2X c #74D6E4",
"3X c #56E1FF",
"4X c #95AEA7",
"5X c #FF8A8C",
"6X c #DCB88B",
"7X c #F2A6A7",
"8X c #F6A2AC",
"9X c #AFD3AA",
"0X c #A9D19D",
"qX c #F0D29C",
"wX c #F2F48B",
"eX c #FEE5B9",
"rX c #EAF5B2",
"tX c #D8D989",
"yX c #84BAD7",
"uX c #86AFCE",
"iX c #A6BED7",
"pX c #FFB4CC",
"aX c #D385FC",
"sX c #E187FF",
"dX c #D9ACE4",
"fX c #98C5DA",
"gX c #89C5D8",
"hX c #A8C4DB",
"jX c #B9CCDF",
"kX c #94D4E9",
"lX c #B8D7E6",
"zX c #A9CFE2",
"xX c #8FE5F0",
"cX c #AFE6ED",
"vX c #FDC3C4",
"bX c #F1F1CD",
"nX c #C8D9E6",
"mX c #CED6EA",
"MX c #EAD1F6",
"NX c #CBE2EC",
"BX c #D9E3ED",
"VX c #D8E8F6",
"CX c #D1EBF6",
"ZX c #E6E5EC",
"AX c #E7EBFB",
"SX c #F4EAFE",
"DX c #EBF4FA",
"FX c #F4F9FD",
"GX c #FEFEFF",
"HX c #F2F7FD",
"JX c #F0F2EA",
"KX c #D5DADD",
/* pixels */
"                                                                                                    ",
"                                    O.+.tX                                                          ",
"                                  +.@.@.2.rX              !.Q.E.fXzX        ;X-XkX                  ",
"                                [ @.+.O.{ wX,.          A.Q.|.D..XcX X    OXxX:X:XcXNX              ",
"                                 .@.@.+.O.O. .4X        t.D.*.1.E.Q.A.    :X:X;X-XgXxX              ",
"              GX@X8.!.!.H.NX       .{ { [ [ G 9X9X      -./ W =.4X8.      !.xX;X;X2X=X              ",
"          GXGXGXFX*XJ.-XQ.CXFXAX    U J J D M H 0XB       X./ *.,.          J. X|.|.                ",
"        zXGXGXGXGXmXC.!.E.CXGXGXAX    * C G G N N =       R W ! o.  R ^ X.$.                        ",
"      W.=X XNXGXGXGX@XV.H.VXGXGXGXhX    * M B V *       ~ ! ! *.&.! ! o.%.$.#.                      ",
"    !.=X.XE.H.lXGXGXhXV.W.DXGXGXFX*X                    ~ X.Q Q W ! &.%.#.*.&.3.  wXwX2.2.          ",
"    9.B.8.8.H.H.nXGXnXV.+XGXFXGXjX9.W.                          ;.W *.$.&.&.#.<.2.<.=.=.*.          ",
"  uXlXmXnXhXoXC.V.HXZXC.nXGXGXBX8.~.XX            eXtXtXeXeXeXbXqXW o.%.&.o.$.#.W W W R R           ",
"  GXGXGXGXGXGXBXR.zXlXOXGXGXnXA.G. XE.@XeXeXeXeXbXqX| :.:.;.;.6X  ^ %.%.*.=.$.&.! W ! &.            ",
"  GXGXGXHXAXBXDXNX+XoXBXBXuXV.V.G.H.-XKXqXqX6X3.-.K M Z I h j       &.%.o.~     &.! /               ",
"  GXVXyX~.E.V.C.+XyXR.yX~.G.~.OXfXNXHXDX      S S N V J I T l i                   *.W               ",
"  gX/.H.E.C.oXBXJXfXyXfXJXGXHXFXGXGXFXDX          } K T i z l l                     7Xm.aX          ",
"  H..X|.8.hXFXGXfXoXDXW.oXBXGXGXGXFXGXAX        I h h g j p i p i                   m.sXaXMXMX      ",
"  E.&X8.iXGXGXAXH.@XGXnXV.B.oXiXjXhXyX          h 0 y t 9 q p z i l       g.s.n.h.n.aXaXm.aXMXM.    ",
"    B.oXFXGXGXlXV.uXGXGXgXH.H.V.9.G.9.            7 2 t r t r i l l     g.N.s.n.dXdXm.aXM.M.M.n.    ",
"    w.NXGXGXFX+XV.oXFXGXGXyXH.~.OX/.              b a 7 9 9 9 q e z   4.f.s.f.d.h.h.b.M.M.M.n.      ",
"      DXGXGXDX|.H.C.DXGXGXGXzXXX/.E.              MXdXx.m k k k 7XJX    g.f.f.f.c.a.  s.f.          ",
"        HXGXDX|.~.C.iXGXGXHXFXCXOX              MXSXDXAXVXMXMXAXGXGXGX  4.j.a.a.a.                  ",
"          GXVXXXXXXXB.NXGXHXAX                  mXSXMXSXSXSXAXFXFXGXGX                              ",
"              !.H.!.B.U.VX                    A L 4XKXZXZXZXJXJXJXKXtX'             r u w 5X8X      ",
"                                            H H M Z A } :.:.:.:.( ] ] ` ..}       q r u w v vXn     ",
"                                            G B D L H ( ( ( ] ] ` | | ` _ ..      9 r r u w w p     ",
"                                          D D D D B D |  .} | } } ) ' ` ) ) )     y e r r p r 8     ",
"                                        G G B D D D V J ` ' ) ) ) ' ) ` _ P I I     y 9 9 q         ",
"                  l.l.z.pX              F B D = = B B B K I ` ` _ ' _ ` _ s < f f                   ",
"                k.l.l.k.8XpX          . # - - . . F B = . @ I ` ' ' ) ` I s 4 < 1         0 7 b     ",
"                k.l.z.z.k.z.          + . + + O o # - o O o @ P ' ' } _ P < 4 5 d 5     9 t 9 n vXb ",
"                z k.l.z.z.x         X O $ O O # $ & + + $ % + @ : Y P f 5 5 d 1 1 <   c 9 7 y 7 b m ",
"                  j x x z         ].r.X X X o . . . O # . . O % @ < 6 @ < 4 < c : c =Xu.7 0 8 a q 3 ",
"                                    [.5.y.A.r.. O > > . % y.$ . % , < d u.: d @XY.=X3X  < 3 2 2 6   ",
"                                    [.).K.[.L.5.U.'.7.5.Y.(.5.u..XY.y.+X%Xr.=X>XU.<X                ",
"                                      [.q.'.).7.'.].0.p.[.'.w.#X3XU.K.<X^.K.<XY.%X<X                ",
"                                      ].K.P.'.e.F.].e.0.].P.7.#X<X0.^.<XU.&X,XU.>X                  ",
"                -X;X;XlX                ].i.].F.i.].F.0.'.'.7.1X,X7.#X,Xe.,X^.%X<X    ,             ",
"               X2XkX:XcXCX              '.F.'.L.0.'.P.0.'.'.7.>X>X7.>X&XY.,XT.%X    E.A.!.zXfX      ",
"               X:X;X;X-XxX;X              _.K.'.0.).L.7.{.(.7.,X#Xi.,XT.&X#X%X<X  Z.Q.A.V.+XkX      ",
"              /.2X;X;X;X2XXX              `.F.'.i.P.'.7._.(.e.,X&XU.>XY.>X}.#X    A.E.W.Z.E.Q.      ",
"                W.XX=X X~.      +.O.1.rX    `.L.P.F.'.0.P.).e.,X^.^.#X^.&X}.1X    ; !.A.W.W.S.      ",
"                              @.@.O.,.rX1.  `.P.).q.'.q.P.'.U.,XY.^.&X^.}.&X          ; A.6.        ",
"                            ` @.O.@.@.,.,.    `.L.F.).F.P.L.U.>XT.^.&X^.%X1X    u w                 ",
"                            ` +.+.+.O.@.[     K._.P.P.P.K.(.Y.%X^.^.}.}.$X    u w e q w             ",
"                              ` [ { [  .        P._.P.).P.'.T.>X}.#X#X}.$X  7 u e w t 5Xv           ",
"                                                    K.P.K.P.T.#XT.^.        3 q u w p vXn           ",
"                                                                              2 q w w w             ",
"                                                                                  2 7               ",
"                                                                                                    "
};
