/* XPM */
static char *e6609dda5c424bebcd544324e477fa9eXbKqjy0LDf9SH86p[] = {
/* columns rows colors chars-per-pixel */
"50 49 255 2 ",
"   c None",
".  c #330000",
"X  c #31000A",
"o  c #180020",
"O  c #480000",
"+  c #560000",
"@  c #581700",
"#  c #6C0000",
"$  c #740000",
"%  c #700118",
"&  c #6B2B0F",
"*  c #4F2027",
"=  c #006500",
"-  c #367306",
";  c #007020",
":  c #727B00",
">  c #003E4D",
",  c #0D6B73",
"<  c #26707B",
"1  c #0F4C57",
"2  c #6F6D70",
"3  c #860001",
"4  c #9B0000",
"5  c #950001",
"6  c #851108",
"7  c #A70100",
"8  c #B90503",
"9  c #B30015",
"0  c #83310A",
"q  c #B30F2E",
"w  c #B5243A",
"e  c #9E2126",
"r  c #C70100",
"t  c #D30000",
"y  c #DB0305",
"u  c #D0120C",
"i  c #E80308",
"p  c #FE0101",
"a  c #F50503",
"s  c #FB031B",
"d  c #F01117",
"f  c #EA2310",
"g  c #CE1C29",
"h  c #FD0F31",
"j  c #F02731",
"k  c #CE2A13",
"l  c #B36D0A",
"z  c #924D2B",
"x  c #AC483D",
"c  c #9D5E15",
"v  c #E47B02",
"b  c #EC6B3C",
"n  c #E36221",
"m  c #B92A45",
"M  c #BD3552",
"N  c #FA0A49",
"B  c #FD2442",
"V  c #F4345D",
"C  c #CC3C66",
"Z  c #E42A66",
"A  c #A1786F",
"S  c #F74D52",
"D  c #F97548",
"F  c #C94367",
"G  c #D24B72",
"H  c #FF5771",
"J  c #F9686B",
"K  c #F67571",
"L  c #DA5D5C",
"P  c #009C00",
"I  c #2E8A08",
"U  c #088E28",
"Y  c #37A32A",
"T  c #1E9D15",
"R  c #4B980D",
"E  c #7B980E",
"W  c #55A707",
"Q  c #74B10F",
"!  c #57B128",
"~  c #64AD29",
"^  c #7BC923",
"/  c #009443",
"(  c #45A65D",
")  c #6E9467",
"_  c #87B715",
"`  c #98B11E",
"'  c #88BA27",
"]  c #A79912",
"[  c #D28910",
"{  c #E98600",
"}  c #F08E00",
"|  c #F29400",
" . c #F39903",
".. c #F49C0A",
"X. c #FD9803",
"o. c #F19517",
"O. c #CBA902",
"+. c #F8A507",
"@. c #FEB802",
"#. c #F6A413",
"$. c #F8AC19",
"%. c #F8A818",
"&. c #FBB41D",
"*. c #FFB91C",
"=. c #E9A90A",
"-. c #D59522",
";. c #F5962F",
":. c #DDAF2A",
">. c #FBAA23",
",. c #FEBC23",
"<. c #FDB623",
"1. c #F1B130",
"2. c #92CD0B",
"3. c #B8DA05",
"4. c #A5D725",
"5. c #B3C72C",
"6. c #A4DA28",
"7. c #FCC401",
"8. c #FCCE0D",
"9. c #D0EC0E",
"0. c #FCE700",
"q. c #FDF401",
"w. c #FDFD01",
"e. c #FFFD0B",
"r. c #FEEA19",
"t. c #FEF918",
"y. c #FFC326",
"u. c #FFC924",
"i. c #FFC729",
"p. c #FCCE31",
"a. c #FBF12F",
"s. c #D5EB24",
"d. c #969C77",
"f. c #F79153",
"g. c #FBB04B",
"h. c #F6B070",
"j. c #CF8D7B",
"k. c #F9CB47",
"l. c #FFDF58",
"z. c #F7CC4D",
"x. c #FDED54",
"c. c #F9CA67",
"v. c #FCD979",
"b. c #FCD46B",
"n. c #FFFB6F",
"m. c #D5E96C",
"M. c #9DD452",
"N. c #6B0091",
"B. c #1F77BE",
"V. c #597DA5",
"C. c #A63AAE",
"Z. c #FC3898",
"A. c #FE39AE",
"S. c #AF44B9",
"D. c #B662A5",
"F. c #DD5887",
"G. c #E15B8B",
"H. c #E55E92",
"J. c #FA5191",
"K. c #DB6A8B",
"L. c #EC659A",
"P. c #FC659A",
"I. c #FC778D",
"U. c #FC58AA",
"Y. c #F26AA3",
"T. c #FB6AA7",
"R. c #FC72AD",
"E. c #F07BAE",
"W. c #FF6BB4",
"Q. c #FF76B4",
"!. c #FF7CBB",
"~. c #FE77B7",
"^. c #BC3FC2",
"/. c #B855C9",
"(. c #BC60D3",
"). c #FF7CC0",
"_. c #FF76C9",
"`. c #FA76D0",
"'. c #CC75F0",
"]. c #C15BC4",
"[. c #1794B2",
"{. c #228CA5",
"}. c #568C8A",
"|. c #75A2B7",
" X c #578AA9",
".X c #02A3CA",
"XX c #0CACD4",
"oX c #5896CA",
"OX c #5194CD",
"+X c #50B2D1",
"@X c #6EB4DA",
"#X c #72B7E6",
"$X c #76CCD6",
"%X c #7AD4DE",
"&X c #70C6D1",
"*X c #76D5E3",
"=X c #5AC5DD",
"-X c #B9ADB0",
";X c #9AA6A3",
":X c #C48E88",
">X c #FD858D",
",X c #FE969B",
"<X c #F19B86",
"1X c #D5AF85",
"2X c #F9B28D",
"3X c #FD83B5",
"4X c #FA8DA8",
"5X c #CBADB3",
"6X c #F4AEAE",
"7X c #A1D798",
"8X c #F6CE94",
"9X c #FFFC89",
"0X c #FBDBAC",
"qX c #F5C8A3",
"wX c #FEF5A7",
"eX c #FFE5B7",
"rX c #FFE7AC",
"tX c #D7D19D",
"yX c #B2B1CD",
"uX c #88B9C7",
"iX c #FE82C4",
"pX c #FC88CA",
"aX c #FE9CC6",
"sX c #FC9AD8",
"dX c #FA8FD9",
"fX c #CFACD3",
"gX c #F8B1D0",
"hX c #D685FD",
"jX c #D388F9",
"kX c #F191F1",
"lX c #F7A2E4",
"zX c #E8BAFB",
"xX c #EFB1F4",
"cX c #D6ADD7",
"vX c #92C9DD",
"bX c #AACCD0",
"nX c #ADDCE3",
"mX c #B8EBF7",
"MX c #B9F7FE",
"NX c #AAE7F3",
"BX c #92DAEC",
"VX c #D0CECF",
"CX c #ECD0D7",
"ZX c #FFF3CB",
"AX c #FADBE8",
"SX c #EDC4FC",
"DX c #D4ECF9",
"FX c #C4FDFF",
"GX c #CAFFFF",
"HX c #DCF9FF",
"JX c #CAE4F2",
"KX c #E9F6FD",
"LX c #FEFFFF",
"PX c #F7FAFC",
"IX c #F7E7F4",
/* pixels */
"                                                                                                    ",
"                                                                                                    ",
"                                OX                                                                  ",
"                                B.#X  @X          J           r.w.n.wX                              ",
"                            OXOXoXoX#X#X  g S   d K         u.e.q.q.n.                              ",
"                              OXoXoX#X      d S d H I.K       r.e.w.0.                              ",
"                    k.eX        @XOXOX        p p S J           u.u.        ).!.~.                  ",
"        h.          +.n.wX9X  B.oX    oX    j S j >X       .          G.H.L.P.T.!.iX~.              ",
"    ; W k.|.      b.v.r.q.ZX                    t J     %.X.8X2X    e g 4 5 5 5 q F.~._.Q.          ",
"    ` U O.uX      k.7.a.l.wX                          { +.X.| g.  $ 8 7 F L.Y.G.w 5 F 6X).          ",
"  - Q R ] d., R       l.c.@.8X                          { X.X.{   9 7 H.!.~.E.!.!.G 7 cXCXU.        ",
"      = - - W ^ _     b.                                        3 7 F.).Y.w 7 m Y.3Xq x IXpX        ",
"        = ! ' O.=.        8.                                    3 w Q.W.7 C L.G q Q.L.5 fXaXT.      ",
"        I ! O.X.*.,.                                            3 F.gXG w T.G Y.w G.E.4 C pXR.      ",
"          ~ =.,.:.E 5.:.1.                        sX            3 K.sXC M Y.m F 7 R.H.4 6XpXY.      ",
"            O.    I R U Y           }.      6XAXsXlX            $ K.gXC 4 Y.L.C Y.Q.q x gX!.F.      ",
"                  - _ E     k.b.    P d.zXlXl.rXsXxX            # M AXaX9 4 L.T.L.w 4 H.Q.R.        ",
"                    R       x.0X3XE.d.:X3X!.,X,XlXzX              3 4XgXY.M 4 4 4 w L.!.!.C         ",
"        r r y h j         R.6XaX!.Y.lXlX!.Q.R.pXSXxX                3 J.).~.Y.L.L.Q.!.~.G           ",
"      r i i h B B       Q.!.cXxXfXlXpXiX3XW.R.pX;X;X5X              1X3 F.Q.!.).).~.P.M             ",
"    u y s i j B         !.W.E.;X) fXlXT.2XgXxXcX) P fX            eXZX  $ e C G F M 4               ",
"    r k f s N B       BXmXgXU.: R j.~.2X0.wXSXzX-XyXVX          qXeX                                ",
"    ] l [ S b B       GXMXMXVX5X:XT.T.P.g.6XSXSXzXIXPXJX      tXeX                                  ",
"      Q Y W -.B     NXMXFXNXMXFXmXJXAXAXAXAXIXPXPXPXJXLXDX  tXeX                                    ",
"    ' ~ ! ~ `     NXGXMXMXFXGXMXNXMXHXKXKXLXLXDXPXKXKXLXPXbXeX            iX!.z.              a J   ",
"          _       vXMXMXMXnX|.bXMXMXFXDXKXKXLXCX-XyXLXDXPXPXrX        1.D W.dX9Xw.k.        i p 6XS ",
"                  + 2 nXbX@ O O }.FXNXHXPXDXVX$ # 6 A -XCXd.        7.0.a.;.A.2Xw.p.J.    d p p p y ",
"  vX%XmXnX      l . . . . + * * O A vXbXCX5X% 0 z % # # $ 6       4X6Xc.a.q.J.2Xw.;._.pX    p p d   ",
"+X%X$X$XBX      { [ :.-.& X c @ o O 0 O X $ c 0 & [ l z 1.%.      pX`.A.Q.l.h.8X8.Z._.8X      8     ",
".X=X%X*X+X        +.p.&.{ :.$.{ l :.1.v l 1.>.{ <.,.X.&.y. .      H f.g.h.>Xh.c.I.,Xb.w.a.          ",
"                    y.,. .y.y.| #.i.$.} <.i... .y.$.} y.&.        ,.q.a.c.<X>X>Xc.0.q.u.D           ",
"                    #.u.#.#.i... .,.&.} $.y.....i...#.u.|         7.c.!.J.z.2Xh.I.L.H W.U.          ",
"        hX          } u.&. .y.$.} y.<.} $.i. .#.y.| &.y.          2XdXZ.7.x.P.u.v.,X`.lX            ",
"    '.kXhXzXzX        >.u.| ,.<.} <.y.} $.y.| $.,.| y.#.      qX0X6XdXK 0.x.T.f.w.t.x.v.            ",
"    (.hXjX'.jX        X.p.#.%.y.} $.y.} $.y.} &.&.#.@.    qX0XeX    Z.f.a.a.3XU.;.x.q.              ",
"      (.'.'.            @.<...u. .#.i.| $.y.| ,.%.=.g.qX0XeX            k.0.qXdXJ.D                 ",
"                C.^./.fXj.7.o.,.$...y. .$.,. .,.#.@.8X                                              ",
"                S.S.C./.D.7.>.<.&.| y.+.%.,. .,.#.%.                              o.+.1.2X          ",
"        < < ;X  N.S.S.C.    @.#.y.} ,.#.$.&.#.&.&.    k t K 5X      '.hXkXzX      X...X.;.          ",
"      , < , }. X          5.z. .,...&.$.$.&.%.*.#.  5 i u t J       hXhXhXxXjX    v X.X.|           ",
"      1 , V., >       2.6.2.7Xm.7.<.*.*.*.u.%.%.      7 8 r 7       /.hXhX'.          v             ",
"          > , &X$XnX  Q 6.2.4.M.  :.:.+.    7.r.      G C G 6X          /.                          ",
"        .X+XvX%X&XNXnX/ Q 4.2.W U P ( 7X    t.w.9XwX  J.T.J.3X4X7.b.rX          t L                 ",
"      .X.XXXvX&X$X%X+X  9.6.9Xd.T ! R d.( 8.t.q.e.x.  N P.P.Z.f.u.7.l.g.      u y L 6X              ",
"      [..X.X.X[.+X+X  3.s.9.m.m.I Y Y _ ] i.0.t.e.0.    N V V +.u.i.@.      3 y u t i               ",
"      V.{.{.{.        4.9.9.9.3.  - [ | ;.qXh.  >.s h ,X                      3 8 8 4               ",
"                        4.3.4.      X...| g.f.  i h p >XI.                                          ",
"                                    v X.o.X.    f s s p a                                           ",
"                                        v         y i d                                             "
};
