/* XPM */
static char *_2a716939dc7464bf67d8be27d9908fdKlIH5AHidiuuAL5D[] = {
/* columns rows colors chars-per-pixel */
"50 49 255 2 ",
"   c None",
".  c #330000",
"X  c #31000A",
"o  c #180020",
"O  c #480000",
"+  c #560000",
"@  c #581700",
"#  c #6C0000",
"$  c #740000",
"%  c #700118",
"&  c #6B2B0F",
"*  c #4F2027",
"=  c #006500",
"-  c #367306",
";  c #007020",
":  c #727B00",
">  c #003E4D",
",  c #0D6B73",
"<  c #26707B",
"1  c #0F4C57",
"2  c #6F6D70",
"3  c #860001",
"4  c #9B0000",
"5  c #950001",
"6  c #851108",
"7  c #A70100",
"8  c #B90503",
"9  c #B30015",
"0  c #83310A",
"q  c #B30F2E",
"w  c #B5243A",
"e  c #9E2126",
"r  c #C70100",
"t  c #D30000",
"y  c #DB0305",
"u  c #D0120C",
"i  c #E80308",
"p  c #FE0101",
"a  c #F50503",
"s  c #FB031B",
"d  c #F01117",
"f  c #EA2211",
"g  c #CE1C29",
"h  c #FD0F31",
"j  c #F02731",
"k  c #CE2A13",
"l  c #B36D0A",
"z  c #924D2B",
"x  c #AC483D",
"c  c #9D5E15",
"v  c #E47B02",
"b  c #EC6B3C",
"n  c #E36221",
"m  c #B92A45",
"M  c #BD3552",
"N  c #FA0A49",
"B  c #FD2442",
"V  c #F4345D",
"C  c #CC3C66",
"Z  c #E42966",
"A  c #A1786F",
"S  c #F74D52",
"D  c #F97548",
"F  c #C94367",
"G  c #D24B72",
"H  c #FF5771",
"J  c #F9686B",
"K  c #F67571",
"L  c #DA5D5C",
"P  c #009C00",
"I  c #2E8A08",
"U  c #088E28",
"Y  c #37A32A",
"T  c #1E9D15",
"R  c #4B980D",
"E  c #7B980E",
"W  c #55A707",
"Q  c #74B10F",
"!  c #57B128",
"~  c #64AD29",
"^  c #7BC923",
"/  c #009443",
"(  c #45A65D",
")  c #6E9467",
"_  c #87B715",
"`  c #98B11E",
"'  c #88BA27",
"]  c #A79912",
"[  c #D28910",
"{  c #E98600",
"}  c #F08E00",
"|  c #F29400",
" . c #F39903",
".. c #F49C0B",
"X. c #FD9803",
"o. c #F19517",
"O. c #CBA902",
"+. c #F8A507",
"@. c #FEB802",
"#. c #F6A413",
"$. c #F8AC19",
"%. c #F8A818",
"&. c #FBB41D",
"*. c #FFB91C",
"=. c #E9A90A",
"-. c #D59522",
";. c #F5962F",
":. c #DDAF2A",
">. c #FBAA23",
",. c #FEBC23",
"<. c #FDB623",
"1. c #F1B130",
"2. c #92CD0B",
"3. c #B8DA05",
"4. c #A5D725",
"5. c #B3C72C",
"6. c #A4DA28",
"7. c #FCC401",
"8. c #FCCE0D",
"9. c #D0EC0E",
"0. c #FCE700",
"q. c #FDF401",
"w. c #FDFD01",
"e. c #FFFD0B",
"r. c #FEEA19",
"t. c #FEF918",
"y. c #FFC326",
"u. c #FFC924",
"i. c #FFC729",
"p. c #FCCE31",
"a. c #FBF12F",
"s. c #D5EB24",
"d. c #969C77",
"f. c #F79153",
"g. c #FBB04B",
"h. c #F6B070",
"j. c #CF8D7B",
"k. c #F9CB47",
"l. c #FFDF58",
"z. c #F7CC4D",
"x. c #FDED54",
"c. c #F9CA67",
"v. c #FCD979",
"b. c #FCD46B",
"n. c #FFFB6F",
"m. c #D5E96C",
"M. c #9DD452",
"N. c #6B0091",
"B. c #1F77BE",
"V. c #597DA5",
"C. c #A63AAE",
"Z. c #FC3898",
"A. c #FE39AE",
"S. c #AF44B9",
"D. c #B662A5",
"F. c #DD5887",
"G. c #E15B8B",
"H. c #E55E92",
"J. c #FA5191",
"K. c #DB6A8B",
"L. c #EC659A",
"P. c #FC659A",
"I. c #FC778D",
"U. c #FC58AA",
"Y. c #F26AA3",
"T. c #FB6AA7",
"R. c #FC72AD",
"E. c #F07BAE",
"W. c #FF6BB4",
"Q. c #FF76B4",
"!. c #FF7CBB",
"~. c #FE77B7",
"^. c #BC3FC2",
"/. c #B855C9",
"(. c #BC60D3",
"). c #FF7CC0",
"_. c #FF76C9",
"`. c #FA76D0",
"'. c #CC75F0",
"]. c #C15BC4",
"[. c #1794B2",
"{. c #228CA5",
"}. c #568C8A",
"|. c #75A2B7",
" X c #578AA9",
".X c #02A3CA",
"XX c #0CACD4",
"oX c #5896CA",
"OX c #5194CD",
"+X c #50B2D1",
"@X c #6EB4DA",
"#X c #72B7E6",
"$X c #76CCD6",
"%X c #7AD4DE",
"&X c #70C6D1",
"*X c #76D5E3",
"=X c #5AC5DD",
"-X c #B9ADB0",
";X c #9AA6A3",
":X c #C48E88",
">X c #FD858D",
",X c #FE969B",
"<X c #F19B86",
"1X c #D5AF85",
"2X c #F9B28D",
"3X c #FD83B5",
"4X c #FA8DA8",
"5X c #CBADB3",
"6X c #F4AEAE",
"7X c #A1D798",
"8X c #F6CE94",
"9X c #FFFC89",
"0X c #FBDBAC",
"qX c #F5C8A3",
"wX c #FEF5A7",
"eX c #FFE5B7",
"rX c #FFE7AC",
"tX c #D7D19D",
"yX c #B2B1CD",
"uX c #88B9C7",
"iX c #FE82C4",
"pX c #FC88CA",
"aX c #FE9CC6",
"sX c #FC9AD8",
"dX c #FA8FD9",
"fX c #CFACD3",
"gX c #F8B1D0",
"hX c #D685FD",
"jX c #D388F9",
"kX c #F191F1",
"lX c #F7A2E4",
"zX c #E8BAFB",
"xX c #EFB1F4",
"cX c #D6ADD7",
"vX c #92C9DD",
"bX c #AACCD0",
"nX c #ADDCE3",
"mX c #B8EBF7",
"MX c #B9F7FE",
"NX c #AAE7F3",
"BX c #92DAEC",
"VX c #D0CECF",
"CX c #ECD0D7",
"ZX c #FFF3CB",
"AX c #FADBE8",
"SX c #EDC4FC",
"DX c #D4ECF9",
"FX c #C4FDFF",
"GX c #CAFFFF",
"HX c #DCF9FF",
"JX c #CAE4F2",
"KX c #E9F6FD",
"LX c #FEFFFF",
"PX c #F7FAFC",
"IX c #F7E7F4",
/* pixels */
"                                                                                                    ",
"                                                                                                    ",
"                                                                  OX                                ",
"                              wXn.w.r.          J           @X  @XOX                                ",
"                              n.q.w.e.u.        >Xa   S g   #X#XOXOXOXOX                            ",
"                              0.w.e.r.      I.K J h S f       #XOXOXV.                              ",
"                  ~.!.!.        u.u.          J S p p         oXOXOX        eXk.                    ",
"              Q.iX!.T.P.L.H.G.          |       >Xj S j     oX    OXB.  9XwXn. .          h.        ",
"          Q.).Q.F.q 5 5 5 4 g e     2X8XX.>.    J t                     ZXe.r.v.b.      |.z.W ;     ",
"          ~.aXF 5 w G.L.H.F 4 8 3   g. . .X.{                           wXl.a.8.k.      uX=.U _     ",
"        U.CXcX5 G !.3XQ.!.!.G.7 7   { X.X.{                           8X@.c.l.      R , d.] R Q -   ",
"        aXIXx q !.Y.m 7 w Y.).G.9 6                                         c.    _ ^ W - - =       ",
"      T.sX6X4 L.Q.q G L.F 7 ~.W.w 3                                     8.        =.O._ ! =         ",
"      R.pXF 4 T.G.w Y.G Y.w G gXF.$                                             ,.*.X.O.~ Y         ",
"      Y.pX5X7 H.R.7 F m L.C M aXK.3             lX                        1.:.5._ :.<.=.!           ",
"      F.).gXx q !.Y.F L.Y.7 C xXK.$             lXaXAX6X      }.          Y U R -     O.            ",
"        R.W.H.4 w L.T.L.7 9 aXAXM #             zXsXrXl.gXzXd.P     v.k.    E _ -                   ",
"        F !.!.L.w 4 4 4 M L.gX4X3               SXlX,X,X!.!.:Xd.E.!.8Xx.      R                     ",
"          G Q.!.Q.L.H.Y.).iXJ.3                 zXSX3XW.~.E.lXlXT.).aX6XR.        B j y r r         ",
"            M Y.Q.iX).!.Q.G.3 1X              yX;X;XiXR.W.3XiXiXsXfXzXlX3X~.      B B h i i r       ",
"              4 m G G C e $   ZXeX            fXP ) cXxXgX2XT.lXcX) ;XE.W.!.        B h a d i u     ",
"                                eXqX          VX;XfXzXSXwX0.2X3Xj.R : P.gXmXBX      B N h f u r     ",
"                                  eXqX      JXPXIXSXSXzX6Xg.Y.U.T.:X6XnXMXMXFX      h b S [ l ]     ",
"                                    eX1X  DXLXJXLXLXIXPXAXAXAXAXJXmXMXMXNXGXMXNX    B :.W R ~       ",
"  J a               z.!.!.            eXbXPXPXKXKXPXDXPXLXKXHXHXMXNXMXGXFXMXMXMXNX    ` ~ ! ~ '     ",
"J ,Xp a         k.w.v.lXW.D 1.        0XPXPXDXPXyX-XCXLXKXIXDXFXMXJXbX|.nXMXMXMXvX      _           ",
"i p p p d     J.p.w.2XA.;.a.q.7.        j.VXfXA 6 # # VXGXPXKXMXFXV.O O @ bXnX2 +                   ",
"  i p a     pX`.;.w.2XJ.0.a.b.6X4X      & # $ $ % z & $ 5XCXbXuX) @ * * + O . . . l       nXNX*X%X  ",
"    8       8X_.Z.8.v.h.x.3XA.`.pX      %.1.z l [ & 0 c $ X O 0 + o & 0 X & -.:.[ {       BX$X$XvX+X",
"          a.e.l.4XI.h.<X<Xf.g.f.H        .u.*.| *.1.{ #.1.l v <.:.l { $.:.{ *.i.#.        +X*X%X=X.X",
"          D u.0.0.c.>XI.<Xv.a.q.,.        &.y.} $.y.| #.u.,.o.$.p.#. .,.,. .y.*.                    ",
"          U.T.J.I.I.2Xh.c.J.3Xb.7.        | y.+.#.y.....i.$.{ &.,. ...y.#.#.i.#.                    ",
"            lX).4Xv.p.P.x.7.Z.pX2X          *.&.| y.#. .y.$.{ ,.,.| $.y. .&.u.|           hX        ",
"            c.n.t.w.f.Q.x.q.K dX6X0XqX      %.y.| ,.$. .i.$.| y.<.{ &.,.| y.>.        zXzXhXhX'.    ",
"              t.a.f.J.4Xa.a.f.Z.    eX0XqX    *.#.$.&.| y.$.} y.$.| y.$.#.p.X.        jXhXhXhX(.    ",
"                D J.dX6X0.p.            eXeXqX1.+.%.,.| y.$.| y.#. .y...<.@.            '.'.(.      ",
"                                              8X@.#.,.| ,.$. .y...%.,.o.7.1XfX].C.C.                ",
"          2X;.+.o.                              $.%.,. .,.$.+.y.| &.>.%.@.D./.C.^./.                ",
"          ;. ...X.      SXkXhX'.      5XK r g     &.*.#.&.$.#.,.| y.#.@.    C.S.S.N.  ;X< <         ",
"           .X.X.v     jXzX'.hXhX      K t u i 5   %.*.#.,.%.$.&...,. .z.5.          }.V., < ,       ",
"            v           '.hXhX/.      7 r 8 7       %.%.u.*.y.*.<.7.m.7X2.6.2.      > , < < 1       ",
"                          /.          6XG C G       r.7.    =.-.%.  M.6.2.6.Q   nX$X@X, >           ",
"                L r           0Xl.7.,XQ.J.P.J.  wX9Xw.t.    7X( P U W 2.6.Q / nXNX&X%XvX+X.X        ",
"              6XL y u       g.l.7.u.K J.P.P.N   x.q.q.e.8.( 7XR ! T d.tX9.9.  +X%X$X&XvXXXXXXX      ",
"              y t u y 3       @.p.u. .V V N     0.e.t.0.1.] ] Y Y I m.m.9.s.3.  +X+X[..X.X.X[.      ",
"              7 9 8 3                       ,Xh s ;.  h.qX;. .[ -   3.9.s.9.4.        {.[.{.<       ",
"                                          >X>Xp h i   g.g.| ..X.      4.3.4.                        ",
"                                          a p s s f     X...X.v                                     ",
"                                            d i y         v                                         "
};
