/* XPM */
static char *_627566068064[] = {
/* columns rows colors chars-per-pixel */
"50 50 251 2 ",
"   c #DE0000",
".  c #D30000",
"X  c #D60009",
"o  c #E40000",
"O  c #EA0000",
"+  c #F20001",
"@  c #FE0000",
"#  c #FB0909",
"$  c #FF1605",
"%  c #FB1918",
"&  c #ED0C14",
"*  c #EB2B04",
"=  c #DC0026",
"-  c #F61922",
";  c #EB2423",
":  c #FD2625",
">  c #FD3234",
",  c #F7313C",
"<  c #DE7100",
"1  c #E76500",
"2  c #EC7400",
"3  c #E77A01",
"4  c #F67900",
"5  c #E67F10",
"6  c #E84D2A",
"7  c #F24E34",
"8  c #D87633",
"9  c #F0702F",
"0  c #EA4A01",
"q  c #BF0046",
"w  c #D9004C",
"e  c #D90157",
"r  c #D70C56",
"t  c #DA355B",
"y  c #DE344C",
"u  c #EA2F48",
"i  c #DE0B69",
"p  c #E40264",
"a  c #F30068",
"s  c #EC0276",
"d  c #F30479",
"f  c #F21978",
"g  c #EA1872",
"h  c #DD3870",
"j  c #EB2875",
"k  c #EC3B77",
"l  c #EC2D70",
"z  c #DE4155",
"x  c #FD4347",
"c  c #E65245",
"v  c #D66A5B",
"b  c #F86E5B",
"n  c #DA4870",
"m  c #E54B78",
"M  c #F25371",
"N  c #FA6867",
"B  c #E97568",
"V  c #F47673",
"C  c #DD656A",
"Z  c #E58100",
"A  c #F48200",
"S  c #FC8500",
"D  c #FE8B00",
"F  c #F48900",
"G  c #FF9401",
"H  c #FF9B00",
"J  c #FD9409",
"K  c #EA8517",
"L  c #F68C17",
"P  c #FA9519",
"I  c #E59400",
"U  c #DCB900",
"Y  c #CBA800",
"T  c #E1B800",
"R  c #ECB700",
"E  c #FD9627",
"W  c #FD9B38",
"Q  c #EC8A31",
"!  c #F1AB30",
"~  c #E5C300",
"^  c #ECCB00",
"/  c #E8C700",
"(  c #F3D500",
")  c #FADD00",
"_  c #F6D900",
"`  c #F0D10A",
"'  c #FEE400",
"]  c #FFEB00",
"[  c #FFF300",
"{  c #FFF60E",
"}  c #FFE71A",
"|  c #FFF01B",
" . c #F5D92C",
".. c #E5C53A",
"X. c #EBCE33",
"o. c #FEE825",
"O. c #FFF130",
"+. c #DFC100",
"@. c #DA8750",
"#. c #F99A4D",
"$. c #EB9654",
"%. c #CDAF54",
"&. c #EEAF4D",
"*. c #DC8E72",
"=. c #ED9173",
"-. c #D3A77A",
";. c #FFA968",
":. c #FFAA79",
">. c #EEAC72",
",. c #E9CE57",
"<. c #FFF05B",
"1. c #E8D072",
"2. c #FDEC68",
"3. c #FEEC79",
"4. c #FFF36D",
"5. c #0F4DB7",
"6. c #0267BE",
"7. c #316CBB",
"8. c #2E5CAB",
"9. c #6275B5",
"0. c #095BCF",
"q. c #0E6ACB",
"w. c #2C68C8",
"e. c #3670D5",
"r. c #006BFA",
"t. c #007BFF",
"y. c #1B74FC",
"u. c #156DEA",
"i. c #356CE1",
"p. c #257AFE",
"a. c #3679FD",
"s. c #2E74E9",
"d. c #185EDE",
"f. c #4576CA",
"g. c #5278D4",
"h. c #4779FA",
"j. c #537AF8",
"k. c #4977EA",
"l. c #737AEC",
"z. c #7753D9",
"x. c #FB1782",
"c. c #F31E90",
"v. c #F53687",
"b. c #F03588",
"n. c #AE4FAD",
"m. c #AF7AAB",
"M. c #B1528F",
"N. c #CE548A",
"B. c #F74988",
"V. c #F6578A",
"C. c #F75793",
"Z. c #ED5385",
"A. c #D56E8B",
"S. c #FB6C8D",
"D. c #E86C98",
"F. c #F67395",
"G. c #F771A3",
"H. c #F55DA1",
"J. c #8D5ACF",
"K. c #7A94BF",
"L. c #008AFF",
"P. c #3786FF",
"I. c #2B84FF",
"U. c #5288D3",
"Y. c #7092D5",
"T. c #4D84FF",
"R. c #5584FE",
"E. c #5687FB",
"W. c #4B92FF",
"Q. c #5897FD",
"!. c #5889EE",
"~. c #699CFF",
"^. c #7A99F9",
"/. c #6C97EA",
"(. c #77A6FC",
"). c #68A6FF",
"_. c #AC9AB2",
"`. c #B9A9AB",
"'. c #D29590",
"]. c #FB968D",
"[. c #EB8796",
"{. c #E79894",
"}. c #FD9996",
"|. c #F18D8C",
" X c #D8AE90",
".X c #EAB38A",
"XX c #EAB89A",
"oX c #F5AF8E",
"OX c #D995A4",
"+X c #F59BB5",
"@X c #F193AA",
"#X c #CCA8AA",
"$X c #FBA7A9",
"%X c #E5B5A7",
"&X c #FCB7AA",
"*X c #F7A9BB",
"=X c #FEB5B8",
"-X c #E7B0B2",
";X c #EBD688",
":X c #E2C797",
">X c #FDC59C",
",X c #EAD591",
"<X c #FBEB98",
"1X c #FCEE8B",
"2X c #E7C5AB",
"3X c #FCC6A6",
"4X c #E9D5AA",
"5X c #F6C8B6",
"6X c #F9D7BA",
"7X c #EFD1AE",
"8X c #F6E7A9",
"9X c #FCEABC",
"0X c #FFF1BA",
"qX c #D7CBA8",
"wX c #8F90C8",
"eX c #88A1DA",
"rX c #97ABD4",
"tX c #A8AAC9",
"yX c #B7AFCD",
"uX c #8A8FE5",
"iX c #88ADFA",
"pX c #99B9FF",
"aX c #94AEF4",
"sX c #A8B8FF",
"dX c #ABB3EA",
"fX c #D2B8CF",
"gX c #FDAAC2",
"hX c #F6B7C7",
"jX c #ECB6CD",
"kX c #D4BCE4",
"lX c #E4BFE3",
"zX c #F696C0",
"xX c #BAC5FB",
"cX c #AFC4F5",
"vX c #D5CBC9",
"bX c #FAC7C6",
"nX c #EBD6C4",
"mX c #FDD5C8",
"MX c #F9CBD6",
"NX c #FDD7D9",
"BX c #EBC8D0",
"VX c #FCEAC2",
"CX c #FFF6C6",
"ZX c #FDE4DA",
"AX c #FEF9DA",
"SX c #DCC6E5",
"DX c #C6C7F8",
"FX c #D5D0F3",
"GX c #F8F0EE",
"HX c #E1DCF0",
"JX c None",
/* pixels */
"JXJXJXJXJXJXJXJXJXJXJXJXJXJXJXJXJXJXJXJXJXJXJXJXJXJXJXJXJXJXJXJXJXJXJXJXJXJXJXJXJXJXJXJXJXJXJXJXJXJX",
"JXJXJXJXJXJXJXJXJXJXJXJXJXJXJXJXJXJXJXJXJXJXJXJXJXJXJXJXJXJXJXJXJXJXJXJXJXJXJXJXJXJXJXJXJXJXJXJXJXJX",
"JXJXJXJXJXJXJXJXJXJXJXJXJXJXJXJXJXJXJXJXJXJXJXJXJXJXJXJXJXJXJXJXJXJXJXJXJXJXJXJXJXJXJXJXJXJXJXJXJXJX",
"JXJXJXJXJXJXJXJXJXJXJXJXJXJXJXJXJXJXJXJXJXJXJXJXJXJXJXJXJXJXJXJXJXJXJXJXJXJXJXJXJXJXJXJXJXJXJXJXJXJX",
"JXJXJXJXJXJXJXJXJXJXJXJXJXJXJXJXJXJXJXJXJXJXJXJXJXJXJXJXJXJXJXJXJXJXJXJXJXJXJXJXJXJXJXJXJXJXJXJXJXJX",
"JXJXJXJXJXJXJXJXJXJXJXJXJXJXJXJXJXJXJXJXJXJXJXJXJXJXJXJXJXJXJXJXJXJXJXJXJXJXJXJXJXJXJXJXJXJXJXJXJXJX",
"JXJXJXJXJXJXJXJXJXJXJXJXJXJXJXJXJXJXJXJX: : $ @ @ MX>XD W E JXJXJXJXJXJXJXJXJXJXJXJXJXJXJXJXJXJXJXJX",
"JXJXJXJXJXJXJXJXJXJXJXJXJXJXJXJXJX> @ : @ @ @ N mX6XH P H H H D D JXJXJXJXJXJXJXJXJXJXJXJXJXJXJXJXJX",
"JXJXJXJXJXJXJXJXJXJXJXJXJXJXJXHX].@ # @ u |.&X5X:.4 F D W #.:.:.;.#.E JXJXJXJXJXJXJXJXJXJXJXJXJXJXJX",
"JXJXJXJXJXJXJXJXJXJXJXJXJXr.FX$X@ @ # $X5XoX#.4 A oX>X6X6X9X9X0X0X9XVX6XJXJXJXJXJXJXJXJXJXJXJXJXJXJX",
"JXJXJXJXJXJXJXJXJXJXJXJXp.cX5X@ # u 5XoXF 4 2 .X7X,X,.X.` ( _ ) ' ' O.4.1XJXJXJXJXJXJXJXJXJXJXJXJXJX",
"JXJXJXJXJXJXJXJXJXJXR.T.Q.NX@ + + &X>.2 3 $.:X;X/ / ` ^ ^ ^ ^ ( ( _ ) ' ] ] JXJXJXJXJXJXJXJXJXJXJXJX",
"JXJXJXJXJXJXJXJXJXJX~.r.cX}.+ + {..X2 5 @.,X,.T ..&.+.&.,.,.,.,.X.' _ _ ' o.| JXJXJXJXJXJXJXJXJXJXJX",
"JXJXJXJXJXJXJXJXJXxXP.a.SX7 O u %XZ < Q 2XV M Z.k l ].bXvXOXoX%X2X7X8X1X<.' [ o.JXJXJXJXJXJXJXJXJXJX",
"JXJXJXJXJXJXJXJX=XsXr.E.-X+ O B *.3 R <X*Xd C.d S.jXDXaX~.l.n.i i N.D.+X5XVX3.[ ' JXJXJXJXJXJXJXJXJX",
"JXJXJXJXJXJXJXJXgXiXu./.{.O O *.>._ [ 6Xc.V.f @XFX~.y.a.a.a.I.l.N.y t p s D.MXCX[ JXJXJXJXJXJXJXJXJX",
"JXJXJXJXJXJXJXd gXiXd.Y.{.o   {.1X] 4.*Xf v.F.HXI.a.h.p.W.Q.W.L.t.n.u h m k s +XAX2.JXJXJXJXJXJXJXJX",
"JXJXJXJXJXJXJXx.*XiX0.Y.{.  * >X3.' <X@Xl k BX!.k.s.^.kXjX*XjXkXsX(.A.M i m Z.a H.ZXJXJXJXJXJXJXJXJX",
"JXJXJXJXJXJXB.x.+XaXd.U.'.6 P >X2.' <XG.p F.tX0.f.tX|.0 @ @ @ $ 7 =XcX`.OXi k V.f H.bXJXJXJXJXJXJXJX",
"JXJXJXJXJXJXC.f @XrXq.e.#X].G 3X2.] ,XD.w *.U.8.`.1 o o & + @ % @ @ N w.rX%Xl k V.v.v.JXJXJXJXJXJXJX",
"JXJXJXJXJXJXH.x.S.yXw.w._.oXD 3X1X_ ,XA.w '.e.w.m.n.m.{.*.*.M @ @ , @ M.6.eXhXm B.B.B.JXJXJXJXJXJXJX",
"JXJXJXJXJXbXS.j M fXe.6.m.&XG :.8X^ 1.C q `.SXFXiXt.P.Y.@.$.XX&XN @ $ t 7.0.eX-Xl B.B.JXJXJXJXJXJXJX",
"JXJXJXJXJX9XG.k g -XY.6.OX&X;.D 4X~ %.'.w s j S.MXDXa.p.wXZ 1 #.6X].@ u 9.f.0.aX$Xs V.JXJXJXJXJXJXJX",
"JXJXJXJXJX9X@Xj h {.`.6.[.}.6X4 oX,.U '.[.gX@Xb.a MXpXp.E. X>.3 G mXV @ _.0.g.0.DXS.v.JXJXJXJXJXJXJX",
"JXJXJXJXJX<XhXa m n #XU.{.$ ZXE Q :XY nXNX}.=XNXG.M FXI.j.%.1. X4 #.mX@ '.f.g.i.(.hXx.JXJXJXJXJXJXJX",
"JXJXJXJXJX<.NXs m i |.rXjX+ =X3X1 *.qXNX@ @ @ b NXB.jXQ.j.%.U 2X;.4 >X}.6 wXe.g.u.FXF.JXJXJXJXJXJXJX",
"JXJXJXJXJX] 0XG.h h z `.fX@ , NX$.0 vX5X@ > > @ $X+X+X(.T.%.U 1.3XS W &X* _.q.U.u.aXgXJXJXJXJXJXJXJX",
"JXJXJXJXJX] 1XjXp m t N.sXb @ V nXQ 8 ZXx @ > @ ].gX+X(.k. XT X.9XE G oXc '.e.k.k.Q.lXJXJXJXJXJXJXJX",
"JXJXJXJXJX} ] VXD.t h w ^.=X@ @ B %X-.vXGXhXx @ $X=X*X).z.*.,.^ VX;.D #.o '.U.i.k.P.lXJXJXJXJXJXJXJX",
"JXJXJXJXJX| ] 2.BXp n y J.pX].@ O ; v v B N @ $ bXS.SXL.n.C 1.( 0X:.J 9   =.uXi.!.a.DXJXJXJXJXJXJXJX",
"JXJXJXJXJX] O._ 8X-Xe t M.L.xX}.@ # O   . . c NXhXlX(.J.y A.;X) 0X:.D 6   B eXs.!.T.iXJXJXJXJXJXJXJX",
"JXJXJXJXJXJX{ } _ 8XOXw n l.t.sXhX=.7 6 9 *.`.wXwXU.U.{.w D.1X) 9X;.4 = o B rXu.R.R.JXJXJXJXJXJXJXJX",
"JXJXJXJXJXJX] } _ ( 4XOX= n.P.P.Q.pXkXfXtXeXf.5.7.5.tX[.e +X3.' 9XQ * = o b dXu.E.R.JXJXJXJXJXJXJXJX",
"JXJXJXJXJXJX<.] o.( ( 4X-Xz J.I.j.p.y.y.u.s.g.g.w./.-Xl x.mX} 2.9X1 X * O b aXu.Q.T.JXJXJXJXJXJXJXJX",
"JXJXJXJXJXJXJX<.'  .( ^ 1.qX{.uXI.a.h.j.j.E.h.r.iXlXS.g G.0X' 3.2Xv O ; + b aXp.R.JXJXJXJXJXJXJXJXJX",
"JXJXJXJXJXJXJXCX| )  .` ^ X.;X:XfXsX(.W.P.P.~.xXMXV.f c.mXO.) I  Xc O ; + V aXI.E.JXJXJXJXJXJXJXJXJX",
"JXJXJXJXJXJXJXJXAX| )  . .^ ~ ~ +.1.jXlXSXlXhX+Xf x.D.bX2.^ 3 @.%XO & ; + ].iXp.JXJXJXJXJXJXJXJXJXJX",
"JXJXJXJXJXJXJXJX5XGX3.) ( ` X.X...+.I $.S.M a s D.F.-X&.3 8 < XX|.+ ; - @ gXQ.JXJXJXJXJXJXJXJXJXJXJX",
"JXJXJXJXJXJXJXJXJXoXGXCX2.( ^ ^ ( / +.+.T &..XqX%X*.< < 8 2 $.5X; O + @ @ @XJXJXJXJXJXJXJXJXJXJXJXJX",
"JXJXJXJXJXJXJXJXJXJXJ 3XZXAX9X8X;X;X,X,X4X4XXX>.3 3 K K K 2 7X{.+ : @ @ # JXJXJXJXJXJXJXJXJXJXJXJXJX",
"JXJXJXJXJXJXJXJXJXJXJXG H :.3X5XnX5X5XXX>.$.2 3 A K K K 2 7X5X+ % @ @ @ JXJXJXJXJXJXJXJXJXJXJXJXJXJX",
"JXJXJXJXJXJXJXJXJXJXJXJXJ H D S D D A A A 4 K K L Q A 4 nXbX@ @ # @ @ JXJXJXJXJXJXJXJXJXJXJXJXJXJXJX",
"JXJXJXJXJXJXJXJXJXJXJXJXJXJXW E E P E E P J L E F 4 #.ZXbX@ @ % @ # JXJXJXJXJXJXJXJXJXJXJXJXJXJXJXJX",
"JXJXJXJXJXJXJXJXJXJXJXJXJXJXJXJXG H H H G J D D W 3XZX$X@ @ % @ JXJXJXJXJXJXJXJXJXJXJXJXJXJXJXJXJXJX",
"JXJXJXJXJXJXJXJXJXJXJXJXJXJXJXJXJXJXJXJ J H ;.6XmX=Xx @ > JXJXJXJXJXJXJXJXJXJXJXJXJXJXJXJXJXJXJXJXJX",
"JXJXJXJXJXJXJXJXJXJXJXJXJXJXJXJXJXJXJXJXJXJXJXJXJXJXJXJXJXJXJXJXJXJXJXJXJXJXJXJXJXJXJXJXJXJXJXJXJXJX",
"JXJXJXJXJXJXJXJXJXJXJXJXJXJXJXJXJXJXJXJXJXJXJXJXJXJXJXJXJXJXJXJXJXJXJXJXJXJXJXJXJXJXJXJXJXJXJXJXJXJX",
"JXJXJXJXJXJXJXJXJXJXJXJXJXJXJXJXJXJXJXJXJXJXJXJXJXJXJXJXJXJXJXJXJXJXJXJXJXJXJXJXJXJXJXJXJXJXJXJXJXJX",
"JXJXJXJXJXJXJXJXJXJXJXJXJXJXJXJXJXJXJXJXJXJXJXJXJXJXJXJXJXJXJXJXJXJXJXJXJXJXJXJXJXJXJXJXJXJXJXJXJXJX",
"JXJXJXJXJXJXJXJXJXJXJXJXJXJXJXJXJXJXJXJXJXJXJXJXJXJXJXJXJXJXJXJXJXJXJXJXJXJXJXJXJXJXJXJXJXJXJXJXJXJX"
};
