/* XPM */
static char *_627566674753[] = {
/* columns rows colors chars-per-pixel */
"50 50 251 2 ",
"   c #DE0000",
".  c #D30000",
"X  c #D60009",
"o  c #E40000",
"O  c #EA0000",
"+  c #F20001",
"@  c #FE0000",
"#  c #FB0909",
"$  c #FF1605",
"%  c #FB1918",
"&  c #ED0C14",
"*  c #EB2B04",
"=  c #DC0026",
"-  c #F61922",
";  c #EB2423",
":  c #FD2625",
">  c #FD3234",
",  c #F7313C",
"<  c #DE7100",
"1  c #E76500",
"2  c #EC7400",
"3  c #E77A01",
"4  c #F67900",
"5  c #E67F10",
"6  c #E84D2A",
"7  c #F24E34",
"8  c #D87633",
"9  c #F0702F",
"0  c #EA4A01",
"q  c #BF0046",
"w  c #D9004C",
"e  c #D90157",
"r  c #D70C56",
"t  c #DA355B",
"y  c #DE344C",
"u  c #EA2F48",
"i  c #DE0B69",
"p  c #E40264",
"a  c #F30068",
"s  c #EC0276",
"d  c #F30479",
"f  c #F21978",
"g  c #EA1872",
"h  c #DD3870",
"j  c #EB2875",
"k  c #EC3B77",
"l  c #EC2D70",
"z  c #DE4155",
"x  c #FD4347",
"c  c #E65245",
"v  c #D66A5B",
"b  c #F86E5B",
"n  c #DA4870",
"m  c #E54B78",
"M  c #F25371",
"N  c #FA6867",
"B  c #E97568",
"V  c #F47673",
"C  c #DD656A",
"Z  c #E58100",
"A  c #F48200",
"S  c #FC8500",
"D  c #FE8B00",
"F  c #F48900",
"G  c #FF9401",
"H  c #FF9B00",
"J  c #FD9409",
"K  c #EA8517",
"L  c #F68C17",
"P  c #FA9519",
"I  c #E59400",
"U  c #DCB900",
"Y  c #CBA800",
"T  c #E1B800",
"R  c #ECB700",
"E  c #FD9627",
"W  c #FD9B38",
"Q  c #EC8A31",
"!  c #F1AB30",
"~  c #E5C300",
"^  c #ECCB00",
"/  c #E8C700",
"(  c #F3D500",
")  c #FADD00",
"_  c #F6D900",
"`  c #F0D10A",
"'  c #FEE400",
"]  c #FFEB00",
"[  c #FFF300",
"{  c #FFF60E",
"}  c #FFE71A",
"|  c #FFF01B",
" . c #F5D92C",
".. c #E5C53A",
"X. c #EBCE33",
"o. c #FEE825",
"O. c #FFF130",
"+. c #DFC100",
"@. c #DA8750",
"#. c #F99A4D",
"$. c #EB9654",
"%. c #CDAF54",
"&. c #EEAF4D",
"*. c #DC8E72",
"=. c #ED9173",
"-. c #D3A77A",
";. c #FFA968",
":. c #FFAA79",
">. c #EEAC72",
",. c #E9CE57",
"<. c #FFF05B",
"1. c #E8D072",
"2. c #FDEC68",
"3. c #FEEC79",
"4. c #FFF36D",
"5. c #0F4DB7",
"6. c #0267BE",
"7. c #316CBB",
"8. c #2E5CAB",
"9. c #6275B5",
"0. c #095BCF",
"q. c #0E6ACB",
"w. c #2C68C8",
"e. c #3670D5",
"r. c #006BFA",
"t. c #007BFF",
"y. c #1B74FC",
"u. c #156DEA",
"i. c #356CE1",
"p. c #257AFE",
"a. c #3679FD",
"s. c #2E74E9",
"d. c #185EDE",
"f. c #4576CA",
"g. c #5278D4",
"h. c #4779FA",
"j. c #537AF8",
"k. c #4977EA",
"l. c #737AEC",
"z. c #7753D9",
"x. c #FB1782",
"c. c #F31E90",
"v. c #F53687",
"b. c #F03588",
"n. c #AE4FAD",
"m. c #AF7AAB",
"M. c #B1528F",
"N. c #CE548A",
"B. c #F74988",
"V. c #F6578A",
"C. c #F75793",
"Z. c #ED5385",
"A. c #D56E8B",
"S. c #FB6C8D",
"D. c #E86C98",
"F. c #F67395",
"G. c #F771A3",
"H. c #F55DA1",
"J. c #8D5ACF",
"K. c #7A94BF",
"L. c #008AFF",
"P. c #3786FF",
"I. c #2B84FF",
"U. c #5288D3",
"Y. c #7092D5",
"T. c #4D84FF",
"R. c #5584FE",
"E. c #5687FB",
"W. c #4B92FF",
"Q. c #5897FD",
"!. c #5889EE",
"~. c #699CFF",
"^. c #7A99F9",
"/. c #6C97EA",
"(. c #77A6FC",
"). c #68A6FF",
"_. c #AC9AB2",
"`. c #B9A9AB",
"'. c #D29590",
"]. c #FB968D",
"[. c #EB8796",
"{. c #E79894",
"}. c #FD9996",
"|. c #F18D8C",
" X c #D8AE90",
".X c #EAB38A",
"XX c #EAB89A",
"oX c #F5AF8E",
"OX c #D995A4",
"+X c #F59BB5",
"@X c #F193AA",
"#X c #CCA8AA",
"$X c #FBA7A9",
"%X c #E5B5A7",
"&X c #FCB7AA",
"*X c #F7A9BB",
"=X c #FEB5B8",
"-X c #E7B0B2",
";X c #EBD688",
":X c #E2C797",
">X c #FDC59C",
",X c #EAD591",
"<X c #FBEB98",
"1X c #FCEE8B",
"2X c #E7C5AB",
"3X c #FCC6A6",
"4X c #E9D5AA",
"5X c #F6C8B6",
"6X c #F9D7BA",
"7X c #EFD1AE",
"8X c #F6E7A9",
"9X c #FCEABC",
"0X c #FFF1BA",
"qX c #D7CBA8",
"wX c #8F90C8",
"eX c #88A1DA",
"rX c #97ABD4",
"tX c #A8AAC9",
"yX c #B7AFCD",
"uX c #8A8FE5",
"iX c #88ADFA",
"pX c #99B9FF",
"aX c #94AEF4",
"sX c #A8B8FF",
"dX c #ABB3EA",
"fX c #D2B8CF",
"gX c #FDAAC2",
"hX c #F6B7C7",
"jX c #ECB6CD",
"kX c #D4BCE4",
"lX c #E4BFE3",
"zX c #F696C0",
"xX c #BAC5FB",
"cX c #AFC4F5",
"vX c #D5CBC9",
"bX c #FAC7C6",
"nX c #EBD6C4",
"mX c #FDD5C8",
"MX c #F9CBD6",
"NX c #FDD7D9",
"BX c #EBC8D0",
"VX c #FCEAC2",
"CX c #FFF6C6",
"ZX c #FDE4DA",
"AX c #FEF9DA",
"SX c #DCC6E5",
"DX c #C6C7F8",
"FX c #D5D0F3",
"GX c #F8F0EE",
"HX c #E1DCF0",
"JX c None",
/* pixels */
"JXJXJXJXJXJXJXJXJXJXJXJXJXJXJXJXJXJXJXJXJXJXJXJXJXJXJXJXJXJXJXJXJXJXJXJXJXJXJXJXJXJXJXJXJXJXJXJXJXJX",
"JXJXJXJXJXJXJXJXJXJXJXJXJXJXJXJXJXJXJXJXJXJXJXJXJXJXJXJXJXJXJXJXJXJXJXJXJXJXJXJXJXJXJXJXJXJXJXJXJXJX",
"JXJXJXJXJXJXJXJXJXJXJXJXJXJXJXJXJXJXJXJXJXJXJXJXJXJXJXJXJXJXJXJXJXJXJXJXJXJXJXJXJXJXJXJXJXJXJXJXJXJX",
"JXJXJXJXJXJXJXJXJXJXJXJXJXJXJXJXJXJXJXJXJXJXJXJXJXJXJXJXJXJXJXJXJXJXJXJXJXJXJXJXJXJXJXJXJXJXJXJXJXJX",
"JXJXJXJXJXJXJXJXJXJXJXJXJXJXJXJXJXJXJXJXJXJXJXJXJXJXJXJXJXJXJXJXJXJXJXJXJXJXJXJXJXJXJXJXJXJXJXJXJXJX",
"JXJXJXJXJXJXJXJXJXJXJXJXJXJXJXJXJXJXJXJXJX> @ x =XmX6X:.G J J JXJXJXJXJXJXJXJXJXJXJXJXJXJXJXJXJXJXJX",
"JXJXJXJXJXJXJXJXJXJXJXJXJXJXJXJXJXJX@ % @ @ $XZX>XW F D J H H H H G JXJXJXJXJXJXJXJXJXJXJXJXJXJXJXJX",
"JXJXJXJXJXJXJXJXJXJXJXJXJXJXJXJX@ @ % @ @ bXZXW 4 F E L J P E E P ! E E JXJXJXJXJXJXJXJXJXJXJXJXJXJX",
"JXJXJXJXJXJXJXJXJXJXJXJXJXJXJX@ @ # @ + bX6X5 A E K L K F A 4 A F F S D H P JXJXJXJXJXJXJXJXJXJXJXJX",
"JXJXJXJXJXJXJXJXJXJXJXJXJXJX@ @ # % + 5X5X2 K K K A 3 Z Q >.%X5X6X6X5X3X:.H D JXJXJXJXJXJXJXJXJXJXJX",
"JXJXJXJXJXJXJXJXJXJXJXJXJX% @ # : + |.nX3 K K 5 3 Z >.:X4X4X,X,X;X;X8X9XAXZX3XH JXJXJXJXJXJXJXJXJXJX",
"JXJXJXJXJXJXJXJXJXJXJXJX@X@ + + + ; 7X$.3 8 < 3 *.%X%X X&.U +./ / / ^ ^ ( 2.CXGXoXJXJXJXJXJXJXJXJXJX",
"JXJXJXJXJXJXJXJXJXJXJXQ.gX@ - % O |.XX< 8 3 &.-X[.V.d a M V $.I U ! X.X.` ( ) 1XGX5XJXJXJXJXJXJXJXJX",
"JXJXJXJXJXJXJXJXJXJXa.iX|.+ ; & O %X@.< ^ 2.mXC.x.d $XjXSXSXlXjX1.U +./ ^  . .' | AXJXJXJXJXJXJXJXJX",
"JXJXJXJXJXJXJXJXJXE.P.aXV + ; o c  XI ) O.mXc.f V.MXxX~.P.P.W.(.sXvX:X;X..^ `  .' | CXJXJXJXJXJXJXJX",
"JXJXJXJXJXJXJXJXJXR.y.aXV + ; o C 2X3.] 0XG.g S.lXiXr.h.R.R.j.h.a.P.uXOX2X1.^ (  .] <.JXJXJXJXJXJXJX",
"JXJXJXJXJXJXJXJXT.E.u.dXb o ; X 1 mX<.} bXs k -X/.d.U.k.i.u.I.p.a.j.I.J.t -X4X_ _ o.[ O.JXJXJXJXJXJX",
"JXJXJXJXJXJXJXJXT.R.u.dXb o X * E VX' 3.*Xp [.tX5.7.8.f.wXtXfXdXsXQ.a.P.n.= OX8X( _ } ) JXJXJXJXJXJX",
"JXJXJXJXJXJXJXJXR.R.u.rXB o = 4 ;.9X' 1XD.r {.U.U.wXY.`.*.c 6 c =.hXsXt./.n w @X4X_ } { JXJXJXJXJXJX",
"JXJXJXJXJXJXJXiXW.j.s.eXB   6 D :.0X) 1.Z.t Y.(.jXhXmXc . . o + O @ ].xXt.n.y e -X8X( | ] JXJXJXJXJX",
"JXJXJXJXJXJXJXDXP.!.i.Y.*.o 9 D :.0X( 1.C n.L.lXS.bX$ @ V B v B ; O @ ].pXJ.y n i BX2.] } JXJXJXJXJX",
"JXJXJXJXJXJXJXlXP.k.i.Y.{.o #.D ;.VX^ ,.'.z.).+X*X$X@ x 5XGXvX-.%XB + @ hX/.w n t D.9X[ } JXJXJXJXJX",
"JXJXJXJXJXJXJXlXQ.k.g.e.#Xz oXG E mXX.~ -.j.(.+XgX].@ : @ x NX8 Q nXV @ b sXA.t m p hX1X' JXJXJXJXJX",
"JXJXJXJXJXJXJXgXiXs.U.d._.* &XW S 3X1.U %.h.(.+X+X$X@ > > @ 5XvX0 $.NX> @ lX`.z h l D.CX' JXJXJXJXJX",
"JXJXJXJXJXJXJXF.DXu.g.w.wX6 }.3XS $.4XU %.j.Q.jXB.NXN @ @ @ ZX:X*.1 7X=X@ jXrX'.i m s mX<.JXJXJXJXJX",
"JXJXJXJXJXJXJXx.BX/.e.f.f.'.@ mX#.4 .X1.%.j.p.FXM G.NX=X}.NXnXY XXQ P ZX# [.U.#Xn m s gX<XJXJXJXJXJX",
"JXJXJXJXJXJXJXv.S.SXu.g.6._.@ V mXG 3 >. X!.p.pXhXa v.+X+X@X'.Y ,..X4 6X}.[.q._.|.j l @X0XJXJXJXJXJX",
"JXJXJXJXJXJXJXC.s $XaX0.f.9.u @ ].mX$.1 3 wXp.a.DXMXS.j s q '.,.^ 7XS ;.&XOX6.Y.%Xg k G.VXJXJXJXJXJX",
"JXJXJXJXJXJXJXB.B.j hXeX0.7.t $ @ N $XXX$.v Y.T.L.pXHXSXOXq A.1./ 8X:.G &Xm.6.e.fXM j G.mXJXJXJXJXJX",
"JXJXJXJXJXJXJXB.B.k m -XrX0.M.@ , @ @ N |.*.-.m.n.wXw.7.'.w A.;X_ 1X3XS oX_.7.w.yXF.f C.JXJXJXJXJXJX",
"JXJXJXJXJXJXJXv.B.V.k l %XrX7.C @ @ % @ + & o o 1 `.8.9.'.e A.,X' 2.>XH oX#Xf.d.dX[.f C.JXJXJXJXJXJX",
"JXJXJXJXJXJXJXhXH.f V.m i {.#XcX=X7 $ @ @ @ 0 |.tXf.0.rXF.p D.<X] 2.>XL , '.U.q.aX@Xx.B.JXJXJXJXJXJX",
"JXJXJXJXJXJXJXJXZXH.a Z.m p C A.~.sXjXjX*XjXkX~.s.i.!.BXk j @X1X) 3.>X* o {./.0.iXgXx.JXJXJXJXJXJXJX",
"JXJXJXJXJXJXJXJX4.AX+Xs j m h t n.t.L.W.Q.T.I.a.h.I.HXF.b.x.=X4.' <X{.  O {./.0.iXgXd JXJXJXJXJXJXJX",
"JXJXJXJXJXJXJXJXJX[ CXNXD.p p h u N./.I.a.h.a.y.~.FX@Xf V.c.6X] ( >.*.o O {./.u.iXgXJXJXJXJXJXJXJXJX",
"JXJXJXJXJXJXJXJXJX' [ 3.VXBX@XD.N.r p n.l.~.aXkXMXS.d C.d *X<XR 2 -.B O O -XQ.r.sX=XJXJXJXJXJXJXJXJX",
"JXJXJXJXJXJXJXJXJXJXo.] ' <.1X4X4X2X-X.XOXfXbX].j v.V.M V 2XQ < 3 XX, O 7 SXa.a.xXJXJXJXJXJXJXJXJXJX",
"JXJXJXJXJXJXJXJXJXJXJX} o.' ) ) _ X.,.1.,.,...U &.! U ..,X@.3 2 .X{.O + ].cXr.~.JXJXJXJXJXJXJXJXJXJX",
"JXJXJXJXJXJXJXJXJXJXJXJX' ] ' ' _ _ ( ^ ^ ^ ( ^ / / ;X2X*.Z 2 >.-X+ # @ NXQ.W.R.JXJXJXJXJXJXJXJXJXJX",
"JXJXJXJXJXJXJXJXJXJXJXJXJX3.4.O.' ' ' _ _ _ ,.,.;X4X.X3 4 F XX5X, # @ &XcXy.JXJXJXJXJXJXJXJXJXJXJXJX",
"JXJXJXJXJXJXJXJXJXJXJXJXJXJX6XCX0XCX0X9X9X7X7X>X.XA 4 #.oX5X$X# @ # $XHXr.JXJXJXJXJXJXJXJXJXJXJXJXJX",
"JXJXJXJXJXJXJXJXJXJXJXJXJXJXJXL #.;.:.:.;.W D S 4 :.5X=X].u @ # @ ].HXJXJXJXJXJXJXJXJXJXJXJXJXJXJXJX",
"JXJXJXJXJXJXJXJXJXJXJXJXJXJXJXJXJXD D H G H P H 6XmXN @ @ @ : @ : JXJXJXJXJXJXJXJXJXJXJXJXJXJXJXJXJX",
"JXJXJXJXJXJXJXJXJXJXJXJXJXJXJXJXJXJXJXJXE E D >XMX@ @ $ : % JXJXJXJXJXJXJXJXJXJXJXJXJXJXJXJXJXJXJXJX",
"JXJXJXJXJXJXJXJXJXJXJXJXJXJXJXJXJXJXJXJXJXJXJXJXJXJXJXJXJXJXJXJXJXJXJXJXJXJXJXJXJXJXJXJXJXJXJXJXJXJX",
"JXJXJXJXJXJXJXJXJXJXJXJXJXJXJXJXJXJXJXJXJXJXJXJXJXJXJXJXJXJXJXJXJXJXJXJXJXJXJXJXJXJXJXJXJXJXJXJXJXJX",
"JXJXJXJXJXJXJXJXJXJXJXJXJXJXJXJXJXJXJXJXJXJXJXJXJXJXJXJXJXJXJXJXJXJXJXJXJXJXJXJXJXJXJXJXJXJXJXJXJXJX",
"JXJXJXJXJXJXJXJXJXJXJXJXJXJXJXJXJXJXJXJXJXJXJXJXJXJXJXJXJXJXJXJXJXJXJXJXJXJXJXJXJXJXJXJXJXJXJXJXJXJX",
"JXJXJXJXJXJXJXJXJXJXJXJXJXJXJXJXJXJXJXJXJXJXJXJXJXJXJXJXJXJXJXJXJXJXJXJXJXJXJXJXJXJXJXJXJXJXJXJXJXJX",
"JXJXJXJXJXJXJXJXJXJXJXJXJXJXJXJXJXJXJXJXJXJXJXJXJXJXJXJXJXJXJXJXJXJXJXJXJXJXJXJXJXJXJXJXJXJXJXJXJXJX"
};
