/* XPM */
static char *_627566666033[] = {
/* columns rows colors chars-per-pixel */
"50 50 251 2 ",
"   c #DE0000",
".  c #D30000",
"X  c #D60009",
"o  c #E40000",
"O  c #EA0000",
"+  c #F20001",
"@  c #FE0000",
"#  c #FB0909",
"$  c #FF1605",
"%  c #FB1918",
"&  c #ED0C14",
"*  c #EB2B04",
"=  c #DC0026",
"-  c #F61922",
";  c #EB2423",
":  c #FD2625",
">  c #FD3234",
",  c #F7313C",
"<  c #DE7100",
"1  c #E76500",
"2  c #EC7400",
"3  c #E77A01",
"4  c #F67900",
"5  c #E67F10",
"6  c #E84D2A",
"7  c #F24E34",
"8  c #D87633",
"9  c #F0702F",
"0  c #EA4A01",
"q  c #BF0046",
"w  c #D9004C",
"e  c #D90157",
"r  c #D70C56",
"t  c #DA355B",
"y  c #DE344C",
"u  c #EA2F48",
"i  c #DE0B69",
"p  c #E40264",
"a  c #F30068",
"s  c #EC0276",
"d  c #F30479",
"f  c #F21978",
"g  c #EA1872",
"h  c #DD3870",
"j  c #EB2875",
"k  c #EC3B77",
"l  c #EC2D70",
"z  c #DE4155",
"x  c #FD4347",
"c  c #E65245",
"v  c #D66A5B",
"b  c #F86E5B",
"n  c #DA4870",
"m  c #E54B78",
"M  c #F25371",
"N  c #FA6867",
"B  c #E97568",
"V  c #F47673",
"C  c #DD656A",
"Z  c #E58100",
"A  c #F48200",
"S  c #FC8500",
"D  c #FE8B00",
"F  c #F48900",
"G  c #FF9401",
"H  c #FF9B00",
"J  c #FD9409",
"K  c #EA8517",
"L  c #F68C17",
"P  c #FA9519",
"I  c #E59400",
"U  c #DCB900",
"Y  c #CBA800",
"T  c #E1B800",
"R  c #ECB700",
"E  c #FD9627",
"W  c #FD9B38",
"Q  c #EC8A31",
"!  c #F1AB30",
"~  c #E5C300",
"^  c #ECCB00",
"/  c #E8C700",
"(  c #F3D500",
")  c #FADD00",
"_  c #F6D900",
"`  c #F0D10A",
"'  c #FEE400",
"]  c #FFEB00",
"[  c #FFF300",
"{  c #FFF60E",
"}  c #FFE71A",
"|  c #FFF01B",
" . c #F5D92C",
".. c #E5C53A",
"X. c #EBCE33",
"o. c #FEE825",
"O. c #FFF130",
"+. c #DFC100",
"@. c #DA8750",
"#. c #F99A4D",
"$. c #EB9654",
"%. c #CDAF54",
"&. c #EEAF4D",
"*. c #DC8E72",
"=. c #ED9173",
"-. c #D3A77A",
";. c #FFA968",
":. c #FFAA79",
">. c #EEAC72",
",. c #E9CE57",
"<. c #FFF05B",
"1. c #E8D072",
"2. c #FDEC68",
"3. c #FEEC79",
"4. c #FFF36D",
"5. c #0F4DB7",
"6. c #0267BE",
"7. c #316CBB",
"8. c #2E5CAB",
"9. c #6275B5",
"0. c #095BCF",
"q. c #0E6ACB",
"w. c #2C68C8",
"e. c #3670D5",
"r. c #006BFA",
"t. c #007BFF",
"y. c #1B74FC",
"u. c #156DEA",
"i. c #356CE1",
"p. c #257AFE",
"a. c #3679FD",
"s. c #2E74E9",
"d. c #185EDE",
"f. c #4576CA",
"g. c #5278D4",
"h. c #4779FA",
"j. c #537AF8",
"k. c #4977EA",
"l. c #737AEC",
"z. c #7753D9",
"x. c #FB1782",
"c. c #F31E90",
"v. c #F53687",
"b. c #F03588",
"n. c #AE4FAD",
"m. c #AF7AAB",
"M. c #B1528F",
"N. c #CE548A",
"B. c #F74988",
"V. c #F6578A",
"C. c #F75793",
"Z. c #ED5385",
"A. c #D56E8B",
"S. c #FB6C8D",
"D. c #E86C98",
"F. c #F67395",
"G. c #F771A3",
"H. c #F55DA1",
"J. c #8D5ACF",
"K. c #7A94BF",
"L. c #008AFF",
"P. c #3786FF",
"I. c #2B84FF",
"U. c #5288D3",
"Y. c #7092D5",
"T. c #4D84FF",
"R. c #5584FE",
"E. c #5687FB",
"W. c #4B92FF",
"Q. c #5897FD",
"!. c #5889EE",
"~. c #699CFF",
"^. c #7A99F9",
"/. c #6C97EA",
"(. c #77A6FC",
"). c #68A6FF",
"_. c #AC9AB2",
"`. c #B9A9AB",
"'. c #D29590",
"]. c #FB968D",
"[. c #EB8796",
"{. c #E79894",
"}. c #FD9996",
"|. c #F18D8C",
" X c #D8AE90",
".X c #EAB38A",
"XX c #EAB89A",
"oX c #F5AF8E",
"OX c #D995A4",
"+X c #F59BB5",
"@X c #F193AA",
"#X c #CCA8AA",
"$X c #FBA7A9",
"%X c #E5B5A7",
"&X c #FCB7AA",
"*X c #F7A9BB",
"=X c #FEB5B8",
"-X c #E7B0B2",
";X c #EBD688",
":X c #E2C797",
">X c #FDC59C",
",X c #EAD591",
"<X c #FBEB98",
"1X c #FCEE8B",
"2X c #E7C5AB",
"3X c #FCC6A6",
"4X c #E9D5AA",
"5X c #F6C8B6",
"6X c #F9D7BA",
"7X c #EFD1AE",
"8X c #F6E7A9",
"9X c #FCEABC",
"0X c #FFF1BA",
"qX c #D7CBA8",
"wX c #8F90C8",
"eX c #88A1DA",
"rX c #97ABD4",
"tX c #A8AAC9",
"yX c #B7AFCD",
"uX c #8A8FE5",
"iX c #88ADFA",
"pX c #99B9FF",
"aX c #94AEF4",
"sX c #A8B8FF",
"dX c #ABB3EA",
"fX c #D2B8CF",
"gX c #FDAAC2",
"hX c #F6B7C7",
"jX c #ECB6CD",
"kX c #D4BCE4",
"lX c #E4BFE3",
"zX c #F696C0",
"xX c #BAC5FB",
"cX c #AFC4F5",
"vX c #D5CBC9",
"bX c #FAC7C6",
"nX c #EBD6C4",
"mX c #FDD5C8",
"MX c #F9CBD6",
"NX c #FDD7D9",
"BX c #EBC8D0",
"VX c #FCEAC2",
"CX c #FFF6C6",
"ZX c #FDE4DA",
"AX c #FEF9DA",
"SX c #DCC6E5",
"DX c #C6C7F8",
"FX c #D5D0F3",
"GX c #F8F0EE",
"HX c #E1DCF0",
"JX c None",
/* pixels */
"JXJXJXJXJXJXJXJXJXJXJXJXJXJXJXJXJXJXJXJXJXJXJXJXJXJXJXJXJXJXJXJXJXJXJXJXJXJXJXJXJXJXJXJXJXJXJXJXJXJX",
"JXJXJXJXJXJXJXJXJXJXJXJXJXJXJXJXJXJXJXJXJXJXJXJXJXJXJXJXJXJXJXJXJXJXJXJXJXJXJXJXJXJXJXJXJXJXJXJXJXJX",
"JXJXJXJXJXJXJXJXJXJXJXJXJXJXJXJXJXJXJXJXJXJXJXJXJXJXJXJXJXJXJXJXJXJXJXJXJXJXJXJXJXJXJXJXJXJXJXJXJXJX",
"JXJXJXJXJXJXJXJXJXJXJXJXJXJXJXJXJXJXJXJXJXJXJXJXJXJXJXJXJXJXJXJXJXJXJXJXJXJXJXJXJXJXJXJXJXJXJXJXJXJX",
"JXJXJXJXJXJXJXJXJXJXJXJXJXJXJXJXJXJXJXJXJXJXJXJXJXJXJXJXJXJXJXJXJXJXJXJXJXJXJXJXJXJXJXJXJXJXJXJXJXJX",
"JXJXJXJXJXJXJXJXJXJXJXJXJXJXJXJXJXJXJXJXJXJXJXJXJXJXJXJXJXJXJXJXJXJXJXJXJXJXJXJXJXJXJXJXJXJXJXJXJXJX",
"JXJXJXJXJXJXJXJXJXJXJXJXJXJXJXJXJXJXJXJXJXJXJXJXJXJXJXJXJXJXJXJXJXJXJXJXJXJXJXJXJXJXJXJXJXJXJXJXJXJX",
"JXJXJXJXJXJXJXJXJXJXJXJXJXJXJXJXJXJXhXv.B.B.C.v.x.G.gXlXkXkXiXJXJXJXJXJXJXJXJXJXJXJXJXJXJXJXJXJXJXJX",
"JXJXJXJXJXJXJXJXJXJXJXJXJXJXJXJX4.ZXH.v.V.B.p D.hXFXpXQ.P.h.E.T.h.T.JXJXJXJXJXJXJXJXJXJXJXJXJXJXJXJX",
"JXJXJXJXJXJXJXJXJXJXJXJXJXJX' [ AXH.f V.b.j $XSX(.u.u.k.k.!.!.E.R.R.E.E.JXJXJXJXJXJXJXJXJXJXJXJXJXJX",
"JXJXJXJXJXJXJXJXJXJXJXJXJXo.[ CX+Xa Z.k m -XrXu.e.g.k.k.i.i.u.u.y.y.y.P.a.JXJXJXJXJXJXJXJXJXJXJXJXJX",
"JXJXJXJXJXJXJXJXJXJXJXJXo.[ 3.NXs Z.m h jXeX0.g.f.w.w.e.Y.uXeXrXrXdXdXaXiXQ.JXJXJXJXJXJXJXJXJXJXJXJX",
"JXJXJXJXJXJXJXJXJXJXJX' o.] 0XD.l m g %XeX5.f.q.U.Y._.'.'.*.V B b b B V |.gX+XJXJXJXJXJXJXJXJXJXJXJX",
"JXJXJXJXJXJXJXJXJXJX3.] ' <.bXp m p {.rXq.w.9._.*.6 ; c o   o o o o O + @ @ @ # JXJXJXJXJXJXJXJXJXJX",
"JXJXJXJXJXJXJXJXJX6X4.' ) ;X@Xp h C `.w.M.t u @ @ }.&XoX#.9 6 = = * ; ; ; - + @ @ JXJXJXJXJXJXJXJXJX",
"JXJXJXJXJXJXJXJXP VXO.) ) 8XD.h u A.cXM @ $ # V mX>XW G D G D 2 * X   o & % # @ @ @ JXJXJXJXJXJXJXJX",
"JXJXJXJXJXJXJXJX#.9X] ) ` 7XZ.t n.(.*X@ , @ ].mX#.S S E ;.:.:.;.W 1 v c o O + : @ @ # JXJXJXJXJXJXJX",
"JXJXJXJXJXJXJXD ;.9X' _ ,.2Xr N.r.sX9 @ @ N bXD S #.3X9XVXVX0X9XVX6X&X X%X|.; O % # @ JXJXJXJXJXJXJX",
"JXJXJXJXJXJXJXG :.CX_ ( ,.:Xe l.L.fX$ - @ &X&.3 .X2X1.X.^ ( ) ' ] <.1XI @.XX2X|.+ @ % @ JXJXJXJXJXJX",
"JXJXJXJXJXJXJXH :.9X_ ^ 1.oXn.P.R.jX@ @ b XX1 >.;XU U T ,.1.1.1X3.} ' ) 3 < $.nX5X@ @ % JXJXJXJXJXJX",
"JXJXJXJXJXJXE H ;.9X( ^ ,.OXl.a.Q.*X@ O =.$.I  X%.%.%.-.*.C N.G.+XbX8XO./ 8 3 3 5XBX@ @ JXJXJXJXJXJX",
"JXJXJXJXJXJXW H W 7X( ^ ,.fX~.a.W.jX@ & *.v J./.j.j.R.j.z.n.t e p s G.VX2.Z 8 K 2 6XbX@ > JXJXJXJXJX",
"JXJXJXJXJXJXD P G 7X,.^ &.6XpXa.p.kX0 o  XuXp.y.y.Q.(.(.).L.l. X{.k f c.bX&.< K K 4 ZX$X@ JXJXJXJXJX",
"JXJXJXJXJXJX>XG S 3X,.^ T ].DXy.h.(.|.o m.P.a.pXFXjX+X@X*XSXiXg.tXjXV.f C.5X< Z K A W ZXx JXJXJXJXJX",
"JXJXJXJXJXJXMX6X4 oX;X/ ! j jX~.h.i.tX1 n.t.xXbXB.m +XgXgXS.jXU.5./.BXC.x.D.*.< K Q 4 3X=XJXJXJXJXJX",
"JXJXJXJXJXJX@ mX:.A 4X^ ! b.S.FXp.i.f.`.m.pXmXa G.NX$X].$XbXhXwX7.w.iXMXf C.%X3 Z L F W mXJXJXJXJXJX",
"JXJXJXJXJXJX@ N 6X2 .X;XU C.x.@XFX/.0.8.d.FXS.b.NXN @ @ @ $ ZXY.5.g.r.xX@Xd %X>.4 L E S 5XJXJXJXJXJX",
"JXJXJXJXJXJX% @ &X#.2 2X..m C.g F.BXrXK.7.FXc.@X=X@ > : x @ c `.f.g.k.).MXa .XqX3 K P G :.JXJXJXJXJX",
"JXJXJXJXJXJX: @ ].oX4 $.:XV x.V.b.k F.'.'.'.s gX}.@ > @ 5XN X *.wXs.j.P.lXM %.4XQ F L J G JXJXJXJXJX",
"JXJXJXJXJXJX% @ u 5XA 3 $.-X+Xb.x.j p w w q q @XNX@ @ x GXB . c yXy.R.I.SXV T 4X>.A P H J JXJXJXJXJX",
"JXJXJXJXJXJXJX: @ $X.X2 5 Q <X6X*X@XD.D.A.A.'.'.nXZX5XZXnXv o 6 fXp.j.W.lX=.+.,XXXA E H J JXJXJXJXJX",
"JXJXJXJXJXJXJX@ # & 5X>.< < R [ 4.1X<X<X1.1.%.U Y qXvX8 -.B O 7 dXp.h.~.gXR ~ ;X5XA E H JXJXJXJXJXJX",
"JXJXJXJXJXJXJX: @ @ , 2X.X3 3 _ ' ' ' ' ( ^ / ,.XX*.0 Q %X- O =.sXa.a.sX1.U / ;X6XS E H JXJXJXJXJXJX",
"JXJXJXJXJXJXJXJX].@ # + {.%X*.>.1X3.2.2.1X8X4XoXQ 1 $.nXB + @ hXQ.j.p.vX+.! / ;X6XD E H JXJXJXJXJXJX",
"JXJXJXJXJXJXJXJXHX$X+ # O , B *.{.>X>X3X>X:.S 4 P 5XnX=.@ @ }.sXa.P.uX:X~ X./ 8X5XS E JXJXJXJXJXJXJX",
"JXJXJXJXJXJXJXJXJXHX=X@ + O O o   * L G S G ;.6XZX=Xu @ @ ].xXt.P.J.'.;X/ X.^ 9X5XD E JXJXJXJXJXJXJX",
"JXJXJXJXJXJXJXJXJXr.cXNX}.6 + O O o 6 ].oX&X&X}.$ @ @ b hXpXL.l.n.z qXX.` ` _ AX:.H JXJXJXJXJXJXJXJX",
"JXJXJXJXJXJXJXJXJXJXy.Q.cXSX-X$X{.'.'.#X_.m.OX|.OXzXSXcX^.J.M.n = -X1.^  .` 3.ZXH J JXJXJXJXJXJXJXJX",
"JXJXJXJXJXJXJXJXJXJXJXT.r.a.Q./././.U.f.w.6.6.6.U.rXyXN.w y y w OX4X( `  ._ CX3XD JXJXJXJXJXJXJXJXJX",
"JXJXJXJXJXJXJXJXJXJXJXR.~.a.r.u.d.0.d.q.w.e.Y.tX#X*.z y n n e OX4X` (  .) 3.GXH JXJXJXJXJXJXJXJXJXJX",
"JXJXJXJXJXJXJXJXJXJXJXJXJXxXsXiXiXaXaXdXyXfX-X|.n i n n t p -X8X( (  .' | GXoXJXJXJXJXJXJXJXJXJXJXJX",
"JXJXJXJXJXJXJXJXJXJXJXJXJXJX=XgX*X*X@X}.F.m g l m m l p D.BX8X( _ o.' { AX5XJXJXJXJXJXJXJXJXJXJXJXJX",
"JXJXJXJXJXJXJXJXJXJXJXJXJXJXJXJXd x.d f g j k f p s G.jXnX2.) } } [ <.AXJXJXJXJXJXJXJXJXJXJXJXJXJXJX",
"JXJXJXJXJXJXJXJXJXJXJXJXJXJXJXJXJXJXC.C.S.H.G.@XhXmX0X1X] ] | { ' O.JXJXJXJXJXJXJXJXJXJXJXJXJXJXJXJX",
"JXJXJXJXJXJXJXJXJXJXJXJXJXJXJXJXJXJXJXJXJXmX9X0X<X<.[ ' o.} ] JXJXJXJXJXJXJXJXJXJXJXJXJXJXJXJXJXJXJX",
"JXJXJXJXJXJXJXJXJXJXJXJXJXJXJXJXJXJXJXJXJXJXJXJXJXJXJXJXJXJXJXJXJXJXJXJXJXJXJXJXJXJXJXJXJXJXJXJXJXJX",
"JXJXJXJXJXJXJXJXJXJXJXJXJXJXJXJXJXJXJXJXJXJXJXJXJXJXJXJXJXJXJXJXJXJXJXJXJXJXJXJXJXJXJXJXJXJXJXJXJXJX",
"JXJXJXJXJXJXJXJXJXJXJXJXJXJXJXJXJXJXJXJXJXJXJXJXJXJXJXJXJXJXJXJXJXJXJXJXJXJXJXJXJXJXJXJXJXJXJXJXJXJX",
"JXJXJXJXJXJXJXJXJXJXJXJXJXJXJXJXJXJXJXJXJXJXJXJXJXJXJXJXJXJXJXJXJXJXJXJXJXJXJXJXJXJXJXJXJXJXJXJXJXJX",
"JXJXJXJXJXJXJXJXJXJXJXJXJXJXJXJXJXJXJXJXJXJXJXJXJXJXJXJXJXJXJXJXJXJXJXJXJXJXJXJXJXJXJXJXJXJXJXJXJXJX"
};
