/* XPM */
static char *_627566057796[] = {
/* columns rows colors chars-per-pixel */
"50 50 251 2 ",
"   c #DE0000",
".  c #D30000",
"X  c #D60009",
"o  c #E40000",
"O  c #EA0000",
"+  c #F20001",
"@  c #FE0000",
"#  c #FB0909",
"$  c #FF1605",
"%  c #FB1918",
"&  c #ED0C14",
"*  c #EB2B04",
"=  c #DC0026",
"-  c #F61922",
";  c #EB2423",
":  c #FD2625",
">  c #FD3234",
",  c #F7313C",
"<  c #DE7100",
"1  c #E76500",
"2  c #EC7400",
"3  c #E77A01",
"4  c #F67900",
"5  c #E67F10",
"6  c #E84D2A",
"7  c #F24E34",
"8  c #D87633",
"9  c #F0702F",
"0  c #EA4A01",
"q  c #BF0046",
"w  c #D9004C",
"e  c #D90157",
"r  c #D70C56",
"t  c #DA355B",
"y  c #DE344C",
"u  c #EA2F48",
"i  c #DE0B69",
"p  c #E40264",
"a  c #F30068",
"s  c #EC0276",
"d  c #F30479",
"f  c #F21978",
"g  c #EA1872",
"h  c #DD3870",
"j  c #EB2875",
"k  c #EC3B77",
"l  c #EC2D70",
"z  c #DE4155",
"x  c #FD4347",
"c  c #E65245",
"v  c #D66A5B",
"b  c #F86E5B",
"n  c #DA4870",
"m  c #E54B78",
"M  c #F25371",
"N  c #FA6867",
"B  c #E97568",
"V  c #F47673",
"C  c #DD656A",
"Z  c #E58100",
"A  c #F48200",
"S  c #FC8500",
"D  c #FE8B00",
"F  c #F48900",
"G  c #FF9401",
"H  c #FF9B00",
"J  c #FD9409",
"K  c #EA8517",
"L  c #F68C17",
"P  c #FA9519",
"I  c #E59400",
"U  c #DCB900",
"Y  c #CBA800",
"T  c #E1B800",
"R  c #ECB700",
"E  c #FD9627",
"W  c #FD9B38",
"Q  c #EC8A31",
"!  c #F1AB30",
"~  c #E5C300",
"^  c #ECCB00",
"/  c #E8C700",
"(  c #F3D500",
")  c #FADD00",
"_  c #F6D900",
"`  c #F0D10A",
"'  c #FEE400",
"]  c #FFEB00",
"[  c #FFF300",
"{  c #FFF60E",
"}  c #FFE71A",
"|  c #FFF01B",
" . c #F5D92C",
".. c #E5C53A",
"X. c #EBCE33",
"o. c #FEE825",
"O. c #FFF130",
"+. c #DFC100",
"@. c #DA8750",
"#. c #F99A4D",
"$. c #EB9654",
"%. c #CDAF54",
"&. c #EEAF4D",
"*. c #DC8E72",
"=. c #ED9173",
"-. c #D3A77A",
";. c #FFA968",
":. c #FFAA79",
">. c #EEAC72",
",. c #E9CE57",
"<. c #FFF05B",
"1. c #E8D072",
"2. c #FDEC68",
"3. c #FEEC79",
"4. c #FFF36D",
"5. c #0F4DB7",
"6. c #0267BE",
"7. c #316CBB",
"8. c #2E5CAB",
"9. c #6275B5",
"0. c #095BCF",
"q. c #0E6ACB",
"w. c #2C68C8",
"e. c #3670D5",
"r. c #006BFA",
"t. c #007BFF",
"y. c #1B74FC",
"u. c #156DEA",
"i. c #356CE1",
"p. c #257AFE",
"a. c #3679FD",
"s. c #2E74E9",
"d. c #185EDE",
"f. c #4576CA",
"g. c #5278D4",
"h. c #4779FA",
"j. c #537AF8",
"k. c #4977EA",
"l. c #737AEC",
"z. c #7753D9",
"x. c #FB1782",
"c. c #F31E90",
"v. c #F53687",
"b. c #F03588",
"n. c #AE4FAD",
"m. c #AF7AAB",
"M. c #B1528F",
"N. c #CE548A",
"B. c #F74988",
"V. c #F6578A",
"C. c #F75793",
"Z. c #ED5385",
"A. c #D56E8B",
"S. c #FB6C8D",
"D. c #E86C98",
"F. c #F67395",
"G. c #F771A3",
"H. c #F55DA1",
"J. c #8D5ACF",
"K. c #7A94BF",
"L. c #008AFF",
"P. c #3786FF",
"I. c #2B84FF",
"U. c #5288D3",
"Y. c #7092D5",
"T. c #4D84FF",
"R. c #5584FD",
"E. c #5687FB",
"W. c #4B92FF",
"Q. c #5897FD",
"!. c #5889EE",
"~. c #699CFF",
"^. c #7A99F9",
"/. c #6C97EA",
"(. c #77A6FC",
"). c #68A6FF",
"_. c #AC9AB2",
"`. c #B9A9AB",
"'. c #D29590",
"]. c #FB968D",
"[. c #EB8796",
"{. c #E79894",
"}. c #FD9996",
"|. c #F18D8C",
" X c #D8AE90",
".X c #EAB38A",
"XX c #EAB89A",
"oX c #F5AF8E",
"OX c #D995A4",
"+X c #F59BB5",
"@X c #F193AA",
"#X c #CCA8AA",
"$X c #FBA7A9",
"%X c #E5B5A7",
"&X c #FCB7AA",
"*X c #F7A9BB",
"=X c #FEB5B8",
"-X c #E7B0B2",
";X c #EBD688",
":X c #E2C797",
">X c #FDC59C",
",X c #EAD591",
"<X c #FBEB98",
"1X c #FCEE8B",
"2X c #E7C5AB",
"3X c #FCC6A6",
"4X c #E9D5AA",
"5X c #F6C8B6",
"6X c #F9D7BA",
"7X c #EFD1AE",
"8X c #F6E7A9",
"9X c #FCEABC",
"0X c #FFF1BA",
"qX c #D7CBA8",
"wX c #8F90C8",
"eX c #88A1DA",
"rX c #97ABD4",
"tX c #A8AAC9",
"yX c #B7AFCD",
"uX c #8A8FE5",
"iX c #88ADFA",
"pX c #99B9FF",
"aX c #94AEF4",
"sX c #A8B8FF",
"dX c #ABB3EA",
"fX c #D2B8CF",
"gX c #FDAAC2",
"hX c #F6B7C7",
"jX c #ECB6CD",
"kX c #D4BCE4",
"lX c #E4BFE3",
"zX c #F696C0",
"xX c #BAC5FB",
"cX c #AFC4F5",
"vX c #D5CBC9",
"bX c #FAC7C6",
"nX c #EBD6C4",
"mX c #FDD5C8",
"MX c #F9CBD6",
"NX c #FDD7D9",
"BX c #EBC8D0",
"VX c #FCEAC2",
"CX c #FFF6C6",
"ZX c #FDE4DA",
"AX c #FEF9DA",
"SX c #DCC6E5",
"DX c #C6C7F8",
"FX c #D5D0F3",
"GX c #F8F0EE",
"HX c #E1DCF0",
"JX c None",
/* pixels */
"JXJXJXJXJXJXJXJXJXJXJXJXJXJXJXJXJXJXJXJXJXJXJXJXJXJXJXJXJXJXJXJXJXJXJXJXJXJXJXJXJXJXJXJXJXJXJXJXJXJX",
"JXJXJXJXJXJXJXJXJXJXJXJXJXJXJXJXJXJXJXJXJXJXJXJXJXJXJXJXJXJXJXJXJXJXJXJXJXJXJXJXJXJXJXJXJXJXJXJXJXJX",
"JXJXJXJXJXJXJXJXJXJXJXJXJXJXJXJXJXJXJXJXJXJXJXJXJXJXJXJXJXJXJXJXJXJXJXJXJXJXJXJXJXJXJXJXJXJXJXJXJXJX",
"JXJXJXJXJXJXJXJXJXJXJXJXJXJXJXJXJXJXJXJXJXJXJXJXJXJXJXJXJXJXJXJXJXJXJXJXJXJXJXJXJXJXJXJXJXJXJXJXJXJX",
"JXJXJXJXJXJXJXJXJXJXJXJXJXJXJXJXJXJXJXJXJXJXJXJXJXJXJXJXJXJXJXJXJXJXJXJXJXJXJXJXJXJXJXJXJXJXJXJXJXJX",
"JXJXJXJXJXJXJXJXJXJXJXJXJXJXJXJXJXJXJX] } } ' ] <.1X0XVXmXJXJXJXJXJXJXJXJXJXJXJXJXJXJXJXJXJXJXJXJXJX",
"JXJXJXJXJXJXJXJXJXJXJXJXJXJXJXJX<.' { | [ ] 1XCXNXgX@XH.G.H.C.B.JXJXJXJXJXJXJXJXJXJXJXJXJXJXJXJXJXJX",
"JXJXJXJXJXJXJXJXJXJXJXJXJXJXCX<.[ } } _ 2.VXjXD.s p l k j d f f x.d JXJXJXJXJXJXJXJXJXJXJXJXJXJXJXJX",
"JXJXJXJXJXJXJXJXJXJXJXJX6XAX| '  ._ ( <XBXD.p l m m l g M [.[.$X*X*X*X*XJXJXJXJXJXJXJXJXJXJXJXJXJXJX",
"JXJXJXJXJXJXJXJXJXJXJXoXGX} '  .( ( 8X-Xe l n m i m {.%XfXyXrXaXiXiXiXsXDXJXJXJXJXJXJXJXJXJXJXJXJXJX",
"JXJXJXJXJXJXJXJXJXJXH AX1X)  .( ( 4XOXe n n t z *.#XtXY.e.w.d.d.0.r.u.r.a.~.R.JXJXJXJXJXJXJXJXJXJXJX",
"JXJXJXJXJXJXJXJXJXD 3XCX)  .` ^ 8XOXw z y w M.#XrXU.6.6.6.7.f.U.Y././.Q.a.r.R.JXJXJXJXJXJXJXJXJXJXJX",
"JXJXJXJXJXJXJXJXP H ZX2.( X./ 1.-X= n M.J.^.dXSXzX[.[.OXm._.#X'.{.{.{.-XFXcXQ.y.JXJXJXJXJXJXJXJXJXJX",
"JXJXJXJXJXJXJXJXH :.AX( ` ^ X.qXt n.l.L.pXhXb @ # # }.&X&XoXoX6   o O O 6 }.NXcXr.JXJXJXJXJXJXJXJXJX",
"JXJXJXJXJXJXJXE D 3XVX( X./ ;X{.J.P.t.xX].@ @ , =XZX6X;.G D D L *   o o O + @ =XHXJXJXJXJXJXJXJXJXJX",
"JXJXJXJXJXJXJXE D 5X8X^ X.T :XuXI.a.sX}.@ @ V mX7XE 4 D :.3X3X>X&X{.*.B , + + # &XHXJXJXJXJXJXJXJXJX",
"JXJXJXJXJXJXH E D bX;X^ ..~ vXI.j.Q.jX@ O N 7X$.< Q .X4X8X1X4.2.3.<X>.*.:X{.+ # @ ].JXJXJXJXJXJXJXJX",
"JXJXJXJXJXJXH P F 6X;X~ +.>.sXa.a.pX=.O ; 2XQ 0 -. X,./ ^ _ ' ' ) ' _ 3 3 .X5Xu @ @ : JXJXJXJXJXJXJX",
"JXJXJXJXJXJXH E A 5X,X~ T jX~.h.I.dXc + C -.8 vX:XY Y %.1.;X,X<X<X2.] R 1 3 >.5X# $ @ JXJXJXJXJXJXJX",
"JXJXJXJXJXJ H E 4 XX,XT $.lXW.j.p.fX6 O v nXNX5XNXnX'.'.A.A.A.G.@X=XmX<XQ Z 2 .X$X@ : JXJXJXJXJXJXJX",
"JXJXJXJXJXJ H P A .X4XU V lXP.R.s.tX7 . *.GXx @ @ NX@Xw q w e i j x.v.+X2X$.3 F 5Xu @ % JXJXJXJXJXJX",
"JXJXJXJXJXH J J F Q qX&.B.SXW.j.i.eX*.. N hX@ > @ }.*Xd '.'.'.A.k v.V.x.V :X$.2 oX|.@ % JXJXJXJXJXJX",
"JXJXJXJXJX:.F L L 3 :X.Xa jX~.h.g.f.`.c @ x > > @ =X@Xk SXf.9.tXBXF.f C.m ..2XA #.&X@ % JXJXJXJXJXJX",
"JXJXJXJXJX5XD E L 4 -.%Xs $XxXr.g.5.K.NX$ @ @ @ N NXb.S.FXw.8.0.!.FX@Xd C.U ;X.X4 5XN @ JXJXJXJXJXJX",
"JXJXJXJXJXmXW D L Z Z XXD.f MXiXd.7.wXhXhX$X].$XNXG.a bXpXJ.`.U.k.p.FXS.b.! ^ 4XA :.NX@ JXJXJXJXJXJX",
"JXJXJXJXJX=X3X4 Q K 3 *.[.d V.BX/.5.U.BXS.*X*X+Xm B.MXxXL.n.1 _.s.a.).MXl %.^ ;XoX4 6XmXJXJXJXJXJXJX",
"JXJXJXJXJXx ZXW A K 5 < &XH.j V.-XtXU.(.lX*X+X*XhXFXpXa.P.m.o |.^.h.y.kX].U ^ ,.>XS H >XJXJXJXJXJXJX",
"JXJXJXJXJX@ $XZX4 K K < &.MXc.f k [.%XJ.L.).(.).Q.p.y.a.eX{.O 0 kXp.p.aX5X..^ ,.7XD P D JXJXJXJXJXJX",
"JXJXJXJXJX> @ bX6X2 K 8 3 2.mXG.d e e t n.z.j.h.k.j.E.wX@.*.& @ jXW.a.~.fX,.^ ( 8X#.G E JXJXJXJXJXJX",
"JXJXJXJXJXJX@ @ BX5X2 3 8 / O.0XmX+XF.A.C *.'.%.%.%. X3 $.*.+ @ *XQ.h.l.OX,.^ ( 9X#.H E JXJXJXJXJXJX",
"JXJXJXJXJXJX% @ @ 5XnX$.1 3 ) ' | 3.;X1.1.,.~ T U 1.>.3 XXN @ @ jXW.I.n..X1.^ _ 9X:.G JXJXJXJXJXJXJX",
"JXJXJXJXJXJX@ % + O |.7XXX@.I 3.<.' ] ' ( ` X.1.2X.X2 $.$X@ % $ lXL.l.r %X,.( ) 0X:.D JXJXJXJXJXJXJX",
"JXJXJXJXJXJXJX@ # % O ; |.%X X2XVX9X9X9X0XVXVX3X$.4 G mXN @ @ 9 sXt.N.i 2X,.) ' 9X;.D JXJXJXJXJXJXJX",
"JXJXJXJXJXJXJX@ @ # : O O o c v 1 Q ;.:.:.;.E D S #.mX].@ > @ *X^.n.u m 7X_ ) ] VX#.JXJXJXJXJXJXJXJX",
"JXJXJXJXJXJXJXJX@ @ @ # ; & O O X * 4 D D D G W >XmXV @ $ @ M cXA.y h D.4X) ' o.CXP JXJXJXJXJXJXJXJX",
"JXJXJXJXJXJXJXJXJX@ @ @ % % ; ; * = = 6 9 #.oX&X}.@ @ u t M.7.`.m n p @X1X' ' 4.6XJXJXJXJXJXJXJXJXJX",
"JXJXJXJXJXJXJXJXJXJX# # + + + O o o o o     c * 6 '._.9.7.0.rX{.i m s bX<.' ] 1XJXJXJXJXJXJXJXJXJXJX",
"JXJXJXJXJXJXJXJXJXJXJX@XgX|.=.b b b B B =.'.#X_.wXf.q.f.5.eX%Xg m l D.CX' } ' JXJXJXJXJXJXJXJXJXJXJX",
"JXJXJXJXJXJXJXJXJXJXJXJXQ.iXaXdXdXdXrXeXY.!.e.w.w.f.g.0.Y.-Xk k Z.s MX3.] } JXJXJXJXJXJXJXJXJXJXJXJX",
"JXJXJXJXJXJXJXJXJXJXJXJXJXp.a.y.y.u.y.u.i.f.k.g.g.i.u.rXbXm k V.p zXCX[ o.JXJXJXJXJXJXJXJXJXJXJXJXJX",
"JXJXJXJXJXJXJXJXJXJXJXJXJXJXE.E.Q.R.R.!.j.k.k.u.u./.SX*Xl v.V.f H.AX[ ' JXJXJXJXJXJXJXJXJXJXJXJXJXJX",
"JXJXJXJXJXJXJXJXJXJXJXJXJXJXJXJXT.R.R.T.T.P.Q.pXFXhXS.d B.B.B.H.ZX2.JXJXJXJXJXJXJXJXJXJXJXJXJXJXJXJX",
"JXJXJXJXJXJXJXJXJXJXJXJXJXJXJXJXJXJXJX(.DXlXjXgXF.x.v.C.B.B.v.hXJXJXJXJXJXJXJXJXJXJXJXJXJXJXJXJXJXJX",
"JXJXJXJXJXJXJXJXJXJXJXJXJXJXJXJXJXJXJXJXJXJXJXJXJXJXJXJXJXJXJXJXJXJXJXJXJXJXJXJXJXJXJXJXJXJXJXJXJXJX",
"JXJXJXJXJXJXJXJXJXJXJXJXJXJXJXJXJXJXJXJXJXJXJXJXJXJXJXJXJXJXJXJXJXJXJXJXJXJXJXJXJXJXJXJXJXJXJXJXJXJX",
"JXJXJXJXJXJXJXJXJXJXJXJXJXJXJXJXJXJXJXJXJXJXJXJXJXJXJXJXJXJXJXJXJXJXJXJXJXJXJXJXJXJXJXJXJXJXJXJXJXJX",
"JXJXJXJXJXJXJXJXJXJXJXJXJXJXJXJXJXJXJXJXJXJXJXJXJXJXJXJXJXJXJXJXJXJXJXJXJXJXJXJXJXJXJXJXJXJXJXJXJXJX",
"JXJXJXJXJXJXJXJXJXJXJXJXJXJXJXJXJXJXJXJXJXJXJXJXJXJXJXJXJXJXJXJXJXJXJXJXJXJXJXJXJXJXJXJXJXJXJXJXJXJX",
"JXJXJXJXJXJXJXJXJXJXJXJXJXJXJXJXJXJXJXJXJXJXJXJXJXJXJXJXJXJXJXJXJXJXJXJXJXJXJXJXJXJXJXJXJXJXJXJXJXJX",
"JXJXJXJXJXJXJXJXJXJXJXJXJXJXJXJXJXJXJXJXJXJXJXJXJXJXJXJXJXJXJXJXJXJXJXJXJXJXJXJXJXJXJXJXJXJXJXJXJXJX"
};
