/* XPM */
static char *_627124925312[] = {
/* columns rows colors chars-per-pixel */
"50 50 254 2 ",
"   c #002C00",
".  c #1E1E18",
"X  c #6E0E00",
"o  c #762607",
"O  c #115500",
"+  c #38560B",
"@  c #3A7200",
"#  c #477500",
"$  c #527C03",
"%  c #4E7516",
"&  c #747404",
"*  c #557428",
"=  c #755F07",
"-  c #596952",
";  c #8B3002",
":  c #A33E00",
">  c #8D4A07",
",  c #A85918",
"<  c #AC540F",
"1  c #93760E",
"2  c #B76B0D",
"3  c #AF5C29",
"4  c #B97739",
"5  c #B36E2B",
"6  c #977C25",
"7  c #C97110",
"8  c #C6732D",
"9  c #C35100",
"0  c #AA6842",
"q  c #558706",
"w  c #56880C",
"e  c #659604",
"r  c #7B9702",
"t  c #6E9110",
"y  c #73A702",
"u  c #78B609",
"i  c #75A718",
"p  c #76B718",
"a  c #69A909",
"s  c #68922C",
"d  c #72A42D",
"f  c #79C80A",
"g  c #7AC712",
"h  c #70C90D",
"j  c #77C72D",
"k  c #71964F",
"l  c #77A94C",
"z  c #6CC968",
"x  c #839905",
"c  c #8E9915",
"v  c #AF911A",
"b  c #89A603",
"n  c #87BA00",
"m  c #9BB503",
"M  c #8BA417",
"N  c #8AB917",
"B  c #96B012",
"V  c #A6B500",
"C  c #ABB217",
"Z  c #88992E",
"A  c #B0942D",
"S  c #95AD22",
"D  c #8DB628",
"F  c #99BA27",
"G  c #8EAE34",
"H  c #A7A728",
"J  c #A4BB26",
"K  c #A6B838",
"L  c #B3BE34",
"P  c #B3A934",
"I  c #D88417",
"U  c #E99500",
"Y  c #F49614",
"T  c #D9BB00",
"R  c #D2B312",
"E  c #F5B205",
"W  c #CC8639",
"Q  c #D0902C",
"!  c #EB9937",
"~  c #EA952F",
"^  c #C5B937",
"/  c #D5AE33",
"(  c #E8A43B",
")  c #F7B037",
"_  c #88C706",
"`  c #96D301",
"'  c #89C915",
"]  c #93CB15",
"[  c #95C81B",
"{  c #8BD115",
"}  c #91D519",
"|  c #93CA0B",
" . c #A7C516",
".. c #ADCA0F",
"X. c #86C627",
"o. c #98C924",
"O. c #96D428",
"+. c #93CA2E",
"@. c #A6CA26",
"#. c #B6C529",
"$. c #A9D32B",
"%. c #AAC838",
"&. c #B5C837",
"*. c #BBD53A",
"=. c #A7D236",
"-. c #A4E21D",
";. c #CECF0A",
":. c #FBC700",
">. c #E6D900",
",. c #ECD115",
"<. c #F1E900",
"1. c #F9F305",
"2. c #E9E200",
"3. c #D0C82D",
"4. c #FADB2C",
"5. c #FDC834",
"6. c #E9D83A",
"7. c #FDD735",
"8. c #E9CD2C",
"9. c #C9E330",
"0. c #FCE639",
"q. c #F0EC31",
"w. c #BF934A",
"e. c #93AF47",
"r. c #AFB346",
"t. c #ACB771",
"y. c #889B62",
"u. c #D59547",
"i. c #D89B55",
"p. c #C8884B",
"a. c #E99545",
"s. c #DEAA4E",
"d. c #DBB746",
"f. c #D8A55B",
"g. c #DAB857",
"h. c #C7B74C",
"j. c #E7A749",
"k. c #F9AB48",
"l. c #EBB246",
"z. c #FBB64A",
"x. c #EAAA57",
"c. c #F2A753",
"v. c #E9B75A",
"b. c #F7B758",
"n. c #D38E68",
"m. c #DDAA62",
"M. c #E8B86A",
"N. c #F6BC66",
"B. c #EAB46D",
"V. c #95CF4D",
"C. c #B4C845",
"Z. c #B8D44B",
"A. c #ADCB52",
"S. c #B5C479",
"D. c #B0D06D",
"F. c #B5E17C",
"G. c #C8C64B",
"H. c #D9C745",
"J. c #CAD84C",
"K. c #C8D55A",
"L. c #D5D051",
"P. c #E7DB47",
"I. c #E9C954",
"U. c #FEC559",
"Y. c #EAD757",
"T. c #FED85A",
"R. c #F8CE49",
"E. c #D4E358",
"W. c #CFE34E",
"Q. c #EEE745",
"!. c #FAEA5A",
"~. c #FBED4C",
"^. c #DAC668",
"/. c #D3D96A",
"(. c #CED573",
"). c #FBC66A",
"_. c #FFDD6D",
"`. c #FBD669",
"'. c #EAC376",
"]. c #FAC976",
"[. c #FCD577",
"{. c #E6D577",
"}. c #D4E86E",
"|. c #F4E76A",
" X c #EAE779",
".X c #F7E977",
"XX c #F8F478",
"oX c #EAF06D",
"OX c #008FB8",
"+X c #7E9AA7",
"@X c #7AC48E",
"#X c #76C2B6",
"$X c #65ADC9",
"%X c #73C5DE",
"&X c #919C8D",
"*X c #96AB91",
"=X c #AABC97",
"-X c #B2B9AD",
";X c #93B8B9",
":X c #D19787",
">X c #DCAE9D",
",X c #B2CC8C",
"<X c #B7E289",
"1X c #99CEBA",
"2X c #BAC9B6",
"3X c #BFD7AF",
"4X c #C5CB94",
"5X c #D7DA97",
"6X c #CAD38F",
"7X c #FAD985",
"8X c #FDD797",
"9X c #F2CF8B",
"0X c #DAEA84",
"qX c #DFED97",
"wX c #FCF989",
"eX c #FCE998",
"rX c #E9F395",
"tX c #FCFB97",
"yX c #F0EA8B",
"uX c #D4D2AC",
"iX c #F1CEA2",
"pX c #DCE6A6",
"aX c #E8EAA9",
"sX c #F4E7AD",
"dX c #FAF9AA",
"fX c #F3F7B6",
"gX c #F0ECB4",
"hX c #94BACD",
"jX c #A1BAC1",
"kX c #96C6D6",
"lX c #88D0EC",
"zX c #AED9F1",
"xX c #B4DAE6",
"cX c #CAD5C8",
"vX c #D0D8D3",
"bX c #D9E3DA",
"nX c #DAE5CB",
"mX c #ECF0C7",
"MX c #F8FAC7",
"NX c #F7F8D3",
"BX c #EAEDD0",
"VX c #DCE6E4",
"CX c #D2F5FB",
"ZX c #E6EBE7",
"AX c #EDF1EA",
"SX c #F1F4E9",
"DX c #E8EEF3",
"FX c #EBF2F2",
"GX c #E9F2F8",
"HX c #F2F5F3",
"JX c #FBFDFD",
"KX c #F5F8F9",
"LX c #FFDDCD",
"PX c None",
/* pixels */
"PXPXPXPXPXPXPXPXPXPXPXPXPXPXPXPXPXPXPXPXPXPXPXPXPXPXPXPXPXPXPXPXPXPXPXPXPXPXPXPXPXPXPXPXPXPXPXPXPXPX",
"PXPXPXPXPXPXPXPXPXPXPXPXPXPXPXPXPXPXPXPXPXPXPXPXPXPXPXPXPXPXPXPXPXPXPXPXPXPXPXPXPXPXPXPXPXPXPXPXPXPX",
"PXPXPXPXPXPXPXPXPXPXPXPXPXPXPXPXPXPXPXPXPXPXPX).).].PXPXPXPXPXPXPXPXPXPXPXPXPXPXPXPXPXPXPXPXPXPXPXPX",
"PXPXPXPXPXPXPXPXPXPXPXPXPXPXPXPXPXPXPXPXPXb.T._..X.XwX].8XPXPXPXPXPXPXPXPXPXPXPXPXPXPXPXPXPXPXPXPXPX",
"PXPXPXPXPXPXPXPXPXPXPXPXPXPXPXPXPXPXPXPXb.T.b.z.PX).).[.wX7XPXPXPXPXPXPXPXPXPXPXPXPXPXPXPXPXPXPXPXPX",
"PXPXPXPXPXPXPXPXPXPXPXPXPXPXPXPXPXPXPXU.z.PXPXPXPXPXPXPX)._.].PXPXPXPXPXPXPXPXPXPXPXPXPXPXPXPXPXPXPX",
"PXPXPXPXPXPXPXPXPXPXPXPXPXPXPXPXPXPXU.( PXPXPXPXPXPXPXPXPX)._.].PXPXPXPXPXPXPXPXPXPXPXPXPXPXPXPXPXPX",
"PXPXPXPXPXPXPXPXPXPXPXPXPXPXPXPXPXk.k.PXPXPXPXPXPXPXPXPXPXPX)._.).PXPXPXPXPXPXPXPXPXPXPXPXPXPXPXPXPX",
"PXPXPXPXPXPXPXPXPXPXPXPXPXPXPXPXb.z.I PXPXPXPXPXPXPXPXPXPXPXPX).U.PXPXPXPXPXPXPXPXPXPXPXPXPXPXPXPXPX",
"PXPXPXPXPXPXPXPXPXPXPXPXPXPXPXPXz.~ PXPXPXPXPXPXPXPXPXPXPXPXPXPX[.z.PXPXPXPXPXPXPXPXPXPXPXPXPXPXPXPX",
"PXPXPXPXPXPXPXPXPXPXPXPXPXPXPXc.c.PXPXPXPXPXPXPXPXPXPXPXPXPXPXPX].).PXPXPXPXPXPXPXPXPXPXPXPXPXPXPXPX",
"PXPXPXPXPXPXPXPXPXPXPXPXPXPXPX) 7 PXPXPXPXPXPXPXPXPXPXPXPXPXPXPXPX`.j.PXPXPXPXPXPXPXPXPXPXPXPXPXPXPX",
"PXPXPXPXPXPXPXPXPXPXPXPXPXPXE c.PXPXPXPXPXPXPXPXPXPXPXPXPXPXPXPXPXN.c.PXPXPXPXPXPXPXPXPXPXPXPXPXPXPX",
"PXPXPXPXPXPXPXPXPXPXPXPXPXPX-XjXhXkXPXPXPXPXPXPXPXPXPXPXPXPXPXPXPXb.).PXPXPXPXPXPXPXPXPXPXPXPXPXPXPX",
"PXPXPXPXPXPXPXPXPXPXPXPXPXjXlXlXzXzXlXPXPXPXPXPXPXPXPXPXPXPXPXPXPXPX).x.PXPXPXPXPXPXPXPXPXPXPXPXPXPX",
"PXPXPXPXPXPXPXPXPXR.T.dX8X].uXkX1X;XkX#XPXPXPXPXPXPXPXnXVXDXcXPXPXPXc.b.PXPXPXPXPXPXPXPXPXPXPXPXPXPX",
"PXPXPXPXPXPXPXPX4.~.dXwX[.wX~.{.@X@X@X@XPX) E E PXPXbXJXNXBXZXnXV.PXY b.B.PXPXPXPXPXPXPXPXPXPXPXPXPX",
"PXPXPXPXPXPXPXPX7..XdX7.XXwXwX7.K.@Xz V.c.5.T.wX|.[.ZXSX2.2.SXGXjX$X:Xz.B.PXPXPXPXPXPXPXPXPXPXPXPXPX",
"PXPXPXPXPXPXPXR 4.[.eX5..X0.!.~.6.h j G.) E R.dXtX0.7XBXaXsXZXkXxXCXcX) a.PXPXPXPXPXPXPXPXPXPXPXPXPX",
"PXPXPXPXPXPXPX3.) 8X8XY l.U Y :.6.W. X X[.N.)._.tXtX.XLXDXGXkXOXxXCXvXa.s.A.A.F.PXPXPXPXPXPXPXPXPXPX",
"PXPXPXPXPX' { ..;.6X^.d.4Xp./ !.|.XXtXtXtXXX.X) 5.eXeXI.5XpX=X$X$X%XhXn.j.g.9XsXI.;.PXPXPXPXPXPXPXPX",
"PXPXPXPXPX' _ %.pXaXE.}.aX6XC |.sXoXdXMXMXdXwXI.l.l.I.9X].>.~.4X$X$X$Xn.~ 7X].8XeX5.#.} PXPXPXPXPXPX",
"PXPXPXPXPX[ *.E.MXMXdXfX0XZ.5X6X/._.dXNXfXfXwXoXG./ ;. X7X6.R.P.*XOX&X2 W {.U.].8XT.,.PXPXPXPXPXPXPX",
"PXPXPXPX} *.W.}.oXrXdXtX(.r.(.S.V Y.eXNXrXrXrXqXJ.J.Z.E.}.J.3...K.,Xw.7 8 Q U.z.7X7X:.PXPXPXPXPXPXPX",
"PXPXPXPX@.$.=.*.oXoXJ.K.#.K B x x uXSXDXZXpX X9.Z.@.O.A.Z.@.[ @.E.|.d.8 7 2 p.x.8X'.E [.PXPXPXPXPXPX",
"PXPXPXPX! / H b K.K.y A.4Xe.r ,XuXVXSXfXmXAXmX0X` | [ n F +.| V /.{.A 8 7 4 0 n.iXM.U.7XPXPXPXPXPXPX",
"PXPXPXPXk.k.b.( ( v.h.t.4XZ & *XcXDXsX<.Q.JXKX<Xf j h h g X._ V.rX^.> 3 8 m.B.m.B.B.B.B.PXPXPXPXPXPX",
"PXPXPXPXk.z.k.b.N.N.b.).v.M.M.v.uXDXBXqXgXJXHXt.b K B J o.#.V h.^.( , ; W i.f.M.m.m.].].PXPXPXPXPXPX",
"PXPXPXPX! k.! b.'.v.).).N.b.N.b.i.uXHXKXFXZX>Xc.8 7 < 5 I a.i.< W x.4 > 4 f.m.s.'.9Xm.PXPXPXPXPXPXPX",
"PXPXPXPXPX! k.l.j.d.x.c.b.v.b.b.( ! :X:X>Xn.U ! 3 : < 7 2 5 p.W W p.W , 7 M.G.s.M.'.PXPXPXPXPXPXPXPX",
"PXPXPXPXPXPXb.l.^ ) j.j.l.b.j.! Q ~ Y U U I 9 9 7 7 2 < ; ; , 5 , , , < f.f.P G.^.g.PXPXPXPXPXPXPXPX",
"PXPXPXPXPXPXl.H.#.b.d.d.b.b.v.j.8 Q ! ! Q 6 t c v > = o X 3 3 X > w.< 3 ^.f.A C./.G.PXPXPXPXPXPXPXPX",
"PXPXPXPXPXPX^ *. ./ ^ ^ l.I.v.s.Q C ( ^ v v G r.c $ = = > c Z & A i.2 w.M.w.P =.Z.C.PX_ { PXPXPXPXPX",
"PXPXPX} } { J @.] &.G.#.L H.G.h.^ ..^ #.H H r.H B x w c 1 A A 1 e.u.2 P h.P m ' %.N f O.} { PXPXPXPX",
"PXPXPX} { g [ $.]  .$.o.@.&.#.&.[ C #.O.C J K S ] p N n b S H M N D b P L K F.V.u D ' +.X.| PXPXPXPX",
"PXPX' ' ' g ' ] } ' [ ] i J K ] [  . .o.@.[ M D o.} -.| n [ Z.C.M S [ %.[ +.6XD._ V.F.F.V.g PXPXPXPX",
"PXPX} ' u g ' { { p g ' b N X.{ } O.' ' -.] i i o._ _ N f | Z.%.b ] _ n N y d F.<Xl t.(.$.$.PXPXPXPX",
"PXPX' { ' g g j O.X.X.X.u { X.D ` _ u u ` ] i e e t i y y t D $.$.=.+.D o.O.V.F.,X(.G.,.l.].!.PXPXPX",
"PXPXPXg h p j h h a f n s s y e e.D.d e s i t t s Z s y w * K *.9.9.W.W.W.9.}.D.^ 9X X<.U.LX9X_.(.PX",
"PXPXPXPXu i @ e ,X3X,Xl q @ k ,XvXbX2X1XO $ * # S G $ i N B  ./.gXdXoXwXXXdXqX#.T 8.6.Q.oX.XR.7.~.K ",
"PXPXPXPXp # &XbXZXCXVX=Xk =XVXVXFXGXZX2X*Xk   * q $ w y K S.C.(.mXfXrXyX XdXaXJ.H.>.Y.MXdXwXY.Q.~.P.",
"PXPXPX+ # k bXGXNXdXSXVXcXVXFXDXBXmXbXbXVX&X- + % % w b 6XnXA.C.K.J.E./.K.*.*.C.J.6.P.yX X.XI.6.Y.yX",
"PXPXPX.   &XAXAXq.1.oXKXSXVXVXmX<.<.XXFXGXKXvX  * s % M K e.K C Z. XK.m D.(.C.m C.P.6.Y.Y.P.) ;.Y.sX",
"PXPXPXPXO y.FXZXyX>.gXKXFXVXFXyX1.1.<.BXJXHX&XO G i q C. Xr.M G %.}.C.m A.,Xe.y 3.q.3.qX{.T j.{.T.H.",
"PXPXPXPXPXPXZXJXJXKXJXKXAXFXVXnX6.>.5XKXJXJX-X# G d @ Z ^.G r b S b x b b b M C P.|.P.8.H.T f.eXH.PX",
"PXPXPXPXPXPXPXFXHXKXJXPXPXVXZXAXHXZXKXFXZXJXPXPXl t % * r e.4Xt.r x S.4XZ b Z PXH..X~.>.3.R R R PXPX",
"PXPXPXPXPXPXPXPXPXPXPXPXPXPXZXFXKXJXKXKXKXPXPXPXPXPXPXPXPXe.5XS.r x t.S.M c PXPXPXPX;.R R C PXPXPXPX",
"PXPXPXPXPXPXPXPXPXPXPXPXPXPXPXPXZXHXJXPXPXPXPXPXPXPXPXPXPXPXPXx Z Z r r PXPXPXPXPXPXPXPXPXPXPXPXPXPX",
"PXPXPXPXPXPXPXPXPXPXPXPXPXPXPXPXPXPXPXPXPXPXPXPXPXPXPXPXPXPXPXPXPXPXPXPXPXPXPXPXPXPXPXPXPXPXPXPXPXPX",
"PXPXPXPXPXPXPXPXPXPXPXPXPXPXPXPXPXPXPXPXPXPXPXPXPXPXPXPXPXPXPXPXPXPXPXPXPXPXPXPXPXPXPXPXPXPXPXPXPXPX"
};
