/* XPM */
static char *_627117052662[] = {
/* columns rows colors chars-per-pixel */
"50 50 224 2 ",
"   c #380000",
".  c #4F0A00",
"X  c #530F00",
"o  c #571902",
"O  c #4D1F0C",
"+  c #631500",
"@  c #5B2304",
"#  c #582409",
"$  c #582C18",
"%  c #54301E",
"&  c #4C2613",
"*  c #662200",
"=  c #6B2A00",
"-  c #6B2C09",
";  c #672904",
":  c #752500",
">  c #793708",
",  c #723615",
"<  c #79391A",
"1  c #65311A",
"2  c #4D2E20",
"3  c #4B3023",
"4  c #593524",
"5  c #6C3D24",
"6  c #643B27",
"7  c #743D22",
"8  c #6C4227",
"9  c #744324",
"0  c #7C492C",
"q  c #79472A",
"w  c #7B4D34",
"e  c #764E39",
"r  c #7A543D",
"t  c #7D5133",
"y  c #654231",
"u  c #7D5A45",
"i  c #766053",
"p  c #726963",
"a  c #832E00",
"s  c #833301",
"d  c #893C04",
"f  c #88371C",
"g  c #934604",
"h  c #87451A",
"j  c #964A1D",
"k  c #824425",
"l  c #894621",
"z  c #82472C",
"x  c #824B2C",
"c  c #8C4B2B",
"v  c #894829",
"b  c #924B23",
"n  c #924C2B",
"m  c #944625",
"M  c #8C502F",
"N  c #94522B",
"B  c #9A542D",
"V  c #9E5A2B",
"C  c #894C31",
"Z  c #964E32",
"A  c #845335",
"S  c #8C5333",
"D  c #85563B",
"F  c #8B5639",
"G  c #8A5C3E",
"H  c #86593F",
"J  c #955534",
"K  c #9B5533",
"L  c #975C37",
"P  c #9C5B35",
"I  c #945B3C",
"U  c #9B5C3B",
"Y  c #A15C34",
"T  c #A45D39",
"R  c #A05730",
"E  c #A85F2E",
"W  c #9D623E",
"Q  c #95613B",
"!  c #AB6435",
"~  c #A3623C",
"^  c #A8643E",
"/  c #AC6A3B",
"(  c #B96C33",
")  c #855B45",
"_  c #8D5E42",
"`  c #845F4A",
"'  c #925F43",
"]  c #975E43",
"[  c #8B6346",
"{  c #85624B",
"}  c #8C654C",
"|  c #8C694C",
" . c #816045",
".. c #946344",
"X. c #9B6442",
"o. c #936449",
"O. c #9B6449",
"+. c #94694B",
"@. c #9C6C4B",
"#. c #9D6C46",
"$. c #9E714E",
"%. c #8D6A51",
"&. c #866755",
"*. c #936D52",
"=. c #9D6D52",
"-. c #936E59",
";. c #986758",
":. c #9C7255",
">. c #96725A",
",. c #9C755B",
"<. c #957256",
"1. c #A46542",
"2. c #A56A45",
"3. c #AC6B44",
"4. c #A46C4A",
"5. c #AA6E4B",
"6. c #AA6641",
"7. c #B26C43",
"8. c #B26F48",
"9. c #AC724D",
"0. c #AF7045",
"q. c #B47246",
"w. c #B3744C",
"e. c #B97A4C",
"r. c #B8774B",
"t. c #A47354",
"y. c #AB7453",
"u. c #A3765B",
"i. c #A57A5C",
"p. c #AD7B5C",
"a. c #AC7756",
"s. c #B27653",
"d. c #B57B54",
"f. c #BA7C54",
"g. c #B47D5A",
"h. c #BB7F59",
"j. c #A06D59",
"k. c #8D7261",
"l. c #947563",
"z. c #9C7964",
"x. c #9D7E6B",
"c. c #9B7660",
"v. c #857570",
"b. c #A27C62",
"n. c #A97E62",
"m. c #A07F6B",
"M. c #C17C4C",
"N. c #C17D54",
"B. c #BE844F",
"V. c #BD8354",
"C. c #BB825C",
"Z. c #BF8A5E",
"A. c #B48059",
"S. c #9A8476",
"D. c #AC8264",
"F. c #A5826B",
"G. c #AB856B",
"H. c #AD8A6E",
"J. c #B38564",
"K. c #BD8A63",
"L. c #BC8B69",
"P. c #B38869",
"I. c #A58975",
"U. c #AB8A73",
"Y. c #AC8E79",
"T. c #A28A7E",
"R. c #B28C73",
"E. c #B68D74",
"W. c #AF917E",
"Q. c #B59177",
"!. c #B4937B",
"~. c #BC9479",
"^. c #B89377",
"/. c #C2855D",
"(. c #C48C5D",
"). c #C68757",
"_. c #C48B64",
"`. c #C38E6B",
"'. c #C98B62",
"]. c #D08F64",
"[. c #C99365",
"{. c #C3926A",
"}. c #CB956B",
"|. c #CA996E",
" X c #C49167",
".X c #D69667",
"XX c #D3966C",
"oX c #D59B6C",
"OX c #C39474",
"+X c #CB9671",
"@X c #C59973",
"#X c #CD9B74",
"$X c #C39A7C",
"%X c #CB9D7A",
"&X c #C19778",
"*X c #D49A74",
"=X c #D49C76",
"-X c #CAA27D",
";X c #CAA076",
":X c #D4A27E",
">X c #DAA37C",
",X c #D2A176",
"<X c #AC9282",
"1X c #B39682",
"2X c #BB9A82",
"3X c #BB9E8A",
"4X c #B69A87",
"5X c #A58F84",
"6X c #BDA28E",
"7X c #C29D83",
"8X c #C7A487",
"9X c #D1A785",
"0X c #C7AA93",
"qX c #CFB29A",
"wX c #E5AF88",
"eX c #CBB7A9",
"rX c #CBBFB4",
"tX c #D1C1B4",
"yX c #E2CEBF",
"uX c #DBD0C5",
"iX c #E3DCD3",
"pX c #F5E5DA",
"aX c #FBFAF8",
"sX c None",
/* pixels */
"sXsXsXsXsXsXsXsXsXsXsXsXsXsXsXsXsXsXsXq.h.+X_./._.C.M.8.sXsXsXsXsXsXsXsXsXsXsXsXsXsXsXsXsXsXsXsXsXsX",
"sXsXsXsXsXsXsXsXsXsXsXsXsXsXsXsXsXC./.*X].`.6.9.4.P q.M.'.`.d.sXsXsXsXsXsXsXsXsXsXsXsXsXsXsXsXsXsXsX",
"sXsXsXsXsXsXsXsXsXsXsXsXsXsXsXC.).7.B N sXsXsXsXsXsXsXh 1.h.=X=Xr.sXsXsXsXsXsXsXsXsXsXsXsXsXsXsXsXsX",
"sXsXsXsXsXsXsXsXsXsXsXsXsXq.'.w.d sXsXsXsXsXsXsXsXsXsXsXsXsXS r.).).sXsXsXsXsXsXsXsXsXsXsXsXsXsXsXsX",
"sXsXsXsXsXsXsXsXsXsXsXsXf.>X4.sXsXsXsXsXsXsXsXsXsXsXsXsXsXsXsX;.:.3.6.sXsXsXsXsXsXsXsXsXsXsXsXsXsXsX",
"sXsXsXsXsXsXsXsXsXsXsXg.XXP sXsXsXsXsXsXsXsXsXsXsXsXsXsXsXsXsXsXsXd 5.s.sXsXsXsXsXsXsXsXsXsXsXsXsXsX",
"sXsXsXsXsXsXsXsXsXsXc *XJ sXsXsXsXsXsXsXsXsXsXsXsXsXsXsXsXsXsXsXsXsX~ 7.y.sXsXsXsXsXsXsXsXsXsXsXsXsX",
"sXsXsXsXsXsXsXsXsXsXN.5.sXsXsXsXsXsXsXsXsXsXsXsXsXsXsXsXsXsXsXsXsXsXsXB N.7XsXsXsXsXsXsXsXsXsXsXsXsX",
"sXsXsXsXsXsXsXsXsX5.`.sXsXsXsXsXsXsXsXsXsXsXsXsXsXsXsXsXsXsXsXsXsXsXsXsX5.}.sXsXsXsXsXsXsXsXsXsXsXsX",
"sXsXsXsXsXsXsXsXj .XO.sXsXsXsXsXsXsXsXsXsXsXsXsXsXsXsXsXsXsXsXsXsXsXsXsXs f.K.sXsXsXsXsXsXsXsXsXsXsX",
"sXsXsXsXsXsXsXsXw.#XsXsXsXsXsXsXsXsXsXsXsXsXsXsXsXsXsXsXsXsXsXsXsXsXsXsXsX2.*X/ sXsXsXsXsXsXsXsXsXsX",
"sXsXsXsXsXsXsX] XXsXsXsXsXsXsXsXsXsXsXsXsXsXsXsXsXsXsXsXsXsXsXsXsXsXsXsXsXsXh.g.sXsXsXsXsXsXsXsXsXsX",
"sXsXsXsXsXsXsX2.`.sXsXsXsXsXsXsXsXsXsXsXsXsXsXsXsXsXsXsXsXsXsXsXsXsXsXsXsXsXB |.! sXsXsXsXsXsXsXsXsX",
"sXsXsXsXsXsXa (.f.sXsXsXsXsXsXsXsXsXsXsXsXsXsXsXsXsXsXsXsXsXsXsXsXsXsXsXsXsXa +X`.sXsXsXsXsXsXsXsXsX",
"sXsXsXsXsXsXg >Xw.sXsXsXsXsXsXsXsXsXsXsXsXsXsXsXsXsXsXsXsXsXsXsXsXsXsXsXsXsXsXE }.sXsXsXsXsXsXsXsXsX",
"sXsXsXsXsXsXB .XsXsXsXsXsXsXsXsXsXsXsXsXsXsXsXsXsXsXsXsXsXsXsXsXsXsXsXsXsXsXsXl .Xe.sXsXsXsXsXsXsXsX",
"sXsXsXsXsXsXW .XsXsXsXsXsXsXsXsXsXsXsXsXsXsXsXsXsXsXsXsXsXsXsXsXsXsXsXsXsXsXsXsX0._.sXsXsXsXsXsXsXsX",
"sXsXsXsXsXsXN K.sXsXsXsXsXsXsXsXsXsXsXsXsXsXsXsXsXsXsXsXsXsXsXsXsXsXsXsXsXsXsXsXh / sXsXsXsXsXsXsXsX",
"sXsXsXsXsXsXN ! sXsXsXsXsXsXsXsXsXsXsXsXsXsXsXsXsXsXsXsXsXsXsXsXsXsXsXsXsXsXsXsXh M.x sXsXsXsXsXsXsX",
"sXsXsXsXsX  / Q sXsXsXsXsXsXsXsXsXsXsXsXsXsXsXsXsXsXsXsXsXsXsXsXsXsXsXsXsXsXsXsXh ( N sXsXsXsXsXsXsX",
"sXsXsXsXsX; ( 6.sXsXsXsXsXsXsXsXsXsXsXsXsXsXsXsXsXsXsXsXsXsXsXsXsXsXsXsXsXsXsXsX> 9.! sXsXsXsXsXsXsX",
"sXsXsXsXsXsXV s sXsXsXsXsXsXsXsXsXsXsXsXsXsXsXsXsXsXsXsXsXsXsXsXsXsXsXsXsXsXsXsX9.>X/.b sXsXsXsXsXsX",
"sXsXsXsXsXb r.{.sXsXsXsXsXsXsXsXsXsXsXsXsXsXsXsXsXsXsXsXsXsXsXsXsXsXsXsXsXsXsXsXq.|.g.j sXsXsXsXsXsX",
"sXsXsXsXsXsXh.>Xe.sXsXsXsXsXsXsXsXsXsXsXsXsXsXsXsXsXsXsXsXsXsXsXsXsXsXsXsXsXsXsXd V 7.sXsXsXsXsXsXsX",
"sXsXsXsXsXsXg {.%Xf.sXsXsXsXsXsXsXsXsXsXsXsXsXsXsXsXsXsXsXsXsXsXsXsXsXsXsXsXN e.+XC.g.sXsXsXsXsXsXsX",
"sXsXsXsXaXpXH ! K.[.h.R.4.sXsXsXsXsXsXsXsXsXsXsXsXsXsXsXsXsXsXsXsXsXs J ! _.wX=X,.t x.sXsXsXsXsXsXsX",
"sXsXsXsXsXyX>.F M @._.'./._.9.2.p.w.Y 1./ P W V 2.5.Y 4.1.O.C.r.d.r.}.wX'.{.+.$ @ | +.W.sXsXsXsXsXsX",
"sXsXsXsXsXtX$.1.c , o 6 F ] 5.d.{.C.J.{.e.9.w.A.`.h.L.f.f.%X+Xh.h.h.d.~ 7 X * c I >.x.z.sXsXsXsXsXsX",
"sXsXsXsXsXeX+.n k 5 6 o + + $ - = , , # @ ; ; o X $ @ $ $ . - f 9 - : < 9 [ U K 2.,.x.>.sXsXsXsXsXsX",
"sXsXsXsXsX3Xi.K J A r v W ] +.[ X.9.*.,.y.A.J.F.@.Q ] r u G L F [ H n T ..[ c K +.:.F.,.sXsXsXsXsXsX",
"sXsXsXsXsXR.u.n Y ] ) K 7.y.G.H.Z.}.Q.1XL.,X9X3XE.(.}.G.F.y.w.9.<.=.~ ^ [ } c Y 9.,.-.*.sXsXsXsXsXsX",
"sXsXsXsXsXR.t.n K F u U q.h.F.Q. X}.Q.Y.V.}.~.4X$X[.#XR.l.3.w.4.*.t.! 2.+.[ n Y ..+.,.G.sXsXsXsXsXsX",
"sXsXsXsXsX!.p.K Y X.*.U 8.N.R.!./.}.~.<XC.[.@X3X3X|.|.G.>.5.d.s.u.=.T 3.$.| c Y 5.i.,.:.sXsXsXsXsXsX",
"sXsXsXsXsXU.o.m K U ) c 7.s.b.Y.L.|.$X<XC.|.-X4X~.|.|.P.S.9.w.4.*.t.1.3.+.w B / t.*.A *.u.sXsXsXsXsX",
"sXsXsXsXsXU.] m T ..%.^ N.`.^.7X@X|.7X1XA.(.@X1X8X;X#XL.k.1.f.g.D.y.^ L } O.Y ^ :...F +.$.sXsXsXsXsX",
"sXsXsXsXsXG.t.I K X.%.] r.h.I.J.(.[.H.W.Z.,X9X0X-X|.OXF.u.f./.i.>.K 6.O.| I P 5.u.+.F +.sXsXsXsXsXsX",
"sXsXsXsXsXH.t.U U 8.u.] r.h.Y.E.(.|.R.<X_.#X$X<XJ.[.OXI.G.A.f.u.z.2.3.1.%.F m ^ u.+.A _ sXsXsXsXsXsX",
"sXsXsXsXsXsX+.c Z T y.} ^ N.n.1X$X|.~.!.C.}.$X3X-X|.;XU.b.e.C.t.i.p.3.9.*.) B 2.,._ x _ sXsXsXsXsXsX",
"sXsXsXsXsXsXp.W T 6.5.>.6.N.g.1X$X|.,X3XJ.).+X1X0X8X,X~.l.3.f.a.z.a.1.5.<.o.B 1.i.Q x G sXsXsXsXsXsX",
"sXsXsXsXsXsX,.X.] ~ s.u.U f.g.m.Q. X-X3XH.B.}.2X3X@X}.L.S.9.f.9.>.t.3.w.| z R 9.:.A 0 ..sXsXsXsXsXsX",
"sXsXsXsXsXsXD.W T U w.j.M e.L.^.0X-X=X8XU.B.}.^.3X9XoXOXz.2.f.p.G.g.^ G r n ~ #.*.A x ..sXsXsXsXsXsX",
"sXsXsXsXsXsXH.@.Z U 5.b.] 7.a.b.2X@X|.$Xb.B.|.3XqX-X|.E.} 0.C.u.n.6./ | ) N ~ #.+.A G sXsXsXsXsXsXsX",
"sXsXsXsXsXsXsXi.K Z T 1.>.f.C.G.!.{.|.2XH.).`.Y.2X@X#XY.>.w.d.:.:.T U G [ N ~ $.+.A A sXsXsXsXsXsXsX",
"sXsXsXsXsXsXsXG.X.v K 6.} o.w.h.F.J.(.J.Y.J.[.~.W.C._.F.z.9.9.@.*.K ~ [ _ B 2.:.) h z.sXsXsXsXsXsXsX",
"sXsXsXsXsXsXsXQ.D.n Z T ' _ 8.h.G.F.f.L.I.i.V.L.Y.A.Z.D.-.1.3.:.o.K W | I Y 4.+.q -.tXsXsXsXsXsXsXsX",
"sXsXsXsXsXsXsXsXU.o.f T U 0 J w.a.m.w.C.U.n.f.L.U.a.d.@.} 1.3.@...R W  .S P G { q 5XsXsXsXsXsXsXsXsX",
"sXsXsXsXsXsXsXsXsXG.O.m U e C 3.4.,.5.9.i.-.2.d.F.a.0.+.u L ~ o.Q L G r z x r t + sXsXsXsXsXsXsXsXsX",
"sXsXsXsXsXsXsXsXsXsXi ' n x 7 l J ) F U o.} L 4.*.[ U [ r v S r 0 x 8 4 5 q 8 S.rXsXsXsXsXsXsXsXsXsX",
"sXsXsXsXsXsXsXsXsXsXsXsX5Xx.k.) z 7 5 : > 8 , 0 e q 7 5 4 $ $ & O # % & 5 &.S.rXiXiXsXsXsXsXsXsXsXsX",
"sXsXsXsXsXsXsXsXsXsXsXsXsXsXsXsXsXv.p S.x.k.&.e 6 2 1 6 % $ 4 3 4 y e i I.6XeXtXuXiXsXsXsXsXsXsXsXsX"
};
