/* XPM */
static char *_627138929595[] = {
/* columns rows colors chars-per-pixel */
"50 50 81 1 ",
"  c #E6E600",
". c #ECEC00",
"X c #F3F300",
"o c #FFFF00",
"O c #FEFE0B",
"+ c #F7F717",
"@ c #FEFE13",
"# c #F7F71A",
"$ c #FDFD1C",
"% c #DDDD3D",
"& c #E9E927",
"* c #E5E52E",
"= c #EBEB2C",
"- c #F2F224",
"; c #FCFC24",
": c #F5F52C",
"> c #FAFA2C",
", c #E2E234",
"< c #EBEB33",
"1 c #E2E23E",
"2 c #F5F533",
"3 c #F8F834",
"4 c #F6F63C",
"5 c #F8F73A",
"6 c #DDDD43",
"7 c #D6D649",
"8 c #DBDB4C",
"9 c #E1E146",
"0 c #F4F443",
"q c #F1F14C",
"w c #EDED55",
"e c #EBEB5A",
"r c #CCCC6B",
"t c #DFDE6D",
"y c #C8C873",
"u c #C4C47A",
"i c #C9C77D",
"p c #CDCB7E",
"a c #D0CF7F",
"s c #DCDB74",
"d c #D5D47D",
"f c #D8D779",
"g c #E0DF6C",
"h c #E5E564",
"j c #E2E26B",
"k c #5A52C6",
"l c #837FB7",
"z c #837FBA",
"x c #BEBE85",
"c c #BEBB8E",
"v c #B1AF9D",
"b c #B7B496",
"n c #B9B794",
"m c #BDBB95",
"M c #B4B29B",
"N c #B8B79A",
"B c #BBB998",
"V c #9A97AE",
"C c #9D9AAC",
"Z c #8985B6",
"A c #8D89B5",
"S c #8581B8",
"D c #918EB1",
"F c #9693B0",
"G c #A09DA5",
"H c #A19EAA",
"J c #A6A5A6",
"K c #A9A6A3",
"L c #ACAAA3",
"P c #B0AEA1",
"I c #C0BE8E",
"U c #C0BE93",
"Y c #C8C684",
"T c #CDCC83",
"R c #C6C48C",
"E c #C8C78A",
"W c #CBCA8A",
"Q c #D0CF83",
"! c #D2D181",
"~ c #C3C291",
"^ c None",
/* pixels */
"^^^^^^^^^^^^^^^^^^^^^^^^^^^^^^^^^^^^^^^^^^^^^^^^^^",
"^^^^^^^^^^^^^^^^^^^^^^^^^^^^^^^^^^^^^^^^^^^^^^^^^^",
"^^^^^^^^^^^^^^^^^^^^^^^^^^^^^^^^^^^^^^^^^^^^^^^^^^",
"^^^^^^^^^^^^^^^^^^^^^^^^^^^^^^^^^^^^^^^^^^^^^^^^^^",
"^^^^^^^^^^Oo^^^^^^^^^^^^^^^^^^^^^^^^^^^^^^^^^^^^^^",
"^^^^^^^^^^o@32=&=*<3o^^^^^^^^^^^^^^^^^^^^^^^^^^^^^",
"^^^^^^^^^^=%%,**&#ooooooooooo^^^^^^^^^^^^^^^^^^^^^",
"^^^^^^^^^^8%%,%*+ooOooooooooooooooooo^^^^^^^^^^^^^",
"^^^^^^^^^x96%%*Oooooooooooooooooooooooooooooo^^^^^",
"^^^^^^^K^u97%-oooooooooooooooooooooooooooooooo^^^^",
"^^^^^^JK^y81@ooooooooooooooooooooooooooooooooX^^^^",
"^^^^^^KJCr:ooOooooooooooooooooooooooooooooooo.^^^^",
"^^^^^^^K^>ooooooooooooooooooooooooooooooooooo ^^^^",
"^^^^^^^^^oOoooooooooooooooooooooOOoOooooooooo^^^^^",
"^^^^^^^^^OoooooooooooooooOoO@@OOooOoooooooooo^^^^^",
"^^^^^^^^^oooooOOOoooooo@@oOoooooqCJgoOooooooo^^^^^",
"^^^^^^^^^oooO@ooooO$@Oooo@oq!R4oJMJSqoOoooooo^^^^^",
"^^^^^^^^^oooooo03oooooOedNNLMCRqFbmR>oOoooooo^^^^^",
"^^^^^^^^ooOo@fIKEoqUmhomSRHH3jZhLCshjoOoooooX^^^^^",
"^^^^^^^^oo@ohcWe0oRmLKoQCohSeoA~wmCKjo@ooooo.^^^^^",
"^^^^^^^^ooo;RT$o>4@sLCeeFeoHWoPJo30>oOoooooo.^^^^^",
"^^^^^^^^oOo3IToebYjFsJBqVmo~~O00ooooOooooooo^^^^^^",
"^^^^^^^^oooodv4oQRTARMSm~Qo$oOoooOOOoooooooo^^^^^^",
"^^^^^^^^oo@owMm!UbesNh03ooOoooOOoooooooooooo^^^^^^",
"^^^^^^^^oooOoqsWse;ooooo@@oOoooooooooooooooo^^^^^^",
"^^^^^^^^ooooOoooooo@@@OOoooooooooO@$oooooooo^^^^^^",
"^^^^^^^^oooooOO@OOooooooooooOo@@@ooooooooooX^^^^^^",
"^^^^^^^ooooooooooo@@OOOoOooooOooo5s!m3oOoooX^^^^^^",
"^^^^^^^oooooooooo@oooooooOoOoo!NeeFCf;oOooo ^^^^^^",
"^^^^^^^oooooooooOoqRRs0o>o;MhsFJDjmmOoOoooo^^^^^^^",
"^^^^^^^ooooooooOoePZniWsAq$KjMvIDe!J0oOoooo^^^^^^^",
"^^^^^^^oooooooOo>dEqospeLJwKqBZdqqjSfo+oooo^^^^^^^",
"^^^^^^^oooooooOo4a!oo0it3AHv5evJKW0Ldo@oooo^^^^^^^",
"^^^^^^^oooooooOo3YYoo3cEoRkMoowsj>o$ooooooo^^^^^^^",
"^^^^^^^ooooooooOofCwohIto5Lso@ooooOoOoooooX^^^^^^^",
"^^^^^^oooooooooOo;avRRa$ooooooO@@OoOooooooX^^^^^^^",
"^^^^^^ooooooooooOooeeqooOooOoooooooooooooo.^^^^^^^",
"^^^^^^oooooooooooOOoooOOoooooooooooooooooo^^^^^^^^",
"^^^^^^ooooooooooooo@@Ooooooooooooooooooooo^^^^^^^^",
"^^^^^^oooooooooooooooooooooooooooooooooooo^^^^^^^^",
"^^^^^^oooooooooooooooooooooooooooooooooooo^^^^^^^^",
"^^^^^^^^^^^^..Xooooooooooooooooooooooooooo^^^^^^^^",
"^^^^^^^^^^^^^^^^^^^^ XXooooooooooooooooooX^^^^^^^^",
"^^^^^^^^^^^^^^^^^^^^^^^^^^^^ .Xoooooooooo.^^^^^^^^",
"^^^^^^^^^^^^^^^^^^^^^^^^^^^^^^^^^^^^ .XXo.^^^^^^^^",
"^^^^^^^^^^^^^^^^^^^^^^^^^^^^^^^^^^^^^^^^^^^^^^^^^^",
"^^^^^^^^^^^^^^^^^^^^^^^^^^^^^^^^^^^^^^^^^^^^^^^^^^",
"^^^^^^^^^^^^^^^^^^^^^^^^^^^^^^^^^^^^^^^^^^^^^^^^^^",
"^^^^^^^^^^^^^^^^^^^^^^^^^^^^^^^^^^^^^^^^^^^^^^^^^^",
"^^^^^^^^^^^^^^^^^^^^^^^^^^^^^^^^^^^^^^^^^^^^^^^^^^"
};
