/* XPM */
static char *_627118263210[] = {
/* columns rows colors chars-per-pixel */
"50 50 168 2 ",
"   c #5D0000",
".  c #7C4723",
"X  c #A60000",
"o  c #A52100",
"O  c #AF2400",
"+  c #B12500",
"@  c #A83300",
"#  c #AB3C00",
"$  c #B13D00",
"%  c #9B4401",
"&  c #AA4301",
"*  c #AE4902",
"=  c #A64309",
"-  c #AA450F",
";  c #AE4A0B",
":  c #B54600",
">  c #B84100",
",  c #B44B02",
"<  c #B94B03",
"1  c #B04D0C",
"2  c #BB4F08",
"3  c #B55400",
"4  c #BF5600",
"5  c #BC5D01",
"6  c #B2510F",
"7  c #B9530E",
"8  c #AF4D12",
"9  c #AC4C1E",
"0  c #B34F10",
"q  c #B35314",
"w  c #BA5614",
"e  c #B75911",
"r  c #B95D16",
"t  c #B2541C",
"y  c #BE5419",
"u  c #B65A1C",
"i  c #BB5C1D",
"p  c #BF6517",
"a  c #BF6318",
"s  c #844B25",
"d  c #8A4E26",
"f  c #8F5127",
"g  c #945429",
"h  c #9B572A",
"j  c #9D592C",
"k  c #874F3E",
"l  c #A75B26",
"z  c #A35C2C",
"x  c #A95F2E",
"c  c #B25522",
"v  c #B95E22",
"b  c #B65C25",
"n  c #B55E33",
"m  c #AD622F",
"M  c #BB6226",
"N  c #BC652B",
"B  c #BF692E",
"V  c #AF6330",
"C  c #B46531",
"Z  c #BC6734",
"A  c #B66834",
"S  c #BD6932",
"D  c #BB683A",
"F  c #C25500",
"G  c #C8580D",
"H  c #C15A17",
"J  c #C35D1A",
"K  c #C46425",
"L  c #C36629",
"P  c #C26A2E",
"I  c #C96C2D",
"U  c #C7722A",
"Y  c #C16D34",
"T  c #CD6F32",
"R  c #C26F38",
"E  c #C57134",
"W  c #C87236",
"Q  c #C4723C",
"!  c #CB753B",
"~  c #D17639",
"^  c #D6793B",
"/  c #D67938",
"(  c #B76741",
")  c #A76951",
"_  c #B16D51",
"`  c #BA6F55",
"'  c #BE7756",
"]  c #C67542",
"[  c #C97742",
"{  c #C77945",
"}  c #C97945",
"|  c #C0744C",
" . c #C77949",
".. c #CA7D4B",
"X. c #D07A42",
"o. c #C77C52",
"O. c #CB7F56",
"+. c #C37F60",
"@. c #CC804E",
"#. c #D68046",
"$. c #D3824D",
"%. c #DB864D",
"&. c #CE8453",
"*. c #CD865B",
"=. c #CF885C",
"-. c #D28554",
";. c #D58956",
":. c #D28B5C",
">. c #DE8E59",
",. c #DD8A54",
"<. c #E08F5E",
"1. c #E6935C",
"2. c #C1846C",
"3. c #D48E61",
"4. c #D59063",
"5. c #DA9263",
"6. c #D4946C",
"7. c #C38F75",
"8. c #CC8F70",
"9. c #CB957D",
"0. c #D69976",
"q. c #D49C7E",
"w. c #DB9B78",
"e. c #D69578",
"r. c #E29563",
"t. c #B6AFA9",
"y. c #D39E83",
"u. c #D7A086",
"i. c #D8A68D",
"p. c #C1A094",
"a. c #D5A792",
"s. c #DCAD93",
"d. c #D4AB9A",
"f. c #DFB095",
"g. c #DBB29B",
"h. c #E6AC8A",
"j. c #E9B69B",
"k. c #C6B1A8",
"l. c #DBB6A2",
"z. c #DEBAA9",
"x. c #C6BBB4",
"c. c #E1B7A2",
"v. c #E1BAA3",
"b. c #E2BCAB",
"n. c #E3C2AF",
"m. c #ECC3AB",
"M. c #E4C5B5",
"N. c #E8C5BB",
"B. c #E7C9B9",
"V. c #E9CEBD",
"C. c #ECCFC4",
"Z. c #E7D2C5",
"A. c #ECD2C2",
"S. c #EDD6C9",
"D. c #EED8CA",
"F. c #F3D6C6",
"G. c #F1D7CD",
"H. c #F2DACC",
"J. c #FCDECC",
"K. c #F2DFD3",
"L. c #F3E1D5",
"P. c #F6E6DA",
"I. c #F7E9DD",
"U. c #FCECDD",
"Y. c #FAEDE2",
"T. c #FDF0E6",
"R. c #FDF3E8",
"E. c None",
/* pixels */
"E.E.E.E.E.E.E.E.E.E.E.E.E.E.E.E.E.E.E.E.E.E.E.E.E.E.E.E.E.E.E.E.E.E.E.E.E.E.E.E.E.E.E.E.E.E.E.E.E.E.",
"E.E.E.E.E.E.E.E.E.E.E.E.E.E.E.E.E.E.E.E.E.E.E.E.E.E.E.E.E.E.E.E.E.E.E.E.E.E.E.E.E.E.E.E.E.E.E.E.E.E.",
"E.E.E.E.E.E.E.E.E.E.E.E.E.E.E.E.E.E.E.E.E.E.E.E.E.E.E.E.E.E.E.E.E.E.E.E.E.E.E.E.E.E.E.E.E.E.E.E.E.E.",
"E.E.E.E.E.E.E.E.E.E.E.E.E.E.E.E.E.E.E.E.E.E.E.E.E.E.E.E.E.E.E.E.E.E.E.E.E.E.E.E.E.E.E.E.E.E.E.E.E.E.",
"E.E.E.E.E.E.E.E.E.E.E.E.E.E.E.E.E.E.E.E.E.E.E.E.E.E.E.E.E.E.E.E.E.E.E.E.E.E.E.E.E.E.E.E.E.E.E.E.E.E.",
"E.E.E.E.E.E.E.E.E.E.E.W W E.E.E.E.E.E.E.E.E.E.E.E.E.E.E.E.E.E.E.E.E.E.E.E.E.E.E.E.E.E.E.E.E.E.E.E.E.",
"E.E.E.E.E.E.E.E.E.E.W ^ ! ^ W E.E.E.E.E.E.E.E.E.E.E.E.E.E.E.E.E.E.E.E.E.E.E.E.E.E.E.E.E.E.E.E.E.E.E.",
"E.E.E.E.E.E.E.E.E.E.W W Y Y ^ W E.E.E.E.E.E.E.E.E.E.E.E.E.E.E.E.E.E.E.E.E.E.E.E.E.E.E.E.E.E.E.E.E.E.",
"E.E.E.E.E.E.E.: : q W Y Z C Z ~ W E.E.E.E.E.E.E.E.E.E.E.E.E.E.E.E.E.E.E.E.E.E.E.E.E.E.E.E.E.E.E.E.E.",
"E.E.E.E.E.E.E., & & Y E C m m V ! E.E.E.E.E.E.E.E.E.E.E.E.E.E.E.E.E.E.E.E.E.E.E.E.E.E.E.E.E.E.E.E.E.",
"E.E.E.E.E.E.E.& & & v W C x z z Y Y E.E.E.E.E.E.E.E.E.E.E.E.E.E.E.E.E.E.E.E.E.E.E.E.E.E.E.E.E.E.E.E.",
"E.E.E.E.E.E.E.& < # ; Y A z j h z Y E.E.E.E.E.E.E.E.E.E.E.E.E.E.E.E.E.E.E.E.E.E.E.E.E.E.E.E.E.E.E.E.",
"E.E.E.E.E.E.E.E.& < & u Y z g f f Z Y E.E.E.E.E.E.E.E.E.E.E.E.E.E.E.E.E.E.E.E.E.E.E.E.E.E.E.E.E.E.E.",
"E.E.E.E.E.E.E.E.E.& & : M A h d s z S E.E.E.E.E.E.E.E.E.E.E.E.E.E.E.E.E.E.E.E.E.E.E.E.E.E.E.E.E.E.E.",
"E.E.E.E.E.E.E.E.E.E.E.& < L x s s d A E.E.E.E.E.E.E.E.E.E.E.E.E.E.E.E.E.E.E.E.E.E.E.E.E.E.E.E.E.E.E.",
"E.E.E.E.E.E.E.E.E.E.E.E.E.t Q z . . V Q E.E.E.E.E.E.E.E.E.E.E.E.E.E.E.E.E.E.E.E.E.E.E.E.E.E.E.E.E.E.",
"E.E.E.E.E.E.E.E.E.E.E.E.E.=.r.[ l d h Q &.E.E.E.E.E.E.E.E.E.E.E.E.E.E.E.E.E.E.E.E.E.E.E.E.E.E.E.E.E.",
"E.E.E.E.E.E.E.E.E.E.E.E.E.5.3.3.} Y Y W %.} E.E.E.E.E.E.E.E.E.E.E.E.E.E.E.E.E.E.E.E.E.E.E.E.E.E.E.E.",
"E.E.E.E.E.E.E.E.E.E.E.E.<.:.;.! @...! ! [ ! E.E.E.E.E.E.E.E.E.E.E.E.E.E.E.E.E.E.E.E.E.E.E.E.E.E.E.E.",
"E.E.E.E.E.E.E.E.E.E.E._ p.e.o.i.O.! { ] R ! Y E.E.E.E.E.E.E.E.E.E.E.E.E.E.E.E.E.E.E.E.E.E.E.E.E.E.E.",
"E.E.E.E.E.E.E.E.E.E./ ) k.9.  t.b.P Y R Y B N E.E.E.E.E.E.E.E.E.E.E.E.E.E.E.E.E.E.E.E.E.E.E.E.E.E.E.",
"E.E.E.E.E.E.E.E.E.h.h.0.-.F k x.c.p B Y B M K E.E.E.E.E.E.E.E.E.E.E.E.E.E.E.E.E.E.E.E.E.E.E.E.E.E.E.",
"E.E.E.E.E.E.E.E.c.Y.Y.L.V.s.y.9.N M B M b v J E.E.E.E.E.E.E.E.E.E.E.E.E.E.E.E.E.E.E.E.E.E.E.E.E.E.E.",
"E.E.E.E.E.E.E.E.m.M.K.P.I.I.P.C.8.5 M b u u u E.E.E.E.E.E.E.E.E.E.E.E.E.E.E.E.E.E.E.E.E.E.E.E.E.E.E.",
"E.E.E.E.E.E.E.E.F X z.Y.K.K.K.T.B.a 3 b q w 3 E.E.E.E.E.E.E.E.E.E.E.E.E.E.E.E.3.E.3.E.E.E.E.E.E.E.E.",
"E.E.E.E.E.E.E.E.n ' M.P.S.C.S.Y.Z.D * c q , t E.E.E.E.E.E.E.E.E.E.E.E.E.E.:.-.:.:.:.-.E.E.E.E.E.E.E.",
"E.E.E.E.E.E.E.E.E.J.R.L.b.N.K.Y.b., * t & ; &.4.3.5.:.:.:.-.-.E.E.E.E.E.E.@.;.@.@.$.....E.E.E.E.E.E.",
"E.E.E.E.E.E.E.E.E.g.F.P.G.G.Y.A.' # t & & ..5.3.:.:.:.;.:.,.<.;...} E.E.E.] [ ] ] } #.[ E.E.E.E.E.E.",
"E.E.E.E.E.E.E.E.E.E.7.g.l.b.a.( $ y & t @.4.=.;.-.=.&.@.@.....} -.,.@.@.E.Y Q S Y S ! Y E.E.E.E.E.E.",
"E.E.E.E.E.E.E.E.E.E.S.U.9.* + > 9 8 E.&.5.@.@.3.4.:.&.....} ..&.:.:.5.r.&.Y N N B N I P E.E.E.E.E.E.",
"E.E.E.E.E.E.E.E.E.E.E.Y.Z.% = E.E.E.E.E.&.;.&.! -.4.:...] } :.3.3.3.3.3.5.&.M M u i K u E.E.E.E.E.E.",
"E.E.E.E.E.E.E.E.E.E.E.E.E.E.E.E.E.E.E.E.U m.H.l.=.} &. .] :.4.:.3.:.:.:.3.=.B M t q H q E.E.E.E.E.E.",
"E.E.E.E.E.E.E.E.E.E.E.E.E.E.E.E.E.E.E.E.E.j.Y.P.S.6.E  .@.3.:.3.:.3.3.:.:.&.B v q , 1 E.E.E.E.E.E.E.",
"E.E.E.E.E.E.E.E.E.E.E.E.E.E.E.E.E.E.E.E.E.! F.Y.P.q.5  .=.4.:.3.3.:.=.&.&.@.N u w & E.E.E.E.E.E.E.E.",
"E.E.E.E.E.E.E.E.E.E.E.E.E.E.E.E.E.E.E.E.E.E.w.I.H.o.M q.5.=.3.=.;.@.&.@...} M e 8 E.E.E.E.E.E.E.E.E.",
"E.E.E.E.E.E.E.E.E.E.E.E.E.E.E.E.E.E.E.E.E.E.4 b.S.,  .i.4.&.=.&.@.@.@.} { ] i 6 E.E.E.E.E.E.E.E.E.E.",
"E.E.E.E.E.E.E.E.E.E.E.E.E.E.E.E.E.E.E.E.E.& < | u.& *.s.&...@... . .Q Q Q E 7 E.E.E.E.E.E.E.E.E.E.E.",
"E.E.E.E.E.E.E.E.E.E.E.E.E.E.E.E.E.E.E.E.E.& & w 3 # 9.c.W ..{ } { D Q E Y P * E.E.E.E.E.E.E.E.E.E.E.",
"E.E.E.E.E.E.E.E.E.E.E.E.E.E.E.E.E.E.E.E.& , & E.c O d.C.E Q | Q E S S B I q E.E.E.E.E.E.E.E.E.E.E.E.",
"E.E.E.E.E.E.E.E.E.E.E.E.E.E.E.E.E.E.E.& : # & & - o 2.M.*.p Q Y S B B M i E.E.E.E.E.E.E.E.E.E.E.E.E.",
"E.E.E.E.E.E.E.E.E.E.E.E.E.E.E.E.E.E...] N c 8 ; - - @ t ( B S N M M v v E.E.E.E.E.E.E.E.E.E.E.E.E.E.",
"E.E.E.E.E.E.E.E.E.E.E.E.E.E.E.E.-.1.;.-...] Q R S B Z u r N M v v u u w q E.E.E.E.E.E.E.E.E.E.E.E.E.",
"E.E.E.E.E.E.E.E.E.E.E.E.E.E.E.E.$...} ] ] ] Q R E S B S N a v u q q q 6 G * E.E.E.E.E.E.E.E.E.E.E.E.",
"E.E.E.E.E.E.E.E.E.E.E.E.E.E.E...$.] Q Q Y S S B N M M i c u w q q ; ; 2 & E.E.E.E.E.E.E.E.E.E.E.E.E.",
"E.E.E.E.E.E.E.E.E.E.E.E.E.E.E.] X.Q Y Y S B N M M v u i H q 6 7 7 < , & E.E.E.E.E.E.E.E.E.E.E.E.E.E.",
"E.E.E.E.E.E.E.E.E.E.E.E.E.E.E.E ~ ~ T I L M v u r J e q E.E.E.E.E.E.E.E.E.E.E.E.E.E.E.E.E.E.E.E.E.E.",
"E.E.E.E.E.E.E.E.E.E.E.E.E.E.E.E.E.N N b u u u w q 6 E.E.E.E.E.E.E.E.E.E.E.E.E.E.E.E.E.E.E.E.E.E.E.E.",
"E.E.E.E.E.E.E.E.E.E.E.E.E.E.E.E.E.E.E.E.E.E.E.E.E.E.E.E.E.E.E.E.E.E.E.E.E.E.E.E.E.E.E.E.E.E.E.E.E.E.",
"E.E.E.E.E.E.E.E.E.E.E.E.E.E.E.E.E.E.E.E.E.E.E.E.E.E.E.E.E.E.E.E.E.E.E.E.E.E.E.E.E.E.E.E.E.E.E.E.E.E.",
"E.E.E.E.E.E.E.E.E.E.E.E.E.E.E.E.E.E.E.E.E.E.E.E.E.E.E.E.E.E.E.E.E.E.E.E.E.E.E.E.E.E.E.E.E.E.E.E.E.E."
};
