/* XPM */
static char *_627118238105[] = {
/* columns rows colors chars-per-pixel */
"50 50 169 2 ",
"   c #3A1E33",
".  c #7E4823",
"X  c #7C4622",
"o  c #971A00",
"O  c #A30000",
"+  c #A90000",
"@  c #B00000",
"#  c #A53100",
"$  c #AB3400",
"%  c #A73E00",
"&  c #AA3C00",
"*  c #B83700",
"=  c #B33B00",
"-  c #AB4401",
";  c #AE4906",
":  c #AB450B",
">  c #AD4A0C",
",  c #B34400",
"<  c #BC4400",
"1  c #B44A02",
"2  c #BB4B02",
"3  c #B44E0E",
"4  c #B45100",
"5  c #BA5600",
"6  c #BB5C00",
"7  c #B1500F",
"8  c #AE4C13",
"9  c #AD4D1B",
"0  c #AF5017",
"q  c #B35313",
"w  c #BE5611",
"e  c #B55619",
"r  c #B65A1D",
"t  c #BC5B1C",
"y  c #BD6113",
"u  c #834A25",
"i  c #894E25",
"p  c #8E5127",
"a  c #905127",
"s  c #935429",
"d  c #9E5A2B",
"f  c #A95D27",
"g  c #AE5529",
"h  c #A25B2C",
"j  c #A85F2E",
"k  c #B85427",
"l  c #B75C20",
"z  c #B95D20",
"x  c #B55A2C",
"c  c #B85F28",
"v  c #AE5131",
"b  c #AC612E",
"n  c #BC6225",
"m  c #B1632F",
"M  c #BC642A",
"N  c #BE682F",
"B  c #AE6230",
"V  c #B36431",
"C  c #BC6534",
"Z  c #B76832",
"A  c #BE6A33",
"S  c #BD6A3B",
"D  c #C15106",
"F  c #C95000",
"G  c #C45D18",
"H  c #C15A14",
"J  c #C16000",
"K  c #C36121",
"L  c #C16927",
"P  c #C1662A",
"I  c #C66A2D",
"U  c #C8692A",
"Y  c #C77025",
"T  c #C8732C",
"R  c #C16C33",
"E  c #C16E39",
"W  c #C77037",
"Q  c #CA7235",
"!  c #C4713B",
"~  c #CA743B",
"^  c #D1773C",
"/  c #D4783A",
"(  c #D87A3B",
")  c #8C655F",
"_  c #B76949",
"`  c #BE7556",
"'  c #AE7E6D",
"]  c #C67642",
"[  c #C77944",
"{  c #CA7A45",
"}  c #C47749",
"|  c #C9764C",
" . c #C67848",
".. c #CB7D4B",
"X. c #CA7643",
"o. c #D47F45",
"O. c #D87E43",
"+. c #C87F52",
"@. c #E2803E",
"#. c #B78069",
"$. c #B38673",
"%. c #CC804D",
"&. c #D3834E",
"*. c #DA844B",
"=. c #CE8453",
"-. c #D18655",
";. c #D38854",
":. c #DB8A55",
">. c #D28B5C",
",. c #DC8F5B",
"<. c #E2935F",
"1. c #C28167",
"2. c #CD8766",
"3. c #C2876F",
"4. c #CF8A68",
"5. c #D38E61",
"6. c #DA9363",
"7. c #D5926A",
"8. c #C68D76",
"9. c #CD9071",
"0. c #CD957B",
"q. c #C6957C",
"w. c #D59871",
"e. c #D39B7C",
"r. c #DA9E7C",
"t. c #DA9471",
"y. c #E29663",
"u. c #E49866",
"i. c #E89B69",
"p. c #CE9A84",
"a. c #CE9B88",
"s. c #D19F87",
"d. c #D5A58E",
"f. c #DCA78A",
"g. c #DDA482",
"h. c #D4A894",
"j. c #DAAC95",
"k. c #D7B09B",
"l. c #DCB299",
"z. c #E0AD92",
"x. c #DBBBAB",
"c. c #DCB4A3",
"v. c #C7BCB5",
"b. c #D6BEB3",
"n. c #E0B0A7",
"m. c #E4B8A3",
"M. c #E5BEA8",
"N. c #DDC2B4",
"B. c #F1C5AD",
"V. c #E3C4B3",
"C. c #E9CAB7",
"Z. c #E8C5BB",
"A. c #E6C9BB",
"S. c #E9CBBB",
"D. c #F4CAB2",
"F. c #EBCEC3",
"G. c #EDD4C5",
"H. c #EED6CA",
"J. c #F5D6C4",
"K. c #F1DACD",
"L. c #F2DED1",
"P. c #F3E2D5",
"I. c #F5E6DA",
"U. c #F6E9DE",
"Y. c #FAE9DD",
"T. c #FDE3D1",
"R. c #FBEDE2",
"E. c #FEF1E5",
"W. c None",
/* pixels */
"W.W.W.W.W.W.W.W.W.W.W.W.W.W.W.W.W.W.W.W.W.W.W.W.W.W.W.W.W.W.W.W.W.W.W.W.W.W.W.W.W.W.W.W.W.W.W.W.W.W.",
"W.W.W.W.W.W.W.W.W.W.W *.( Q W.W.W.W.W.W.W.W.W.W.W.W.W.W.W.W.W.W.W.W.W.W.W.W.W.W.W.W.W.W.W.W.W.W.W.W.",
"W.W.W.W.W.W.W.W.W.W./ W E ( Q W.W.W.W.W.W.W.W.W.W.W.W.W.W.W.W.W.W.W.W.W.W.W.W.W.W.W.W.W.W.W.W.W.W.W.",
"W.W.W.W.W.W.W.- & P W E A C Q Q W.W.W.W.W.W.W.W.W.W.W.W.W.W.W.W.W.W.W.W.W.W.W.W.W.W.W.W.W.W.W.W.W.W.",
"W.W.W.W.W.W.- 2 - t W R Z B V W Q W.W.W.W.W.W.W.W.W.W.W.W.W.W.W.W.W.W.W.W.W.W.W.W.W.W.W.W.W.W.W.W.W.",
"W.W.W.W.W.W.- 1 - > E R B j j B W W.W.W.W.W.W.W.W.W.W.W.W.W.W.W.W.W.W.W.W.W.W.W.W.W.W.W.W.W.W.W.W.W.",
"W.W.W.W.W.W.W.- ; % M W B h d d V E W.W.W.W.W.W.W.W.W.W.W.W.W.W.W.W.W.W.W.W.W.W.W.W.W.W.W.W.W.W.W.W.",
"W.W.W.W.W.W.W.- 2 - ; E V d s s d C W.W.W.W.W.W.W.W.W.W.W.W.W.W.W.W.W.W.W.W.W.W.W.W.W.W.W.W.W.W.W.W.",
"W.W.W.W.W.W.W.W.W.1 , e A h s i p V Q W.W.W.W.W.W.W.W.W.W.W.W.W.W.W.W.W.W.W.W.W.W.W.W.W.W.W.W.W.W.W.",
"W.W.W.W.W.W.W.W.W.W.- , z S s u . d A W.W.W.W.W.W.W.W.W.W.W.W.W.W.W.W.W.W.W.W.W.W.W.W.W.W.W.W.W.W.W.",
"W.W.W.W.W.W.W.W.W.W.W.- % K j u . p B W.W.W.W.W.W.W.W.W.W.W.W.W.W.W.W.W.W.W.W.W.W.W.W.W.W.W.W.W.W.W.",
"W.W.W.W.W.W.W.W.W.W.W.W.W.] *.f u . B ~ W.W.W.W.W.W.W.W.W.W.W.W.W.W.W.W.W.W.W.W.W.W.W.W.W.W.W.W.W.W.",
"W.W.W.W.W.W.W.W.W.W.W.W.W.5.5...Z h m O.%.W.W.W.W.W.W.W.W.W.W.W.W.W.W.W.W.W.W.W.W.W.W.W.W.W.W.W.W.W.",
"W.W.W.W.W.W.W.W.W.W.W.W.>.6.>.>.%.~ ~ W *.] W.W.W.W.W.W.W.W.W.W.W.W.W.W.W.W.W.W.W.W.W.W.W.W.W.W.W.W.",
"W.W.W.W.W.W.W.W.W.W.W.4.t.-.-.X.] ..X.] ! ~ W.W.W.W.W.W.W.W.W.W.W.W.W.W.W.W.W.W.W.W.W.W.W.W.W.W.W.W.",
"W.W.W.W.W.W.W.W.W.W.X.) b.| ' x.2.W ] W W Q N W.W.W.W.W.W.W.W.W.W.W.W.W.W.W.W.W.W.W.W.W.W.W.W.W.W.W.",
"W.W.W.W.W.W.W.W.W.-.O.#.d.g   v.M.1  .N A I n W.W.W.W.W.W.W.W.W.W.W.W.W.W.W.W.W.W.W.W.W.W.W.W.W.W.W.",
"W.W.W.W.W.W.W.W.f.J.C.j.>.A $.x.2.y A N n P z W.W.W.W.W.W.W.W.W.W.W.W.W.W.W.W.W.W.W.W.W.W.W.W.W.W.W.",
"W.W.W.W.W.W.W.w.T.E.R.I.L.A.m.9.5 E M n c t r W.W.W.W.W.W.W.W.W.W.W.W.W.W.W.W.W.W.W.W.W.W.W.W.W.W.W.",
"W.W.W.W.W.W.W.r.r.h.L.P.P.R.U.P.e.1 Z r e t q W.W.W.W.W.W.W.W.W.W.W.W.W.W.W.W.W.W.>.W.W.W.W.W.W.W.W.",
"W.W.W.W.W.W.W.M @ + H.I.P.H.P.Y.V., m q q H - W.W.W.W.W.W.W.W.W.W.W.W.W.W.>.-.>.>.-.;.W.W.W.W.W.W.W.",
"W.W.W.W.W.W.W.W.1.c.P.H.F.Z.P.I.V.& x q 3 , ] 6.>.5.>.>.>.W.W.W.W.W.W.W.W.%.;.%.%.;.%...W.W.W.W.W.W.",
"W.W.W.W.W.W.W.W.l.Y.E.P.n.H.Y.Y.s.$ x ; % C 6.i.u.u.y.<.<.,.-.=.%.W.W.W.W.] { [ ] X.o.! W.W.W.W.W.W.",
"W.W.W.W.W.W.W.W.W.q.C.L.K.L.L.h.- 8 3 = V >.>.-.>.=.=.=.=.%.%.&.,.,.>.5.W.! W ! E E W R W.W.W.W.W.W.",
"W.W.W.W.W.W.W.W.W.W.k.s.s.s.` $ 2 3 - S >.5.5.>.>.>.-.%.%...[ %.5.5.6.u.;...! N M M M I W.W.W.W.W.W.",
"W.W.W.W.W.W.W.W.W.W.P.Y.d.O * > 9 W.W.W.y. .T =.7.5.>.%.[ [ ] =.5.5.5.>.=.%. .A M r z r W.W.W.W.W.W.",
"W.W.W.W.W.W.W.W.W.W.W.E.N.o W.W.W.W.W.W.%.r.f.=.Q %.-.%. .! ] 5.>.5.>.>.-. .~ ! R l H q W.W.W.W.W.W.",
"W.W.W.W.W.W.W.W.W.W.W.W.W.W.W.W.W.W.W.W.Y D.R.G.j.] ~  .! A ] 5.5.>.5.>.=.%.[ ! R M q W.W.W.W.W.W.W.",
"W.W.W.W.W.W.W.W.W.W.W.W.W.W.W.W.W.W.W.W.W.r.I.U.U.S.=.L ] S ! 5.>.5.>.>.=...] ! A P t q q ; W.W.W.W.",
"W.W.W.W.W.W.W.W.W.W.W.W.W.W.W.W.W.W.W.W.W.J B.U.I.P.9.6 n 6 S 5.5.5.5.>.=...] ! A n l t q D - W.W.W.",
"W.W.W.W.W.W.W.W.W.W.W.W.W.W.W.W.W.W.W.W.W.W.} J.R.P.0.= e.9.1 ~ 5.>.>.>.=...] ! A M l e > 1 - W.W.W.",
"W.W.W.W.W.W.W.W.W.W.W.W.W.W.W.W.W.W.W.W.W.W.W.7.L.U.0.O d.P.N.e.>.>.5.>.=...] ! N M l e q 1 - W.W.W.",
"W.W.W.W.W.W.W.W.W.W.W.W.W.W.W.W.W.W.W.W.W.W.W.= f.Y.a.O 0.U.R.U.M.%.>.>.=...] ! N M n q 0 5 - W.W.W.",
"W.W.W.W.W.W.W.W.W.W.W.W.W.W.W.W.W.W.W.W.W.W.W.9 < l.0.O ` P.P.P.I.M.;.;.=...] ! N M r e 7 1 W.W.W.W.",
"W.W.W.W.W.W.W.W.W.W.W.W.W.W.W.W.W.W.W.W.W.W.W.: , 1 x $ _ P.I.P.P.Y.G.g.*.;.{ W A n l e w 1 W.W.W.W.",
"W.W.W.W.W.W.W.W.W.W.W.W.W.W.W.W.W.W.W.W.W.W.W.- 1 8 8 % 9 K.R.Y.Y.E.Y.a.1 W.S A M M l e q W.W.W.W.W.",
"W.W.W.W.W.W.W.W.W.W.W.W.W.W.W.W.W.W.W.W.W.W.W.- F - : 8 % 8.V.G.G.A.8.W.W.W.% , t M l G > W.W.W.W.W.",
"W.W.W.W.W.W.W.W.W.W.W.W.W.W.W.W.W.W.W.W.W.W.W.W.- W.- , 3 O W.W.W.W.W.W.W.W.2 8 A M r G q W.W.W.W.W.",
"W.W.W.W.W.W.W.W.W.W.W.W.W.W.W.W.W.W.W.W.W.W.W.W.W.W.- 1 - k v W.W.W.W.W.W.- , c R n z G W.W.W.W.W.W.",
"W.W.W.W.W.W.W.W.W.W.W.W.W.W.W.W.W.W.W.W.W.W.W.W.W.W.W.- , 2 - W.W.W.W.W.W., 7 R A n r G q W.W.W.W.W.",
"W.W.W.W.W.W.W.W.W.W.W.W.W.W.W.W.W.W.W.W.W.W.W.W.W.W.W.W.- - W.W.W.W.W.W.- - M ! A n l G q W.W.W.W.W.",
"W.W.W.W.W.W.W.W.W.W.W.W.W.W.W.W.W.W.W.W.W.W.W.W.W.W.W.W.W.W.W.W.W.W.W.; , 0 ! ! A n z G 3 W.W.W.W.W.",
"W.W.W.W.W.W.W.W.W.W.W.W.W.W.W.W.W.W.W.W.W.W.W.W.W.W.W.W.W.W.W.W.W.W.W.- - E { E A c r G W.W.W.W.W.W.",
"W.W.W.W.W.W.W.W.W.W.W.W.W.W.W.W.W.W.W.W.W.W.W.W.W.W.W.W.W.W.W.W.W.W.W.% A %.] E R c K q W.W.W.W.W.W.",
"W.W.W.W.W.W.W.W.W.W.W.W.W.W.W.W.W.W.W.W.W.W.W.W.W.W.W.W.W.W.W.W.W.W.W.W.:.%.! ! R M K W.W.W.W.W.W.W.",
"W.W.W.W.W.W.W.W.W.W.W.W.W.W.W.W.W.W.W.W.W.W.W.W.W.W.W.W.W.W.W.W.W.W.W.W.,...] W P U r W.W.W.W.W.W.W.",
"W.W.W.W.W.W.W.W.W.W.W.W.W.W.W.W.W.W.W.W.W.W.W.W.W.W.W.W.W.W.W.W.W.W.W.W.:...] E A P W.W.W.W.W.W.W.W.",
"W.W.W.W.W.W.W.W.W.W.W.W.W.W.W.W.W.W.W.W.W.W.W.W.W.W.W.W.W.W.W.W.W.W.W.W.=.:.! W Q M W.W.W.W.W.W.W.W.",
"W.W.W.W.W.W.W.W.W.W.W.W.W.W.W.W.W.W.W.W.W.W.W.W.W.W.W.W.W.W.W.W.W.W.W.W.W...o.^ R W.W.W.W.W.W.W.W.W.",
"W.W.W.W.W.W.W.W.W.W.W.W.W.W.W.W.W.W.W.W.W.W.W.W.W.W.W.W.W.W.W.W.W.W.W.W.W.W.] E W.W.W.W.W.W.W.W.W.W."
};
