/* XPM */
static char *_627118194285[] = {
/* columns rows colors chars-per-pixel */
"50 50 170 2 ",
"   c #7D4722",
".  c #7F4924",
"X  c #564D56",
"o  c #AA0000",
"O  c #A90D00",
"+  c #A52B00",
"@  c #A03200",
"#  c #AE3400",
"$  c #A63D00",
"%  c #A93F00",
"&  c #B03800",
"*  c #AB4401",
"=  c #AC4906",
"-  c #A9460A",
";  c #AF4B0A",
":  c #B44400",
">  c #B44A00",
",  c #BB4C02",
"<  c #B14E0D",
"1  c #B25000",
"2  c #BB5404",
"3  c #BE5E00",
"4  c #B4500D",
"5  c #BC520C",
"6  c #BC5F0F",
"7  c #AF4C10",
"8  c #AE4E1C",
"9  c #B34E13",
"0  c #B35313",
"q  c #B95410",
"w  c #BA5917",
"e  c #B4551A",
"r  c #B65A1C",
"t  c #BA5C1C",
"y  c #BF6200",
"u  c #BE641F",
"i  c #854B25",
"p  c #8E5027",
"a  c #8E5128",
"s  c #945429",
"d  c #98562A",
"f  c #9B582C",
"g  c #98533B",
"h  c #A15927",
"j  c #A25B2C",
"k  c #A95C28",
"l  c #B25522",
"z  c #B55B24",
"x  c #BA5E22",
"c  c #B0532D",
"v  c #B85F2B",
"b  c #AB612E",
"n  c #BB6226",
"m  c #BF6827",
"M  c #BD652B",
"N  c #BF682E",
"B  c #A76030",
"V  c #B26531",
"C  c #BA6734",
"Z  c #B76832",
"A  c #BE6A32",
"S  c #B8663F",
"D  c #BE6B3D",
"F  c #C34E00",
"G  c #CD5303",
"H  c #C05711",
"J  c #C35913",
"K  c #C25D19",
"L  c #C85F19",
"P  c #C56100",
"I  c #C16711",
"U  c #C0671D",
"Y  c #C26223",
"T  c #C86322",
"R  c #C3662A",
"E  c #C76C2F",
"W  c #CB6B2C",
"Q  c #C5702F",
"!  c #C26D34",
"~  c #C86D31",
"^  c #C36F39",
"/  c #C77136",
"(  c #CA7236",
")  c #CB7831",
"_  c #C4723B",
"`  c #CA753B",
"'  c #CB7A3B",
"]  c #D27639",
"[  c #DC7C3C",
"{  c #BF7A5C",
"}  c #C57542",
"|  c #C87745",
" . c #C77844",
".. c #CA7A45",
"X. c #C6754A",
"o. c #C77C4D",
"O. c #CA7D4A",
"+. c #D17B43",
"@. c #D07F4A",
"#. c #C77D52",
"$. c #CD7E53",
"%. c #C27D5B",
"&. c #BC8368",
"*. c #CC814E",
"=. c #D1834C",
"-. c #CE8453",
";. c #C5815E",
":. c #CF845D",
">. c #CE8959",
",. c #D28656",
"<. c #D98751",
"1. c #D48956",
"2. c #DB8953",
"3. c #D18758",
"4. c #D28B5D",
"5. c #D88F5E",
"6. c #E08E58",
"7. c #E1915C",
"8. c #C58566",
"9. c #CF8A60",
"0. c #C98463",
"q. c #D38E61",
"w. c #D59064",
"e. c #DC9363",
"r. c #D4926C",
"t. c #DF9869",
"y. c #CA947B",
"u. c #D59B7D",
"i. c #D29173",
"p. c #E19562",
"a. c #E49866",
"s. c #9E8A86",
"d. c #BD9282",
"f. c #BE9F92",
"g. c #DAA282",
"h. c #DBAD93",
"j. c #D9AD99",
"k. c #DDB29C",
"l. c #E3B39A",
"z. c #E7B99E",
"x. c #D6B7A5",
"c. c #D9B9AB",
"v. c #DFBFB0",
"b. c #E0B7A0",
"n. c #E5BBA5",
"m. c #EABBA6",
"M. c #E4C0AE",
"N. c #F0C2AB",
"B. c #E5C4B4",
"V. c #E8C7B5",
"C. c #E7C2B8",
"Z. c #E9C6BC",
"A. c #EACDBC",
"S. c #FCD5BE",
"D. c #ECCFC4",
"F. c #EDD2C3",
"G. c #EDD3C8",
"H. c #EED8CB",
"J. c #E2D4CA",
"K. c #F1DBCF",
"L. c #F2DED1",
"P. c #F4E1D5",
"I. c #FEE7D7",
"U. c #F5E5D9",
"Y. c #F7E8DD",
"T. c #FAEBDE",
"R. c #F9ECE1",
"E. c #FEF2E5",
"W. c #FCF3EA",
"Q. c None",
/* pixels */
"Q.Q.Q.Q.Q.Q.Q.Q.Q.Q.Q.Q.Q.Q.Q.Q.Q.Q.Q.Q.Q.Q.Q.Q.Q.Q.Q.Q.Q.Q.Q.Q.Q.Q.Q.Q.Q.Q.Q.Q.Q.Q.Q.Q.Q.Q.Q.Q.Q.Q.",
"Q.Q.Q.Q.Q.Q.Q.Q.Q.Q.Q.Q.Q.Q.Q.Q.Q.Q.Q.Q.Q.Q.Q.Q.Q.Q.Q.Q.Q.Q.Q.Q.Q.Q.Q.Q.Q.Q.Q.Q.Q.Q.Q.Q.Q.Q.Q.Q.Q.Q.",
"Q.Q.Q.Q.Q.Q.Q.Q.Q.Q.Q.Q.Q.Q.` ] ` Q.Q.Q.Q.Q.Q.Q.Q.Q.Q.Q.Q.Q.Q.Q.Q.Q.Q.Q.Q.Q.Q.Q.Q.Q.Q.Q.Q.Q.Q.Q.Q.Q.",
"Q.Q.Q.Q.Q.Q.Q.Q.Q.Q.Q.Q.Q.` [ ^ ] ( Q.Q.Q.Q.Q.Q.Q.Q.Q.Q.Q.Q.Q.Q.Q.Q.Q.Q.Q.Q.Q.Q.Q.Q.Q.Q.Q.Q.Q.Q.Q.Q.",
"Q.Q.Q.Q.Q.Q.Q.Q.Q.Q.* $ 7 ~ ( ! A ^ ^ Q.Q.Q.Q.Q.Q.Q.Q.Q.Q.Q.Q.Q.Q.Q.Q.Q.Q.Q.Q.Q.Q.Q.Q.Q.Q.Q.Q.Q.Q.Q.",
"Q.Q.Q.Q.Q.Q.Q.Q.Q.Q., * > ! / Z V V ` ( Q.Q.Q.Q.Q.Q.Q.Q.Q.Q.Q.Q.Q.Q.Q.Q.Q.Q.Q.Q.Q.Q.Q.Q.Q.Q.Q.Q.Q.Q.",
"Q.Q.Q.Q.Q.Q.Q.Q.Q.Q.: * % M _ V b b b ( Q.Q.Q.Q.Q.Q.Q.Q.Q.Q.Q.Q.Q.Q.Q.Q.Q.Q.Q.Q.Q.Q.Q.Q.Q.Q.Q.Q.Q.Q.",
"Q.Q.Q.Q.Q.Q.Q.Q.Q.Q.* , $ e _ V j j j V ^ Q.Q.Q.Q.Q.Q.Q.Q.Q.Q.Q.Q.Q.Q.Q.Q.Q.Q.Q.Q.Q.Q.Q.Q.Q.Q.Q.Q.Q.",
"Q.Q.Q.Q.Q.Q.Q.Q.Q.Q.Q.* : * R C j d s f ! Q.Q.Q.Q.Q.Q.Q.Q.Q.Q.Q.Q.Q.Q.Q.Q.Q.Q.Q.Q.Q.Q.Q.Q.Q.Q.Q.Q.Q.",
"Q.Q.Q.Q.Q.Q.Q.Q.Q.Q.Q.Q.* : 0 A B s a a Z ( Q.Q.Q.Q.Q.Q.Q.Q.Q.Q.Q.Q.Q.Q.Q.Q.Q.Q.Q.Q.Q.Q.Q.Q.Q.Q.Q.Q.",
"Q.Q.Q.Q.Q.Q.Q.Q.Q.Q.Q.Q.Q.= & x A s i i j ! Q.Q.Q.Q.Q.Q.Q.Q.Q.Q.Q.Q.Q.Q.Q.Q.Q.Q.Q.Q.Q.Q.Q.Q.Q.Q.Q.Q.",
"Q.Q.Q.Q.Q.Q.Q.Q.Q.Q.Q.Q.Q.Q.; * x b i   s V Q.Q.Q.Q.Q.Q.Q.Q.Q.Q.Q.Q.Q.Q.Q.Q.Q.Q.Q.Q.Q.Q.Q.Q.Q.Q.Q.Q.",
"Q.Q.Q.Q.Q.Q.Q.Q.Q.Q.Q.Q.Q.Q.Q.Q.D ..h   i b Q.Q.Q.Q.Q.Q.Q.Q.Q.Q.Q.Q.Q.Q.Q.Q.Q.Q.Q.Q.Q.Q.Q.Q.Q.Q.Q.Q.",
"Q.Q.Q.Q.Q.Q.Q.Q.Q.Q.Q.Q.Q.Q.Q.Q.w.e.} k s b ..Q.Q.Q.Q.Q.Q.Q.Q.Q.Q.Q.Q.Q.Q.Q.Q.Q.Q.Q.Q.Q.Q.Q.Q.Q.Q.Q.",
"Q.Q.Q.Q.Q.Q.Q.Q.Q.Q.Q.Q.Q.Q.Q.1.e.>.4.+.^ ~ +.O.Q.Q.Q.Q.Q.Q.Q.Q.Q.Q.Q.Q.Q.Q.Q.Q.Q.Q.Q.Q.Q.Q.Q.Q.Q.Q.",
"Q.Q.Q.Q.Q.Q.Q.Q.Q.Q.Q.Q.Q.Q.0.r.1.,.` O...} ` +._ Q.Q.Q.Q.Q.Q.Q.Q.Q.Q.Q.Q.Q.Q.Q.Q.Q.Q.Q.Q.Q.Q.Q.Q.Q.",
"Q.Q.Q.Q.Q.Q.Q.Q.Q.Q.Q.Q.Q.M s.c.^ d.j.X.' } _ _ / Q.Q.Q.Q.Q.Q.Q.Q.Q.Q.Q.Q.Q.Q.Q.Q.Q.Q.Q.Q.Q.Q.Q.Q.Q.",
"Q.Q.Q.Q.Q.Q.Q.Q.Q.Q.Q.) a.| &.u.g X J.i.u D A A E M Q.Q.Q.Q.Q.Q.Q.Q.Q.Q.Q.Q.Q.Q.Q.Q.Q.Q.Q.Q.Q.Q.Q.Q.",
"Q.Q.Q.Q.Q.Q.Q.Q.Q.Q.Q.S.L.F.l.$.z f.v.X.m A M n R x Q.Q.Q.Q.Q.Q.Q.Q.Q.Q.Q.Q.Q.Q.Q.Q.Q.Q.Q.Q.Q.Q.Q.Q.",
"Q.Q.Q.Q.Q.Q.Q.Q.Q.Q.h.I.Y.Y.P.L.V.l.^ w N M n n U e Q.Q.Q.Q.Q.Q.Q.Q.Q.Q.Q.Q.Q.Q.Q.Q.Q.Q.Q.Q.Q.Q.Q.Q.",
"Q.Q.Q.Q.Q.Q.Q.Q.Q.Q.#.R j.U.P.U.U.Y.B.m t n u e t 0 Q.Q.Q.Q.Q.Q.Q.Q.Q.Q.Q.Q.Q.Q.Q.Q.Q.Q.Q.Q.Q.Q.Q.Q.",
"Q.Q.Q.Q.Q.Q.Q.Q.Q.Q.0 o y.Y.P.L.K.U.P.;.> r e 0 q Q.Q.Q.Q.Q.Q.Q.Q.Q.Q.Q.Q.Q.Q.Q.Q.Q.Q.Q.Q.Q.Q.Q.Q.Q.",
"Q.Q.Q.Q.Q.Q.Q.Q.Q.Q.Q.m.P.P.D.C.H.U.P.;.= e 0 4 * Q.Q.Q.Q.Q.Q.Q.Q.Q.Q.Q.Q.Q.Q.Q.Q.Q.Q.Q.Q.Q.Q.Q.Q.Q.",
"Q.Q.Q.Q.Q.Q.Q.Q.Q.Q.Q.B.R.R.v.Z.U.R.B.1 = 0 * > | Q.Q.Q.Q.Q.Q.Q.Q.Q.Q.Q.Q.Q.Q.Q.Q.Q.Q.Q.Q.Q.Q.Q.Q.Q.",
"Q.Q.Q.Q.Q.Q.Q.Q.Q.Q.Q.Q.y.A.L.K.K.B.{ % 9 * * X.t.a.4.4.q.Q.Q.Q.Q.Q.Q.Q.Q.Q.Q.Q.Q.Q.Q.Q.Q.Q.Q.Q.Q.Q.",
"Q.Q.Q.Q.Q.Q.Q.Q.Q.Q.Q.Q.x.N.8.y.%.# & 9 * l o.q.4.4.4.e.a.p.3.3.Q.Q.Q.Q.Q.Q.Q.Q.Q.Q.Q.Q.Q.Q.Q.Q.Q.Q.",
"Q.Q.Q.Q.Q.Q.Q.Q.Q.Q.Q.Q.T.E.B.@ O c 8 * Q.3.5.>.>.,.-.-.-.,.4.7.,.Q.Q.Q.Q.Q.Q.Q.Q.5.Q.w.Q.Q.Q.Q.Q.Q.",
"Q.Q.Q.Q.Q.Q.Q.Q.Q.Q.Q.Q.Q.Q.H.Q.Q.Q.Q.Q.Q.,.=.' O.4.3.-.-.*.*.*.1.2.O.Q.Q.Q.Q.-.,.>.3.4.Q.Q.Q.Q.Q.Q.",
"Q.Q.Q.Q.Q.Q.Q.Q.Q.Q.Q.Q.Q.Q.Q.Q.Q.Q.Q.Q.Q.` n.l.>.w.9.*...O.O... .O.2.O.Q.Q...O.O.*.2.-.>.Q.Q.Q.Q.Q.",
"Q.Q.Q.Q.Q.Q.Q.Q.Q.Q.Q.Q.Q.Q.Q.Q.Q.Q.Q.= * P A.W.b.' r.*.} ..} O.,.4.4.p.-.Q.! +.} } ..*.O.Q.Q.Q.Q.Q.",
"Q.Q.Q.Q.Q.Q.Q.Q.Q.Q.Q.Q.Q.Q.Q.Q.* * * G * > k.H.u.*.*.} } _ -.4.q.q.q.q.t.-.N ! ! ^ / ` ` Q.Q.Q.Q.Q.",
"Q.Q.Q.Q.Q.Q.Q.Q.Q.Q.Q.Q.Q.Q.Q.* , , * Q.Q.Q.*.#.3 ) r.} u -.4.q.4.4.5.4.q.4.! M M M N ( ! Q.Q.Q.Q.Q.",
"Q.Q.Q.Q.Q.Q.Q.Q.Q.Q.Q.Q.Q.Q.Q., F * Q.Q.r M u y o.k.P.k.y w.w.4.q.4.w.4.4.3._ n r n n W n Q.Q.Q.Q.Q.",
"Q.Q.Q.Q.Q.Q.Q.Q.Q.Q.Q.Q.Q.Q.Q.Q.* * = < L T 2 y.L.U.Y.L.g.=.w.4.4.q.4.>.-.-._ n e 0 w t Q.Q.Q.Q.Q.Q.",
"Q.Q.Q.Q.Q.Q.Q.Q.Q.Q.Q.Q.Q.Q.Q.* * * , F < Q.Q.:.P.U.U.L.g.*.w.>.>.>.-.-.o.O.A r e = J 4 Q.Q.Q.Q.Q.Q.",
"Q.Q.Q.Q.Q.Q.Q.Q.Q.Q.Q.Q.Q.Q.* , * > * Q.Q.Q.Q.> n.T.U.G.w.-.q.>.-.-.*. . . .M w 5 = = Q.Q.Q.Q.Q.Q.Q.",
"Q.Q.Q.Q.Q.Q.Q.Q.Q.Q.Q.Q.Q.* , * * * Q.Q.Q.Q.Q.Q.$.P.R.A.4.-.>.*.O.O. .} } _ Y 4 Q.Q.Q.Q.Q.Q.Q.Q.Q.Q.",
"Q.Q.Q.Q.Q.Q.Q.Q.Q.Q.Q.Q.Q.* : > * Q.Q.Q.Q.Q.Q.Q.# l.E.A.*.O.-. . .` _ ! ! E 0 Q.Q.Q.Q.Q.Q.Q.Q.Q.Q.Q.",
"Q.Q.Q.Q.Q.Q.Q.Q.Q.Q.Q.Q.Q.* * * Q.Q.Q.Q.Q.Q.Q.Q.Q.# M.P.4./ o._ _ _ A A ~ n Q.Q.Q.Q.Q.Q.Q.Q.Q.Q.Q.Q.",
"Q.Q.Q.Q.Q.Q.Q.Q.Q.Q.Q.Q.Q.Q.Q.Q.Q.Q.Q.Q.% * = Q.Q.Q.* j.u.I } / A A A M n Q.Q.Q.Q.Q.Q.Q.Q.Q.Q.Q.Q.Q.",
"Q.Q.Q.Q.Q.Q.Q.Q.Q.Q.Q.Q.Q.Q.Q.Q.Q.Q.Q.8 , : : : & 9 $ + C _ ! N M M n n r Q.Q.Q.Q.Q.Q.Q.Q.Q.Q.Q.Q.Q.",
"Q.Q.Q.Q.Q.Q.Q.Q.Q.Q.Q.Q.Q.Q.Q.Q.Q.Q.-.=.} A v z z e l l = M M n n x r w 0 Q.Q.Q.Q.Q.Q.Q.Q.Q.Q.Q.Q.Q.",
"Q.Q.Q.Q.Q.Q.Q.Q.Q.Q.Q.Q.Q.Q.Q.Q.Q.-.6.-.O.O.} ` _ ! ! N N n n z w e e 4 q < Q.Q.Q.Q.Q.Q.Q.Q.Q.Q.Q.Q.",
"Q.Q.Q.Q.Q.Q.Q.Q.Q.Q.Q.Q.Q.Q.Q.Q.O.<...} } ^ ^ ^ ! N M n n x w e 0 0 9 < 2 * Q.Q.Q.Q.Q.Q.Q.Q.Q.Q.Q.Q.",
"Q.Q.Q.Q.Q.Q.Q.Q.Q.Q.Q.Q.Q.Q.Q.Q....._ _ ^ ! ! M M n x r w t J H 5 5 , , * Q.Q.Q.Q.Q.Q.Q.Q.Q.Q.Q.Q.Q.",
"Q.Q.Q.Q.Q.Q.Q.Q.Q.Q.Q.Q.Q.Q.Q.Q.+.` ^ ! A M M x x r r K 0 0 < < = = * Q.Q.Q.Q.Q.Q.Q.Q.Q.Q.Q.Q.Q.Q.Q.",
"Q.Q.Q.Q.Q.Q.Q.Q.Q.Q.Q.Q.Q.Q.Q.Q.^ ] ( ~ W R Y U K K 0 0 Q.Q.Q.Q.Q.Q.Q.Q.Q.Q.Q.Q.Q.Q.Q.Q.Q.Q.Q.Q.Q.Q.",
"Q.Q.Q.Q.Q.Q.Q.Q.Q.Q.Q.Q.Q.Q.Q.Q.Q.Q.Q.n t r e 0 0 0 Q.Q.Q.Q.Q.Q.Q.Q.Q.Q.Q.Q.Q.Q.Q.Q.Q.Q.Q.Q.Q.Q.Q.Q.",
"Q.Q.Q.Q.Q.Q.Q.Q.Q.Q.Q.Q.Q.Q.Q.Q.Q.Q.Q.Q.Q.Q.Q.Q.Q.Q.Q.Q.Q.Q.Q.Q.Q.Q.Q.Q.Q.Q.Q.Q.Q.Q.Q.Q.Q.Q.Q.Q.Q.Q.",
"Q.Q.Q.Q.Q.Q.Q.Q.Q.Q.Q.Q.Q.Q.Q.Q.Q.Q.Q.Q.Q.Q.Q.Q.Q.Q.Q.Q.Q.Q.Q.Q.Q.Q.Q.Q.Q.Q.Q.Q.Q.Q.Q.Q.Q.Q.Q.Q.Q.Q."
};
