/* XPM */
static char *_627118218840[] = {
/* columns rows colors chars-per-pixel */
"50 50 162 2 ",
"   c #5B0000",
".  c #7D4723",
"X  c #7F4C40",
"o  c #922100",
"O  c #A92B00",
"+  c #AA3500",
"@  c #A63C00",
"#  c #A93C00",
"$  c #AA4300",
"%  c #AD4A04",
"&  c #AC470A",
"*  c #AE4C0B",
"=  c #B24500",
"-  c #B44B03",
";  c #BA4B00",
":  c #B14E0D",
">  c #B94D08",
",  c #B45302",
"<  c #B85400",
"1  c #B95B02",
"2  c #B2510F",
"3  c #BA540E",
"4  c #BA5C0A",
"5  c #AE4D14",
"6  c #AB4C1D",
"7  c #B14E13",
"8  c #AF5015",
"9  c #B35314",
"0  c #BB5512",
"q  c #BC5816",
"w  c #B4551A",
"e  c #B75B1E",
"r  c #BB5C1B",
"t  c #BE6316",
"y  c #824A24",
"u  c #894E26",
"i  c #8E5127",
"p  c #955429",
"a  c #99572A",
"s  c #99582D",
"d  c #AF532D",
"f  c #A45C2D",
"g  c #AB5F2B",
"h  c #B15324",
"j  c #B55A23",
"k  c #B95E22",
"l  c #AB612F",
"z  c #BB6125",
"x  c #BD652B",
"c  c #BF682D",
"v  c #AD6230",
"b  c #B36531",
"n  c #BC6632",
"m  c #B76934",
"M  c #BD6933",
"N  c #B6633A",
"B  c #BE6C3D",
"V  c #C24D02",
"C  c #C45307",
"Z  c #C95202",
"A  c #C15711",
"S  c #C25D19",
"D  c #C16200",
"F  c #D26D01",
"G  c #C36A1C",
"H  c #D7671E",
"J  c #C56524",
"K  c #C56E20",
"L  c #C2692D",
"P  c #CA6F2E",
"I  c #C5702E",
"U  c #C9742D",
"Y  c #DF7129",
"T  c #C16C34",
"R  c #C26F39",
"E  c #C67036",
"W  c #C97136",
"Q  c #C4733D",
"!  c #CB743B",
"~  c #D87930",
"^  c #D2773A",
"/  c #D17A3E",
"(  c #D97B3C",
")  c #BA704A",
"_  c #B76E51",
"`  c #BF7A5B",
"'  c #B2745C",
"]  c #A17263",
"[  c #C67642",
"{  c #C77944",
"}  c #C97A46",
"|  c #C6794A",
" . c #CB7D4B",
".. c #D77E44",
"X. c #D17F49",
"o. c #CA7E52",
"O. c #C77E58",
"+. c #CC814E",
"@. c #D1824A",
"#. c #DB854C",
"$. c #CE8453",
"%. c #C6815E",
"&. c #CD8558",
"*. c #CF885B",
"=. c #D28654",
"-. c #D28857",
";. c #DC8A55",
":. c #D08758",
">. c #D28C5D",
",. c #DC8E5B",
"<. c #DB905F",
"1. c #E38F5F",
"2. c #E8935C",
"3. c #CB8861",
"4. c #C8896B",
"5. c #D48E61",
"6. c #D68F6C",
"7. c #D59061",
"8. c #DD9363",
"9. c #D5946E",
"0. c #CB8C74",
"q. c #CF9271",
"w. c #CC9378",
"e. c #D69A77",
"r. c #D69E7B",
"t. c #E19665",
"y. c #E39867",
"u. c #B8AFA9",
"i. c #D49B81",
"p. c #D6A182",
"a. c #D5A48D",
"s. c #D9A58B",
"d. c #C5A79B",
"f. c #DCAD92",
"g. c #EFB796",
"h. c #D3B7A8",
"j. c #D0B9AF",
"k. c #C7BEB7",
"l. c #E1B9A6",
"z. c #E2BEAB",
"x. c #ECBFA8",
"c. c #E4BBB1",
"v. c #E4C4B2",
"b. c #E7C9B7",
"n. c #E9CDBC",
"m. c #E6C7BB",
"M. c #F7CDB5",
"N. c #F5D1BB",
"B. c #EBCDC2",
"V. c #EAD1C2",
"C. c #EFD7CA",
"Z. c #EFD9CD",
"A. c #F0D6CB",
"S. c #F1DDCF",
"D. c #F2DFD3",
"F. c #F3E2D5",
"G. c #F5E5DA",
"H. c #F7E9DE",
"J. c #FBEADD",
"K. c #FAEEE2",
"L. c #FCF0E6",
"P. c None",
/* pixels */
"P.P.P.P.P.P.P.P.P.P.P.P.P.P.P.P.P.P.P.P.P.P.P.P.P.P.P.P.P.P.P.P.P.P.P.P.P.P.P.P.P.P.P.P.P.P.P.P.P.P.",
"P.P.P.P.P.P.P.P.P.P.P.P.P.P.P.P.P.P.P.P.P.P.P.P.P.P.P.P.P.P.P.P.P.P.P.P.P.P.P.P.P.P.P.P.P.P.P.P.P.P.",
"P.P.P.P.P.P.P.P.P.P.P.P.P.P.P.P.P.P.P.P.P.P.P.P.P.P.P.P.P.P.P.P.P.P.P.P.P.P.P.P.P.P.P.P.P.P.P.P.P.P.",
"P.P.P.P.P.P.P.P.P.P.P.P.P.P.P.P.P.P.P.P.P.P.P.P.P.P.P.P.P.P.P.P.P.P.P.P.P.P.P.P.P.P.P.P.P.P.P.P.P.P.",
"P.P.P.P.P.P.P.P.P.P.P.P.P.P.P.P.P.P.P.P.P.P.P.P.P.P.P.P.P.P.P.P.P.P.P.P.P.P.P.P.P.P.P.P.P.P.P.P.P.P.",
"P.P.P.P.P.P.P.P.P.P.P.P.P.P.P.P.P.P.P.P.P.P.P.P.P.P.P.P.P.P.P.P.P.P.P.P.P.P.P.P.P.P.P.P.P.P.P.P.P.P.",
"P.P.P.P.P.P.P.P.P.P.P.P.P.P.P.P.P.P.P.P.P.P.P.P.P.P.P.P.P.P.P.P.P.P.P.P.P.P.P.P.P.P.P.P.P.P.P.P.P.P.",
"P.P.P.P.P.P.P.P.P.P.P.P.P.P.P.P.P.P.P.P.P.P.P.P.P.P.P.P.P.P.P.P.P.P.P.P.P.P.P.P.P.P.P.P.P.P.P.P.P.P.",
"P.P.P.P.P.P.P.P.P.P.P.W ( ^ W P.P.P.P.P.P.P.P.P.P.P.P.P.P.P.P.P.P.P.P.P.P.P.P.P.P.P.P.P.P.P.P.P.P.P.",
"P.P.P.P.P.P.P.P.P.P.P.W ^ E ( W P.P.P.P.P.P.P.P.P.P.P.P.P.P.P.P.P.P.P.P.P.P.P.P.P.P.P.P.P.P.P.P.P.P.",
"P.P.P.P.P.P.P.P.$ @ j W W M M ! E P.P.P.P.P.P.P.P.P.P.P.P.P.P.P.P.P.P.P.P.P.P.P.P.P.P.P.P.P.P.P.P.P.",
"P.P.P.P.P.P.P.P.V = 0 W W m b b W E P.P.P.P.P.P.P.P.P.P.P.P.P.P.P.P.P.P.P.P.P.P.P.P.P.P.P.P.P.P.P.P.",
"P.P.P.P.P.P.P.$ ; $ $ T R b l g v ! E P.P.P.P.P.P.P.P.P.P.P.P.P.P.P.P.P.P.P.P.P.P.P.P.P.P.P.P.P.P.P.",
"P.P.P.P.P.P.P.P.$ = # k R b f f f v T P.P.P.P.P.P.P.P.P.P.P.P.P.P.P.P.P.P.P.P.P.P.P.P.P.P.P.P.P.P.P.",
"P.P.P.P.P.P.P.P.P.> $ - L m f a a a R P.P.P.P.P.P.P.P.P.P.P.P.P.P.P.P.P.P.P.P.P.P.P.P.P.P.P.P.P.P.P.",
"P.P.P.P.P.P.P.P.P.$ - # w R g p i i v T P.P.P.P.P.P.P.P.P.P.P.P.P.P.P.P.P.P.P.P.P.P.P.P.P.P.P.P.P.P.",
"P.P.P.P.P.P.P.P.P.P.P.$ ; k B s u y p m P.P.P.P.P.P.P.P.P.P.P.P.P.P.P.P.P.P.P.P.P.P.P.P.P.P.P.P.P.P.",
"P.P.P.P.P.P.P.P.P.P.P.P.# = J g u . y M P.P.P.P.P.P.P.P.P.P.P.P.P.P.P.P.P.P.P.P.P.P.P.P.P.P.P.P.P.P.",
"P.P.P.P.P.P.P.P.P.P.P.P.P.P.h ! g . . f W P.P.P.P.P.P.P.P.P.P.P.P.P.P.P.P.P.P.P.P.P.P.P.P.P.P.P.P.P.",
"P.P.P.P.P.P.P.P.P.P.P.P.P.P.5.t.} g u a ! +.P.P.P.P.P.P.P.P.P.P.P.P.P.P.P.P.P.P.P.P.P.P.P.P.P.P.P.P.",
"P.P.P.P.P.P.P.P.P.P.P.P.P.5.y.5.5. .T T W #.} P.P.P.P.P.P.P.P.P.P.P.P.P.P.P.P.P.5.>.P.P.P.P.P.P.P.P.",
"P.P.P.P.P.P.P.P.P.P.P.P.6.1.-.=.! +.+.! ! Q ..P.P.P.P.P.P.P.P.P.P.P.P.P.P.P.>.>.:.,.$.+.P.P.P.P.P.P.",
"P.P.P.P.P.P.P.P.P.P.P. .' d.e.` s.o.Q } [ Q W T P.P.P.P.P.P.P.P.P.P.P.P.P.>.:.<.$.+.@.} P.P.P.P.P.P.",
"P.P.P.P.P.P.P.P.P.P.@.~ ] j.0.  u.l.R L Q M M L P.P.P.P.P.P.P.P.P.P.P.P.P.$.;. .} [ Q ! T P.P.P.P.P.",
"P.P.P.P.P.P.P.P.P.=.g.f.9.X.4 u k.l.x x M x x J P.P.P.P.P.P.P.P.P.P.P.P.P.} } Q E R M L c P.P.P.P.P.",
"P.P.P.P.P.P.P.P.P.N.K.H.D.v.s.i.r.T z n x z k J P.P.P.P.P.P.P.P.P.P.P.P.P.P.M W M c x z J P.P.P.P.P.",
"P.P.P.P.P.P.P.P.r.M.n.F.G.H.H.D.v.3.4 x z j e S P.P.P.P.>.:.&.$.+. . .{  . .Q L z k k e S P.P.P.P.P.",
"P.P.P.P.P.P.P.P.| V < n.H.D.F.D.L.c.1 4 k 9 9 * [ 5.5.t.8.,.-.@. . .-.>.8.8.>. .x k 9 2 3 P.P.P.P.P.",
"P.P.P.P.P.P.P.P.P.; _ V.G.A.B.A.H.V.m = h 9 % e 8.y.>.*.&.+.+. . .>.5.5.7.>.>.7.{ k w - $ P.P.P.P.P.",
"P.P.P.P.P.P.P.P.P.s.J.L.A.c.B.F.K.v., % w * $ | 7.:.=.&.+.+.}  .>.7.5.>.>.7.>.>.$.k w > $ P.P.P.P.P.",
"P.P.P.P.P.P.P.P.P.P.v.J.G.m.A.J.Z.4.# 5 9 @ B >.*.:.$. .+.} [ &.7.>.7.>.>.7.>.>.$.k q 8 P.P.P.P.P.P.",
"P.P.P.P.P.P.P.P.P.P.P.s.b.V.C.h.` + 5 * $ B >.:.+.:.>.$. .} } >.>.7.>.>.>.*.:.&.| z 3 P.P.P.P.P.P.P.",
"P.P.P.P.P.P.P.P.P.P.P.m.v.) k O + 6 % $ # =.<.$.+.:.7.:.G I +.7.*.>.>.>.&.$.+. .} k * P.P.P.P.P.P.P.",
"P.P.P.P.P.P.P.P.P.P.P.J.J.h.o 6 d $ ; > # w +.5.f.*.:.9.q.Q +.7.*.*.$.$.$. .{ } Q r - P.P.P.P.P.P.P.",
"P.P.P.P.P.P.P.P.P.P.P.P.P.P.# - = $ $ $ P.P.W :.p.+.U v.G.b.e.$.*.+.+.+.} { Q [ T A $ P.P.P.P.P.P.P.",
"P.P.P.P.P.P.P.P.P.P.P.P.P.P.P.$ $ $ P.P.P.x x W F / r.S.G.J.f.W &.+.{ [ Q Q R T z * P.P.P.P.P.P.P.P.",
"P.P.P.P.P.P.P.P.P.P.P.P.P.P.P.$ $ $ - 9 H Y L T  .E l.H.G.D.f.K +.Q Q Q Q M L T ! & P.P.P.P.P.P.P.P.",
"P.P.P.P.P.P.P.P.P.P.P.P.P.P.$ $ $ ; Z 0 9 9 w 5 P.e R f.A.K.b.D | Q Q M M c k [ N P.P.P.P.P.P.P.P.P.",
"P.P.P.P.P.P.P.P.P.P.P.P.P.- ; = ; $ & P.P.P.@ + # @ + = 3.v.C.3.t Q c x x k z k P.P.P.P.P.P.P.P.P.P.",
"P.P.P.P.P.P.P.P.P.P.P.P.$ = $ $ $ P.P.P.P.| [ x j w h d = < w.4.1 m z z e e r 2 P.P.P.P.P.P.P.P.P.P.",
"P.P.P.P.P.P.P.P.P.P.P.P.$ ; ; $ P.P.P.&.2.=.+. .[ Q Q T Q z < x x z z e e 9 9 0 5 P.P.P.P.P.P.P.P.P.",
"P.P.P.P.P.P.P.P.P.P.P.P.P.P.P.P.P.P.+.;. .} [ [ Q Q E M c M M e k e 9 9 9 2 * C % P.P.P.P.P.P.P.P.P.",
"P.P.P.P.P.P.P.P.P.P.P.P.P.P.P.P.P.P. .X.! Q Q E M M x x z k e k q q 3 2 - - V $ P.P.P.P.P.P.P.P.P.P.",
"P.P.P.P.P.P.P.P.P.P.P.P.P.P.P.P.P.P.[ Q E Q M M x x z k e e S 0 8 : * * $ $ $ P.P.P.P.P.P.P.P.P.P.P.",
"P.P.P.P.P.P.P.P.P.P.P.P.P.P.P.P.P.P.E ( W T L x z k k e S 0 9 P.P.P.P.P.P.P.P.P.P.P.P.P.P.P.P.P.P.P.",
"P.P.P.P.P.P.P.P.P.P.P.P.P.P.P.P.P.P.P.T x x k k r r q 9 2 P.P.P.P.P.P.P.P.P.P.P.P.P.P.P.P.P.P.P.P.P.",
"P.P.P.P.P.P.P.P.P.P.P.P.P.P.P.P.P.P.P.P.P.P.P.P.P.P.P.P.P.P.P.P.P.P.P.P.P.P.P.P.P.P.P.P.P.P.P.P.P.P.",
"P.P.P.P.P.P.P.P.P.P.P.P.P.P.P.P.P.P.P.P.P.P.P.P.P.P.P.P.P.P.P.P.P.P.P.P.P.P.P.P.P.P.P.P.P.P.P.P.P.P.",
"P.P.P.P.P.P.P.P.P.P.P.P.P.P.P.P.P.P.P.P.P.P.P.P.P.P.P.P.P.P.P.P.P.P.P.P.P.P.P.P.P.P.P.P.P.P.P.P.P.P.",
"P.P.P.P.P.P.P.P.P.P.P.P.P.P.P.P.P.P.P.P.P.P.P.P.P.P.P.P.P.P.P.P.P.P.P.P.P.P.P.P.P.P.P.P.P.P.P.P.P.P."
};
