/* XPM */
static char *_627118228878[] = {
/* columns rows colors chars-per-pixel */
"50 50 176 2 ",
"   c #472B37",
".  c #7D4722",
"X  c #7D4823",
"o  c #745758",
"O  c #9D0000",
"+  c #921100",
"@  c #A30300",
"#  c #AD0000",
"$  c #A52300",
"%  c #A42B00",
"&  c #AE3400",
"*  c #A63B00",
"=  c #AA3D00",
"-  c #B63A00",
";  c #AB4401",
":  c #AD4A04",
">  c #AE4C0B",
",  c #AA450A",
"<  c #B24600",
"1  c #BA4300",
"2  c #B54A01",
"3  c #BB4C01",
"4  c #B24E0E",
"5  c #B65400",
"6  c #B95400",
"7  c #BC5C03",
"8  c #B4510F",
"9  c #BA510C",
"0  c #AD4B1A",
"q  c #AC4514",
"w  c #B34E11",
"e  c #B04F19",
"r  c #B35314",
"t  c #BA5512",
"y  c #BD5C14",
"u  c #B4551A",
"i  c #B6591C",
"p  c #BB5B1C",
"a  c #854B25",
"s  c #884C25",
"d  c #904F24",
"f  c #8E5027",
"g  c #925329",
"h  c #995729",
"j  c #9E592B",
"k  c #965326",
"l  c #A25C2D",
"z  c #B25523",
"x  c #B65B26",
"c  c #B95E22",
"v  c #B55C2A",
"b  c #AB612F",
"n  c #BB6225",
"m  c #BD652B",
"M  c #BE682F",
"N  c #AD6230",
"B  c #B46631",
"V  c #BB6633",
"C  c #BE6A33",
"Z  c #BE6C3C",
"A  c #C14E01",
"S  c #C75000",
"D  c #C65900",
"F  c #C8570C",
"G  c #C25710",
"H  c #C55E18",
"J  c #C06306",
"K  c #C56C1F",
"L  c #C36221",
"P  c #C96727",
"I  c #C0672C",
"U  c #C36B2D",
"Y  c #CA6A2B",
"T  c #C46C21",
"R  c #C5702E",
"E  c #C9752E",
"W  c #C26D34",
"Q  c #C26F39",
"!  c #C67037",
"~  c #C97136",
"^  c #C4723C",
"/  c #CB743A",
"(  c #CA793C",
")  c #D1763A",
"_  c #D5783A",
"`  c #D87A3B",
"'  c #B36045",
"]  c #BC7458",
"[  c #BD7353",
"{  c #956D62",
"}  c #BD7B62",
"|  c #C67642",
" . c #C77846",
".. c #C97A45",
"X. c #C57049",
"o. c #C6794F",
"O. c #CA7D4B",
"+. c #CB7646",
"@. c #D07841",
"#. c #C77954",
"$. c #C07A5C",
"%. c #CC814E",
"&. c #D98045",
"*. c #D5824C",
"=. c #DD864C",
"-. c #CE8454",
";. c #CD865A",
":. c #CF895C",
">. c #D28754",
",. c #DA8650",
"<. c #D28856",
"1. c #DB8954",
"2. c #D0875A",
"3. c #D28B5D",
"4. c #DA8D5A",
"5. c #E2915B",
"6. c #CF8763",
"7. c #C98669",
"8. c #C88968",
"9. c #CE8B62",
"0. c #D48E61",
"q. c #D69163",
"w. c #D19169",
"e. c #C58A74",
"r. c #CF9170",
"t. c #CB957D",
"y. c #D49473",
"u. c #D79973",
"i. c #D2957A",
"p. c #D79D7B",
"a. c #E09664",
"s. c #E49967",
"d. c #E59B6C",
"f. c #C59580",
"g. c #CF9C85",
"h. c #D19E85",
"j. c #D7A086",
"k. c #DBA98E",
"l. c #D7A589",
"z. c #D7A890",
"x. c #DCAC92",
"c. c #D6AB98",
"v. c #DDB097",
"b. c #E5B19A",
"n. c #C0B3AC",
"m. c #DCB9A8",
"M. c #D4BFB4",
"N. c #E5BCA5",
"B. c #E1B2AA",
"V. c #D9C2B5",
"C. c #E7C2AE",
"Z. c #EDC4AC",
"A. c #E4C3B4",
"S. c #EAC5B2",
"D. c #E7CABB",
"F. c #E9CDBC",
"G. c #F5CBB2",
"H. c #EBCDC2",
"J. c #ECD3C3",
"K. c #EED6C8",
"L. c #EFD8C8",
"P. c #F1D7CB",
"I. c #F1DBCD",
"U. c #F6D5C3",
"Y. c #F2DED2",
"T. c #F3E2D5",
"R. c #F9E3D5",
"E. c #F6E6DA",
"W. c #F8E6DA",
"Q. c #F7E9DD",
"!. c #F9EADE",
"~. c #F6EAE0",
"^. c #FBEEE2",
"/. c #FDF0E5",
"(. c #FFFBF1",
"). c None",
/* pixels */
").).).).).).).).).).).).).).).).).).).).).).).).).).).).).).).).).).).).).).).).).).).).).).).).).).",
").).).).).).).).).).).).).).).).).).).).).).).).).).).).).).).).).).).).).).).).).).).).).).).).).).",
").).).).).).).).).~ _ ~ ~ ).).).).).).).).).).).).).).).).).).).).).).).).).).).).).).).).).).).).).",
").).).).).).).).)._ ~ / _ ~ ).).).).).).).).).).).).).).).).).).).).).).).).).).).).).).).).).).).).",
").).).).).).: * U ) Q C C _ ~ ).).).).).).).).).).).).).).).).).).).).).).).).).).).).).).).).).).).",
").).).).).; 3 < c / W V B B / ~ ).).).).).).).).).).).).).).).).).).).).).).).).).).).).).).).).).).",
").).).).).; ; = r ! V B N b B ! ).).).).).).).).).).).).).).).).).).).).).).).).).).).).).).).).).).",
").).).).).; < ; ; W C N b j l V ! ).).).).).).).).).).).).).).).).).).).).).).).).).).).).).).).).).",
").).).).).).; < ; u Q N l h h l C ).).).).).).).).).).).).).).).).).).).).).).).).).).).).).).).).).",
").).).).).).).; < ; m V j g f g B ~ ).).).).).).).).).).).).).).).).).).).).).).).).).).).).).).).).",
").).).).).).).).; 2 : W N f s a l C ).).).).).).).).).).).).).).).).).).).).).).).).).).).).).).).).",
").).).).).).).).).; * 9 W j a X f B ).).).).).).).).).).).).).).).).).).).).).).).).).).).).).).).).",
").).).).).).).).).).).* u Q d X a N ~ ).).).).).).).).).).).).).).).).).).).).).).).).).).).).).).).",
").).).).).).).).).).).).;.4.C k a h ^ ).).).).).).).).).).).).).).).).).).).).).).).).).).).).).).).",
").).).).).).).).).).).0.q.q.<./ B V / *.).).).).).).).).).).).).).).).).).).).).).).).).).).).).).).",
").).).).).).).).).).).5.3.<.-.%.../ / ..| ).).).).).).).).).).).).).).).).).).).).).).).).).).).).).",
").).).).).).).).).).7.h.*.6.6.~ O. .| ^ / W ).).).).).).).).).).).).).).).).).).).).).).).).).).).).",
").).).).).).).).).@.o V.X.{ M.h.J  .! W W m ).).).).).).).).).).).).).).).).).).q.).).).).).).).).).",
").).).).).).).).d.3.8.y.:   n.S.2 o.C M m I ).).).).).).).).).).).).).).).q.3.).3.2.).).).).).).).).",
").).).).).).).G.T.L.N.y.o.t.m.#.n C m n n L i ).).).).).).).).).).).).).).2.<.<.-.-.%.).).).).).).).",
").).).).).).l.R.E.Q.Q.E.P.N.h.7 M m n c i p i ).).).).).).).).).).).).).-.1.%.%.....,.).).).).).).).",
").).).).).).w.#.g.T.T.T.~.~.Q.z.2 V i i i r ).).).).).).).).).).).).).).| ..| | | ! / ! ).).).).).).",
").).).).).).5 # ; Y.T.T.K.Y.W.D.2 v u r 8 4 ).).3.q.3.3.2.-.>.%.%.).).).^ ^ C ! W C W m ).).).).).).",
").).).).).).).i.A.E.J.H.A.T.E.D.< x r w ; Z q.s.s.a.4.<.<.>.,.,.=.4.2.q.-.! m m n n n p ).).).).).).",
").).).).).).).N.!.^.Y.B.Y.!.W.h.& v : * z 3.0.:.>.-.-.-.O.O.....;.0.q.s.s.>.M i i i i i ).).).).).).",
").).).).).).).).t.F.I.I.I.I.c.= 0 9 < x -.0.2.<.-.-.%.O.O. .| ;.0.0.3.3.3.3.%.m r r t > ).).).).).).",
").).).).).).).).).N.h.l.h.[ & 9 w = x -.3.<.%.3.3.>.O.|  .^ %.3.0.3.3.0.3.-.%.! i > A ).).).).).).).",
").).).).).).).).).W.P.t.O - 0 0 ).).).<.4...( %.3.0.-. .^ ! -.q.3.3.0.3.;.%.%.^ n 2 ; ).).).).).).).",
").).).).).).).).).)./.V.+ ' ).).).).).).1.v.S.k.:.<.%.M |  .;.0.3.q.3.3.-.O.| | m : ).).).).).).).).",
").).).).).).).).).).).).).).).).).).).).~ Z.(.Y.w.( :.| 5 n 3.0.3.3.:.;.%...| ^ M ).).).).).).).).).",
").).).).).).).).).).).).).).).).).).).).; 1.K.D.R T x.F.j.Z %.q.3.3.;.-.O.| ^ W m ).).).).).).).).).",
").).).).).).).).).).).).).).).).).).)., 1 5 9.9.5 ;.L./.T.F.p.<.q.2.-.O...^ W W Y ).).).).).).).).).",
").).).).).).).).).).).).).).).).).).; S ; ).y D o.F.!.Y.E.^.C.>.3.;.%...| ^ C m Y ).).).).).).).).).",
").).).).).).).).).).).).).).).).).; A ; ).).V 7 O.F.^.T.I.E.P.u.%.;.....^ C m n c i t ).).).).).).).",
").).).).).).).).).).).).).).).).).3 ; ).).t H x 6 ..S.^.!.Y.W.N.E O.O.^ ^ C m n i r G : ).).).).).).",
").).).).).).).).).).).).).).).).; A ; ).> F > ).).).6 b.R.^.^.!.x.K | ^ C m c i r r > ; ).).).).).).",
").).).).).).).).).).).).).).).).).3 ; ; 2 : ; ).).).).& $.b.U.R.T.l.! W C n p i r 4 2 ; ).).).).).).",
").).).).).).).).).).).).).).).).).).; ; < ; ).).).).).).).).).] e.} u m m c i r 4 > 3 ).).).).).).).",
").).).).).).).).).).).).).).).).).).; ; ; ).).).).).).).).).).$ @ % u n m i i r 9 ; ).).).).).).).).",
").).).).).).).).).).).).).).).).).; 3 ; ; ).).).).).).).).e 0 q z n V n c i t 8 : ).).).).).).).).).",
").).).).).).).).).).).).).).).).).; ; ; ; ).).).).).).> < = < x Q W m n i t 8 ).).).).).).).).).).).",
").).).).).).).).).).).).).).).).).; A 3 ; ).).).).).= 1 ; v Q ^ W m n i p r ).).).).).).).).).).).).",
").).).).).).).).).).).).).).).).).).; ; ).).).).).).e ~  ...| Q V n c i t ).).).).).).).).).).).).).",
").).).).).).).).).).).).).).).).).).).).).).).).).).-.>.O.| Q C m n i H r ).).).).).).).).).).).).).",
").).).).).).).).).).).).).).).).).).).).).).).).).<.5.O.| Q W m n c p r ).).).).).).).).).).).).).).",
").).).).).).).).).).).).).).).).).).).).).).).).).-.,. .| W W n n p t ).).).).).).).).).).).).).).).",
").).).).).).).).).).).).).).).).).).).).).).).).).O.*.| ^ W m n L r ).).).).).).).).).).).).).).).).",
").).).).).).).).).).).).).).).).).).).).).).).).).O.*.^ W U Y c ).).).).).).).).).).).).).).).).).).",
").).).).).).).).).).).).).).).).).).).).).).).).).).&./ ~ m ).).).).).).).).).).).).).).).).).).).).",
").).).).).).).).).).).).).).).).).).).).).).).).).).).W ).).).).).).).).).).).).).).).).).).).).).)."
};
