/* XPM */
static char *_627118247257[] = {
/* columns rows colors chars-per-pixel */
"50 50 168 2 ",
"   c #7D4722",
".  c #AB0000",
"X  c #882800",
"o  c #9A2400",
"O  c #9E3D00",
"+  c #A52D00",
"@  c #A53400",
"#  c #AC3400",
"$  c #A63C00",
"%  c #AB3D00",
"&  c #B23700",
"*  c #B23F00",
"=  c #AA4401",
"-  c #AE4A04",
";  c #AA4608",
":  c #AE4C0B",
">  c #B24500",
",  c #B84700",
"<  c #B34A02",
"1  c #BB4C02",
"2  c #B24D0C",
"3  c #B45200",
"4  c #BD5300",
"5  c #BC5E03",
"6  c #B2510E",
"7  c #BB540E",
"8  c #B95C0B",
"9  c #AD4B12",
"0  c #AB4615",
"q  c #B34D13",
"w  c #AF5019",
"e  c #B45413",
"r  c #BB5714",
"t  c #B4551A",
"y  c #B65A1C",
"u  c #B9591A",
"i  c #BC6000",
"p  c #BD620E",
"a  c #BE621B",
"s  c #834B25",
"d  c #8A4E25",
"f  c #8E5127",
"g  c #925328",
"h  c #98562A",
"j  c #9C592B",
"k  c #AB4B21",
"l  c #A55D2D",
"z  c #A95F2E",
"x  c #A35724",
"c  c #B05220",
"v  c #B65A23",
"b  c #B95E22",
"n  c #B45C2B",
"m  c #B85F2D",
"M  c #B0532C",
"N  c #B45D33",
"B  c #AC612F",
"V  c #BA6125",
"C  c #B0632F",
"Z  c #BD652B",
"A  c #BF682F",
"S  c #AF6431",
"D  c #B46531",
"F  c #BA6431",
"G  c #BD6A33",
"H  c #BE6A39",
"J  c #C34E00",
"K  c #C05610",
"L  c #C35E1A",
"P  c #C1660C",
"I  c #C7611C",
"U  c #C36425",
"Y  c #C86726",
"T  c #C1652B",
"R  c #C46A2C",
"E  c #CB6A29",
"W  c #C26D34",
"Q  c #C96D30",
"!  c #C26F39",
"~  c #C77037",
"^  c #C97136",
"/  c #C4733D",
"(  c #CA743B",
")  c #C9783E",
"_  c #D2773A",
"`  c #D2793D",
"'  c #DB7C3C",
"]  c #B66544",
"[  c #B1704E",
"{  c #BA7056",
"}  c #C57542",
"|  c #C77944",
" . c #CA7A46",
".. c #C87749",
"X. c #C77B4A",
"o. c #CA7D4A",
"O. c #C77648",
"+. c #D37D47",
"@. c #C27F5F",
"#. c #C37B54",
"$. c #B58875",
"%. c #CD814E",
"&. c #D88546",
"*. c #D2824C",
"=. c #DF874D",
"-. c #CE8453",
";. c #C78059",
":. c #CC8359",
">. c #D28654",
",. c #D48855",
"<. c #D88A57",
"1. c #D08758",
"2. c #D38B5D",
"3. c #DC8D5A",
"4. c #E2925C",
"5. c #CD8D6B",
"6. c #D48F61",
"7. c #D08E6A",
"8. c #D59164",
"9. c #DC9363",
"0. c #D3926E",
"q. c #CE8F72",
"w. c #C68E79",
"e. c #CD967D",
"r. c #D59979",
"t. c #DE9E78",
"y. c #E09666",
"u. c #8E8988",
"i. c #978D8B",
"p. c #A5958F",
"a. c #CD9780",
"s. c #D6A184",
"d. c #D4A28A",
"f. c #DEAD91",
"g. c #D8AF9B",
"h. c #D4A995",
"j. c #DFB094",
"k. c #E9A983",
"l. c #E5B094",
"z. c #E1B39A",
"x. c #DDB5A1",
"c. c #E2B7A5",
"v. c #E2BDA9",
"b. c #E4BCB2",
"n. c #E5C2AD",
"m. c #E3C3B1",
"M. c #E7C3B9",
"N. c #E9C6BD",
"B. c #EACCBB",
"V. c #F0CEBC",
"C. c #EBD0BF",
"Z. c #EACDC0",
"A. c #E7D1C4",
"S. c #EDD3C3",
"D. c #EED7CA",
"F. c #EFD9CD",
"G. c #F3D7C6",
"H. c #F1DBCD",
"J. c #F2DED2",
"K. c #FFE1CE",
"L. c #F4E3D6",
"P. c #FDE4D5",
"I. c #F6E6DA",
"U. c #F6E9DD",
"Y. c #F9E9DD",
"T. c #F7EBE0",
"R. c #FAECE1",
"E. c None",
/* pixels */
"E.E.E.E.E.E.E.E.E.E.E.E.E.E.E.E.E.E.E.E.E.E.E.E.E.E.E.E.E.E.E.E.E.E.E.E.E.E.E.E.E.E.E.E.E.E.E.E.E.E.",
"E.E.E.E.E.E.E.E.E.E.E.E.^ E.E.E.E.E.E.E.E.E.E.E.E.E.E.E.E.E.E.E.E.E.E.E.E.E.E.E.E.E.E.E.E.E.E.E.E.E.",
"E.E.E.E.E.E.E.E.E.E.E._ ' ^ E.E.E.E.E.E.E.E.E.E.E.E.E.E.E.E.E.E.E.E.E.E.E.E.E.E.E.E.E.E.E.E.E.E.E.E.",
"E.E.E.E.E.E.E.E.E.E.^ ` ^ ~ ' ~ E.E.E.E.E.E.E.E.E.E.E.E.E.E.E.E.E.E.E.E.E.E.E.E.E.E.E.E.E.E.E.E.E.E.",
"E.E.E.E.E.E.E.= = = W ^ H G G _ ^ E.E.E.E.E.E.E.E.E.E.E.E.E.E.E.E.E.E.E.E.E.E.E.E.E.E.E.E.E.E.E.E.E.",
"E.E.E.E.E.E.E.= 1 = T ^ G D S D ^ E.E.E.E.E.E.E.E.E.E.E.E.E.E.E.E.E.E.E.E.E.E.E.E.E.E.E.E.E.E.E.E.E.",
"E.E.E.E.E.E.E.= > $ t ~ D B z l G W E.E.E.E.E.E.E.E.E.E.E.E.E.E.E.E.E.E.E.E.E.E.E.E.E.E.E.E.E.E.E.E.",
"E.E.E.E.E.E.E.E.< = = W G B j j j W E.E.E.E.E.E.E.E.E.E.E.E.E.E.E.E.E.E.E.E.E.E.E.E.E.E.E.E.E.E.E.E.",
"E.E.E.E.E.E.E.E.= 1 = t / z h g g D W E.E.E.E.E.E.E.E.E.E.E.E.E.E.E.E.E.E.E.E.E.E.E.E.E.E.E.E.E.E.E.",
"E.E.E.E.E.E.E.E.E.= , = b G h f s j D E.E.E.E.E.E.E.E.E.E.E.E.E.E.E.E.E.E.E.E.E.E.E.E.E.E.E.E.E.E.E.",
"E.E.E.E.E.E.E.E.E.E.E.= , T D d s s C E.E.E.E.E.E.E.E.E.E.E.E.E.E.E.E.E.E.E.E.E.E.E.E.E.E.E.E.E.E.E.",
"E.E.E.E.E.E.E.E.E.E.E.E.% = Z l     B H E.E.E.E.E.E.E.E.E.E.E.E.E.E.E.E.E.E.E.E.E.E.E.E.E.E.E.E.E.E.",
"E.E.E.E.E.E.E.E.E.E.E.E.E.E.1. .x s d H *.E.E.E.E.E.E.E.E.E.E.E.E.E.E.E.E.E.E.E.E.E.E.E.E.E.E.E.E.E.",
"E.E.E.E.E.E.E.E.E.E.E.E.E.8.9.2.o.A C W =...E.E.E.E.E.E.E.E.E.E.E.E.E.E.E.E.E.E.E.E.E.E.E.E.E.E.E.E.",
"E.E.E.E.E.E.E.E.E.E.E.E.<.4.2.>.%.o.( ( } &.E.E.E.E.E.E.E.E.E.E.E.E.E.E.E.E.E.E.E.E.E.E.E.E.E.E.E.E.",
"E.E.E.E.E.E.E.E.E.E.E.O.a.r.+.7.-.) o.} } ( W E.E.E.E.E.E.E.E.E.E.E.E.E.E.E.E.E.E.E.E.E.E.E.E.E.E.E.",
"E.E.E.E.E.E.E.E.E.E.&.L i.c.O p.m...W } ! H Q E.E.E.E.E.E.E.E.E.E.E.E.E.E.E.E.E.E.E.E.E.E.E.E.E.E.E.",
"E.E.E.E.E.E.E.E.E.%.k.7.7. .X u.A.#.5 / T T E b E.E.E.E.E.E.E.E.E.E.E.E.E.E.E.E.E.E.E.E.E.E.E.E.E.E.",
"E.E.E.E.E.E.E.E.0.K.I.H.b.s.q.h.q.5 H Z V b U y E.E.E.E.E.E.E.E.E.E.E.E.E.E.E.E.E.E.E.E.E.E.E.E.E.E.",
"E.E.E.E.E.E.E.E.j.G.L.U.Y.I.H.M.e.5 Z V b u L y E.E.E.E.E.E.E.E.E.E.E.E.E.E.E.E.E.2.E.E.E.E.E.E.E.E.",
"E.E.E.E.E.E.E.E.;.4 a.L.L.I.T.T.J.#.3 F t t r E.E.E.E.E.E.E.E.E.E.E.E.E.E.E.E.2.E.2.E.E.E.E.E.E.E.E.",
"E.E.E.E.E.E.E.E.Z . w.I.J.D.Z.U.L.e.# N 6 6 < E.E.E.E.E.E.E.E.E.E.E.E.E.E.1.,.,.:.,.-.%.E.E.E.E.E.E.",
"E.E.E.E.E.E.E.E.E.x.Y.I.M.b.F.U.L.@.# n 2 % } 6.6.2.2.2.2.>.>.-.E.E.E.E.E.o.*.o. . .*. .E.E.E.E.E.E.",
"E.E.E.E.E.E.E.E.E.E.S.R.J.N.I.T.g.% t 9 $ F 6.8.6.2.2.,.,.,.,.,.*...o.E.E./ ) / / / ` / E.E.E.E.E.E.",
"E.E.E.E.E.E.E.E.E.E.[ z.n.S.m.e.= < e > H 2.2.2.,.1.-.o.-.%.o.o.X.2.9.2.2.H W G W A W G E.E.E.E.E.E.",
"E.E.E.E.E.E.E.E.E.E.E.P.d.n # & > 9 @ E.2.2.%.>.6.6.2.-. ...| ..2.6.2.8.y.%.V V V V U V E.E.E.E.E.E.",
"E.E.E.E.E.E.E.E.E.E.E.I.I.$.o M E.E.E.E.-.3.%. .*.2.2.-.| } | 2.6.2.6.6.6.1.| V y y L t E.E.E.E.E.E.",
"E.E.E.E.E.E.E.E.E.E.E.E.E.E.E.E.E.E.E.E.E.t.G.m.r.) o.o.| W %.2.2.6.2.2.,.-. .A e : K : E.E.E.E.E.E.",
"E.E.E.E.E.E.E.E.E.E.E.E.E.E.E.E.E.E.E.E.E.2.L.R.L.v.%.) / } :.8.2.6.2.2.-.%...W e 1 = E.E.E.E.E.E.E.",
"E.E.E.E.E.E.E.E.E.E.E.E.E.E.E.E.E.E.E.E.E.E.l.I.I.L.%.R a p 2.6.6.2.2.-.%. .} ! t = E.E.E.E.E.E.E.E.",
"E.E.E.E.E.E.E.E.E.E.E.E.E.E.E.E.E.E.E.E.E.E.p C.U.D.] Z d.5.%.8.2.2.2.%.o.} / ^ V E.E.E.E.E.E.E.E.E.",
"E.E.E.E.E.E.E.E.E.E.E.E.E.E.E.E.E.E.E.E.E.E.E.%.H.J.p 8 S.F.8.1.6.1.-.o.| / W Q Z E.E.E.E.E.E.E.E.E.",
"E.E.E.E.E.E.E.E.E.E.E.E.E.E.E.E.E.E.E.E.E.E.E.> r.B.3 e Z.R.f.*.8.-.%.| / / R R V E.E.E.E.E.E.E.E.E.",
"E.E.E.E.E.E.E.E.E.E.E.E.E.E.E.E.E.E.E.E.E.E.% q 3 ;.< v Z.T.m.,.1.%.X.} / G A V u E.E.E.E.E.E.E.E.E.",
"E.E.E.E.E.E.E.E.E.E.E.E.E.E.E.E.E.E.E.E.E.E.= 1 9 < > N H.Y.F.t.( -.| / W A V y y e 2 E.E.E.E.E.E.E.",
"E.E.E.E.E.E.E.E.E.E.E.E.E.E.E.E.E.E.E.E.E.E.= < ; k % ; B.R.R.B.%.~ | W G V V y e 7 - E.E.E.E.E.E.E.",
"E.E.E.E.E.E.E.E.E.E.E.E.E.E.E.E.E.E.E.E.E.E.= J = = < % t a.V.L.v.) ~ H Z V y e e < = E.E.E.E.E.E.E.",
"E.E.E.E.E.E.E.E.E.E.E.E.E.E.E.E.E.E.E.E.E.E.E.= E.= 1 ; E.E.E.] { z Z A V y t e : 1 = E.E.E.E.E.E.E.",
"E.E.E.E.E.E.E.E.E.E.E.E.E.E.E.E.E.E.E.E.E.E.E.E.E.= = > ; E.0 @ + = v V a t e 6 1 = E.E.E.E.E.E.E.E.",
"E.E.E.E.E.E.E.E.E.E.E.E.E.E.E.E.E.E.E.E.E.E.E.E.E.= 1 ; = , > 9 m A Z V y t 7 - = E.E.E.E.E.E.E.E.E.",
"E.E.E.E.E.E.E.E.E.E.E.E.E.E.E.E.E.E.E.E.E.E.E.E.E.E.= $ % ; v W W Z b y u 6 : E.E.E.E.E.E.E.E.E.E.E.",
"E.E.E.E.E.E.E.E.E.E.E.E.E.E.E.E.E.E.E.E.E.E.E.E.E.E.= t Z ! } ! Z V b u e E.E.E.E.E.E.E.E.E.E.E.E.E.",
"E.E.E.E.E.E.E.E.E.E.E.E.E.E.E.E.E.E.E.E.E.E.E.E.E.E. .o...} W G Z b y r E.E.E.E.E.E.E.E.E.E.E.E.E.E.",
"E.E.E.E.E.E.E.E.E.E.E.E.E.E.E.E.E.E.E.E.E.E.E.E.E.,.,.o./ / W Z V b L e E.E.E.E.E.E.E.E.E.E.E.E.E.E.",
"E.E.E.E.E.E.E.E.E.E.E.E.E.E.E.E.E.E.E.E.E.E.E.E.E.3. .| / W Z V v L 6 E.E.E.E.E.E.E.E.E.E.E.E.E.E.E.",
"E.E.E.E.E.E.E.E.E.E.E.E.E.E.E.E.E.E.E.E.E.E.E.E.E.>. .( ! Z Z V I e E.E.E.E.E.E.E.E.E.E.E.E.E.E.E.E.",
"E.E.E.E.E.E.E.E.E.E.E.E.E.E.E.E.E.E.E.E.E.E.E.E.E.*.} ! W R E u t E.E.E.E.E.E.E.E.E.E.E.E.E.E.E.E.E.",
"E.E.E.E.E.E.E.E.E.E.E.E.E.E.E.E.E.E.E.E.E.E.E.E.E. .` ^ Q V E.E.E.E.E.E.E.E.E.E.E.E.E.E.E.E.E.E.E.E.",
"E.E.E.E.E.E.E.E.E.E.E.E.E.E.E.E.E.E.E.E.E.E.E.E.E.E.W G E.E.E.E.E.E.E.E.E.E.E.E.E.E.E.E.E.E.E.E.E.E.",
"E.E.E.E.E.E.E.E.E.E.E.E.E.E.E.E.E.E.E.E.E.E.E.E.E.E.E.E.E.E.E.E.E.E.E.E.E.E.E.E.E.E.E.E.E.E.E.E.E.E."
};
