/* XPM */
static char *_627051286718[] = {
/* columns rows colors chars-per-pixel */
"50 50 182 2 ",
"   c #7B4622",
".  c #574E57",
"X  c #A40C00",
"o  c #B30E00",
"O  c #A91B00",
"+  c #A32F00",
"@  c #AB3500",
"#  c #A63D00",
"$  c #AB3D00",
"%  c #B53500",
"&  c #B03A00",
"*  c #BC3803",
"=  c #C12F04",
"-  c #C63111",
";  c #AA4401",
":  c #AD4904",
">  c #AF4B08",
",  c #AB470B",
"<  c #B34500",
"1  c #B44902",
"2  c #BC4C02",
"3  c #B14E0C",
"4  c #B84F0D",
"5  c #B45100",
"6  c #BB5600",
"7  c #B2500D",
"8  c #BC520B",
"9  c #BB5B00",
"0  c #AA4612",
"q  c #AD4D1D",
"w  c #B14D14",
"e  c #B35314",
"r  c #BC5816",
"t  c #B45519",
"y  c #B65A1C",
"u  c #BA5A1C",
"i  c #B85514",
"p  c #BE6000",
"a  c #BF640F",
"s  c #BB601B",
"d  c #834A25",
"f  c #8C4F28",
"g  c #8A4E25",
"h  c #8E5027",
"j  c #915227",
"k  c #915228",
"l  c #9A562A",
"z  c #9E592B",
"x  c #AA4D2D",
"c  c #BE4821",
"v  c #A35D2D",
"b  c #A75D2A",
"n  c #B95E22",
"m  c #B75724",
"M  c #AA5F3F",
"N  c #AE5533",
"B  c #AD612F",
"V  c #BB6126",
"C  c #B5612D",
"Z  c #BD652B",
"A  c #BF682E",
"S  c #AE6230",
"D  c #B26531",
"F  c #BC6630",
"G  c #BE6A33",
"H  c #C04E02",
"J  c #C1530B",
"K  c #C45C19",
"L  c #C15B17",
"P  c #C84729",
"I  c #C4502E",
"U  c #CA5B35",
"Y  c #E24535",
"T  c #E85036",
"R  c #E75C36",
"E  c #C26120",
"W  c #C16927",
"Q  c #C4692D",
"!  c #C26629",
"~  c #CC732C",
"^  c #C26D35",
"/  c #C26F39",
"(  c #D6603A",
")  c #DA6A3D",
"_  c #C77036",
"`  c #C87137",
"'  c #C4733C",
"]  c #CC743A",
"[  c #CD7C3E",
"{  c #D27436",
"}  c #D77B3E",
"|  c #D3773A",
" . c #E07E3D",
".. c #BF7249",
"X. c #A06D5E",
"o. c #AE755F",
"O. c #BD7656",
"+. c #C67642",
"@. c #C77845",
"#. c #CA7A45",
"$. c #C47649",
"%. c #C77A48",
"&. c #CA7D4B",
"*. c #D27048",
"=. c #C87856",
"-. c #C57D58",
";. c #D77F55",
":. c #DB7C54",
">. c #E36D4B",
",. c #E36742",
"<. c #E47556",
"1. c #F27150",
"2. c #CF8044",
"3. c #CC804E",
"4. c #D4844D",
"5. c #D98248",
"6. c #DB8145",
"7. c #CE8453",
"8. c #C5835F",
"9. c #D28653",
"0. c #D88053",
"q. c #D28856",
"w. c #DF8D56",
"e. c #D08758",
"r. c #D38B5D",
"t. c #DC8C59",
"y. c #CA8462",
"u. c #D38E61",
"i. c #D68D67",
"p. c #D49064",
"a. c #DA9264",
"s. c #D5946B",
"d. c #C78E76",
"f. c #DC8975",
"g. c #CA947C",
"h. c #C5957D",
"j. c #D99B78",
"k. c #D29476",
"l. c #E29765",
"z. c #E59967",
"x. c #E38E72",
"c. c #F58472",
"v. c #DDA27F",
"b. c #BF9380",
"n. c #DBA586",
"m. c #D8A78E",
"M. c #D5A58D",
"N. c #D4AC99",
"B. c #D8AF9A",
"V. c #DBB29C",
"C. c #E4AD8C",
"Z. c #EEA498",
"A. c #E9A996",
"S. c #E2B39B",
"D. c #DBB4A2",
"F. c #DFB8A2",
"G. c #CCBAB1",
"H. c #E5BCA5",
"J. c #F9B3AA",
"K. c #E5BEB4",
"L. c #E6C2AD",
"P. c #E7C9B7",
"I. c #E7C2B8",
"U. c #EACDBD",
"Y. c #E7C8B6",
"T. c #FFC2B5",
"R. c #F1CCB9",
"E. c #DFD5CB",
"W. c #FACCC1",
"Q. c #ECD1C3",
"!. c #EED5C9",
"~. c #FCD6C3",
"^. c #F2DACD",
"/. c #F2DED1",
"(. c #F4E2D5",
"). c #F5E6DA",
"_. c #FAE6D8",
"`. c #F7E9DE",
"'. c #F8EADE",
"]. c #FBEDE2",
"[. c #FFF7EA",
"{. c None",
/* pixels */
"{.{.{.{.{.{.{.{.{.{.{.{.{.{.{.{.{.{.{.{.{.{.` ` {.{.{.{.{.{.{.{.{.{.{.{.{.{.{.{.{.{.{.{.{.{.{.{.{.{.",
"{.{.{.{.{.{.{.{.{.{.{.{.{.{.{.{.{.{.{.{.{.`  .| ` {.{.{.{.{.{.{.{.{.{.{.{.{.{.{.{.{.{.{.{.{.{.{.{.{.",
"{.{.{.{.{.{.{.{.{.{.{.{.{.{.{.{.{.{.; $ {.` ] ^ ] ` {.{.{.{.{.{.{.{.{.{.{.{.{.{.{.{.{.{.{.{.{.{.{.{.",
"{.{.{.{.{.{.{.{.{.{.{.{.{.{.{.{.{.{.1 < i _ ^ F F ` _ {.{.{.{.{.{.{.{.{.{.{.{.{.{.{.{.{.{.{.{.{.{.{.",
"{.{.{.{.{.{.{.{.{.{.{.{.{.{.{.{.{.{.1 ; , ^ / D S S ] ` {.{.{.{.{.{.{.{.{.{.{.{.{.{.{.{.{.{.{.{.{.{.",
"{.{.{.{.{.{.{.{.{.{.{.{.{.{.{.{.{.{.; 1 ; V ^ B v B S G {.{.{.{.{.{.{.{.{.{.{.{.{.{.{.{.{.{.{.{.{.{.",
"{.{.{.{.{.{.{.{.{.{.{.{.{.{.{.{.{.{.{.1 $ t ^ S z l z G {.{.{.{.{.{.{.{.{.{.{.{.{.{.{.{.{.{.{.{.{.{.",
"{.{.{.{.{.{.{.{.{.{.{.{.{.{.{.{.{.{.{.{.1 ; Z D l h k S _ {.{.{.{.{.{.{.{.{.{.{.{.{.{.{.{.{.{.{.{.{.",
"{.{.{.{.{.{.{.{.{.{.{.{.{.{.{.{.{.{.{.{.{.$ 4 ^ v g d v A {.{.{.{.{.{.{.{.{.{.{.{.{.{.{.{.{.{.{.{.{.",
"{.{.{.{.{.{.{.{.{.{.{.{.{.{.{.{.{.{.{.{.{.{.$ K B f   g C {.{.{.{.{.{.{.{.{.{.{.{.{.{.{.{.{.{.{.{.{.",
"{.{.{.{.{.{.{.{.{.{.{.{.{.{.{.{.{.{.{.{.{.{.{.q #.B   d B {.{.{.{.{.{.{.{.{.{.{.{.{.{.{.{.{.{.{.{.{.",
"{.{.{.{.{.{.{.{.{.{.{.{.{.{.{.{.{.{.{.{.{.{.{.p.a.&.b d B #.{.{.{.{.{.{.{.{.{.{.{.{.{.{.{.{.{.{.{.{.",
"{.{.{.{.{.{.{.{.{.{.{.{.{.{.{.{.{.{.{.{.{.{.q.l.r.q.#.G G 6.&.{.{.{.{.{.{.{.{.{.{.{.{.{.{.{.{.{.{.{.",
"{.{.{.{.{.{.{.{.{.{.{.{.{.{.{.{.{.{.{.{.{.-.j.r.q.&.&.%.] ' 5.' {.{.{.{.{.{.{.{.{.{.{.{.{.{.{.{.{.{.",
"{.{.{.{.{.{.{.{.{.{.{.{.{.{.{.{.{.{.{.{.~ X.G.y.o.N.&.@.@.` ] _ {.{.{.{.{.{.{.{.{.{.{.{.{.{.{.{.{.{.",
"{.{.{.{.{.{.{.{.{.{.{.{.{.{.{.{.{.{.{.C.v.y.i.M . E.k.a ' G G ^ {.{.{.{.{.{.{.{.{.{.{.{.{.{.{.{.{.{.",
"{.{.{.{.{.{.{.{.{.{.{.{.{.{.{.{.{.{.~.]./.Q.n.$.b.D.$.A G A Z W {.{.{.{.{.{.{.{.{.{.{.{.{.{.{.{.{.{.",
"{.{.{.{.{.{.{.{.{.{.{.{.{.{.{.{.{.s.H.P.].)./.!.K.=.9 F V V n E {.{.{.{.{.{.{.{.{.{.{.{.{.{.{.{.{.{.",
"{.{.{.{.{.{.{.{.{.{.{.{.{.{.{.{.{.G o C /.]./.).].Q.y V n y y r {.{.{.{.{.{.{.{.{.{.{.{.{.{.{.{.{.{.",
"{.{.{.{.{.{.{.{.{.{.{.{.{.{.{.{.{.{.=.N././.!.!.)./...1 y e r 7 {.{.{.{.{.{.{.{.{.{.{.{.{.{.{.{.{.{.",
"{.{.{.{.{.{.{.{.{.{.{.{.{.{.{.{.{.{.L.[.`.I.K.^.'.!.t 7 t 7 8 {.{.{.{.{.{.{.{.{.{.{.{.{.{.{.{.{.{.{.",
"{.{.{.{.{.{.{.{.{.{.{.{.{.{.{.{.{.{.{.B.(.^.!.].(.g.; m ; 1 ; {.{.{.{.{.{.{.{.{.{.{.{.{.{.{.{.{.{.{.",
"{.{.{.{.{.{.{.{.{.{.{.{.{.{.{.{.{.{.{.h.S.B.L.D.y.$ ; $ < ( >.{.{.{.{.{.{.{.{.{.{.{.{.{.{.{.{.{.{.{.",
"{.{.{.{.{.{.{.{.{.{.{.{.{.{.{.{.{.{.{.J.~.f.* * * c I U *.<.1.:.{.{.{.{.{.{.{.{.{.{.{.{.{.{.{.{.{.{.",
"{.{.{.{.{.{.{.{.{.{.{.{.{.{.{.{.{.{.{.{.T.Z.- P Y T R ,.<.0.>.z.u.{.{.{.{.{.{.{.{.{.{.{.{.{.{.{.{.{.",
"{.{.{.{.{.{.{.{.{.{.{.{.{.{.{.{.{.{.{.{.{.{.{.{.{.R c.<.) 0.>.r.z.r.{.{.{.{.{.{.{.{.{.{.{.{.{.{.{.{.",
"{.{.{.{.{.{.{.{.{.{.{.{.{.{.{.{.{.{.{.{.{.{.{.{.{.x.W.A.{ i.;.7.q.l.{.{.{.{.{.{.{.{.{.{.{.{.{.{.{.{.",
"{.{.{.{.{.{.{.{.{.{.{.{.{.{.{.{.{.{.{.{.{.{.{.{.6 R.].Q.3.r.u.7.7.r.r.{.{.{.{.{.{.{.{.{.{.{.{.{.{.{.",
"{.{.{.{.{.{.{.{.{.{.{.{.{.{.{.{.{.{.{.{.{.{.{.{.%.^.`.(.y.#.r.3.3.7.t.7.{.{.{.{.{.{.{.{.{.{.{.{.{.{.",
"{.{.{.{.{.{.{.{.{.{.{.{.{.{.{.{.{.{.{.{.{.{.x $ k.).`.P.3.#.7.#.&.3.9.7.{.{.{.{.{.{.{.{.{.{.{.{.{.{.",
"{.{.{.{.{.{.{.{.{.{.{.{.{.{.{.{.{.{.{.{.{.; m % F.).V.G A @.' ' +.@.#.9.{.{.{.{.{.{.{.{.{.{.{.{.{.{.",
"{.{.{.{.{.{.{.{.{.{.{.{.{.{.{.{.{.{.{.{.; H 0 5 m.d.< 5 +.A ' 3.7.7.9.9.&.{.{.{.{.{.{.{.{.{.{.{.{.{.",
"{.{.{.{.{.{.{.{.{.{.{.{.{.{.{.{.{.{.{.{.1 ; ; t r O y H.M.p u.u.u.u.p.r.&.{.{.{.{.{.{.{.{.{.{.{.{.{.",
"{.{.{.{.{.{.{.{.{.{.{.{.{.{.{.{.{.{.{.{.{.; ; 0 X O.Q.].F.[ s.r.r.u.u.u.t.{.{.&.q.{.r.{.{.{.{.{.{.{.",
"{.{.{.{.{.{.{.{.{.{.{.{.{.{.{.{.{.{.{.{.; ; w @ h./.]./.j.e.p.r.u.r.r.r.t.' ` 4.3.r.r.{.{.{.{.{.{.{.",
"{.{.{.{.{.{.{.{.{.{.{.{.{.{.{.{.{.{.{.; 2 , 0 @ Q.`.(.K.2.p.u.r.r.r.e.q.3.` _ +.%.9.q.r.{.{.{.{.{.{.",
"{.{.{.{.{.{.{.{.{.{.{.{.{.{.{.{.{.{.{.; ; 2 N {.D.`.(.n.9.p.r.r.e.q.7.3.@.G Z G ' %.t.q.{.{.{.{.{.{.",
"{.{.{.{.{.{.{.{.{.{.{.{.{.{.{.{.{.{.{.; 2 < {.{.d.].(.s.q.r.e.7.3.3.2.@.' Z V A ` ' &.3.{.{.{.{.{.{.",
"{.{.{.{.{.{.{.{.{.{.{.{.{.{.{.{.{.{.{.{.; {.{.{.{.U._.q.7.7.3.&.@.%.+.' G V y C G ^ #.#.{.{.{.{.{.{.",
"{.{.{.{.{.{.{.{.{.{.{.{.{.{.{.{.{.{.{.{.{.{.{.{.{.{.Y.a.&.3.%.+.' G ' G A t e s V { ' {.{.{.{.{.{.{.",
"{.{.{.{.{.{.{.{.{.{.{.{.{.{.{.{.{.{.{.{.{.{.{.{.{.{.{.7.#.+.` ' ^ G G ! r 1 8 K E Z {.{.{.{.{.{.{.{.",
"{.{.{.{.{.{.{.{.{.{.{.{.{.{.{.{.{.{.{.# ; ; ; ; ; q + F #.' G G A Z ! V {.; : 3 {.{.{.{.{.{.{.{.{.{.",
"{.{.{.{.{.{.{.{.{.{.{.{.{.{.{.{.{.{.{.u > ; < < < < 1 w _ G Z Z V n E {.{.{.{.{.{.{.{.{.{.{.{.{.{.{.",
"{.{.{.{.{.{.{.{.{.{.{.{.{.{.{.{.{.q.t.7.@./ ^ F Z C n y V Z V V y y t e {.{.{.{.{.{.{.{.{.{.{.{.{.{.",
"{.{.{.{.{.{.{.{.{.{.{.{.{.{.{.{.7.w.#.@.%.+.' ' ^ ^ Z Z V n y e t e 7 8 > {.{.{.{.{.{.{.{.{.{.{.{.{.",
"{.{.{.{.{.{.{.{.{.{.{.{.{.{.{.{.3.@.#.' ' ^ G A Z V n n y r e e 3 > 8 ; {.{.{.{.{.{.{.{.{.{.{.{.{.{.",
"{.{.{.{.{.{.{.{.{.{.{.{.{.{.{.@.#.] ' _ G A Z V n n u K i e 3 > 1 ; ; {.{.{.{.{.{.{.{.{.{.{.{.{.{.{.",
"{.{.{.{.{.{.{.{.{.{.{.{.{.{.{.{.} ] ^ Q Z V V y u K e e {.{.{.{.{.{.{.{.{.{.{.{.{.{.{.{.{.{.{.{.{.{.",
"{.{.{.{.{.{.{.{.{.{.{.{.{.{.{.{.{.Q Z V n u u i t 7 {.{.{.{.{.{.{.{.{.{.{.{.{.{.{.{.{.{.{.{.{.{.{.{.",
"{.{.{.{.{.{.{.{.{.{.{.{.{.{.{.{.{.{.{.{.{.{.{.{.{.{.{.{.{.{.{.{.{.{.{.{.{.{.{.{.{.{.{.{.{.{.{.{.{.{."
};
