/* XPM */
static char *_627118157277[] = {
/* columns rows colors chars-per-pixel */
"50 50 176 2 ",
"   c #472B37",
".  c #7D4722",
"X  c #7D4823",
"o  c #745758",
"O  c #9D0000",
"+  c #921100",
"@  c #A30300",
"#  c #AD0000",
"$  c #A52300",
"%  c #A42B00",
"&  c #AE3400",
"*  c #A63B00",
"=  c #AA3D00",
"-  c #B63A00",
";  c #AB4401",
":  c #AD4A04",
">  c #AE4C0B",
",  c #AA450A",
"<  c #B24600",
"1  c #BA4300",
"2  c #B54A01",
"3  c #BB4C01",
"4  c #B24E0E",
"5  c #B65400",
"6  c #B95400",
"7  c #BC5C03",
"8  c #B4510F",
"9  c #BA510C",
"0  c #AD4B1A",
"q  c #AC4514",
"w  c #B34E11",
"e  c #B04F19",
"r  c #B35313",
"t  c #BA5512",
"y  c #BD5C14",
"u  c #B4551A",
"i  c #B6591C",
"p  c #BB5B1C",
"a  c #854B25",
"s  c #884C25",
"d  c #904F24",
"f  c #8E5027",
"g  c #925329",
"h  c #995729",
"j  c #9E592B",
"k  c #965326",
"l  c #A25C2D",
"z  c #B25523",
"x  c #B65B26",
"c  c #B95E22",
"v  c #B55C2A",
"b  c #AB612F",
"n  c #BB6225",
"m  c #BD652B",
"M  c #BE682F",
"N  c #AD6230",
"B  c #B46631",
"V  c #BB6633",
"C  c #BE6A33",
"Z  c #BE6C3C",
"A  c #C14E01",
"S  c #C75000",
"D  c #C65900",
"F  c #C8570C",
"G  c #C25710",
"H  c #C55E18",
"J  c #C06306",
"K  c #C56C1F",
"L  c #C36221",
"P  c #C96727",
"I  c #C0672C",
"U  c #C36B2D",
"Y  c #CA6A2B",
"T  c #C46C21",
"R  c #C5702E",
"E  c #C9752E",
"W  c #C26D34",
"Q  c #C26F39",
"!  c #C67037",
"~  c #C97136",
"^  c #C4723C",
"/  c #CB743A",
"(  c #CA793C",
")  c #D1763A",
"_  c #D5783A",
"`  c #D87A3B",
"'  c #B36045",
"]  c #BC7458",
"[  c #BD7353",
"{  c #956D62",
"}  c #BD7B62",
"|  c #C67642",
" . c #C77846",
".. c #C97A45",
"X. c #C57049",
"o. c #C6794F",
"O. c #CA7D4B",
"+. c #CB7646",
"@. c #D07841",
"#. c #C77954",
"$. c #C07A5C",
"%. c #CC814E",
"&. c #D98045",
"*. c #D5824C",
"=. c #DD864C",
"-. c #CE8454",
";. c #CD865A",
":. c #CF895C",
">. c #D28754",
",. c #DA8650",
"<. c #D28856",
"1. c #DB8954",
"2. c #D0875A",
"3. c #D28B5D",
"4. c #DA8D5A",
"5. c #E2915B",
"6. c #CF8763",
"7. c #C98669",
"8. c #C88968",
"9. c #CE8B62",
"0. c #D48E61",
"q. c #D69163",
"w. c #D19169",
"e. c #C58A74",
"r. c #CF9170",
"t. c #CB957D",
"y. c #D49473",
"u. c #D79973",
"i. c #D2957A",
"p. c #D79D7B",
"a. c #E09664",
"s. c #E49967",
"d. c #E59B6C",
"f. c #C59580",
"g. c #CF9C85",
"h. c #D19E85",
"j. c #D7A086",
"k. c #DBA98E",
"l. c #D7A589",
"z. c #D7A890",
"x. c #DCAC92",
"c. c #D6AB98",
"v. c #DDB097",
"b. c #E5B19A",
"n. c #C0B3AC",
"m. c #DCB9A8",
"M. c #D4BFB4",
"N. c #E5BCA5",
"B. c #E1B2AA",
"V. c #D9C2B5",
"C. c #E7C2AE",
"Z. c #EDC4AC",
"A. c #E4C3B4",
"S. c #EAC5B2",
"D. c #E7CABB",
"F. c #E9CDBC",
"G. c #F5CBB2",
"H. c #EBCDC2",
"J. c #ECD3C3",
"K. c #EED6C8",
"L. c #EFD8C8",
"P. c #F1D7CB",
"I. c #F1DBCD",
"U. c #F6D5C3",
"Y. c #F2DED2",
"T. c #F3E2D5",
"R. c #F9E3D5",
"E. c #F6E6DA",
"W. c #F8E6DA",
"Q. c #F7E9DD",
"!. c #F9EADE",
"~. c #F6EAE0",
"^. c #FBEEE2",
"/. c #FDF0E5",
"(. c #FFFBF1",
"). c None",
/* pixels */
").).).).).).).).).).).).).).).).).).).).).).).).).).).).).).).).).).).).).).).).).).).).).).).).).).",
").).).).).).).).).).).).).).).).).).).).).).).).).).).).).).).).).).).).).).).).).).).).).).).).).).",
").).).).).).).).).).).).).).).).).).).).).).).).).).).).).).).).).).).).).~ ~ _ ~ ).).).).).).).).).",
").).).).).).).).).).).).).).).).).).).).).).).).).).).).).).).).).).).).~ _ / ~ ` ).).).).).).).).).",
").).).).).).).).).).).).).).).).).).).).).).).).).).).).).).).).).).).~ _ C C ! ) I * , ).).).).).).",
").).).).).).).).).).).).).).).).).).).).).).).).).).).).).).).).).).~ ( B B B Z / c < 3 ; ).).).).).",
").).).).).).).).).).).).).).).).).).).).).).).).).).).).).).).).).).! B N b B C / w = ; ; ).).).).).",
").).).).).).).).).).).).).).).).).).).).).).).).).).).).).).).).).! B l j b N C W ; ; 2 ; ).).).).).",
").).).).).).).).).).).).).).).).).).).).).).).).).).).).).).).).).C l h h l N ! u = 2 ; ).).).).).).",
").).).).).).).).).).).).).).).).).).).).).).).).).).).).).).).).~ B g f g j V m ; 2 ; ).).).).).).).",
").).).).).).).).).).).).).).).).).).).).).).).).).).).).).).).).C l s s g N C : < ; ).).).).).).).).",
").).).).).).).).).).).).).).).).).).).).).).).).).).).).).).).).B f . a j C 9 = ; ).).).).).).).).).",
").).).).).).).).).).).).).).).).).).).).).).).).).).).).).).).~ b a . d Q u * ).).).).).).).).).).).",
").).).).).).).).).).).).).).).).).).).).).).).).).).).).).).).^ h a k W 4.;.).).).).).).).).).).).).",
").).).).).).).).).).).).).).).).).).).).).).).).).).).).).).*./ V B ^ <.0.q.0.).).).).).).).).).).).",
").).).).).).).).).).).).).).).).).).).).).).).).).).).).).| ../ / ..%.>.<.3.5.).).).).).).).).).).).",
").).).).).).).).).).).).).).).).).).).).).).).).).).).).! / ^ |  .O.^ 6.;.%.h.7.).).).).).).).).).).",
").).).).).).).).).q.).).).).).).).).).).).).).).).).).).C W W !  .J j.V.{ X.V.o @.).).).).).).).).).",
").).).).).).).).3.3.).3.0.).).).).).).).).).).).).).).).m m C M  .2 S.n.  : u.8.;.d.).).).).).).).).",
").).).).).).).%.>.-.-.<.3.).).).).).).).).).).).).).).i L n m m C m #.m.f.o.y.N.K.R.G.).).).).).).).",
").).).).).).).=.| O.O.O.1.-.).).).).).).).).).).).).).i p i c n m V 7 i.C.K.Q.~.Q.Q.R.l.).).).).).).",
").).).).).).W / ^ ^ | ....| ).).).).).).).).).).).).).).8 i i i V 2 x.Q.Q.~.T.T.T.g.o.r.).).).).).).",
").).).).).).m W C W W ! / ^ ).).).O.*.>.-.<.3.3.3.3.).).4 8 r u v 2 D.E.Y.K.T.T.I.: # 5 ).).).).).).",
").).).).).).p n n n m m W -.q.3.4.=.,.>.>.>.>.4.a.s.s.q.Z ; 4 r z < D.~.T.A.H.H.E.A.i.).).).).).).).",
").).).).).).u i i i c C -.s.s.q.0.;.....O.O.-.-.<.<.3.0.3.z = : v & g.E.Q.Y.B.Y.^.^.N.).).).).).).).",
").).).).).).> 9 r u m ..3.3.0.3.3.q.;.| ..O.O.%.-.-.-.3.3.-.z < 9 e = c.Y.P.P.I.F.t.).).).).).).).).",
").).).).).).).S > i Q %.-.3.0.3.3.0.:.%.^  . .O.<.3.3.-.>.3.2.z = w 9 & [ g.l.h.N.).).).).).).).).).",
").).).).).).).; 2 n ^ O.%.;.3.0.0.3.q.-.! |  .O.0.3...( ..4.3.).).).e 0 - O t.I.R.).).).).).).).).).",
").).).).).).).).: m ^  .%.-.<.3.3.3.q.;. .| U -.2.2.x.A.v.1.).).).).).).' + V./.).).).).).).).).).).",
").).).).).).).).).M / | ..%.-.3.0.3.0.:.n 5 ^ :.( w.Y.(.Z.~ ).).).).).).).).).).).).).).).).).).).).",
").).).).).).).).).M C ^ | %.%.;.0.3.q.%.^ h.H.x.T U D.J.1.; ).).).).).).).).).).).).).).).).).).).).",
").).).).).).).).).E C C ^ | %.-.;.q.<.p.F.T.^.P.;.6 0.9.5 1 > ).).).).).).).).).).).).).).).).).).).",
").).).).).).).).).P m C ! | O.%.<.3.*.A.^.E.Y.!.F.o.D y ).: A ; ).).).).).).).).).).).).).).).).).).",
").).).).).).).r i c n M C ^  ...2.%.u.L.Q.L.T./.F.O.7 W ).).; A ; ).).).).).).).).).).).).).).).).).",
").).).).).).> G u u c m M ! ^ %.O.E N.W.T.Q.^.S.+.6 x H u ).).; A ).).).).).).).).).).).).).).).).).",
").).).).).).; > 8 u p n m C ^ | T x.Q./.!.R.b.5 ).).).> F : ).; A ; ).).).).).).).).).).).).).).).).",
").).).).).).; 2 > r i c n C Z R k.Y.R.U.b.$.& ).).).).: ; 2 ; ; 3 ).).).).).).).).).).).).).).).).).",
").).).).).).).3 : 8 r i c M n i } e.] ).).).).).).).).).; < < ; ).).).).).).).).).).).).).).).).).).",
").).).).).).).).: 9 8 u i n n e % @ $ ).).).).).).).).).).; ; ; ).).).).).).).).).).).).).).).).).).",
").).).).).).).).).: 9 u i c m C n z q 0 0 ).).).).).).).).; ; 3 ; ).).).).).).).).).).).).).).).).).",
").).).).).).).).).).).8 y i n m W Q c ; = < > ).).).).).).; ; ; ; ).).).).).).).).).).).).).).).).).",
").).).).).).).).).).).).w i c n m W | Z x ; - * ).).).).).; 3 A ; ).).).).).).).).).).).).).).).).).",
").).).).).).).).).).).).).r i c n C W | .. ./ u ).).).).).).; ; ).).).).).).).).).).).).).).).).).).",
").).).).).).).).).).).).).r H i n m C ! | O.>.-.).).).).).).).).).).).).).).).).).).).).).).).).).).",
").).).).).).).).).).).).).).r p z n V W ^ | O.5.<.).).).).).).).).).).).).).).).).).).).).).).).).).",
").).).).).).).).).).).).).).).t H c m I ! ^ | 1.-.).).).).).).).).).).).).).).).).).).).).).).).).).",
").).).).).).).).).).).).).).).).u K n m C ^ ^ *.%.).).).).).).).).).).).).).).).).).).).).).).).).).",
").).).).).).).).).).).).).).).).).).c P W W ^ *.O.).).).).).).).).).).).).).).).).).).).).).).).).).",
").).).).).).).).).).).).).).).).).).).).m ~ / &.).).).).).).).).).).).).).).).).).).).).).).).).).).",
").).).).).).).).).).).).).).).).).).).).).).W ).).).).).).).).).).).).).).).).).).).).).).).).).).)."
};
