/* XPM */
static char *_627118147464[] = {
/* columns rows colors chars-per-pixel */
"50 50 162 2 ",
"   c #5B0000",
".  c #7D4723",
"X  c #7F4C40",
"o  c #922100",
"O  c #A92B00",
"+  c #AA3500",
"@  c #A63C00",
"#  c #A93C00",
"$  c #AA4301",
"%  c #AD4A04",
"&  c #AC470A",
"*  c #AE4C0B",
"=  c #B24500",
"-  c #B44B03",
";  c #BA4B00",
":  c #B14E0D",
">  c #B94D08",
",  c #B45302",
"<  c #B85400",
"1  c #B95B02",
"2  c #B2510E",
"3  c #BA540E",
"4  c #BA5C0A",
"5  c #AE4D14",
"6  c #AB4C1D",
"7  c #B14E13",
"8  c #AF5015",
"9  c #B35314",
"0  c #BB5512",
"q  c #BC5816",
"w  c #B4551A",
"e  c #B75B1D",
"r  c #BB5C1B",
"t  c #BE6316",
"y  c #824A24",
"u  c #894E26",
"i  c #8E5127",
"p  c #955429",
"a  c #99572A",
"s  c #99582D",
"d  c #AF532D",
"f  c #A45C2D",
"g  c #AB5F2B",
"h  c #B15324",
"j  c #B55A23",
"k  c #B95E22",
"l  c #AB612F",
"z  c #BB6125",
"x  c #BD652B",
"c  c #BF682D",
"v  c #AD6230",
"b  c #B36531",
"n  c #BC6632",
"m  c #B76934",
"M  c #BD6933",
"N  c #B6633A",
"B  c #BE6C3D",
"V  c #C24D02",
"C  c #C45307",
"Z  c #C95202",
"A  c #C15711",
"S  c #C25D19",
"D  c #C16200",
"F  c #D26D01",
"G  c #C36A1C",
"H  c #D7671E",
"J  c #C56524",
"K  c #C56E20",
"L  c #C2692D",
"P  c #CA6F2E",
"I  c #C5702E",
"U  c #C9742D",
"Y  c #DF7129",
"T  c #C16C34",
"R  c #C26F39",
"E  c #C67036",
"W  c #C97136",
"Q  c #C4733D",
"!  c #CB743B",
"~  c #D87930",
"^  c #D2773A",
"/  c #D17A3E",
"(  c #D97B3C",
")  c #BA704A",
"_  c #B76E51",
"`  c #BF7A5B",
"'  c #B2745C",
"]  c #A17263",
"[  c #C67642",
"{  c #C77944",
"}  c #C97A46",
"|  c #C6794A",
" . c #CB7D4B",
".. c #D77E44",
"X. c #D17F49",
"o. c #CA7E52",
"O. c #C77E58",
"+. c #CC814E",
"@. c #D1824A",
"#. c #DB854C",
"$. c #CE8453",
"%. c #C6815E",
"&. c #CD8558",
"*. c #CF885B",
"=. c #D28654",
"-. c #D28857",
";. c #DC8A55",
":. c #D08758",
">. c #D28C5D",
",. c #DC8E5B",
"<. c #DB905F",
"1. c #E38F5F",
"2. c #E8935C",
"3. c #CB8861",
"4. c #C8896B",
"5. c #D48E61",
"6. c #D68F6C",
"7. c #D49061",
"8. c #DD9363",
"9. c #D5946E",
"0. c #CB8C74",
"q. c #CF9271",
"w. c #CC9378",
"e. c #D69A77",
"r. c #D69E7B",
"t. c #E19665",
"y. c #E39867",
"u. c #B8AFA9",
"i. c #D49B81",
"p. c #D6A182",
"a. c #D5A48D",
"s. c #D9A58B",
"d. c #C5A79B",
"f. c #DCAD92",
"g. c #EFB796",
"h. c #D3B7A8",
"j. c #D0B9AF",
"k. c #C7BEB7",
"l. c #E1B9A6",
"z. c #E2BEAB",
"x. c #ECBFA8",
"c. c #E4BBB1",
"v. c #E4C4B2",
"b. c #E7C9B7",
"n. c #E9CDBC",
"m. c #E6C7BB",
"M. c #F7CDB5",
"N. c #F5D1BB",
"B. c #EBCDC2",
"V. c #EAD1C2",
"C. c #EFD7CA",
"Z. c #EFD9CD",
"A. c #F0D6CB",
"S. c #F1DDCF",
"D. c #F2DFD3",
"F. c #F3E2D5",
"G. c #F5E5DA",
"H. c #F7E9DE",
"J. c #FBEADD",
"K. c #FAEEE2",
"L. c #FCF0E6",
"P. c None",
/* pixels */
"P.P.P.P.P.P.P.P.P.P.P.P.P.P.P.P.P.P.P.P.P.P.P.P.P.P.P.P.P.P.P.P.P.P.P.P.P.P.P.P.P.P.P.P.P.P.P.P.P.P.",
"P.P.P.P.P.P.P.P.P.P.P.P.P.P.P.P.P.P.P.P.P.P.P.P.P.P.P.P.P.P.P.P.P.P.P.P.P.P.P.P.P.P.P.P.P.P.P.P.P.P.",
"P.P.P.P.P.P.P.P.P.P.P.P.P.P.P.P.P.P.P.P.P.P.P.P.P.P.P.P.P.P.P.P.P.P.P.P.P.P.P.P.P.P.P.P.P.P.P.P.P.P.",
"P.P.P.P.P.P.P.P.P.P.P.P.P.P.P.P.P.P.P.P.P.P.P.P.P.P.P.P.P.P.P.P.P.P.P.P.P.P.P.P.P.P.P.P.P.P.P.P.P.P.",
"P.P.P.P.P.P.P.P.P.P.P.P.P.P.P.P.P.P.P.P.P.P.P.P.P.P.P.P.P.P.P.P.P.P.P.P.P.P.P.P.P.P.P.P.P.P.P.P.P.P.",
"P.P.P.P.P.P.P.P.P.P.P.P.P.P.P.P.P.P.P.P.P.P.P.P.P.P.P.P.P.P.P.P.P.P.P.P.P.P.P.P.P.P.P.P.P.P.P.P.P.P.",
"P.P.P.P.P.P.P.P.P.P.P.P.P.P.P.P.P.P.P.P.P.P.P.P.P.P.P.P.P.P.P.P.P.P.P.P.P.P.P.P.P.P.P.P.P.P.P.P.P.P.",
"P.P.P.P.P.P.P.P.P.P.P.P.P.P.P.P.P.P.P.P.P.P.P.P.P.P.P.P.P.P.P.P.P.P.P.P.P.P.P.P.P.P.P.P.P.P.P.P.P.P.",
"P.P.P.P.P.P.P.P.P.P.P.P.P.P.P.P.P.P.P.P.P.P.P.P.P.P.P.P.P.P.P.P.P.P.P.W ^ ( E P.P.P.P.P.P.P.P.P.P.P.",
"P.P.P.P.P.P.P.P.P.P.P.P.P.P.P.P.P.P.P.P.P.P.P.P.P.P.P.P.P.P.P.P.P.P.W ( E ^ W P.P.P.P.P.P.P.P.P.P.P.",
"P.P.P.P.P.P.P.P.P.P.P.P.P.P.P.P.P.P.P.P.P.P.P.P.P.P.P.P.P.P.P.P.P.E ! M T E E j # & P.P.P.P.P.P.P.P.",
"P.P.P.P.P.P.P.P.P.P.P.P.P.P.P.P.P.P.P.P.P.P.P.P.P.P.P.P.P.P.P.P.E ! b b n E E 0 = V P.P.P.P.P.P.P.P.",
"P.P.P.P.P.P.P.P.P.P.P.P.P.P.P.P.P.P.P.P.P.P.P.P.P.P.P.P.P.P.P.W ! l g v b E L % $ ; $ P.P.P.P.P.P.P.",
"P.P.P.P.P.P.P.P.P.P.P.P.P.P.P.P.P.P.P.P.P.P.P.P.P.P.P.P.P.P.P.T l f f f b T k @ = $ P.P.P.P.P.P.P.P.",
"P.P.P.P.P.P.P.P.P.P.P.P.P.P.P.P.P.P.P.P.P.P.P.P.P.P.P.P.P.P.P.R p a a f m T & $ ; P.P.P.P.P.P.P.P.P.",
"P.P.P.P.P.P.P.P.P.P.P.P.P.P.P.P.P.P.P.P.P.P.P.P.P.P.P.P.P.P.R l u p p f T w # ; % P.P.P.P.P.P.P.P.P.",
"P.P.P.P.P.P.P.P.P.P.P.P.P.P.P.P.P.P.P.P.P.P.P.P.P.P.P.P.P.P.M p u u p M k = % P.P.P.P.P.P.P.P.P.P.P.",
"P.P.P.P.P.P.P.P.P.P.P.P.P.P.P.P.P.P.P.P.P.P.P.P.P.P.P.P.P.P.M y . u l J = $ P.P.P.P.P.P.P.P.P.P.P.P.",
"P.P.P.P.P.P.P.P.P.P.P.P.P.P.P.P.P.P.P.P.P.P.P.P.P.P.P.P.P.E f . y g ! h P.P.P.P.P.P.P.P.P.P.P.P.P.P.",
"P.P.P.P.P.P.P.P.P.P.P.P.P.P.P.P.P.P.P.P.P.P.P.P.P.P.P.P. .! p u l } t.>.P.P.P.P.P.P.P.P.P.P.P.P.P.P.",
"P.P.P.P.P.P.P.P.7.5.P.P.P.P.P.P.P.P.P.P.P.P.P.P.P.P.P.{ #.E T T  .5.5.y.5.P.P.P.P.P.P.P.P.P.P.P.P.P.",
"P.P.P.P.P.P.+.$.,.:.>.>.P.P.P.P.P.P.P.P.P.P.P.P.P.P.P...{ ! [  .$.! $.:.1.t.P.P.P.P.P.P.P.P.P.P.P.P.",
"P.P.P.P.P.P.} @.+.+.<.:.:.P.P.P.P.P.P.P.P.P.P.P.P.P.T ! E [ } ! o.a.O.6.d.'  .P.P.P.P.P.P.P.P.P.P.P.",
"P.P.P.P.P.T / Q Q }  .;.$.P.P.P.P.P.P.P.P.P.P.P.P.P.L M M E T T l.u.  0.j.] ~ @.P.P.P.P.P.P.P.P.P.P.",
"P.P.P.P.P.L c T T Q Q } { P.P.P.P.P.P.P.P.P.P.P.P.P.J x x B L z l.k.X 4  .6.f.g.:.P.P.P.P.P.P.P.P.P.",
"P.P.P.P.P.J z z c M E E P.P.P.P.P.P.P.P.P.P.P.P.P.P.G z k x M J M i.i.s.v.D.H.L.N.P.P.P.P.P.P.P.P.P.",
"P.P.P.P.P.S e k k z c E  . .{ {  .+.&.&.:.>.P.P.P.P.S e k z z 4 %.v.D.H.H.G.F.n.M.r.P.P.P.P.P.P.P.P.",
"P.P.P.P.P.3 8 9 k n  .>.8.8.<.:.+. .@.=.,.t.t.>.7.[ : 9 9 j , 4 v.L.F.F.D.K.n.- V | P.P.P.P.P.P.P.P.",
"P.P.P.P.P.% - w z [ 7.5.>.5.7.7.>. . .+.+.&.:.>.y.8.w % 9 j % m V.H.Z.B.A.G.V._ ; P.P.P.P.P.P.P.P.P.",
"P.P.P.P.P.# > w z  .7.*.>.>.5.>.>.>. . .+.$.$.&.:.7.| # * w % , c.K.D.B.z.A.L.J.a.P.P.P.P.P.P.P.P.P.",
"P.P.P.P.P.P.9 q z +.>.>.5.>.5.>.>.5.$.[ {  .+.$.&.>.5.B # : 7 # 4.D.K.A.m.G.J.v.P.P.P.P.P.P.P.P.P.P.",
"P.P.P.P.P.P.P.3 k +.&.&.>.>.>.5.>.5.>.} |  .$.>.:.+.:.5.B $ & 5 + O.z.B.V.v.s.P.P.P.P.P.P.P.P.P.P.P.",
"P.P.P.P.P.P.P., k { +.+.$.&.:.>.>.>.7.+.L G :.>.>.+.$.<.X.# $ & 6 + O j ) x.m.P.P.P.P.P.P.P.P.P.P.P.",
"P.P.P.P.P.P.P.% r [ { |  .+.$.&.*.>.7.+.Q q.9.:.*.f.7.+.h $ > ; % d 6 o h.K.H.P.P.P.P.P.P.P.P.P.P.P.",
"P.P.P.P.P.P.P.$ A T ! [ {  . .+.+.*.$.e.b.G.v.U  .p.*.E P.P.$ $ $ = = # P.P.P.P.P.P.P.P.P.P.P.P.P.P.",
"P.P.P.P.P.P.P.P.& z T E E Q [ {  .:.U f.H.H.S.r.X.F U c x P.P.P.$ % $ P.P.P.P.P.P.P.P.P.P.P.P.P.P.P.",
"P.P.P.P.P.P.P.P.& ! B x B E Q Q [ $.K f.F.G.H.l.L  .B x Y H 2 : $ $ $ P.P.P.P.P.P.P.P.P.P.P.P.P.P.P.",
"P.P.P.P.P.P.P.P.P.N ! z c M M B E | 1 b.K.Z.f.Q e P.5 w w 9 A Z ; $ $ $ P.P.P.P.P.P.P.P.P.P.P.P.P.P.",
"P.P.P.P.P.P.P.P.P.P.j z z z c c Q t 3.C.v.%.= + @ # # + P.P.P.& $ ; = = ; P.P.P.P.P.P.P.P.P.P.P.P.P.",
"P.P.P.P.P.P.P.P.P.P.2 r e z z z M 1 4.w.1 $ h d w j n ! | P.P.P.P.$ % $ = $ P.P.P.P.P.P.P.P.P.P.P.P.",
"P.P.P.P.P.P.P.P.P.* 0 9 9 w e e k x x , z Q M E Q {  .$.=.2.&.P.P.P.$ V ; $ P.P.P.P.P.P.P.P.P.P.P.P.",
"P.P.P.P.P.P.P.P.P.% C * 2 9 9 e e k r c M c T T E Q Q { }  .;. .P.P.P.P.P.P.P.P.P.P.P.P.P.P.P.P.P.P.",
"P.P.P.P.P.P.P.P.P.P.$ C - - 2 3 q r e e k z z c M T T E Q } X. .P.P.P.P.P.P.P.P.P.P.P.P.P.P.P.P.P.P.",
"P.P.P.P.P.P.P.P.P.P.P.$ $ % % * * 9 0 S e e j x x c M T R E [ [ P.P.P.P.P.P.P.P.P.P.P.P.P.P.P.P.P.P.",
"P.P.P.P.P.P.P.P.P.P.P.P.P.P.P.P.P.P.P.9 w S r e k z x c R W ( E P.P.P.P.P.P.P.P.P.P.P.P.P.P.P.P.P.P.",
"P.P.P.P.P.P.P.P.P.P.P.P.P.P.P.P.P.P.P.P.P.* 9 r r r k k z c L P.P.P.P.P.P.P.P.P.P.P.P.P.P.P.P.P.P.P.",
"P.P.P.P.P.P.P.P.P.P.P.P.P.P.P.P.P.P.P.P.P.P.P.P.P.P.P.P.P.P.P.P.P.P.P.P.P.P.P.P.P.P.P.P.P.P.P.P.P.P.",
"P.P.P.P.P.P.P.P.P.P.P.P.P.P.P.P.P.P.P.P.P.P.P.P.P.P.P.P.P.P.P.P.P.P.P.P.P.P.P.P.P.P.P.P.P.P.P.P.P.P.",
"P.P.P.P.P.P.P.P.P.P.P.P.P.P.P.P.P.P.P.P.P.P.P.P.P.P.P.P.P.P.P.P.P.P.P.P.P.P.P.P.P.P.P.P.P.P.P.P.P.P.",
"P.P.P.P.P.P.P.P.P.P.P.P.P.P.P.P.P.P.P.P.P.P.P.P.P.P.P.P.P.P.P.P.P.P.P.P.P.P.P.P.P.P.P.P.P.P.P.P.P.P."
};
