/* XPM */
static char *_627118166464[] = {
/* columns rows colors chars-per-pixel */
"50 50 169 2 ",
"   c #3A1E33",
".  c #7E4823",
"X  c #7C4622",
"o  c #971A00",
"O  c #A30000",
"+  c #A90000",
"@  c #B00000",
"#  c #A53100",
"$  c #AB3400",
"%  c #A73E00",
"&  c #AA3C00",
"*  c #B83700",
"=  c #B33B00",
"-  c #AB4401",
";  c #AE4906",
":  c #AB450B",
">  c #AD4A0D",
",  c #B34400",
"<  c #BC4400",
"1  c #B44A02",
"2  c #BB4B02",
"3  c #B44E0E",
"4  c #B45100",
"5  c #BA5600",
"6  c #BB5C00",
"7  c #B1500F",
"8  c #AE4C13",
"9  c #AD4D1B",
"0  c #AF5017",
"q  c #B35313",
"w  c #BE5611",
"e  c #B55619",
"r  c #B65A1D",
"t  c #BC5B1C",
"y  c #BD6113",
"u  c #834A25",
"i  c #894E25",
"p  c #8E5127",
"a  c #905127",
"s  c #935429",
"d  c #9E5A2B",
"f  c #A95D27",
"g  c #AE5529",
"h  c #A25B2C",
"j  c #A85F2E",
"k  c #B85427",
"l  c #B75C20",
"z  c #B95D20",
"x  c #B55A2C",
"c  c #B85F28",
"v  c #AE5131",
"b  c #AC612E",
"n  c #BC6225",
"m  c #B1632F",
"M  c #BC642A",
"N  c #BE682F",
"B  c #AE6230",
"V  c #B36431",
"C  c #BC6534",
"Z  c #B76832",
"A  c #BE6A33",
"S  c #BD6A3B",
"D  c #C15106",
"F  c #C95000",
"G  c #C45D18",
"H  c #C15A14",
"J  c #C16000",
"K  c #C36121",
"L  c #C16927",
"P  c #C1662A",
"I  c #C66A2D",
"U  c #C8692A",
"Y  c #C77025",
"T  c #C8732C",
"R  c #C16C33",
"E  c #C16E39",
"W  c #C77037",
"Q  c #CA7235",
"!  c #C4713B",
"~  c #CA743B",
"^  c #D1773C",
"/  c #D4783A",
"(  c #D87A3B",
")  c #8C655F",
"_  c #B76949",
"`  c #BE7556",
"'  c #AE7E6D",
"]  c #C67642",
"[  c #C77944",
"{  c #CA7A45",
"}  c #C47749",
"|  c #C9764C",
" . c #C67848",
".. c #CB7D4B",
"X. c #CA7643",
"o. c #D47F45",
"O. c #D87E43",
"+. c #C87F52",
"@. c #E2803E",
"#. c #B78069",
"$. c #B38673",
"%. c #CC804D",
"&. c #D3834E",
"*. c #DA844B",
"=. c #CE8453",
"-. c #D18655",
";. c #D38854",
":. c #DB8A55",
">. c #D28B5C",
",. c #DC8F5B",
"<. c #E2935F",
"1. c #C28167",
"2. c #CD8766",
"3. c #C2876F",
"4. c #CF8A68",
"5. c #D38E61",
"6. c #DA9363",
"7. c #D5926A",
"8. c #C68D76",
"9. c #CD9071",
"0. c #CD957B",
"q. c #C6957C",
"w. c #D59871",
"e. c #D39B7C",
"r. c #DA9E7C",
"t. c #DA9471",
"y. c #E29663",
"u. c #E49866",
"i. c #E89B69",
"p. c #CE9A84",
"a. c #CE9B88",
"s. c #D19F87",
"d. c #D5A58E",
"f. c #DCA78A",
"g. c #DDA482",
"h. c #D4A894",
"j. c #DAAC95",
"k. c #D7B09B",
"l. c #DCB299",
"z. c #E0AD92",
"x. c #DBBBAB",
"c. c #DCB4A3",
"v. c #C7BCB5",
"b. c #D5BEB3",
"n. c #E0B0A7",
"m. c #E4B8A3",
"M. c #E5BEA8",
"N. c #DDC2B4",
"B. c #F1C5AD",
"V. c #E3C4B3",
"C. c #E9CAB7",
"Z. c #E8C5BB",
"A. c #E6C9BB",
"S. c #E9CBBB",
"D. c #F4CAB2",
"F. c #EBCEC3",
"G. c #EDD4C5",
"H. c #EED6CA",
"J. c #F5D6C4",
"K. c #F1DACD",
"L. c #F2DED1",
"P. c #F3E2D5",
"I. c #F5E6DA",
"U. c #F6E9DE",
"Y. c #FAE9DD",
"T. c #FDE3D1",
"R. c #FBEDE2",
"E. c #FEF1E5",
"W. c None",
/* pixels */
"W.W.W.W.W.W.W.W.W.W.W.W.W.W.W.W.W.W.W.W.W.W.W.W.W.W.W.W.W.W.W.W.W.W.W.W.W.W.W.W.W.W.W.W.W.W.W.W.W.W.",
"W.W.W.W.W.W.W.W.W.W.W.W.W.W.W.W.W.W.W.W.W.W.W.W.W.W.W.W.W.W.W.W.W.W.W.W.Q / @.W W.W.W.W.W.W.W.W.W.W.",
"W.W.W.W.W.W.W.W.W.W.W.W.W.W.W.W.W.W.W.W.W.W.W.W.W.W.W.W.W.W.W.W.W.W.W.Q ( E W / W.W.W.W.W.W.W.W.W.W.",
"W.W.W.W.W.W.W.W.W.W.W.W.W.W.W.W.W.W.W.W.W.W.W.W.W.W.W.W.W.W.W.W.W.W.Q ~ A A E W N % - W.W.W.W.W.W.W.",
"W.W.W.W.W.W.W.W.W.W.W.W.W.W.W.W.W.W.W.W.W.W.W.W.W.W.W.W.W.W.W.W.W.Q Q V V V E Q z , 2 - W.W.W.W.W.W.",
"W.W.W.W.W.W.W.W.W.W.W.W.W.W.W.W.W.W.W.W.W.W.W.W.W.W.W.W.W.W.W.W.W.E B h j m A R > & 1 - W.W.W.W.W.W.",
"W.W.W.W.W.W.W.W.W.W.W.W.W.W.W.W.W.W.W.W.W.W.W.W.W.W.W.W.W.W.W.W.E Z d d h B E P % , - W.W.W.W.W.W.W.",
"W.W.W.W.W.W.W.W.W.W.W.W.W.W.W.W.W.W.W.W.W.W.W.W.W.W.W.W.W.W.W.W.Z d s s h V R > - 1 - W.W.W.W.W.W.W.",
"W.W.W.W.W.W.W.W.W.W.W.W.W.W.W.W.W.W.W.W.W.W.W.W.W.W.W.W.W.W.W.Q m p i s h A r , 1 W.W.W.W.W.W.W.W.W.",
"W.W.W.W.W.W.W.W.W.W.W.W.W.W.W.W.W.W.W.W.W.W.W.W.W.W.W.W.W.W.W.A d u u s A z , - W.W.W.W.W.W.W.W.W.W.",
"W.W.W.W.W.W.W.W.W.W.W.W.W.W.W.W.W.W.W.W.W.W.W.W.W.W.W.W.W.W.W.V p X u m z - - W.W.W.W.W.W.W.W.W.W.W.",
"W.W.W.W.W.W.W.W.W.W.W.W.W.W.W.W.W.W.W.W.W.W.W.W.W.W.W.W.W.W.~ b u u f &.] W.W.W.W.W.W.W.W.W.W.W.W.W.",
"W.W.W.W.W.W.W.W.W.W.W.W.W.W.W.W.W.W.W.W.W.W.W.W.W.W.W.W.W...O.V h M ..5.5.W.W.W.W.W.W.W.W.W.W.W.W.W.",
"W.W.W.W.W.W.W.W.W.W.W.W.W.W.W.W.W.W.W.W.W.W.W.W.W.W.W.W.] *.~ W ~ ..>.>.6.>.W.W.W.W.W.W.W.W.W.W.W.W.",
"W.W.W.W.W.W.W.W.W.W.W.W.W.W.W.W.W.W.W.W.W.W.W.W.W.W.W.W.~ ! ] ] ..{ X.-.;.t.4.W.W.W.W.W.W.W.W.W.W.W.",
"W.W.W.W.W.W.W.W.W.W.W.W.W.W.W.W.W.W.W.W.W.W.W.W.W.W.W.I Q E ! [ R 2.x.' | b.) X.W.W.W.W.W.W.W.W.W.W.",
"W.W.W.W.W.W.W.W.W.W.W.W.W.W.W.W.W.W.W.W.W.W.W.W.W.W.W.M I N A } 1 M.v.  g d.#.*.&.W.W.W.W.W.W.W.W.W.",
"W.W.W.W.W.W.W.W.W.W.W.W.W.W.W.W.W.W.W.W.W.W.W.W.W.W.W.z L M M E y 2.x.$.R >.j.S.S.z.W.W.W.W.W.W.W.W.",
"W.W.W.W.W.W.W.W.W.W.W.W.W.W.W.W.W.W.W.W.W.W.W.W.W.W.W.e t z n n A 5 9.m.Z.L.I.U.E.T.w.W.W.W.W.W.W.W.",
"W.W.W.W.W.W.W.W.>.W.W.W.W.W.W.W.W.W.W.W.W.W.W.W.W.W.W.q t r e C 1 e.P.U.U.I.I.K.h.r.r.W.W.W.W.W.W.W.",
"W.W.W.W.W.W.W.;.>.>.>.-.>.W.W.W.W.W.W.W.W.W.W.W.W.W.W.- w q q V , V.U.P.H.P.I.H.+ @ N W.W.W.W.W.W.W.",
"W.W.W.W.W.W.....&.%...;.=.W.W.W.W.W.W.W.W.>.>.>.5.5.6.] 1 > e x = V.I.P.Z.F.H.P.c.1.W.W.W.W.W.W.W.W.",
"W.W.W.W.W.W.] o.X.X.[ { { W.W.W.W...=.;.,.<.<.y.y.u.i.6.C & ; x $ p.Y.R.H.c.P.E.Y.l.W.W.W.W.W.W.W.W.",
"W.W.W.W.W.W.R Q R E E ! ! W.5.>.,.,.&.%.%.=.=.=.=.>.=.>.>.C & 3 0 & h.L.L.K.K.C.q.W.W.W.W.W.W.W.W.W.",
"W.W.W.W.W.W.I M N M N ! ..;.u.6.5.>...[ ....%.=.>.>.>.>.5.>.S - 3 2 = ` a.s.s.l.W.W.W.W.W.W.W.W.W.W.",
"W.W.W.W.W.W.l z r n E ] ..-.>.5.>.5.>.] [ [ =.>.5.7.=.T { <.W.W.W.9 : * O d.Y.P.W.W.W.W.W.W.W.W.W.W.",
"W.W.W.W.W.W.q H r A ! ] ..=.>.5.5.>.>.] ! [ %.=.=.Q -.d.r.%.W.W.W.W.W.W.o N.E.W.W.W.W.W.W.W.W.W.W.W.",
"W.W.W.W.W.W.W.e M A ! ] ..=.>.>.>.5.5.[ E ! { ! ] j.G.E.D.Y W.W.W.W.W.W.W.W.W.W.W.W.W.W.W.W.W.W.W.W.",
"W.W.W.W.; 3 q r P A ! ] %.=.>.>.5.5.>.] E ] L +.S.U.U.I.r.W.W.W.W.W.W.W.W.W.W.W.W.W.W.W.W.W.W.W.W.W.",
"W.W.W.- D q t l n A ! ] ..=.>.5.>.5.5.! 6 n 6 9.I.I.U.B.6 W.W.W.W.W.W.W.W.W.W.W.W.W.W.W.W.W.W.W.W.W.",
"W.W.W.- 1 7 q l M A ! ] ..=.>.>.5.5.! , 9.0.= 0.P.Y.J. .W.W.W.W.W.W.W.W.W.W.W.W.W.W.W.W.W.W.W.W.W.W.",
"W.W.W.- 1 q e l n A ! ] ..=.>.5.>.>.e.x.I.d.+ 0.U.P.7.W.W.W.W.W.W.W.W.W.W.W.W.W.W.W.W.W.W.W.W.W.W.W.",
"W.W.W.- 2 q e z M A ! ] ..=.>.>.&.M.Y.U.I.0.O a.Y.f.= W.W.W.W.W.W.W.W.W.W.W.W.W.W.W.W.W.W.W.W.W.W.W.",
"W.W.W.W.1 7 e z M N ! ! ..=.;.;.M.I.P.P.I.` O 0.l.< 9 W.W.W.W.W.W.W.W.W.W.W.W.W.W.W.W.W.W.W.W.W.W.W.",
"W.W.W.W.; w e l n A ! { ;.*.g.G.U.I.P.Y.P._ # x 4 1 : W.W.W.W.W.W.W.W.W.W.W.W.W.W.W.W.W.W.W.W.W.W.W.",
"W.W.W.W.W.7 e l M M R E W.1 a.R.R.Y.U.R.H.9 & 8 8 2 - W.W.W.W.W.W.W.W.W.W.W.W.W.W.W.W.W.W.W.W.W.W.W.",
"W.W.W.W.W.q G l M r , & W.W.W.3.A.G.G.V.8.& 8 : : F - W.W.W.W.W.W.W.W.W.W.W.W.W.W.W.W.W.W.W.W.W.W.W.",
"W.W.W.W.W.7 G l M N 8 1 W.W.W.W.W.W.W.W.O > , - W.- W.W.W.W.W.W.W.W.W.W.W.W.W.W.W.W.W.W.W.W.W.W.W.W.",
"W.W.W.W.W.W.G l n E c , - W.W.W.W.W.W.v k - 1 - W.W.W.W.W.W.W.W.W.W.W.W.W.W.W.W.W.W.W.W.W.W.W.W.W.W.",
"W.W.W.W.W.q G t n R E 7 , W.W.W.W.W.W.- 2 1 - W.W.W.W.W.W.W.W.W.W.W.W.W.W.W.W.W.W.W.W.W.W.W.W.W.W.W.",
"W.W.W.W.W.7 G l M N ! M - - W.W.W.W.W.W.- - W.W.W.W.W.W.W.W.W.W.W.W.W.W.W.W.W.W.W.W.W.W.W.W.W.W.W.W.",
"W.W.W.W.W.0 G l n N ! X.0 , ; W.W.W.W.W.W.W.W.W.W.W.W.W.W.W.W.W.W.W.W.W.W.W.W.W.W.W.W.W.W.W.W.W.W.W.",
"W.W.W.W.W.W.t t M A E [ S - - W.W.W.W.W.W.W.W.W.W.W.W.W.W.W.W.W.W.W.W.W.W.W.W.W.W.W.W.W.W.W.W.W.W.W.",
"W.W.W.W.W.W.e K n A E ! %.R & W.W.W.W.W.W.W.W.W.W.W.W.W.W.W.W.W.W.W.W.W.W.W.W.W.W.W.W.W.W.W.W.W.W.W.",
"W.W.W.W.W.W.W.K M N ! ! %.:.W.W.W.W.W.W.W.W.W.W.W.W.W.W.W.W.W.W.W.W.W.W.W.W.W.W.W.W.W.W.W.W.W.W.W.W.",
"W.W.W.W.W.W.W.t U A ! ] ..,.W.W.W.W.W.W.W.W.W.W.W.W.W.W.W.W.W.W.W.W.W.W.W.W.W.W.W.W.W.W.W.W.W.W.W.W.",
"W.W.W.W.W.W.W.W.L R E ] ..:.W.W.W.W.W.W.W.W.W.W.W.W.W.W.W.W.W.W.W.W.W.W.W.W.W.W.W.W.W.W.W.W.W.W.W.W.",
"W.W.W.W.W.W.W.W.n Q ! ! :.=.W.W.W.W.W.W.W.W.W.W.W.W.W.W.W.W.W.W.W.W.W.W.W.W.W.W.W.W.W.W.W.W.W.W.W.W.",
"W.W.W.W.W.W.W.W.W.R ^ &.{ W.W.W.W.W.W.W.W.W.W.W.W.W.W.W.W.W.W.W.W.W.W.W.W.W.W.W.W.W.W.W.W.W.W.W.W.W.",
"W.W.W.W.W.W.W.W.W.W.E ! W.W.W.W.W.W.W.W.W.W.W.W.W.W.W.W.W.W.W.W.W.W.W.W.W.W.W.W.W.W.W.W.W.W.W.W.W.W."
};
