/* XPM */
static char *_627051365232[] = {
/* columns rows colors chars-per-pixel */
"50 50 171 2 ",
"   c #7B4622",
".  c #574E57",
"X  c #A40C00",
"o  c #B30E00",
"O  c #A91B00",
"+  c #982700",
"@  c #A32F00",
"#  c #B32C00",
"$  c #AA3500",
"%  c #A63D00",
"&  c #AB3D00",
"*  c #B63600",
"=  c #B03A00",
"-  c #AA4301",
";  c #AD4904",
":  c #AB470B",
">  c #AF4B08",
",  c #B34500",
"<  c #B44902",
"1  c #BC4C02",
"2  c #B04E0D",
"3  c #B84F0D",
"4  c #B45100",
"5  c #BB5600",
"6  c #BB5B00",
"7  c #B2500D",
"8  c #BC520B",
"9  c #AA4612",
"0  c #AC4C1D",
"q  c #B14B17",
"w  c #B35313",
"e  c #B85514",
"r  c #BC5816",
"t  c #B45519",
"y  c #B65A1D",
"u  c #BA5A1C",
"i  c #BE6000",
"p  c #BF640F",
"a  c #BB601B",
"s  c #834A25",
"d  c #8C4F28",
"f  c #8A4E25",
"g  c #8E5027",
"h  c #915227",
"j  c #915228",
"k  c #9A562A",
"l  c #9E592B",
"z  c #AB4D29",
"x  c #A55A27",
"c  c #A35D2D",
"v  c #A95F2D",
"b  c #B25420",
"n  c #B75D24",
"m  c #B95E22",
"M  c #B1562C",
"N  c #BC5328",
"B  c #AA5F3F",
"V  c #AE5533",
"C  c #AD612F",
"Z  c #BB6126",
"A  c #B5612D",
"S  c #BD652B",
"D  c #BF682E",
"F  c #AE6230",
"G  c #B26531",
"H  c #BB6532",
"J  c #BE6A33",
"K  c #C04E02",
"L  c #C1530B",
"P  c #C15B17",
"I  c #C45C19",
"U  c #C26120",
"Y  c #C16927",
"T  c #C26629",
"R  c #C4692D",
"E  c #CC732C",
"W  c #C26D35",
"Q  c #C36E3A",
"!  c #C77036",
"~  c #C97136",
"^  c #C4733C",
"/  c #CC743A",
"(  c #CC7A3B",
")  c #D3773A",
"_  c #D77B3E",
"`  c #D47535",
"'  c #E07E3D",
"]  c #BF7249",
"[  c #A06D5E",
"{  c #AE755F",
"}  c #BD7656",
"|  c #C67642",
" . c #C77845",
".. c #CA7A45",
"X. c #C47649",
"o. c #C77A48",
"O. c #CA7D4B",
"+. c #C77C54",
"@. c #C87856",
"#. c #C27D5B",
"$. c #CF8044",
"%. c #CC814E",
"&. c #D4844D",
"*. c #D98248",
"=. c #DB8145",
"-. c #CE8453",
";. c #C5835F",
":. c #D28653",
">. c #D28856",
",. c #DF8D56",
"<. c #D08758",
"1. c #D28B5D",
"2. c #DC8C59",
"3. c #C28064",
"4. c #CE8A61",
"5. c #CD8361",
"6. c #D48E61",
"7. c #D38C69",
"8. c #D59165",
"9. c #DA9264",
"0. c #D5946B",
"q. c #C78E76",
"w. c #CA947C",
"e. c #C5957D",
"r. c #D29472",
"t. c #D99B78",
"y. c #D49579",
"u. c #E29765",
"i. c #E59967",
"p. c #E79B69",
"a. c #DDA27F",
"s. c #BF9380",
"d. c #D19F88",
"f. c #DBA384",
"g. c #D8A78E",
"h. c #D5A58D",
"j. c #D4AC99",
"k. c #D8AF9A",
"l. c #DBB29C",
"z. c #E4AD8C",
"x. c #E2B39B",
"c. c #DBB4A2",
"v. c #DFB8A2",
"b. c #CCBAB1",
"n. c #EBBDA3",
"m. c #E2BFAB",
"M. c #E5BEB4",
"N. c #E6C2AD",
"B. c #E2C2B0",
"V. c #E7C9B7",
"C. c #EDC9B6",
"Z. c #E7C2B8",
"A. c #E7CCBB",
"S. c #EACDBD",
"D. c #F1CCB9",
"F. c #DFD5CB",
"G. c #E5D0C3",
"H. c #ECD2C3",
"J. c #EED5C9",
"K. c #F9D7C1",
"L. c #F2DACD",
"P. c #F2DED1",
"I. c #F4E2D5",
"U. c #F5E6DA",
"Y. c #FAE6D8",
"T. c #F7E9DE",
"R. c #F8EADE",
"E. c #FAEDE2",
"W. c #FFF3E4",
"Q. c #FFF7EA",
"!. c None",
/* pixels */
"!.!.!.!.!.!.!.!.!.!.!.!.!.!.!.!.!.!.!.!.!.!.!.!.!.!.~ ~ !.!.!.!.!.!.!.!.!.!.!.!.!.!.!.!.!.!.!.!.!.!.",
"!.!.!.!.!.!.!.!.!.!.!.!.!.!.!.!.!.!.!.!.!.!.!.!.!.~ ) ' ~ !.!.!.!.!.!.!.!.!.!.!.!.!.!.!.!.!.!.!.!.!.",
"!.!.!.!.!.!.!.!.!.!.!.!.!.!.!.!.!.!.!.!.!.!.!.!.~ / ! ~ / !.% ; !.!.!.!.!.!.!.!.!.!.!.!.!.!.!.!.!.!.",
"!.!.!.!.!.!.!.!.!.!.!.!.!.!.!.!.!.!.!.!.!.!.!.! ~ G J Q ! q , < !.!.!.!.!.!.!.!.!.!.!.!.!.!.!.!.!.!.",
"!.!.!.!.!.!.!.!.!.!.!.!.!.!.!.!.!.!.!.!.!.!.~ / F F G J W ; - < !.!.!.!.!.!.!.!.!.!.!.!.!.!.!.!.!.!.",
"!.!.!.!.!.!.!.!.!.!.!.!.!.!.!.!.!.!.!.!.!.!.J G c c F Q T % < - !.!.!.!.!.!.!.!.!.!.!.!.!.!.!.!.!.!.",
"!.!.!.!.!.!.!.!.!.!.!.!.!.!.!.!.!.!.!.!.!.!.J l k l F W t % < !.!.!.!.!.!.!.!.!.!.!.!.!.!.!.!.!.!.!.",
"!.!.!.!.!.!.!.!.!.!.!.!.!.!.!.!.!.!.!.!.!.W G g j k G T - < !.!.!.!.!.!.!.!.!.!.!.!.!.!.!.!.!.!.!.!.",
"!.!.!.!.!.!.!.!.!.!.!.!.!.!.!.!.!.!.!.!.!.J x s f c J 3 % !.!.!.!.!.!.!.!.!.!.!.!.!.!.!.!.!.!.!.!.!.",
"!.!.!.!.!.!.!.!.!.!.!.!.!.!.!.!.!.!.!.!.!.A d s d A P - !.!.!.!.!.!.!.!.!.!.!.!.!.!.!.!.!.!.!.!.!.!.",
"!.!.!.!.!.!.!.!.!.!.!.!.!.!.!.!.!.!.!.!.!.F s   c ..q !.!.!.!.!.!.!.!.!.!.!.!.!.!.!.!.!.!.!.!.!.!.!.",
"!.!.!.!.!.!.!.!.!.!.!.!.!.!.!.!.!.!.!.!...v s x O.9.9.!.!.!.!.!.!.!.!.!.!.!.!.!.!.!.!.!.!.!.!.!.!.!.",
"!.!.!.!.!.!.!.!.!.!.!.!.!.!.!.!.!.!.!.O.O.W R ..>.1.u.>.!.!.!.!.!.!.!.!.!.!.!.!.!.!.!.!.!.!.!.!.!.!.",
"!.!.!.!.!.!.!.!.!.!.!.!.!.!.!.!.!.!.^ *.| / ..O.O.>.6.t.#.!.!.!.!.!.!.!.!.!.!.!.!.!.!.!.!.!.!.!.!.!.",
"!.!.!.!.!.!.!.!.!.!.!.!.!.!.!.!.!.!.W / ~ | | O.j.{ <.b.[ E !.!.!.!.!.!.!.!.!.!.!.!.!.!.!.!.!.!.!.!.",
"!.!.!.!.!.!.!.!.!.!.!.!.!.!.!.!.!.!.R J W ^ P y.F.. B 7.;.f.z.!.!.!.!.!.!.!.!.!.!.!.!.!.!.!.!.!.!.!.",
"!.!.!.!.!.!.!.!.!.!.!.!.!.!.!.!.!.!.R S S J D X.c.s.X.f.S.P.E.K.!.!.!.!.!.!.!.!.!.!.!.!.!.!.!.!.!.!.",
"!.!.!.!.!.!.!.!.!.!.!.!.!.!.!.!.!.!.U m Z Z J 6 +.N.J.U.U.E.A.n.r.!.!.!.!.!.!.!.!.!.!.!.!.!.!.!.!.!.",
"!.!.!.!.!.!.!.!.!.!.!.!.!.!.!.!.!.!.r y y m m u S.E.U.U.U.I.M o J !.!.!.!.!.!.!.!.!.!.!.!.!.!.!.!.!.",
"!.!.!.!.!.!.!.!.!.!.!.!.!.!.!.!.!.!.7 r t y 4 X.P.U.J.H.P.I.j.@.!.!.!.!.!.!.!.!.!.!.!.!.!.!.!.!.!.!.",
"!.!.!.!.!.!.!.!.!.!.!.!.!.!.!.!.!.!.!.8 2 t 7 y J.E.L.M.Z.U.Q.N.!.!.!.!.!.!.!.!.!.!.!.!.!.!.!.!.!.!.",
"!.!.!.!.!.!.!.!.!.!.!.!.!.!.!.!.!.!.!.- < ; b & w.I.T.J.L.I.j.!.!.!.!.!.!.!.!.!.!.!.!.!.!.!.!.!.!.!.",
"!.!.!.!.!.!.!.!.!.!.!.!.!.!.!.!.!.!.!.1.Q % & ; & 3.c.B.k.x.e.!.!.!.!.!.!.!.!.!.!.!.!.!.!.!.!.!.!.!.",
"!.!.!.!.!.!.!.!.!.!.!.!.!.!.!.!.!.!.1.p.6.O.H M 0 * # $ h.W.T.!.!.!.!.!.!.!.!.!.!.!.!.!.!.!.!.!.!.!.",
"!.!.!.!.!.!.!.!.!.!.!.!.!.!.!.!.!.1.u.1.1.1.%.E !.!.b + G.W.!.!.!.!.!.!.!.!.!.!.!.!.!.!.!.!.!.!.!.!.",
"!.!.!.!.!.!.!.!.!.!.!.!.!.!.!.!.1.i.1.>.1...0.N...!.!.!.!.!.!.!.!.!.!.!.!.!.!.!.!.!.!.!.!.!.!.!.!.!.",
"!.!.!.!.!.!.!.!.!.!.!.!.!.!.!.!.u.1.-.1.8.( N.R.f.!.!.!.!.!.!.!.!.!.!.!.!.!.!.!.!.!.!.!.!.!.!.!.!.!.",
"!.!.!.!.!.!.!.!.!.!.!.!.!.!.!.1.1.-.-.1.1.%.H.E.D.K !.!.!.!.!.!.!.!.!.!.!.!.!.!.!.!.!.!.!.!.!.!.!.!.",
"!.!.!.!.!.!.!.!.!.!.!.!.!.!.<.2.-.%.%.1...4.I.T.P.X.!.!.!.!.!.!.!.!.!.!.!.!.!.!.!.!.!.!.!.!.!.!.!.!.",
"!.!.!.!.!.!.!.!.!.!.!.!.!.!.-.:.%.....-...+.V.R.T.r.$ z !.!.!.!.!.!.!.!.!.!.!.!.!.!.!.!.!.!.!.!.!.!.",
"!.!.!.!.!.!.!.!.!.!.!.!.!.!.:..... .J  .o.T W k.U.m.* N - !.!.!.!.!.!.!.!.!.!.!.!.!.!.!.!.!.!.!.!.!.",
"!.!.!.!.!.!.!.!.!.!.!.!.!.%.:.-.-.-.-.J T | 5 , q.h.4 9 K - !.!.!.!.!.!.!.!.!.!.!.!.!.!.!.!.!.!.!.!.",
"!.!.!.!.!.!.!.!.!.!.!.!.!.O.6.6.8.1.1.1.i h.m.y @ e t % - < !.!.!.!.!.!.!.!.!.!.!.!.!.!.!.!.!.!.!.!.",
"!.!.!.!.!.!.!.6.!.>.O.!.!.2.6.1.1.6.8.0.( v.E.S.} X 9 - - !.!.!.!.!.!.!.!.!.!.!.!.!.!.!.!.!.!.!.!.!.",
"!.!.!.!.!.!.!.1.1.O.&.^ ! 2.6.1.6.1.1.8.>.t.P.R.P.w.$ q - - !.!.!.!.!.!.!.!.!.!.!.!.!.!.!.!.!.!.!.!.",
"!.!.!.!.!.!.1.>.:.../ ~ ~ %.-.1.1.1.6.4.0.$.N.U.E.H.$ 9 : 1 - !.!.!.!.!.!.!.!.!.!.!.!.!.!.!.!.!.!.!.",
"!.!.!.!.!.!.>.2.o.^ J S J o.O.-.-.<.<.1.8.%.f.U.T.c.!.V 1 - - !.!.!.!.!.!.!.!.!.!.!.!.!.!.!.!.!.!.!.",
"!.!.!.!.!.!.-...^ ^ D Z S | o.o.%.%.-.<.1.1.0.L.E.q.!.!.< 1 - !.!.!.!.!.!.!.!.!.!.!.!.!.!.!.!.!.!.!.",
"!.!.!.!.!.!.O...Q D Z n Z J ^ ^  ...O.%.-.>.1.Y.A.!.!.!.!.- !.!.!.!.!.!.!.!.!.!.!.!.!.!.!.!.!.!.!.!.",
"!.!.!.!.!.!.!.W ` Z a w t S W W ^ ^  ...%...9.C.!.!.!.!.!.!.!.!.!.!.!.!.!.!.!.!.!.!.!.!.!.!.!.!.!.!.",
"!.!.!.!.!.!.!.!.Z U P 8 < r R J J W ^ ^  ...+.!.!.!.!.!.!.!.!.!.!.!.!.!.!.!.!.!.!.!.!.!.!.!.!.!.!.!.",
"!.!.!.!.!.!.!.!.!.!.w ; - !.m T S D J W ^ ..J @ 0 - ; - - - $ !.!.!.!.!.!.!.!.!.!.!.!.!.!.!.!.!.!.!.",
"!.!.!.!.!.!.!.!.!.!.!.!.!.!.!.U m Z S D D W w , < , , , ; < m !.!.!.!.!.!.!.!.!.!.!.!.!.!.!.!.!.!.!.",
"!.!.!.!.!.!.!.!.!.!.!.!.!.!.w t y y u Z S S t n A n H J Q o.O.2.<.!.!.!.!.!.!.!.!.!.!.!.!.!.!.!.!.!.",
"!.!.!.!.!.!.!.!.!.!.!.!.!.; L 2 w w t u Z Z S J W W ^ ^ | o...O.2.%.!.!.!.!.!.!.!.!.!.!.!.!.!.!.!.!.",
"!.!.!.!.!.!.!.!.!.!.!.!.!.!.; 1 2 2 7 t r y u m Z S S W W ^ ^ | ..&.!.!.!.!.!.!.!.!.!.!.!.!.!.!.!.!.",
"!.!.!.!.!.!.!.!.!.!.!.!.!.!.!.- ; ; ; 2 7 t I u m m S S S W W ~ ^ ..o.!.!.!.!.!.!.!.!.!.!.!.!.!.!.!.",
"!.!.!.!.!.!.!.!.!.!.!.!.!.!.!.!.!.!.!.!.!.!.7 t I u y m Z T W W ) _ !.!.!.!.!.!.!.!.!.!.!.!.!.!.!.!.",
"!.!.!.!.!.!.!.!.!.!.!.!.!.!.!.!.!.!.!.!.!.!.!.!.w w t r m m Z S S !.!.!.!.!.!.!.!.!.!.!.!.!.!.!.!.!.",
"!.!.!.!.!.!.!.!.!.!.!.!.!.!.!.!.!.!.!.!.!.!.!.!.!.!.!.!.!.!.!.!.!.!.!.!.!.!.!.!.!.!.!.!.!.!.!.!.!.!."
};
