/* XPM */
static char *_627118101914[] = {
/* columns rows colors chars-per-pixel */
"50 50 170 2 ",
"   c #7D4722",
".  c #7F4924",
"X  c #564D56",
"o  c #AA0000",
"O  c #A90D00",
"+  c #A52B00",
"@  c #A03200",
"#  c #AE3400",
"$  c #A63D00",
"%  c #A93F00",
"&  c #B03800",
"*  c #AB4401",
"=  c #AC4906",
"-  c #A9460A",
";  c #AF4B0A",
":  c #B44400",
">  c #B44A00",
",  c #BB4C02",
"<  c #B14E0E",
"1  c #B25000",
"2  c #BB5404",
"3  c #BE5E00",
"4  c #B4500D",
"5  c #BC520C",
"6  c #BC5F0F",
"7  c #AF4C10",
"8  c #AE4E1C",
"9  c #B44D15",
"0  c #B35313",
"q  c #B95410",
"w  c #BA5917",
"e  c #B45519",
"r  c #B65A1C",
"t  c #BA5C1C",
"y  c #BF6200",
"u  c #BE641F",
"i  c #854B25",
"p  c #8E5027",
"a  c #8E5128",
"s  c #945429",
"d  c #98562A",
"f  c #9B582B",
"g  c #98533B",
"h  c #A15927",
"j  c #A25B2C",
"k  c #A95C28",
"l  c #B25522",
"z  c #B55B24",
"x  c #BA5E22",
"c  c #B0532D",
"v  c #B85F2B",
"b  c #AB612E",
"n  c #BB6126",
"m  c #BF6827",
"M  c #BD652B",
"N  c #BF682E",
"B  c #A76030",
"V  c #B26531",
"C  c #BA6734",
"Z  c #B76832",
"A  c #BE6A32",
"S  c #B8663F",
"D  c #BE6B3D",
"F  c #C34E00",
"G  c #CD5303",
"H  c #C05711",
"J  c #C35913",
"K  c #C25D19",
"L  c #C85F19",
"P  c #C56100",
"I  c #C16711",
"U  c #C0671D",
"Y  c #C26223",
"T  c #C86322",
"R  c #C3662A",
"E  c #C76C2F",
"W  c #CB6B2C",
"Q  c #C5702F",
"!  c #C26D34",
"~  c #C86D31",
"^  c #C36F39",
"/  c #C77136",
"(  c #CA7236",
")  c #CB7831",
"_  c #C4723B",
"`  c #CA753B",
"'  c #CB7A3B",
"]  c #D27639",
"[  c #DC7C3C",
"{  c #BF7A5C",
"}  c #C57542",
"|  c #C87745",
" . c #C77844",
".. c #CA7A45",
"X. c #C6754A",
"o. c #C77C4D",
"O. c #CA7D4A",
"+. c #D17B43",
"@. c #D07F4A",
"#. c #C77D52",
"$. c #CD7E53",
"%. c #C27D5B",
"&. c #BC8368",
"*. c #CC814E",
"=. c #D1834C",
"-. c #CE8453",
";. c #C5815E",
":. c #CF845D",
">. c #CE8959",
",. c #D28656",
"<. c #D98751",
"1. c #D48956",
"2. c #DB8953",
"3. c #D18758",
"4. c #D28B5D",
"5. c #D88F5E",
"6. c #E08E58",
"7. c #E1915C",
"8. c #C58566",
"9. c #CF8A60",
"0. c #C98463",
"q. c #D38E61",
"w. c #D59064",
"e. c #DC9363",
"r. c #D4926C",
"t. c #DF9869",
"y. c #CA947B",
"u. c #D59B7D",
"i. c #D29173",
"p. c #E19562",
"a. c #E49866",
"s. c #9E8A86",
"d. c #BD9282",
"f. c #BE9F92",
"g. c #DAA282",
"h. c #DBAD93",
"j. c #D9AD99",
"k. c #DDB29C",
"l. c #E3B39A",
"z. c #E7B99E",
"x. c #D6B7A5",
"c. c #D9B9AB",
"v. c #DFBFB0",
"b. c #E0B7A0",
"n. c #E5BBA5",
"m. c #EABBA6",
"M. c #E4C0AE",
"N. c #F0C2AB",
"B. c #E5C4B4",
"V. c #E8C7B5",
"C. c #E7C2B8",
"Z. c #E9C6BC",
"A. c #EACDBC",
"S. c #FCD5BE",
"D. c #ECCFC4",
"F. c #EDD2C3",
"G. c #EDD3C8",
"H. c #EED8CB",
"J. c #E2D4CA",
"K. c #F1DBCF",
"L. c #F2DED1",
"P. c #F4E1D5",
"I. c #FEE7D7",
"U. c #F5E5D9",
"Y. c #F7E8DD",
"T. c #FAEBDE",
"R. c #F9ECE1",
"E. c #FEF2E5",
"W. c #FCF3EA",
"Q. c None",
/* pixels */
"Q.Q.Q.Q.Q.Q.Q.Q.Q.Q.Q.Q.Q.Q.Q.Q.Q.Q.Q.Q.Q.Q.Q.Q.Q.Q.Q.Q.Q.Q.Q.Q.Q.Q.Q.Q.Q.Q.Q.Q.Q.Q.Q.Q.Q.Q.Q.Q.Q.Q.",
"Q.Q.Q.Q.Q.Q.Q.Q.Q.Q.Q.Q.Q.Q.Q.Q.Q.Q.Q.Q.Q.Q.Q.Q.Q.Q.Q.Q.Q.Q.Q.Q.Q.Q.Q.Q.Q.Q.Q.Q.Q.Q.Q.Q.Q.Q.Q.Q.Q.Q.",
"Q.Q.Q.Q.Q.Q.Q.Q.Q.Q.Q.Q.Q.Q.Q.Q.Q.Q.Q.Q.Q.Q.Q.Q.Q.Q.Q.Q.Q.Q.Q.Q.Q./ ] ] Q.Q.Q.Q.Q.Q.Q.Q.Q.Q.Q.Q.Q.Q.",
"Q.Q.Q.Q.Q.Q.Q.Q.Q.Q.Q.Q.Q.Q.Q.Q.Q.Q.Q.Q.Q.Q.Q.Q.Q.Q.Q.Q.Q.Q.Q.Q./ ] / +.` Q.Q.Q.Q.Q.Q.Q.Q.Q.Q.Q.Q.Q.",
"Q.Q.Q.Q.Q.Q.Q.Q.Q.Q.Q.Q.Q.Q.Q.Q.Q.Q.Q.Q.Q.Q.Q.Q.Q.Q.Q.Q.Q.Q.Q./ / A A / ! 7 * * Q.Q.Q.Q.Q.Q.Q.Q.Q.Q.",
"Q.Q.Q.Q.Q.Q.Q.Q.Q.Q.Q.Q.Q.Q.Q.Q.Q.Q.Q.Q.Q.Q.Q.Q.Q.Q.Q.Q.Q.Q./ / V V C / ~ > * , Q.Q.Q.Q.Q.Q.Q.Q.Q.Q.",
"Q.Q.Q.Q.Q.Q.Q.Q.Q.Q.Q.Q.Q.Q.Q.Q.Q.Q.Q.Q.Q.Q.Q.Q.Q.Q.Q.Q.Q.Q.` b b b V ^ v % * = Q.Q.Q.Q.Q.Q.Q.Q.Q.Q.",
"Q.Q.Q.Q.Q.Q.Q.Q.Q.Q.Q.Q.Q.Q.Q.Q.Q.Q.Q.Q.Q.Q.Q.Q.Q.Q.Q.Q.Q.! V j j j V ^ w % , * Q.Q.Q.Q.Q.Q.Q.Q.Q.Q.",
"Q.Q.Q.Q.Q.Q.Q.Q.Q.Q.Q.Q.Q.Q.Q.Q.Q.Q.Q.Q.Q.Q.Q.Q.Q.Q.Q.Q.Q.! f d d j C R - : * Q.Q.Q.Q.Q.Q.Q.Q.Q.Q.Q.",
"Q.Q.Q.Q.Q.Q.Q.Q.Q.Q.Q.Q.Q.Q.Q.Q.Q.Q.Q.Q.Q.Q.Q.Q.Q.Q.Q.Q./ C p p s B A 0 : * Q.Q.Q.Q.Q.Q.Q.Q.Q.Q.Q.Q.",
"Q.Q.Q.Q.Q.Q.Q.Q.Q.Q.Q.Q.Q.Q.Q.Q.Q.Q.Q.Q.Q.Q.Q.Q.Q.Q.Q.Q.! j i i d C x : - Q.Q.Q.Q.Q.Q.Q.Q.Q.Q.Q.Q.Q.",
"Q.Q.Q.Q.Q.Q.Q.Q.Q.Q.Q.Q.Q.Q.Q.Q.Q.Q.Q.Q.Q.Q.Q.Q.Q.Q.Q.Q.Z p   i k x % - Q.Q.Q.Q.Q.Q.Q.Q.Q.Q.Q.Q.Q.Q.",
"Q.Q.Q.Q.Q.Q.Q.Q.Q.Q.Q.Q.Q.Q.Q.Q.Q.Q.Q.Q.Q.Q.Q.Q.Q.Q.Q.Q.V i   f ..^ Q.Q.Q.Q.Q.Q.Q.Q.Q.Q.Q.Q.Q.Q.Q.Q.",
"Q.Q.Q.Q.Q.Q.Q.Q.Q.Q.Q.Q.Q.Q.Q.Q.Q.Q.Q.Q.Q.Q.Q.Q.Q.Q.Q...b a k } e.e.Q.Q.Q.Q.Q.Q.Q.Q.Q.Q.Q.Q.Q.Q.Q.Q.",
"Q.Q.Q.Q.Q.Q.Q.Q.Q.Q.Q.Q.Q.Q.Q.Q.Q.Q.Q.Q.Q.Q.Q.Q.Q.Q.O.+.~ ! +.4.4.e.2.Q.Q.Q.Q.Q.Q.Q.Q.Q.Q.Q.Q.Q.Q.Q.",
"Q.Q.Q.Q.Q.Q.Q.Q.Q.Q.Q.Q.Q.Q.Q.Q.Q.Q.Q.Q.Q.Q.Q.Q.Q._ +.} ` ..O.` 3.1.r.0.Q.Q.Q.Q.Q.Q.Q.Q.Q.Q.Q.Q.Q.Q.",
"Q.Q.Q.Q.Q.Q.Q.Q.Q.Q.Q.Q.Q.Q.Q.Q.Q.Q.Q.Q.Q.Q.Q.Q.Q./ ^ _ } _ ..j.d.^ c.s.N Q.Q.Q.Q.Q.Q.Q.Q.Q.Q.Q.Q.Q.",
"Q.Q.Q.Q.Q.Q.Q.Q.Q.Q.Q.Q.Q.Q.Q.Q.Q.Q.Q.Q.Q.Q.Q.Q.M E ! A ^ u i.J.X g u.&.` t.) Q.Q.Q.Q.Q.Q.Q.Q.Q.Q.Q.",
"Q.Q.Q.Q.Q.Q.Q.Q.Q.Q.Q.Q.Q.Q.Q.Q.Q.Q.Q.Q.Q.Q.Q.Q.x R M N A m X.v.f.z *.k.F.L.F.Q.Q.Q.Q.Q.Q.Q.Q.Q.Q.Q.",
"Q.Q.Q.Q.Q.Q.Q.Q.Q.Q.Q.Q.Q.Q.Q.Q.Q.Q.Q.Q.Q.Q.Q.Q.r K x n m N w ^ k.V.K.U.Y.Y.I.h.Q.Q.Q.Q.Q.Q.Q.Q.Q.Q.",
"Q.Q.Q.Q.Q.Q.Q.Q.Q.Q.Q.Q.Q.Q.Q.Q.Q.Q.Q.Q.Q.Q.Q.Q.4 u e r n u n B.Y.U.Y.U.Y.j.Y #.Q.Q.Q.Q.Q.Q.Q.Q.Q.Q.",
"Q.Q.Q.Q.Q.Q.Q.Q.Q.Q.Q.Q.Q.Q.Q.Q.Q.Q.Q.Q.Q.Q.Q.Q.Q.0 e e z > ;.P.U.L.K.P.U.y.o 0 Q.Q.Q.Q.Q.Q.Q.Q.Q.Q.",
"Q.Q.Q.Q.Q.Q.Q.Q.Q.Q.Q.Q.Q.Q.Q.Q.Q.Q.Q.Q.Q.Q.Q.Q.Q.* 2 0 e > %.P.U.G.C.D.P.P.m.Q.Q.Q.Q.Q.Q.Q.Q.Q.Q.Q.",
"Q.Q.Q.Q.Q.Q.Q.Q.Q.Q.Q.Q.Q.Q.Q.Q.Q.Q.Q.Q.Q.Q.Q.Q.Q. .= * 0 = 1 B.R.U.Z.C.Y.E.B.Q.Q.Q.Q.Q.Q.Q.Q.Q.Q.Q.",
"Q.Q.Q.Q.Q.Q.Q.Q.Q.Q.Q.Q.Q.Q.Q.Q.Q.Q.Q.Q.Q.4.q.4.a.t. .% * 9 * S B.L.K.K.A.y.Q.Q.Q.Q.Q.Q.Q.Q.Q.Q.Q.Q.",
"Q.Q.Q.Q.Q.Q.Q.Q.Q.Q.Q.Q.Q.Q.Q.Q.Q.Q.4.4.p.a.5.4.4.4.q.o.l * 9 : & { y.8.N.x.Q.Q.Q.Q.Q.Q.Q.Q.Q.Q.Q.Q.",
"Q.Q.Q.Q.Q.Q.4.Q.4.Q.Q.Q.Q.Q.Q.Q.Q.-.7.1.>.-.>.-.-.>.4.5.3.Q.% 8 c O @ B.E.T.Q.Q.Q.Q.Q.Q.Q.Q.Q.Q.Q.Q.",
"Q.Q.Q.Q.Q.Q.4.4.,.,.,.Q.Q.Q.Q.o.2.<.-.*.*.*.*.>.4.O.' =.,.Q.Q.Q.Q.Q.Q.H.Q.Q.Q.Q.Q.Q.Q.Q.Q.Q.Q.Q.Q.Q.",
"Q.Q.Q.Q.Q.1.-.2.o.=.O...Q.Q.O.2.O. .O.O.*. .*.q.4.>.k.z.` Q.Q.Q.Q.Q.Q.Q.Q.Q.Q.Q.Q.Q.Q.Q.Q.Q.Q.Q.Q.Q.",
"Q.Q.Q.Q.Q.O.O. . ._ +.^ Q.-.p.4.>.,.o.}  .} *.r.' n.W.A.P * - Q.Q.Q.Q.Q.Q.Q.Q.Q.Q.Q.Q.Q.Q.Q.Q.Q.Q.Q.",
"Q.Q.Q.Q.Q._ ' _ ! ! ! A ,.e.w.q.q.q.4.-._ _ } *.*.u.K.l.> - G : * * Q.Q.Q.Q.Q.Q.Q.Q.Q.Q.Q.Q.Q.Q.Q.Q.",
"Q.Q.Q.Q.Q.! ` R N M n / 4.4.4.4.q.4.q.4.-.u  .r./ y o.$.Q.Q.Q.* , , * Q.Q.Q.Q.Q.Q.Q.Q.Q.Q.Q.Q.Q.Q.Q.",
"Q.Q.Q.Q.Q.M W x x x n _ >.4.4.4.q.q.4.q.q.y k.L.k.o.y n n r Q.Q.* F , Q.Q.Q.Q.Q.Q.Q.Q.Q.Q.Q.Q.Q.Q.Q.",
"Q.Q.Q.Q.Q.Q.t w 0 r n D *.>.4.4.4.q.4.w.*.g.P.Y.U.L.y.2 T L < = * * Q.Q.Q.Q.Q.Q.Q.Q.Q.Q.Q.Q.Q.Q.Q.Q.",
"Q.Q.Q.Q.Q.Q.< J = e r A *.*.*.-.-.4.4.w.*.g.P.P.U.U.>.Q.Q.0 , , * * * Q.Q.Q.Q.Q.Q.Q.Q.Q.Q.Q.Q.Q.Q.Q.",
"Q.Q.Q.Q.Q.Q.Q.= : 5 w M _  . .*.-.-.>.4.1.w.H.U.T.n.> Q.Q.Q.Q.* > * , * Q.Q.Q.Q.Q.Q.Q.Q.Q.Q.Q.Q.Q.Q.",
"Q.Q.Q.Q.Q.Q.Q.Q.Q.Q.4 Y _ _ _  .*.*.*.>.-.4.A.R.K.$.Q.Q.Q.Q.Q.Q.* * * > * Q.Q.Q.Q.Q.Q.Q.Q.Q.Q.Q.Q.Q.",
"Q.Q.Q.Q.Q.Q.Q.Q.Q.Q.Q.0 ~ _ _ _ _ }  .*...-.F.W.l.# Q.Q.Q.Q.Q.Q.Q.* , > * Q.Q.Q.Q.Q.Q.Q.Q.Q.Q.Q.Q.Q.",
"Q.Q.Q.Q.Q.Q.Q.Q.Q.Q.Q.Q.n ~ A A _ _ _ o.E >.L.n.# Q.Q.Q.Q.Q.Q.Q.Q.Q.* * * Q.Q.Q.Q.Q.Q.Q.Q.Q.Q.Q.Q.Q.",
"Q.Q.Q.Q.Q.Q.Q.Q.Q.Q.Q.Q.Q.M m N N A _ _ u g.j.* Q.Q.Q.= * % Q.Q.Q.Q.Q.Q.Q.Q.Q.Q.Q.Q.Q.Q.Q.Q.Q.Q.Q.Q.",
"Q.Q.Q.Q.Q.Q.Q.Q.Q.Q.Q.Q.Q.r Y n M M N A _ C + $ 9 : : : : , 8 Q.Q.Q.Q.Q.Q.Q.Q.Q.Q.Q.Q.Q.Q.Q.Q.Q.Q.Q.",
"Q.Q.Q.Q.Q.Q.Q.Q.Q.Q.Q.Q.Q.0 r r z n n N m = l z e l z v ! _ *.1.Q.Q.Q.Q.Q.Q.Q.Q.Q.Q.Q.Q.Q.Q.Q.Q.Q.Q.",
"Q.Q.Q.Q.Q.Q.Q.Q.Q.Q.Q.Q.; q 0 0 e r x n n N A ! ! ^ }  .O.O.-.2.-.Q.Q.Q.Q.Q.Q.Q.Q.Q.Q.Q.Q.Q.Q.Q.Q.Q.",
"Q.Q.Q.Q.Q.Q.Q.Q.Q.Q.Q.Q.= , ; 0 0 0 w r z n n M R ! ! ^ _ _ }  .<.*.Q.Q.Q.Q.Q.Q.Q.Q.Q.Q.Q.Q.Q.Q.Q.Q.",
"Q.Q.Q.Q.Q.Q.Q.Q.Q.Q.Q.Q.Q.* , , 5 5 J J K r r x n M N N ! _ / } ..O.Q.Q.Q.Q.Q.Q.Q.Q.Q.Q.Q.Q.Q.Q.Q.Q.",
"Q.Q.Q.Q.Q.Q.Q.Q.Q.Q.Q.Q.Q.Q.Q.* * = ; < 0 0 K r z x n M M ! A _ / ..Q.Q.Q.Q.Q.Q.Q.Q.Q.Q.Q.Q.Q.Q.Q.Q.",
"Q.Q.Q.Q.Q.Q.Q.Q.Q.Q.Q.Q.Q.Q.Q.Q.Q.Q.Q.Q.Q.Q.4 0 K K t Y R W W ( ] ! Q.Q.Q.Q.Q.Q.Q.Q.Q.Q.Q.Q.Q.Q.Q.Q.",
"Q.Q.Q.Q.Q.Q.Q.Q.Q.Q.Q.Q.Q.Q.Q.Q.Q.Q.Q.Q.Q.Q.Q.Q.0 0 0 r w n n Q.Q.Q.Q.Q.Q.Q.Q.Q.Q.Q.Q.Q.Q.Q.Q.Q.Q.Q.",
"Q.Q.Q.Q.Q.Q.Q.Q.Q.Q.Q.Q.Q.Q.Q.Q.Q.Q.Q.Q.Q.Q.Q.Q.Q.Q.Q.Q.Q.Q.Q.Q.Q.Q.Q.Q.Q.Q.Q.Q.Q.Q.Q.Q.Q.Q.Q.Q.Q.Q.",
"Q.Q.Q.Q.Q.Q.Q.Q.Q.Q.Q.Q.Q.Q.Q.Q.Q.Q.Q.Q.Q.Q.Q.Q.Q.Q.Q.Q.Q.Q.Q.Q.Q.Q.Q.Q.Q.Q.Q.Q.Q.Q.Q.Q.Q.Q.Q.Q.Q.Q."
};
