/* XPM */
static char *_627118175876[] = {
/* columns rows colors chars-per-pixel */
"50 50 168 2 ",
"   c #7D4722",
".  c #AB0000",
"X  c #882800",
"o  c #9A2400",
"O  c #9E3D00",
"+  c #A52D00",
"@  c #A53400",
"#  c #AC3400",
"$  c #A63C00",
"%  c #AB3D00",
"&  c #B23700",
"*  c #B23F00",
"=  c #AA4401",
"-  c #AE4A04",
";  c #AA4608",
":  c #AE4C0B",
">  c #B24500",
",  c #B84700",
"<  c #B34A02",
"1  c #BB4C02",
"2  c #B24D0C",
"3  c #B45200",
"4  c #BD5300",
"5  c #BC5E03",
"6  c #B2510E",
"7  c #BB540E",
"8  c #B95C0B",
"9  c #AD4B12",
"0  c #AB4615",
"q  c #B34D13",
"w  c #AF5019",
"e  c #B45413",
"r  c #BB5714",
"t  c #B4551A",
"y  c #B65A1C",
"u  c #B9591A",
"i  c #BC6000",
"p  c #BD620E",
"a  c #BE621B",
"s  c #834B25",
"d  c #8A4E25",
"f  c #8E5127",
"g  c #925328",
"h  c #98562A",
"j  c #9C592B",
"k  c #AB4B21",
"l  c #A55D2D",
"z  c #A95F2E",
"x  c #A35724",
"c  c #B05220",
"v  c #B65A23",
"b  c #B95E22",
"n  c #B45C2B",
"m  c #B85F2D",
"M  c #B0532C",
"N  c #B45D33",
"B  c #AC612F",
"V  c #BA6125",
"C  c #B0632F",
"Z  c #BD652B",
"A  c #BF682F",
"S  c #AF6431",
"D  c #B46531",
"F  c #BA6431",
"G  c #BD6A33",
"H  c #BE6A39",
"J  c #C34E00",
"K  c #C05610",
"L  c #C35E1A",
"P  c #C1660C",
"I  c #C7611C",
"U  c #C36425",
"Y  c #C86726",
"T  c #C1652B",
"R  c #C46A2C",
"E  c #CB6A29",
"W  c #C26D34",
"Q  c #C96D30",
"!  c #C26F39",
"~  c #C77037",
"^  c #C97136",
"/  c #C4733D",
"(  c #CA743B",
")  c #C9783E",
"_  c #D2773A",
"`  c #D2793D",
"'  c #DB7C3C",
"]  c #B66544",
"[  c #B1704E",
"{  c #BA7056",
"}  c #C57542",
"|  c #C77944",
" . c #CA7A45",
".. c #C87749",
"X. c #C77B4A",
"o. c #CA7D4A",
"O. c #C77648",
"+. c #D37D47",
"@. c #C27F5F",
"#. c #C37B54",
"$. c #B58875",
"%. c #CD814E",
"&. c #D88546",
"*. c #D2824C",
"=. c #DF874D",
"-. c #CE8453",
";. c #C78059",
":. c #CC8359",
">. c #D28654",
",. c #D48855",
"<. c #D88A57",
"1. c #D08758",
"2. c #D38B5D",
"3. c #DC8D5A",
"4. c #E2925C",
"5. c #CD8D6B",
"6. c #D48F61",
"7. c #D08E6A",
"8. c #D59164",
"9. c #DC9363",
"0. c #D3926E",
"q. c #CE8F72",
"w. c #C68E79",
"e. c #CD967D",
"r. c #D59979",
"t. c #DE9E78",
"y. c #E09666",
"u. c #8E8988",
"i. c #978D8B",
"p. c #A5958F",
"a. c #CD9780",
"s. c #D6A184",
"d. c #D4A28A",
"f. c #DEAD91",
"g. c #D8AF9B",
"h. c #D4A995",
"j. c #DFB094",
"k. c #E9A983",
"l. c #E5B094",
"z. c #E1B39A",
"x. c #DDB5A1",
"c. c #E2B7A5",
"v. c #E2BDA9",
"b. c #E4BCB2",
"n. c #E5C2AD",
"m. c #E3C3B1",
"M. c #E7C3B9",
"N. c #E9C6BD",
"B. c #EACCBB",
"V. c #F0CEBC",
"C. c #EBD0BF",
"Z. c #EACDC0",
"A. c #E7D1C4",
"S. c #EDD3C3",
"D. c #EED7CA",
"F. c #EFD9CD",
"G. c #F3D7C6",
"H. c #F1DBCD",
"J. c #F2DED2",
"K. c #FFE1CE",
"L. c #F4E3D6",
"P. c #FDE4D5",
"I. c #F6E6DA",
"U. c #F6E9DD",
"Y. c #F9E9DD",
"T. c #F7EBE0",
"R. c #FAECE1",
"E. c None",
/* pixels */
"E.E.E.E.E.E.E.E.E.E.E.E.E.E.E.E.E.E.E.E.E.E.E.E.E.E.E.E.E.E.E.E.E.E.E.E.E.E.E.E.E.E.E.E.E.E.E.E.E.E.",
"E.E.E.E.E.E.E.E.E.E.E.E.E.E.E.E.E.E.E.E.E.E.E.E.E.E.E.E.E.E.E.E.E.E.E.E.E.~ E.E.E.E.E.E.E.E.E.E.E.E.",
"E.E.E.E.E.E.E.E.E.E.E.E.E.E.E.E.E.E.E.E.E.E.E.E.E.E.E.E.E.E.E.E.E.E.E.E.^ ' ' E.E.E.E.E.E.E.E.E.E.E.",
"E.E.E.E.E.E.E.E.E.E.E.E.E.E.E.E.E.E.E.E.E.E.E.E.E.E.E.E.E.E.E.E.E.E.~ ' ~ ~ ( ^ E.E.E.E.E.E.E.E.E.E.",
"E.E.E.E.E.E.E.E.E.E.E.E.E.E.E.E.E.E.E.E.E.E.E.E.E.E.E.E.E.E.E.E.E.^ _ H F W ^ Q = = = E.E.E.E.E.E.E.",
"E.E.E.E.E.E.E.E.E.E.E.E.E.E.E.E.E.E.E.E.E.E.E.E.E.E.E.E.E.E.E.E.E.~ D C D G / T = 1 = E.E.E.E.E.E.E.",
"E.E.E.E.E.E.E.E.E.E.E.E.E.E.E.E.E.E.E.E.E.E.E.E.E.E.E.E.E.E.E.E.W H l B S D / t % - = E.E.E.E.E.E.E.",
"E.E.E.E.E.E.E.E.E.E.E.E.E.E.E.E.E.E.E.E.E.E.E.E.E.E.E.E.E.E.E.E.W j j j l H R = = 1 E.E.E.E.E.E.E.E.",
"E.E.E.E.E.E.E.E.E.E.E.E.E.E.E.E.E.E.E.E.E.E.E.E.E.E.E.E.E.E.E.W D g g j z W t % 1 = E.E.E.E.E.E.E.E.",
"E.E.E.E.E.E.E.E.E.E.E.E.E.E.E.E.E.E.E.E.E.E.E.E.E.E.E.E.E.E.E.D j s f h H b = 1 = E.E.E.E.E.E.E.E.E.",
"E.E.E.E.E.E.E.E.E.E.E.E.E.E.E.E.E.E.E.E.E.E.E.E.E.E.E.E.E.E.E.D s s d S T > = E.E.E.E.E.E.E.E.E.E.E.",
"E.E.E.E.E.E.E.E.E.E.E.E.E.E.E.E.E.E.E.E.E.E.E.E.E.E.E.E.E.E.G B     l Z = % E.E.E.E.E.E.E.E.E.E.E.E.",
"E.E.E.E.E.E.E.E.E.E.E.E.E.E.E.E.E.E.E.E.E.E.E.E.E.E.E.E.E.*.W d s x  .2.E.E.E.E.E.E.E.E.E.E.E.E.E.E.",
"E.E.E.E.E.E.E.E.E.E.E.E.E.E.E.E.E.E.E.E.E.E.E.E.E.E.E.E.X.=.Q B Z o.2.9.8.E.E.E.E.E.E.E.E.E.E.E.E.E.",
"E.E.E.E.E.E.E.E.E.E.E.E.E.E.E.E.E.E.E.E.E.E.E.E.E.E.E.E.+.} / ) +.-.-.2.4.<.E.E.E.E.E.E.E.E.E.E.E.E.",
"E.E.E.E.E.E.E.E.E.E.E.E.E.E.E.E.E.E.E.E.E.E.E.E.E.E.E.Q ) ( } X./ :.7.+.r.a...E.E.E.E.E.E.E.E.E.E.E.",
"E.E.E.E.E.E.E.E.E.E.E.E.E.E.E.E.E.E.E.E.E.E.E.E.E.E.E.Q W W } R X.m.p.O c.i.L &.E.E.E.E.E.E.E.E.E.E.",
"E.E.E.E.E.E.E.E.E.E.E.E.E.E.E.E.E.E.E.E.E.E.E.E.E.E.b E Z Z ] i #.A.i.X | 5.7.k.>.E.E.E.E.E.E.E.E.E.",
"E.E.E.E.E.E.E.E.E.E.E.E.E.E.E.E.E.E.E.E.E.E.E.E.E.E.u Y V Z R H 5 q.h.q.s.v.H.L.K.0.E.E.E.E.E.E.E.E.",
"E.E.E.E.E.E.E.E.6.E.E.E.E.E.E.E.E.E.E.E.E.E.E.E.E.E.y L y y V A 5 r.M.F.L.T.T.L.G.z.E.E.E.E.E.E.E.E.",
"E.E.E.E.E.E.E.E.2.E.2.E.E.E.E.E.E.E.E.E.E.E.E.E.E.E.E.r e e Z 3 #.J.T.U.I.L.L.e.4 #.E.E.E.E.E.E.E.E.",
"E.E.E.E.E.E.%.-.>.-.2.>.>.E.E.E.E.E.E.E.E.E.E.E.E.E.E.- e 6 F # e.J.Y.Z.F.J.I.w.. Z E.E.E.E.E.E.E.E.",
"E.E.E.E.E.E. .+.X.o. .*.X.E.E.E.E.E.-.>.1.2.2.2.2.6.6.} % q M % @.J.I.F.b.M.U.Y.x.E.E.E.E.E.E.E.E.E.",
"E.E.E.E.E.E./ ` / / / ) ) E.E.X.X.*.,.,.,.,.,.2.2.2.9.6.F $ 9 c % g.T.Y.N.J.Y.G.E.E.E.E.E.E.E.E.E.E.",
"E.E.E.E.E.E.G Q G G W W W 2.2.y.,.o.X.o.%.%.%.-.2.>.2.2.2.H > e < = e.m.S.m.z.[ E.E.E.E.E.E.E.E.E.E.",
"E.E.E.E.E.E.b U V V b Z -.9.2.6.8.2.o.| X.X.%.2.6.6.-.%.2.2.E.@ 9 < & @ n d.P.E.E.E.E.E.E.E.E.E.E.E.",
"E.E.E.E.E.E.t L y y V | >.2.2.6.2.8.1.| / | -.1.2.%. .%.3.-.E.E.E.E.M o $.Y.L.E.E.E.E.E.E.E.E.E.E.E.",
"E.E.E.E.E.E.2 r 6 e Z o.-.1.2.6.2.2.2.%./ | %.%.) r.n.G.t.E.E.E.E.E.E.E.E.E.E.E.E.E.E.E.E.E.E.E.E.E.",
"E.E.E.E.E.E.E.- 1 e W | %.-.2.2.6.6.6.-./ H | | v.L.R.P.:.E.E.E.E.E.E.E.E.E.E.E.E.E.E.E.E.E.E.E.E.E.",
"E.E.E.E.E.E.E.E.= t / / X.%.:.2.2.2.8.2.p a A :.L.U.U.l.E.E.E.E.E.E.E.E.E.E.E.E.E.E.E.E.E.E.E.E.E.E.",
"E.E.E.E.E.E.E.E.E.V ^ / / o.-.1.2.6.8.%.5.d.Z } D.T.V.P E.E.E.E.E.E.E.E.E.E.E.E.E.E.E.E.E.E.E.E.E.E.",
"E.E.E.E.E.E.E.E.E.Z Q H / | X.-.1.8.1.8.J.Z.8 8 J.J.o.E.E.E.E.E.E.E.E.E.E.E.E.E.E.E.E.E.E.E.E.E.E.E.",
"E.E.E.E.E.E.E.E.E.V R W ! /  .o.-.6.%.f.R.C.7 3 C.r.> E.E.E.E.E.E.E.E.E.E.E.E.E.E.E.E.E.E.E.E.E.E.E.",
"E.E.E.E.E.E.E.E.E.y U Z W / } X.-.1.>.n.U.C.v - ;.3 q = E.E.E.E.E.E.E.E.E.E.E.E.E.E.E.E.E.E.E.E.E.E.",
"E.E.E.E.E.E.E.: e t y V A W / } -.( r.J.T.D.N * < 9 , = E.E.E.E.E.E.E.E.E.E.E.E.E.E.E.E.E.E.E.E.E.E.",
"E.E.E.E.E.E.E.- 7 e u V Z G W | ( o.C.R.R.B.: % k ; > = E.E.E.E.E.E.E.E.E.E.E.E.E.E.E.E.E.E.E.E.E.E.",
"E.E.E.E.E.E.E.= 2 : e y V Z H ~ ) v.L.V.e.t % 2 = = J = E.E.E.E.E.E.E.E.E.E.E.E.E.E.E.E.E.E.E.E.E.E.",
"E.E.E.E.E.E.E.= 1 : e t y V A Z n { ] E.E.E.; 1 = E.= E.E.E.E.E.E.E.E.E.E.E.E.E.E.E.E.E.E.E.E.E.E.E.",
"E.E.E.E.E.E.E.E.= 1 2 e t a V v = + # 0 E.; > > = E.E.E.E.E.E.E.E.E.E.E.E.E.E.E.E.E.E.E.E.E.E.E.E.E.",
"E.E.E.E.E.E.E.E.E.= - r e y V Z G m : > > = ; , = E.E.E.E.E.E.E.E.E.E.E.E.E.E.E.E.E.E.E.E.E.E.E.E.E.",
"E.E.E.E.E.E.E.E.E.E.E.: 6 u y V Z W W v - $ $ = E.E.E.E.E.E.E.E.E.E.E.E.E.E.E.E.E.E.E.E.E.E.E.E.E.E.",
"E.E.E.E.E.E.E.E.E.E.E.E.E.e u b Z Z ! } ! m w = E.E.E.E.E.E.E.E.E.E.E.E.E.E.E.E.E.E.E.E.E.E.E.E.E.E.",
"E.E.E.E.E.E.E.E.E.E.E.E.E.E.r y b Z G W | o.X.+.E.E.E.E.E.E.E.E.E.E.E.E.E.E.E.E.E.E.E.E.E.E.E.E.E.E.",
"E.E.E.E.E.E.E.E.E.E.E.E.E.E.6 L u b Z W ! } o.,.1.E.E.E.E.E.E.E.E.E.E.E.E.E.E.E.E.E.E.E.E.E.E.E.E.E.",
"E.E.E.E.E.E.E.E.E.E.E.E.E.E.E.e L b Z Z W / }  .3.E.E.E.E.E.E.E.E.E.E.E.E.E.E.E.E.E.E.E.E.E.E.E.E.E.",
"E.E.E.E.E.E.E.E.E.E.E.E.E.E.E.E.e I b Z G ! / | ,.E.E.E.E.E.E.E.E.E.E.E.E.E.E.E.E.E.E.E.E.E.E.E.E.E.",
"E.E.E.E.E.E.E.E.E.E.E.E.E.E.E.E.E.e u Y R W / ) *.E.E.E.E.E.E.E.E.E.E.E.E.E.E.E.E.E.E.E.E.E.E.E.E.E.",
"E.E.E.E.E.E.E.E.E.E.E.E.E.E.E.E.E.E.E.E.b Q ^ `  .E.E.E.E.E.E.E.E.E.E.E.E.E.E.E.E.E.E.E.E.E.E.E.E.E.",
"E.E.E.E.E.E.E.E.E.E.E.E.E.E.E.E.E.E.E.E.E.E.A W E.E.E.E.E.E.E.E.E.E.E.E.E.E.E.E.E.E.E.E.E.E.E.E.E.E.",
"E.E.E.E.E.E.E.E.E.E.E.E.E.E.E.E.E.E.E.E.E.E.E.E.E.E.E.E.E.E.E.E.E.E.E.E.E.E.E.E.E.E.E.E.E.E.E.E.E.E."
};
