/* XPM */
static char *_627542742907[] = {
/* columns rows colors chars-per-pixel */
"100 24 169 2 ",
"   c #E86263",
".  c #E96364",
"X  c #E96365",
"o  c #E96464",
"O  c #E86465",
"+  c #EA6567",
"@  c #EA6667",
"#  c #E96768",
"$  c #E96769",
"%  c #E9696A",
"&  c #EA696A",
"*  c #E96A6B",
"=  c #E96A6C",
"-  c #E96B6C",
";  c #EA6B6C",
":  c #E96C6D",
">  c #EC6D6E",
",  c #EC6E6F",
"<  c #F0696A",
"1  c #EA7070",
"2  c #EB7071",
"3  c #ED7474",
"4  c #ED7475",
"5  c #EC7777",
"6  c #EF7676",
"7  c #EC7C7D",
"8  c #EF7C7D",
"9  c #ED7D7E",
"0  c #F57172",
"q  c #F77273",
"w  c #FA7071",
"e  c #F97374",
"r  c #FC7677",
"t  c #FF7677",
"y  c #FC7778",
"u  c #F17B7B",
"i  c #F27C7C",
"p  c #F37C7C",
"a  c #F37C7D",
"s  c #F37E7E",
"d  c #F47D7E",
"f  c #F47E7E",
"g  c #FE797A",
"h  c #FE7A7B",
"j  c #FF7B7C",
"k  c #FC7C7D",
"l  c #FF7D7E",
"z  c #FF7E7F",
"x  c #F37E80",
"c  c #F37F80",
"v  c #F47E80",
"b  c #F47F80",
"n  c #F97F80",
"m  c #ED8081",
"M  c #EF8A8A",
"N  c #EF8C8C",
"B  c #EF8C8D",
"V  c #EF8D8D",
"C  c #F28080",
"Z  c #F38080",
"A  c #F38081",
"S  c #F38181",
"D  c #F38182",
"F  c #F48080",
"G  c #F58080",
"H  c #F48081",
"J  c #F58081",
"K  c #F48181",
"L  c #F58181",
"P  c #F48082",
"I  c #F58082",
"U  c #F48182",
"Y  c #F68182",
"T  c #F48282",
"R  c #F58282",
"E  c #F68282",
"W  c #F78282",
"Q  c #F38384",
"!  c #F48284",
"~  c #F58284",
"^  c #F68284",
"/  c #F18787",
"(  c #F48485",
")  c #F88081",
"_  c #F88283",
"`  c #F98383",
"'  c #FF8182",
"]  c #FF8283",
"[  c #F88384",
"{  c #F98384",
"}  c #F98484",
"|  c #FB8485",
" . c #FC8485",
".. c #FD8586",
"X. c #FE8586",
"o. c #FF8586",
"O. c #FF8686",
"+. c #FF8687",
"@. c #FF8787",
"#. c #FF8788",
"$. c #F48989",
"%. c #F4898A",
"&. c #F48A8A",
"*. c #F48A8B",
"=. c #F48D8D",
"-. c #F48E8F",
";. c #FF8889",
":. c #FF8989",
">. c #FF898A",
",. c #FF8A8A",
"<. c #FF8A8B",
"1. c #F88B8C",
"2. c #FF8D8D",
"3. c #FF8F8F",
"4. c #FF9394",
"5. c #F19798",
"6. c #F19999",
"7. c #F29999",
"8. c #F29A9A",
"9. c #F4A3A3",
"0. c #F6A2A2",
"q. c #F6A3A3",
"w. c #F6A3A4",
"e. c #F4A4A4",
"r. c #F7A4A4",
"t. c #F6A5A5",
"y. c #F4A6A6",
"u. c #F6ABAB",
"i. c #F6ACAC",
"p. c #F6ADAD",
"a. c #F6AEAE",
"s. c #F6AFAF",
"d. c #F7B0B0",
"f. c #F7B1B1",
"g. c #F7B1B2",
"h. c #F6B2B2",
"j. c #F7B2B2",
"k. c #F7B3B3",
"l. c #F7B4B4",
"z. c #F8B0B0",
"x. c #F8B1B1",
"c. c #F9B1B1",
"v. c #F8B2B2",
"b. c #F9B2B2",
"n. c #F8B3B3",
"m. c #F9B3B3",
"M. c #FAB3B3",
"N. c #F8B3B4",
"B. c #F8B4B4",
"V. c #F8B5B5",
"C. c #F9B5B5",
"Z. c #FAB4B4",
"A. c #FBB4B4",
"S. c #FCB5B5",
"D. c #FDB5B5",
"F. c #FCB6B6",
"G. c #FDB6B6",
"H. c #FEB6B6",
"J. c #FFB7B7",
"K. c #FFB8B8",
"L. c #FFB9B9",
"P. c #FFBABA",
"I. c #FFBBBB",
"U. c #FFBCBC",
"Y. c #FFBDBD",
"T. c #FFBEBE",
"R. c #FFBFBF",
"E. c #FFC9C9",
"W. c None",
/* pixels */
"W.W.W.W.W.W.W.W.W.W.W.W.W.W.W.W.W.W.W.W.W.W.W.W.W.W.W.W.W.W.W.W.W.W.W.W.W.W.W.W.W.W.W.W.W.W.W.W.W.W.W.W.W.W.W.W.W.W.W.W.W.W.W.W.W.W.W.W.W.W.W.W.W.W.W.W.W.W.W.W.W.W.W.W.W.W.W.W.W.W.W.W.W.W.W.W.W.W.W.W.",
"W.W.W.W.W.W.W.W.W.W.W.W.W.W.W.W.W.W.W.W.W.W.W.W.W.W.W.W.W.W.W.W.W.W.W.W.W.W.W.W.W.W.W.W.W.W.W.W.W.W.W.W.W.W.W.W.W.W.W.W.W.W.W.W.W.W.W.W.W.W.W.W.W.W.W.W.W.W.W.W.W.W.W.W.W.W.W.W.W.W.W.W.W.W.W.W.W.W.W.W.",
"W.F F C b b F b F F F F F F ! F ! ! F c d u W.W.W.W.W.W.W.W.W.W.W.W.W.W.W.W.W.W.W.W.W.W.W.W.W.W.W.W.W.W.W.W.W.W.W.W.W.W.W.W.W.W.W.W.W.W.W.W.W.W.W.W.W.W.W.W.1 a c C ! ! F F F F b F F F F F F F C W.F W.",
"W.C 4.#.>.<.<.<.>.>.#.#.>.<.#.#.] n j y e t & W.W.W.W.W.W.W.W.W.W.W.W.W.W.W.W.W.W.W.W.W.W.W.W.W.W.W.W.W.W.W.W.W.W.W.W.W.W.W.W.W.W.W.W.W.W.W.W.W.W.W.W.W.W.- z q t g z ] #.>.<.>.>.#.>.>.<.>.>.>.#.4.F W.",
"W.W.F #.C F P C C s =./ 4 & X   o $ & - : > : W.W.W.W.W.W.W.W.W.W.W.W.W.W.W.W.W.W.W.W.W.W.W.W.W.W.W.W.W.W.W.W.W.W.W.W.W.W.W.W.W.W.W.W.W.W.W.W.W.W.W.W.W.W.W.0 & : & & & o   # : 7 -.( b F F F F F F W.W.",
"W.W.W.C <.F F P F p t.V.i.9.5.M 7 1 &   o < $ W.W.W.W.W.W.W.W.W.W.W.W.W.W.W.W.W.W.W.W.W.W.W.W.W.W.W.W.W.W.W.W.W.W.W.W.W.W.W.W.W.W.W.W.W.W.W.W.W.W.W.W.W.W.W.e O X X $ 1 c V 8.t.i.V.=.d ! F ! | F W.W.W.",
"W.W.W.W.F <.C F C b 0.V.v.N.V.V.V.i.t.8.V P 4 W.W.W.W.W.W.W.W.W.W.W.W.W.W.W.W.W.W.W.W.W.W.W.W.W.W.W.W.W.W.W.W.W.W.W.W.W.W.W.W.W.W.W.W.W.W.W.W.W.W.W.W.W.W.W.z c V 8.9.i.l.V.l.l.f.f.*.d F F F F W.W.W.W.",
"W.W.W.W.W.F <.C C a 0.V.f.f.f.f.f.f.l.V.V.l.v.v.v.f.W.W.W.W.W.W.W.W.W.W.W.W.W.W.W.W.W.W.W.W.W.W.W.W.W.W.W.W.W.W.W.W.W.W.W.W.W.W.W.W.W.W.W.W.W.W.W.W.W.v.v.i.v.V.l.l.V.l.f.f.f.f.f.f.*.b C { ..W.W.W.W.W.",
"W.W.W.W.W.W.! { F d 0.V.v.f.f.f.f.f.f.f.f.f.v.G.U.U.U.U.P.v.v.v.v.v.f.v.l.f.v.i.W.W.W.W.W.W.W.W.W.W.W.W.W.W.W.W.W.W.W.W.W.i.v.v.i.v.v.v.f.f.v.v.P.U.U.U.P.F.V.f.f.f.f.f.f.f.l.f.f.f.*.d F F W.W.W.W.W.W.",
"W.W.W.W.W.W.b #.C s 0.V.f.f.f.f.l.f.f.l.f.f.f.f.V.f.V.v.v.v.v.F.P.P.P.P.U.U.U.E.U.U.P.E.U.U.U.E.U.U.U.U.U.U.U.U.U.U.P.E.U.E.E.U.E.U.P.P.F.F.V.v.v.l.v.l.v.v.f.f.f.f.f.l.f.f.f.f.l.f.*.s { F W.W.W.W.W.W.",
"W.W.W.W.W.W.<.F ! a 0.N.f.l.l.f.l.f.l.f.l.l.f.l.f.f.f.l.v.v.l.v.v.f.v.f.l.v.v.v.v.f.f.f.f.v.v.V.f.v.f.v.v.v.V.v.l.f.l.f.v.v.p.v.V.f.V.f.v.v.v.v.f.f.f.f.f.f.l.f.f.f.f.l.f.l.f.l.f.f.*.s ! #.F W.W.W.W.W.",
"W.W.W.W.W.#.C c F s 9.V.f.f.f.f.f.f.f.f.f.f.f.f.l.f.f.f.f.f.f.f.f.f.l.f.f.f.f.f.f.f.f.f.f.f.f.f.f.v.f.v.f.f.f.f.f.f.f.f.f.f.v.v.f.f.f.f.v.v.f.f.f.l.l.f.f.l.f.f.l.l.f.f.f.l.f.f.f.f.*.s F F <.b W.W.W.W.",
"W.W.W.W.#.C b c F a 0.V.f.f.l.f.l.f.f.f.f.f.f.f.f.f.f.f.l.f.f.f.f.f.f.f.f.f.f.f.f.f.f.f.f.f.f.f.f.f.f.f.f.f.f.f.f.f.f.f.f.f.l.f.f.l.f.l.f.l.l.f.f.f.l.f.f.f.l.l.f.f.l.f.f.l.f.f.f.k.*.s C F F <.F W.W.W.",
"W.W.W.) F C F ! F d 9.V.f.f.f.f.f.f.f.l.l.f.l.l.f.l.f.l.f.f.f.f.f.f.f.f.f.f.f.f.f.f.f.f.f.f.f.f.f.f.f.f.f.f.f.f.f.f.f.f.l.f.l.f.f.l.f.f.f.f.f.f.l.f.l.f.l.f.f.f.f.l.f.f.f.f.f.f.k.f.*.d F F F F <.F W.W.",
"W.W.{ ..F | { { | ) r.V.f.l.f.f.f.f.l.f.f.f.f.f.f.l.f.f.f.l.f.f.f.f.f.f.f.f.f.f.f.f.f.f.f.f.f.f.f.f.f.f.f.f.f.f.v.f.f.f.f.l.f.f.f.f.l.f.l.f.f.l.f.l.f.f.l.f.f.f.f.f.l.l.l.l.f.l.f.k.1.) | { ! { c 3.C W.",
"W.F C F ! F C c F s r.V.f.f.f.l.V.f.f.f.f.l.v.l.f.f.f.l.f.l.f.f.f.f.f.f.f.l.f.f.f.f.f.f.f.f.l.f.f.f.f.f.f.f.f.f.f.f.l.f.f.f.f.l.l.f.f.f.l.f.f.l.f.f.f.l.f.f.l.l.l.f.f.f.f.f.f.f.k.f.*.d C F F F c F F W.",
"W.W.W.W.W.W.W.W.W.W.v.P.v.f.f.f.l.f.f.l.f.f.f.l.f.f.l.l.f.f.f.f.f.f.f.f.f.f.f.f.f.f.f.f.f.f.f.f.f.f.f.f.f.f.f.f.f.f.f.f.f.f.l.f.f.l.f.f.f.l.f.l.f.f.f.f.f.f.f.f.f.f.f.f.f.f.f.f.v.V.W.W.W.W.W.W.W.W.W.W.",
"W.W.W.W.W.W.W.W.W.W.N.U.N.f.v.v.l.f.f.l.f.l.f.f.l.f.f.f.f.l.f.f.f.f.f.f.f.f.f.f.f.f.l.f.f.f.f.f.f.f.f.f.f.f.f.f.f.f.f.f.f.f.l.f.f.l.f.l.f.f.f.l.f.l.f.l.l.f.l.f.f.f.f.f.f.l.f.f.v.V.W.W.W.W.W.W.W.W.W.W.",
"W.W.W.W.W.W.W.W.W.W.v.P.v.v.v.v.v.v.f.f.f.f.l.f.f.f.f.f.f.f.f.f.f.f.f.f.f.l.f.f.f.f.f.f.f.f.f.f.f.f.l.f.f.f.f.f.f.f.f.f.f.l.f.f.f.f.l.f.f.f.f.f.f.f.f.l.f.f.v.v.l.f.v.v.l.f.v.v.v.v.W.W.W.W.W.W.W.W.W.W.",
"W.W.W.W.W.W.W.W.W.W.f.E.U.P.v.v.f.v.v.v.v.v.v.f.v.v.v.v.l.f.f.f.f.f.f.f.f.f.f.f.f.f.f.l.f.f.f.f.f.f.f.f.f.f.f.v.f.f.f.f.f.f.f.l.l.f.f.f.f.l.l.f.l.l.f.f.V.f.v.v.f.v.v.v.v.V.P.P.U.U.W.W.W.W.W.W.W.W.W.W.",
"W.W.W.W.W.W.W.W.W.W.W.W.f.v.N.G.U.U.U.P.F.v.v.f.p.p.v.v.v.v.v.v.f.f.f.f.f.f.f.f.l.f.f.l.v.v.p.f.l.f.v.f.f.f.v.v.f.f.f.f.l.f.l.f.v.v.f.f.v.v.f.v.f.f.l.v.v.v.f.V.P.P.U.E.P.v.v.v.v.W.W.W.W.W.W.W.W.W.W.W.",
"W.W.W.W.W.W.W.W.W.W.W.W.W.W.W.W.W.f.v.v.f.v.F.E.E.U.P.P.F.v.f.v.f.V.f.v.v.l.l.v.v.f.v.v.v.v.v.v.l.f.v.v.f.f.v.v.f.v.f.v.v.f.f.V.p.f.f.V.v.v.V.F.P.P.U.U.U.P.F.f.f.f.f.W.W.W.W.W.W.W.W.W.W.W.W.W.W.W.W.W.",
"W.W.W.W.W.W.W.W.W.W.W.W.W.W.W.W.W.W.W.W.W.W.W.W.v.v.v.v.v.v.V.P.U.U.U.U.U.U.U.U.P.P.P.P.F.F.F.v.V.F.A.A.V.F.F.F.P.P.P.U.U.U.U.U.E.P.U.U.P.v.f.f.v.f.v.v.W.W.W.W.W.W.W.W.W.W.W.W.W.W.W.W.W.W.W.W.W.W.W.W.",
"W.W.W.W.W.W.W.W.W.W.W.W.W.W.W.W.W.W.W.W.W.W.W.W.W.W.W.W.W.W.W.W.W.W.W.l.v.f.v.v.f.f.f.v.v.v.v.v.v.v.v.v.v.v.v.p.v.f.v.f.v.v.V.v.v.W.W.W.W.W.W.W.W.W.W.W.W.W.W.W.W.W.W.W.W.W.W.W.W.W.W.W.W.W.W.W.W.W.W.W."
};
