/* XPM */
static char *_627051551279[] = {
/* columns rows colors chars-per-pixel */
"50 44 256 2 ",
"   c #3C0004",
".  c #250006",
"X  c #383038",
"o  c #4C0000",
"O  c #450001",
"+  c #540000",
"@  c #5A0100",
"#  c #5A0C01",
"$  c #571A05",
"%  c #581C13",
"&  c #4A1000",
"*  c #7A0608",
"=  c #620300",
"-  c #5A2602",
";  c #5C2C14",
":  c #622805",
">  c #532826",
",  c #387120",
"<  c #6A4F09",
"1  c #6B690D",
"2  c #654920",
"3  c #4E3F41",
"4  c #05515C",
"5  c #354C54",
"6  c #0C6A74",
"7  c #2F6D75",
"8  c #225861",
"9  c #4A4D50",
"0  c #4B696B",
"q  c #7E4E5D",
"w  c #880302",
"e  c #980200",
"r  c #9D0413",
"t  c #A60402",
"y  c #B70402",
"u  c #AE0C0F",
"i  c #BF3100",
"p  c #CA0101",
"a  c #D40105",
"s  c #FD0007",
"d  c #FA0015",
"f  c #F70F06",
"g  c #FA0432",
"h  c #FD273A",
"j  c #DE210B",
"k  c #9B6219",
"l  c #DB710A",
"z  c #E77805",
"x  c #F47034",
"c  c #DD5C24",
"v  c #FB034F",
"b  c #FB2C51",
"n  c #F90072",
"m  c #F5356C",
"M  c #A2705E",
"N  c #F3524E",
"B  c #D86843",
"V  c #F16C4F",
"C  c #CD5B7C",
"Z  c #F54673",
"A  c #CD6E70",
"S  c #F0716A",
"D  c #DB575F",
"F  c #79970C",
"G  c #738D12",
"H  c #77B11A",
"J  c #5DA625",
"K  c #66AA26",
"L  c #78B224",
"P  c #6BB428",
"I  c #439C29",
"U  c #71BE79",
"Y  c #2F9B2A",
"T  c #959107",
"R  c #89BB17",
"E  c #94AB14",
"W  c #B28F26",
"Q  c #85BA23",
"!  c #8CBC22",
"~  c #85B527",
"^  c #91BE21",
"/  c #98BD2A",
"(  c #A6BD30",
")  c #A7B309",
"_  c #CB910F",
"`  c #EB8803",
"'  c #F0930A",
"]  c #D3B111",
"[  c #FAA614",
"{  c #F5AC0F",
"}  c #DBA422",
"|  c #FAB826",
" . c #F5AC2E",
".. c #DB8F2D",
"X. c #9BC51E",
"o. c #96C21B",
"O. c #92C802",
"+. c #B4D80A",
"@. c #A4CB1C",
"#. c #ABCE1A",
"$. c #A6C916",
"%. c #ABD319",
"&. c #B4D416",
"*. c #BBD914",
"=. c #B5D619",
"-. c #B4CB0B",
";. c #94C221",
":. c #9BC623",
">. c #91C628",
",. c #A4C824",
"<. c #B3CC26",
"1. c #B7CE28",
"2. c #BCE01A",
"3. c #C2DD12",
"4. c #C4DB19",
"5. c #C4D711",
"6. c #FDC502",
"7. c #FFC519",
"8. c #F9D806",
"9. c #CAE30B",
"0. c #C4E213",
"q. c #C8E718",
"w. c #D5EA0A",
"e. c #F8EA01",
"r. c #FCF301",
"t. c #FEFA03",
"y. c #FBF418",
"u. c #F8EF16",
"i. c #DADD2C",
"p. c #FEC325",
"a. c #FDC826",
"s. c #FBD727",
"d. c #FCDB38",
"f. c #FFC831",
"g. c #F9E928",
"h. c #F9F226",
"j. c #F9EC37",
"k. c #FBF234",
"l. c #FCF639",
"z. c #E8E829",
"x. c #DAE028",
"c. c #F8904F",
"v. c #F5B746",
"b. c #EF936F",
"n. c #F7B176",
"m. c #CEA768",
"M. c #8FCA69",
"N. c #8FCB52",
"B. c #FBCD4D",
"V. c #FDEE52",
"C. c #FBD36E",
"Z. c #FFFA65",
"A. c #AEA54F",
"S. c #2C7B87",
"D. c #1A7184",
"F. c #F73887",
"G. c #F82A8D",
"H. c #FB39A1",
"J. c #B76D90",
"K. c #FD5688",
"L. c #FE4694",
"P. c #FC5C99",
"I. c #FF4688",
"U. c #D57690",
"Y. c #FE6698",
"T. c #FA7A89",
"R. c #D54DB5",
"E. c #F958AE",
"W. c #D26DA8",
"Q. c #FB66A8",
"!. c #FB77AB",
"~. c #FF69B9",
"^. c #FE77B7",
"/. c #E66FAF",
"(. c #CC578F",
"). c #BF75E1",
"_. c #CE5FF0",
"`. c #319097",
"'. c #219BB0",
"]. c #508C93",
"[. c #4E99A5",
"{. c #59AAB6",
"}. c #52ACB7",
"|. c #6FB8A9",
" X c #73C38D",
".X c #79CAAA",
"XX c #75C6B6",
"oX c #5AC693",
"OX c #22A9CB",
"+X c #59B9C9",
"@X c #4BAAC2",
"#X c #67B9C5",
"$X c #6FBCD0",
"%X c #59CCD7",
"&X c #59CFD4",
"*X c #6CC7CC",
"=X c #78C6CC",
"-X c #69C8D5",
";X c #76C8D5",
":X c #69D2D8",
">X c #73D2D0",
",X c #70D9E7",
"<X c #51CFE0",
"1X c #B7909A",
"2X c #B5B094",
"3X c #B898A2",
"4X c #86B2B5",
"5X c #B6A6A7",
"6X c #B6AAB5",
"7X c #A5B9B7",
"8X c #ADB1A6",
"9X c #87858E",
"0X c #D48C92",
"qX c #FE949B",
"wX c #F8898A",
"eX c #CAB08E",
"rX c #FDB886",
"tX c #FDA79A",
"yX c #FCAE8C",
"uX c #FE96A8",
"iX c #FF87B0",
"pX c #F6A4A3",
"aX c #D6A8B3",
"sX c #86CC8C",
"dX c #92CBB2",
"fX c #A7C6B3",
"gX c #FFF489",
"hX c #FFDAB1",
"jX c #AC92D7",
"kX c #8AB9D5",
"lX c #92B7CD",
"zX c #A3B7CC",
"xX c #B196E6",
"cX c #9CB4E6",
"vX c #ABB0E9",
"bX c #FC88C5",
"nX c #FC99C6",
"mX c #FB93D6",
"MX c #FB85D1",
"NX c #D587FA",
"BX c #F9A5EA",
"VX c #E7A7E4",
"CX c #89C4C7",
"ZX c #86C6D9",
"AX c #90D4D5",
"SX c #ADD2D0",
"DX c #88DCE7",
"FX c #8CCFE4",
"GX c #AEDDEA",
"HX c #99E4EA",
"JX c #9CEFF8",
"KX c #A9F4FA",
"LX c #B0ECF1",
"PX c #FFF9C8",
"IX c #C5E2EB",
"UX c None",
/* pixels */
"UXUXUXUXUXUXUXUXUXUXUXUXUXxXcX=Xg 8XXX+XfX2XD UXUXUXUXUXUXUXUXUXUXUXUXUXUXUXUXUXUXUXUXUXUXUXUXUXUXUX",
"UXUXUXUXUXUXUXUXUXUXU.0X,X$X+XeXlX.XO.*XcXcXzX*X*XUXUXUXUXUXUXUXUXUXUXUXUXUXUXUXUXUXUXUXUXUXUXUXUXUX",
"UXUXUXUXUXUXUXUXUX*XfXlX:X'.$XSXAX=XlX-XNX).&X@X:XvXjXUXUXUXUXUXUXUXUXUXUXUXUXUXUXUXUXUXUXUXUXUXUXUX",
"UXUXUXUXUXUXUXUXfXfXU DXLXHXHXHXeXlXcX;X=XZXAX=XM.&XeXUXUXUXUXUXUXUXUXUXUXUXUXUXUXUXUXUXUXUXUXUXUXUX",
"UXUXUXUXUXUXUXOXfX7XDXLXHX7X0X'.].`.`.[.-X6Xd SX>X3X5X<XUXUXUXUXUXUXUXUXUXUXUXUXUXUXUXUXUXUXUXUXUXUX",
"UXUXUXUXUXUX;X;XN..XLXNXxX|.q 6 5 3 5 8 6 4X1XSXKXU.1X>XdXUXUXUXUXUXUXUXUXUXUXUXUXUXUXUXUXUXUXUXUXUX",
"UXUXUXUXUXUXNXcXoXAXKXjXlX}.4 > @ @ # > 5 '.4X2XKXDX%X>.dXUXUXUXUXUXUXUXUXUXUXQ.^.m V k.UXUXUXUXUXUX",
"UXUXUXUXUXUXxXkX6XaXKX%X:X].@ % $ % % $ @ 0 XXcXGXHX-XXX:X;XUXUXUXUXUXUXUXf.nXmXbXv d.l.l.e.UXUXUXUX",
"UXUXUXUXUXUXdX&Xb.A KX6X5X@XUXUXUXUXUXUX@ ].,X_.vXHXm.kXOX+XUXUXUXUXUX| s.l.nXmXF. .k.j.e.gXuXUXUXUX",
"UXUXUXUXUXUXsX>X+X-XGXIX5XeX-XUXUXUXUXUXUXfX5XkXLXAXCX;X+X}.UXUXUXUXUXs.j.k.qX~.m s.k.h.n.MXBX^.UXUX",
"UXUXUXUXUXUX[.-X'.XXM.JXKXSX%X}.UXd A &XZXlXfXKXHX-XvXkX{.4 UXUXUXUXc.g.j.r.tX~.V j.u.yX~.^.bX^.P.UX",
"UXUXUXUXUXUXS.#X+XkX*X8XSXKXGXHXDXU.6X,XxXFXaX0X.XM.kX$X`.9 UXUXUXK.v d.k.u.C.E.S r.C.~.E.m N V N UX",
"UXUXUXUXUXUX5 *X;XxX:X8XdX;XNXvXSXZXsXsX*XCXU.1X.XU &X}.8 UXUXUXUXiXE.x j.k.g.uXS r.iXF. .f.j.j.l.d.",
"UXUXUXUXUXUXO }.zX5X:XN..X;XjX$XdX2X.X.XCXeX<XCX2XlX5X`.X eXUXUXuXMXBXm V s.r.C.qXn.wX8.y.h.u.e.y.k.",
"UXUXUXUXUXUXUX9 9XM @X|.$X;X<XlX6X-XOX+XZXdX=X;X=X7X1X4 2 hXPXPXhX^.MXQ.E.F.b.B.yXT.yXtXuXuXtXrXC.h.",
"UXUXUXUXUXUXUX@ X 6 6 S.}.+X2X8X1X-X{.{.#XU .X+X+X-X7 = q UXUXUXv.B.n.tXuXiX!.qXb.Y.n.b.K.H.~.~.mXpX",
"UXUXUXUXUXUXUXUX= > 0 6 ].;X7XCX:X;X*X7 6 6 `.[.].9 @ % UXUXUXUXUXa.8.y.j.j.g.7.wXn.qXk.e. .m /.BX~.",
"UXUXUXUXUXUXUXUX% @ o 3 5 [.:XxXkX}.D.6 7 7 8 X o = % UXUXUXUXUXUXa.f.k.k.s. .H.tXe.L.yXt.V.| v iX^.",
"UXUXUXUXUXUXUXUXUX$ $ = + o 9 0 0 9 9 9 9 > @ } W O UXUXUXUXUXUXUXV x ' ..Z L.^.V.e.T.~.B.h.l. .n UX",
"UXUXUXUXUXUXUXUXUXUXUX$ % ; @ + o &   o @ o } a.[ UXUXUXUXUXUXUXUXUXL.Q.E.!.~.rXu.s.S ~.rXr.j.j.N UX",
"UXUXUXUXUXUXUXUXUXUXUXUXUX.   & < k k k . } p.' ' UXUXUXUXUXUXUXUXUX^.mXBX^.rXu.j.s.m ~.uXg.k.k.UXUX",
"UXUXUXUXUXUXUXUXUXUXUXUXUXUXW.U.6.0Xn.' _ | ` ` ' _ Y UXUXUXUXUXUXUXUXQ.nXrX8.j.l. .m mXnXV.g.UXUXUX",
"UXUXUXUXUXUXUXUXUXUX6.U./.a./.!.6.wX0X' z z  .a.f.:.>.X.@.;.0.UXUXUXUXUXUX6.f.s.d.x Q.BXbXB.UXUXUXUX",
"UXUXf.UXUXUXUXUX/.^.8.W./. .W./. .B.J.z l _ l ` [ ] Q @.>.%.,.,.#.I UXUXUXUXUXp.x n ^.Q.UXUXUXUXUXUX",
"UX{ 7.7.| p.UX7.W.W.7.U.R.v.0XR.b.` (.D _ P 5.] k 4.Q &.~ R L *.:.;.0.UXUXUXUXUXUXUXUXUXUXUXUXUXUXUX",
"UXUX' ` ' [ | 6.W.R.v.b.R.b.c.C B x W A.O.1.j.>.2.1.#.=.L X.^ *.R X.q.Q UXUXUXUXUXUXUXUXUXUXUXUXUXUX",
"UXUX' { [ ' l ` c.(.V x C B c m.-./ H 4.~ z.E R +.R $.O.$.@.<.<.<.X.*.! %.UXUXUXUXUXUXUXUXUXUXUXUXUX",
"UXUXUXb.c.` UXUXz A A UXUXUXUX+.%.J x.( &.*.K R H F F H o.R *.^ i.:.*.L q.UXUXUXUXUXUXUXUXUXUXUXUXUX",
"UXUXg L.Y.UXUXUXUXUXUXUXUXUX3.q.;.Q x.L 9.! R G @ + + < F R -.o.1.4.4.K q.0.UXUXUXUXUXUXUXUXUXUXUXUX",
"UXUXs h Y.P.UXUXUXUXUXUXUXUX*.0.K =.:.<.9.P 1 & $ - $ + + F o.X.@.i.4.K =.=.UXUXUXUXUXUXUXUXUXUXUXUX",
"UXw r a b Y.UXUXUXUXUXUXUXUX&.*.K 3.~ z.-.;.T UXUXUXUXUXO < o.#.X.z.=.K @.0.UXUXUXUXUXUXUXUXUXUXUXUX",
"UXUXy r p b P.UXd a a e UXUX*.,.~ *.~ k.,.%.*.UXUXUXUXUXUX-.;.&.( j.:.Q ;.0.UXUXUXUXUXUXUXUXUXUXUXUX",
"UXUXa a u e Z K.d d p t t UX2.! O.O.,.h.( 3.@.^ @.UXUX0.#.0.Q &.1.z.R ^ ! 0.UXUXUXUXUXUXUXUXUXUXUXUX",
"UXe e w w = K.P.b s a t i UX-.L m.wXwX*.( z.! :.@.=.=.2.=.Q 4.1.1.3.^ ^ o.-.UXUXUXUXUXUXUXUXUXUXUXUX",
"UXUXUXUXUXUXY.K.d d a e u p A wXL.K.Z W $.@./ <.1.,.=.;.$.! w.! 9.$.@.Q @.) UXUXUXUXUXUXUXUXUXUXUXUX",
"UXUXUXUXUXUXv f d a p * y b I.b h f f W %.;.X.;.<.:.@.;.Q 3.<.^ 9.~ &.~ ^ : UXUXUXUXUXUXUXUXUXUXUXUX",
"UXUXUXUXZ.t.{ d j p w w p u t y u e r E @.@.@.! X.$.:.Q X.w.! *.Q &.%.P < UXUXUXUXUXUXUXUXUXUXUXUXUX",
"UXUXgXPXZ.t.y.` t e w p UXUXw u a i E $.X.*.! @.@.*.R ~ =.3.! ^ X.w.>., @ UXUXUXUXUXUXUXUXUXUXUXUXUX",
"UXUXgXZ.r.y.r.r.] w UXUXUXUXUXw y i F :.@.0.Q %.&.*.! Q 3.$.Q X.w.) 1 - UXUXUXUXUXUXUXUXUXUXUXUXUXUX",
"UXUXt.t.y.r.r.r.s.UXUXUXUXUXUXUX* e # , T $.Q *.3.=.X.;.w.;.J E 1 o @ # UXUXUXUXUXUXUXUXUXUXUXUXUXUX",
"UXUXs.y.t.t.r.g.| UXUXUXUXUXUXUXUXUX$ @ + # 1 T E ~ E G T 1 ; + o - - UXUXUXUXUXUXUXUXUXUXUXUXUXUXUX",
"UXUXUXa.7.a.| UXUXUXUXUXUXUXUXUXUXUXUXUXUXUX+ o O O o +   & # - - UXUXUXUXUXUXUXUXUXUXUXUXUXUXUXUXUX",
"UXUXUXUXUXUXUXUXUXUXUXUXUXUXUXUXUXUXUXUXUXUXUX- $ $ - $ - - $ UXUXUXUXUXUXUXUXUXUXUXUXUXUXUXUXUXUXUX",
"UXUXUXUXUXUXUXUXUXUXUXUXUXUXUXUXUXUXUXUXUXUXUXUXUXUXUXUXUXUXUXUXUXUXUXUXUXUXUXUXUXUXUXUXUXUXUXUXUXUX"
};
